<?xml version="1.0" encoding="utf-8"?>
<!-- Generator: Adobe Illustrator 19.0.0, SVG Export Plug-In . SVG Version: 6.00 Build 0)  -->
<svg version="1.1" id="Layer_1" xmlns="http://www.w3.org/2000/svg" xmlns:xlink="http://www.w3.org/1999/xlink" x="0px" y="0px"
	 viewBox="-92 218.9 410 404" style="enable-background:new -92 218.9 410 404;" xml:space="preserve">
<style type="text/css">
	.st0{fill:#FFFFFF;}
</style>
<g id="XMLID_201_">
	<g id="XMLID_288_">
		<path id="XMLID_314_" class="st0" d="M156.4,240.7l113.3,83.4c24.2,17.8,24.2,46.6,0,64.4L157,471.9c-24.2,17.8-63.8,17.8-88,0
			l-113.3-82.8c-24.2-17.8-24.2-46.6,0-64.4L69,241.3C93.1,223.4,132.2,223.4,156.4,240.7z"/>
		<path id="XMLID_308_" class="st0" d="M157,369.5l113.3,83.4c24.2,17.8,24.2,46.6,0,64.4L157,600.7c-24.2,17.8-63.8,17.8-88,0
			l-113.3-82.8c-24.2-17.8-24.2-46.6,0-64.4L69,370.1C93.1,352.3,132.8,352.3,157,369.5z"/>
		<polygon id="XMLID_289_" class="st0" points="-62.2,497.8 288.7,497.2 288.1,356.3 -62.7,356.9 		"/>
	</g>
	<path id="XMLID_278_" d="M150.6,265.4l97.8,71.9c20.7,15.5,20.7,40.3,0,55.8L150.6,465c-20.7,15.5-54.6,15.5-75.9,0L-23,393.1
		c-20.7-15.5-20.7-40.3,0-55.8l97.8-71.9C95.4,250.5,129.9,250.5,150.6,265.4z"/>
	<path id="XMLID_274_" d="M150.6,377l97.8,71.9c20.7,15.5,20.7,40.3,0,55.8L151.2,576c-20.7,15.5-54.6,15.5-75.9,0l-97.8-71.9
		c-20.7-15.5-20.7-40.3,0-55.8l97.8-71.9C96,361.5,129.9,361.5,150.6,377z"/>
	<polygon id="XMLID_213_" points="-38.6,478.2 264.5,478.2 263.9,365.5 -38.6,365.5 	"/>
	<path id="XMLID_205_" d="M148.3,373.5l92.6,67.9c19.6,14.4,19.6,38,0,52.3l-92,67.9c-19.6,14.4-51.8,14.4-71.3,0L-15,494.3
		c-19.6-14.4-19.6-38,0-52.3l92-67.9C96.6,359.2,128.8,359.2,148.3,373.5z"/>
	<path id="XMLID_202_" class="st0" d="M138.6,297.6l66.7,48.9c14.4,10.4,14.4,27.6,0,38l-66.7,48.9c-14.4,10.4-37.4,10.4-51.8,0
		l-66.7-48.9c-14.4-10.4-14.4-27.6,0-38l66.7-48.9C101.2,287.3,124.2,287.3,138.6,297.6z"/>
</g>
</svg>
