<?xml version="1.0" encoding="utf-8"?>
<!-- Generator: Adobe Illustrator 19.0.0, SVG Export Plug-In . SVG Version: 6.00 Build 0)  -->
<svg version="1.1" id="Layer_1" xmlns="http://www.w3.org/2000/svg" xmlns:xlink="http://www.w3.org/1999/xlink" x="0px" y="0px"
	 viewBox="-154 282.9 286 276" style="enable-background:new -154 282.9 286 276;" xml:space="preserve">
<style type="text/css">
	.st0{fill:#F2B22D;}
	.st1{fill:#EB9329;}
	.st2{fill:#EAEBE8;}
	.st3{fill:#63BF8B;}
	.st4{opacity:0.36;fill:#04444E;enable-background:new    ;}
	.st5{fill:#3F3F3D;}
	.st6{fill:#1D1C1A;}
	.st7{fill:#B2ACAC;}
	.st8{fill:#A6A8AB;}
	.st9{fill:#F2F2F2;}
	.st10{opacity:0.14;fill:#1D1C1A;enable-background:new    ;}
</style>
<g id="XMLID_24_">
	<g id="XMLID_387_">
		<g id="XMLID_658_">
			<circle id="XMLID_663_" class="st0" cx="-5.9" cy="322.3" r="31.3"/>
			<circle id="XMLID_662_" class="st1" cx="-5.9" cy="322.3" r="26.1"/>
			<g id="XMLID_659_">
				<path id="XMLID_660_" class="st0" d="M-1,325.9c-0.3-0.9-0.8-1.5-1.4-1.8c-0.7-0.3-1.6-0.5-2.9-0.6c-1.3,0-2.4-0.1-3.4-0.2
					s-1.9-0.4-2.7-0.7c-0.8-0.3-1.5-0.8-2.1-1.5c-0.6-0.6-1.1-1.5-1.4-2.5c-0.6-1.8-0.6-3.4,0.2-5c0.7-1.5,2-2.7,3.8-3.6l-1.2-3.4
					l2.5-0.9l1.2,3.4c2-0.4,3.7-0.1,5.2,0.8s2.6,2.4,3.3,4.5l-4.6,1.6c-0.4-1.3-1-2.1-1.8-2.6c-0.7-0.4-1.6-0.5-2.4-0.2
					c-0.9,0.3-1.5,0.8-1.8,1.4c-0.3,0.7-0.3,1.4,0,2.3c0.3,0.8,0.7,1.4,1.4,1.7c0.6,0.3,1.7,0.5,3.1,0.6s2.6,0.2,3.6,0.3
					c1,0.2,1.8,0.4,2.6,0.8s1.4,0.9,2,1.5c0.5,0.6,1,1.4,1.3,2.4c0.6,1.8,0.6,3.5-0.1,5c-0.7,1.5-2,2.7-3.9,3.6l1.1,3.2l-2.5,0.9
					l-1.1-3.1c-2.2,0.5-4.2,0.3-5.8-0.5c-1.6-0.9-2.8-2.4-3.6-4.6l4.6-1.6c0.4,1.3,1.1,2.1,1.9,2.6s1.8,0.5,2.9,0.1
					c0.9-0.3,1.6-0.8,1.9-1.5C-0.7,327.5-0.7,326.7-1,325.9z"/>
			</g>
		</g>
		<g id="XMLID_646_">
			<circle id="XMLID_657_" class="st0" cx="-69.5" cy="359.3" r="31.3"/>
			<circle id="XMLID_656_" class="st1" cx="-69.5" cy="359.3" r="26.1"/>
			<g id="XMLID_648_">
				<path id="XMLID_649_" class="st0" d="M-64.6,362.9c-0.3-0.9-0.8-1.5-1.4-1.8c-0.7-0.3-1.6-0.5-2.9-0.6c-1.3,0-2.4-0.1-3.4-0.2
					s-1.9-0.4-2.7-0.7c-0.8-0.3-1.5-0.8-2.1-1.5c-0.6-0.6-1.1-1.5-1.4-2.5c-0.6-1.8-0.6-3.4,0.2-5c0.7-1.5,2-2.7,3.8-3.6l-1.2-3.4
					l2.5-0.9l1.2,3.4c2-0.4,3.7-0.1,5.2,0.8s2.6,2.4,3.3,4.5l-4.6,1.6c-0.4-1.3-1-2.1-1.8-2.6c-0.7-0.4-1.6-0.5-2.4-0.2
					c-0.9,0.3-1.5,0.8-1.8,1.4c-0.3,0.7-0.3,1.4,0,2.3c0.3,0.8,0.7,1.4,1.4,1.7c0.6,0.3,1.7,0.5,3.1,0.6s2.6,0.2,3.6,0.3
					c1,0.2,1.8,0.4,2.6,0.8c0.8,0.4,1.4,0.9,2,1.5c0.5,0.6,1,1.4,1.3,2.4c0.6,1.8,0.6,3.5-0.1,5c-0.7,1.5-2,2.7-3.9,3.6l1.1,3.2
					l-2.5,0.9l-1.1-3.1c-2.2,0.5-4.2,0.3-5.8-0.5c-1.6-0.9-2.8-2.4-3.6-4.6l4.6-1.6c0.4,1.3,1.1,2.1,1.9,2.6s1.8,0.5,2.9,0.1
					c0.9-0.3,1.6-0.8,1.9-1.5C-64.3,364.5-64.3,363.7-64.6,362.9z"/>
			</g>
		</g>
		<g id="XMLID_389_">
			<circle id="XMLID_397_" class="st0" cx="67.4" cy="367.8" r="31.3"/>
			<circle id="XMLID_396_" class="st1" cx="67.4" cy="367.8" r="26.1"/>
			<g id="XMLID_391_">
				<path id="XMLID_393_" class="st0" d="M66.8,373.9c0.6-0.7,0.9-1.4,0.8-2.2c0-0.7-0.4-1.7-1-2.8c-0.6-1.1-1.1-2.2-1.5-3.1
					s-0.6-1.8-0.7-2.7c-0.1-0.9,0-1.7,0.2-2.5s0.7-1.7,1.4-2.5c1.2-1.4,2.7-2.2,4.4-2.4c1.7-0.1,3.4,0.4,5,1.5l2.3-2.7l2.1,1.7
					l-2.4,2.8c1.3,1.5,2,3.1,2,4.9s-0.7,3.5-2.2,5.2l-3.7-3.1c0.9-1,1.3-2,1.3-2.8c0-0.9-0.3-1.6-1.1-2.2c-0.7-0.6-1.4-0.9-2.1-0.8
					s-1.4,0.5-2,1.2c-0.5,0.7-0.8,1.3-0.8,2s0.4,1.7,1.1,3s1.2,2.4,1.5,3.3c0.4,0.9,0.6,1.8,0.6,2.6c0.1,0.8,0,1.7-0.3,2.4
					c-0.3,0.8-0.7,1.6-1.4,2.3c-1.2,1.5-2.7,2.3-4.4,2.4c-1.7,0.1-3.4-0.4-5.1-1.6l-2.2,2.6l-2-1.7l2.1-2.5
					c-1.6-1.7-2.4-3.4-2.5-5.3s0.6-3.7,2.1-5.4l3.7,3.1c-0.9,1-1.3,2-1.3,3s0.5,1.8,1.4,2.6c0.8,0.6,1.5,0.9,2.3,0.9
					C65.5,374.9,66.2,374.5,66.8,373.9z"/>
			</g>
		</g>
	</g>
	<g id="XMLID_252_">
		<g id="XMLID_256_">
			<polygon id="XMLID_267_" class="st2" points="44.3,354.1 -118.1,354.1 -118.1,343.6 61.8,343.6 61.8,394.3 44.3,394.3 			"/>
			<path id="XMLID_261_" class="st3" d="M44.3,394.3H31.2v-7c-13,0-23.6-10-23.6-22.4h-125.7V354H44.3V394.3z"/>
			<path id="XMLID_257_" class="st2" d="M31.2,387.3v7H-70.3c-12-12.1-28.9-1.5-47.7-1.7V365H7.6C7.6,377.3,18.2,387.3,31.2,387.3z"
				/>
		</g>
		<rect id="XMLID_253_" x="-118.1" y="368.2" class="st4" width="179.9" height="72.4"/>
	</g>
	<path id="XMLID_250_" class="st5" d="M79.4,550.3H-106c-6.6,0-12-5.4-12-12v-153c0-6.6,5.4-12,12-12H79.4c6.6,0,12,5.4,12,12v153
		C91.4,544.9,86,550.3,79.4,550.3z"/>
	<path id="XMLID_249_" class="st6" d="M76.8,373.3h-181.7c-5.7,0-10.4,4.9-10.4,10.9v154.9c0,2.1,0.6,4.1,1.6,5.8l0,0
		c0,5.8,8.8,5.1,8.8,5.1H76.8c5.7,0,10.4-4.9,10.4-10.9V384.2C87.3,378.2,82.6,373.3,76.8,373.3z"/>
	<rect id="XMLID_247_" x="37.1" y="387" class="st2" width="2.5" height="5.1"/>
	<ellipse id="XMLID_232_" class="st7" cx="57.9" cy="476.8" rx="5.9" ry="6.2"/>
	<rect id="XMLID_231_" x="62.7" y="478.8" class="st8" width="2.6" height="10.9"/>
	<rect id="XMLID_224_" x="62.7" y="457" class="st8" width="2.6" height="10.9"/>
	<rect id="XMLID_222_" x="61.4" y="479.8" class="st8" width="2.6" height="10.9"/>
	<rect id="XMLID_220_" x="61.4" y="457.9" class="st8" width="2.6" height="10.9"/>
	<rect id="XMLID_218_" x="61.4" y="436.1" class="st8" width="2.6" height="10.9"/>
	<rect id="XMLID_217_" x="61" y="468.9" class="st9" width="2.6" height="10.9"/>
	<rect id="XMLID_215_" x="61" y="447" class="st9" width="2.6" height="10.9"/>
	<rect id="XMLID_212_" x="61" y="425.2" class="st9" width="2.6" height="10.9"/>
	<path id="XMLID_211_" class="st5" d="M70.3,550.3H-115c-6.6,0-12-5.4-12-12V385.4c0-6.6,5.4-12,12-12H70.3c6.6,0,12,5.4,12,12
		v152.9C82.3,544.9,76.9,550.3,70.3,550.3z"/>
	<g id="XMLID_110_">
		<g id="XMLID_142_">
			<rect id="XMLID_204_" x="40.7" y="540" class="st9" width="10.4" height="2.7"/>
			<rect id="XMLID_202_" x="17.2" y="540" class="st9" width="10.4" height="2.7"/>
			<rect id="XMLID_199_" x="-3.6" y="540" class="st9" width="10.4" height="2.7"/>
			<rect id="XMLID_198_" x="-24.5" y="540" class="st9" width="10.4" height="2.7"/>
			<rect id="XMLID_193_" x="-45.3" y="540" class="st9" width="10.4" height="2.7"/>
			<rect id="XMLID_186_" x="-66.1" y="540" class="st9" width="10.4" height="2.7"/>
			<rect id="XMLID_157_" x="-86.9" y="540" class="st9" width="10.4" height="2.7"/>
			<rect id="XMLID_156_" x="-107.8" y="540" class="st9" width="10.4" height="2.7"/>
			<path id="XMLID_150_" class="st9" d="M63.3,542.3l-0.6-2.6c3.1-0.8,5.7-3,6.8-5.9l2.4,1C70.5,538.5,67.3,541.3,63.3,542.3z"/>
			<rect id="XMLID_148_" x="70.1" y="512.5" class="st9" width="2.6" height="10.9"/>
			<rect id="XMLID_146_" x="70.1" y="403.4" class="st9" width="2.6" height="10.9"/>
			<path id="XMLID_143_" class="st9" d="M70.1,392.5c-0.1-3.1-1.7-6.1-4.5-7.8l1.3-2.3c3.5,2.2,5.7,6,5.8,10.1L70.1,392.5z"/>
		</g>
		<rect id="XMLID_139_" x="45.7" y="380.4" class="st9" width="10.4" height="2.7"/>
		<rect id="XMLID_132_" x="24.9" y="380.4" class="st9" width="10.4" height="2.7"/>
		<rect id="XMLID_128_" x="4.1" y="380.4" class="st9" width="10.4" height="2.7"/>
		<rect id="XMLID_125_" x="-16.7" y="380.4" class="st9" width="10.4" height="2.7"/>
		<rect id="XMLID_121_" x="-37.6" y="380.4" class="st9" width="10.4" height="2.7"/>
		<rect id="XMLID_120_" x="-58.4" y="380.4" class="st9" width="10.4" height="2.7"/>
		<rect id="XMLID_119_" x="-79.2" y="380.4" class="st9" width="10.4" height="2.7"/>
		<rect id="XMLID_114_" x="-100.1" y="380.4" class="st9" width="10.4" height="2.7"/>
	</g>
	<path id="XMLID_80_" class="st6" d="M84.6,423.1H70.5l0,0H52.7c0,0-21.9,2-21.9,15.4s0,24.3,0,24.3s0,10.9,0,24.3
		s21.9,15.4,21.9,15.4h26.6l0,0h5.3c0,0,11.6-2,11.6-15.4s0-24.3,0-24.3s0-10.9,0-24.3S84.6,423.1,84.6,423.1z"/>
	<ellipse id="XMLID_30_" class="st9" cx="63.9" cy="462.3" rx="9.4" ry="9.8"/>
	<path id="XMLID_22_" class="st10" d="M-126,389.4v145.4c0,8.8,7.2,16,16,16H78c8.8,0,16-7.2,16-16v-58.9
		c-24.2,21.5-93.1,70-162,2.2c-43.5-42.8-39.6-79.2-25.2-104.6h-16.7C-118.8,373.5-126,380.6-126,389.4z"/>
</g>
</svg>
