<?xml version="1.0" encoding="utf-8"?>
<!-- Generator: Adobe Illustrator 19.0.0, SVG Export Plug-In . SVG Version: 6.00 Build 0)  -->
<svg version="1.1" id="Layer_1" xmlns="http://www.w3.org/2000/svg" xmlns:xlink="http://www.w3.org/1999/xlink" x="0px" y="0px"
	 viewBox="0 0 595.3 841.9" style="enable-background:new 0 0 595.3 841.9;" xml:space="preserve">
<style type="text/css">
	.st0{fill:#E32178;}
	.st1{fill:#F3F3F3;}
	.st2{fill:#212120;}
	.st3{fill:#E12228;}
	.st4{fill:#252525;}
	.st5{fill:#1F2020;}
	.st6{opacity:3.000000e-002;fill:#062430;enable-background:new    ;}
</style>
<circle id="XMLID_109_" class="st0" cx="149.6" cy="125.7" r="90.5"/>
<circle id="XMLID_106_" class="st1" cx="149.6" cy="125.2" r="75.4"/>
<path id="XMLID_105_" class="st2" d="M149.6,62.8c-2.2,0-3.9,1.8-3.9,3.9v7.8c0,2.2,1.8,3.9,3.9,3.9s3.9-1.8,3.9-3.9v-7.9
	C153.5,64.6,151.7,62.8,149.6,62.8z"/>
<path id="XMLID_104_" class="st2" d="M194.5,80.5c-1.5-1.5-4-1.5-5.5,0l-5.5,5.5c-1.5,1.5-1.5,4,0,5.5c1.5,1.5,4,1.5,5.5,0l5.5-5.5
	C196,84.5,196,82,194.5,80.5z"/>
<path id="XMLID_103_" class="st2" d="M213.8,124.8c0-2.2-1.8-3.9-3.9-3.9h-7.8c-2.2,0-3.9,1.8-3.9,3.9c0,2.2,1.8,3.9,3.9,3.9h7.8
	C212.1,128.7,213.8,126.9,213.8,124.8z"/>
<path id="XMLID_102_" class="st2" d="M196.1,169.8c1.5-1.5,1.5-4,0-5.5l-5.5-5.5c-1.5-1.5-4-1.5-5.5,0s-1.5,4,0,5.5l5.5,5.5
	C192.2,171.3,194.6,171.3,196.1,169.8z"/>
<path id="XMLID_101_" class="st2" d="M151.8,189.1c2.2,0,3.9-1.8,3.9-3.9v-7.8c0-2.2-1.8-3.9-3.9-3.9c-2.2,0-3.9,1.8-3.9,3.9v7.8
	C147.9,187.3,149.7,189.1,151.8,189.1z"/>
<path id="XMLID_100_" class="st2" d="M106.9,171.3c1.5,1.5,4,1.5,5.5,0l5.5-5.5c1.5-1.5,1.5-4,0-5.5c-1.5-1.5-4-1.5-5.5,0l-5.5,5.5
	C105.3,167.4,105.3,169.8,106.9,171.3z"/>
<path id="XMLID_99_" class="st2" d="M87.6,127.1c0,2.2,1.8,3.9,3.9,3.9h7.8c2.2,0,3.9-1.8,3.9-3.9c0-2.2-1.8-3.9-3.9-3.9h-7.9
	C89.4,123.1,87.6,124.9,87.6,127.1z"/>
<path id="XMLID_98_" class="st2" d="M105.3,82.1c-1.5,1.5-1.5,4,0,5.5l5.5,5.5c1.5,1.5,4,1.5,5.5,0c1.5-1.5,1.5-4,0-5.5l-5.5-5.5
	C109.3,80.6,106.8,80.6,105.3,82.1z"/>
<polyline id="XMLID_97_" class="st2" points="146.9,120.1 150,81 152.3,120.1 "/>
<polyline id="XMLID_94_" class="st3" points="155.3,124.8 205.3,139.1 154.8,127.1 "/>
<polyline id="XMLID_93_" class="st2" points="148.2,130.9 119.5,157.9 144.1,127.2 "/>
<circle id="XMLID_90_" class="st4" cx="149.6" cy="125.2" r="7.9"/>
<circle id="XMLID_87_" class="st1" cx="149.6" cy="125.2" r="4.1"/>
<circle id="XMLID_84_" class="st5" cx="127.4" cy="73.6" r="2.9"/>
<circle id="XMLID_81_" class="st5" cx="170.4" cy="73" r="2.9"/>
<circle id="XMLID_78_" class="st5" cx="201.3" cy="103.1" r="2.9"/>
<circle id="XMLID_75_" class="st5" cx="201.8" cy="146.1" r="2.9"/>
<circle id="XMLID_72_" class="st5" cx="171.8" cy="176.9" r="2.9"/>
<circle id="XMLID_69_" class="st5" cx="128.7" cy="177.5" r="2.9"/>
<circle id="XMLID_66_" class="st5" cx="97.9" cy="147.5" r="2.9"/>
<circle id="XMLID_63_" class="st5" cx="97.3" cy="104.4" r="2.9"/>
<path id="XMLID_4_" class="st6" d="M149.8,54.3c-38.7,0-70.2,31.6-70.2,70.6s31.4,70.6,70.2,70.6s70.2-31.6,70.2-70.6
	S188.6,54.3,149.8,54.3z M142.1,155.1c-22.8,0-41.3-18.6-41.3-41.5s18.5-41.5,41.3-41.5s41.3,18.6,41.3,41.5
	C183.4,136.5,164.9,155.1,142.1,155.1z"/>
</svg>
