<?xml version="1.0" encoding="utf-8"?>
<!-- Generator: Adobe Illustrator 19.0.0, SVG Export Plug-In . SVG Version: 6.00 Build 0)  -->
<svg version="1.1" id="Layer_1" xmlns="http://www.w3.org/2000/svg" xmlns:xlink="http://www.w3.org/1999/xlink" x="0px" y="0px"
	 viewBox="0 0 595.3 841.9" style="enable-background:new 0 0 595.3 841.9;" xml:space="preserve">
<style type="text/css">
	.st0{display:none;}
	.st1{display:inline;fill:#00BAF2;}
	.st2{fill:#FFFFFF;stroke:#FFFFFF;stroke-width:10;stroke-miterlimit:10;}
	.st3{fill:#F1B22B;}
	.st4{fill:#EC9426;}
	.st5{opacity:0.15;fill:#1D1C1A;enable-background:new    ;}
	.st6{fill:#FFFFFF;}
	.st7{fill:#EAEBE8;}
	.st8{fill:#62C08C;}
	.st9{opacity:0.36;fill:#06444E;enable-background:new    ;}
	.st10{fill:#40403E;}
	.st11{fill:#1D1C1A;}
	.st12{opacity:0.49;fill:#1D1C1A;enable-background:new    ;}
	.st13{fill:none;}
	.st14{opacity:0.81;enable-background:new    ;}
	.st15{opacity:0.2;fill:url(#XMLID_20_);enable-background:new    ;}
	.st16{opacity:0.14;fill:#1D1C1A;enable-background:new    ;}
	.st17{fill:#F3F3F3;}
</style>
<g id="Layer_2" class="st0">
	<rect id="XMLID_1_" x="-218.3" y="69.8" class="st1" width="1002" height="694"/>
</g>
<path id="XMLID_166_" class="st2" d="M443.5,433.3l0.2-8.2l-52,2.1l-84.6,72.1l-102-33.2l-36.2,2.7l-16.1,12.1l-0.2,11.1
	c-6.2,7.1-10,16.3-10.2,26.5c-0.5,22.9,17.8,41.9,40.7,42.3c10,0.2,19.1-3.1,26.5-8.9l40.4,0.8c-7,7.3-11.4,17-11.6,28.1
	c-0.5,22.9,17.8,41.9,40.7,42.3c23.3,0,42.2-18.2,42.6-41.1c0.2-10.9-3.8-20.8-10.6-28.4l26,0.5c4.3,17.8,20.3,31.3,39.5,31.5
	c17.4,0.3,32.5-10.1,39-25.3c3.6,1.1,7.4,1.7,11.3,1.7c22.9,0.5,41.9-17.8,42.3-40.7c0.1-7.1-1.5-13.8-4.6-19.8
	c6.7-7.1,10.6-16.8,10.8-27.2C475.8,454.6,462,437.6,443.5,433.3z"/>
<path id="XMLID_165_" class="st2" d="M247.5,523.9c0-1.5-0.1-2.9-0.4-4.4l0,0C247.4,521.1,247.6,522.4,247.5,523.9l92.8,1.5v0.2
	L247.5,523.9z"/>
<g id="XMLID_629_">
	<circle id="XMLID_633_" class="st3" cx="278.9" cy="581.8" r="41.5"/>
	<circle id="XMLID_632_" class="st4" cx="278.9" cy="581.8" r="34.5"/>
	<g id="XMLID_630_">
		<path id="XMLID_631_" class="st3" d="M272.5,577c0.4,1.2,1,2,1.8,2.5c0.9,0.5,2.1,0.6,3.8,0.8c1.7,0,3.2,0.2,4.5,0.4
			s2.6,0.5,3.6,1c1.1,0.5,1.9,1.1,2.7,2c0.7,0.8,1.5,2,1.8,3.4c0.7,2.4,0.7,4.6-0.4,6.7c-0.9,2-2.6,3.6-5.1,4.7l1.6,4.6l-3.4,1.1
			l-1.6-4.6c-2.6,0.6-4.8,0.1-6.9-1.2c-1.9-1.3-3.4-3.2-4.3-6l6.1-2c0.6,1.7,1.3,2.8,2.4,3.5c0.9,0.5,2.1,0.6,3.2,0.4
			c1.2-0.4,2-1,2.5-1.8c0.5-0.9,0.5-1.8,0.1-3c-0.4-1.1-0.9-1.8-1.8-2.3c-0.7-0.5-2.3-0.7-4.1-0.8c-1.8-0.2-3.5-0.4-4.8-0.6
			c-1.4-0.3-2.4-0.5-3.5-1.1c-1.1-0.5-1.8-1.2-2.7-2c-0.6-0.8-1.3-1.8-1.6-3.2c-0.7-2.4-0.7-4.7,0.3-6.7c0.9-2,2.6-3.6,5.2-4.7
			l-1.4-4.3l3.4-1.1l1.4,4.1c2.9-0.5,5.6-0.3,7.7,0.8c2.1,1.3,3.7,3.3,4.7,6.2l-6.1,2c-0.6-1.7-1.5-2.8-2.5-3.5
			c-1-0.8-2.4-0.7-3.8-0.2c-1.2,0.4-2.1,1-2.6,1.9C272.1,574.9,272.1,575.9,272.5,577z"/>
	</g>
</g>
<g id="XMLID_624_">
	<circle id="XMLID_628_" class="st3" cx="376.1" cy="544.8" r="41.5"/>
	<circle id="XMLID_627_" class="st4" cx="376.1" cy="544.8" r="34.5"/>
	<g id="XMLID_625_">
		<path id="XMLID_626_" class="st3" d="M369.7,539.9c0.4,1.2,1,2,1.8,2.5c0.9,0.5,2.1,0.6,3.8,0.8c1.7,0,3.2,0.2,4.5,0.4
			c1.4,0.2,2.6,0.5,3.6,1c1.1,0.5,1.9,1.1,2.7,2c0.7,0.8,1.5,2,1.8,3.4c0.7,2.4,0.7,4.6-0.4,6.7c-0.9,2-2.6,3.6-5.1,4.7l1.6,4.6
			l-3.4,1.1l-1.6-4.6c-2.6,0.6-4.8,0.1-6.9-1.2c-1.9-1.3-3.4-3.2-4.3-6l6.1-2c0.6,1.7,1.3,2.8,2.4,3.5c0.9,0.5,2.1,0.6,3.2,0.4
			c1.2-0.4,2-1,2.5-1.8c0.5-0.9,0.5-1.8,0.1-3c-0.4-1.1-0.9-1.8-1.8-2.3c-0.7-0.5-2.3-0.7-4.1-0.8c-1.8-0.2-3.5-0.4-4.8-0.6
			c-1.4-0.3-2.4-0.5-3.5-1.1c-1.1-0.5-1.8-1.2-2.7-2c-0.6-0.8-1.3-1.8-1.6-3.2c-0.7-2.4-0.7-4.7,0.3-6.7c0.9-2,2.6-3.6,5.2-4.7
			l-1.4-4.3l3.4-1.1l1.4,4.1c2.9-0.5,5.6-0.3,7.7,0.8c2.1,1.3,3.7,3.3,4.7,6.2l-6.1,2c-0.6-1.7-1.5-2.8-2.5-3.5
			c-1-0.8-2.4-0.7-3.8-0.2c-1.2,0.4-2.1,1-2.6,1.9C369.3,537.7,369.3,538.8,369.7,539.9z"/>
	</g>
</g>
<path id="XMLID_73_" class="st5" d="M362.3,511.7c3.2,28,23.1,50,48.7,57.2c1.8-3.6,3.2-7.5,4.3-11.4
	C390.6,553.4,370,535.8,362.3,511.7z"/>
<g id="XMLID_619_">
	<circle id="XMLID_623_" class="st3" cx="426.4" cy="521.3" r="41.5"/>
	<circle id="XMLID_622_" class="st4" cx="426.4" cy="521.3" r="34.5"/>
	<g id="XMLID_620_">
		<path id="XMLID_621_" class="st3" d="M420,516.5c0.4,1.2,1,2,1.8,2.5c0.9,0.5,2.1,0.6,3.8,0.8c1.7,0,3.2,0.2,4.5,0.4
			c1.4,0.2,2.6,0.5,3.6,1c1.1,0.5,1.9,1.1,2.7,2c0.7,0.8,1.5,2,1.8,3.4c0.7,2.4,0.7,4.6-0.4,6.7c-0.9,2-2.6,3.6-5.1,4.7l1.6,4.6
			l-3.4,1.1l-1.6-4.6c-2.6,0.6-4.8,0.1-6.9-1.2s-3.4-3.2-4.3-6l6.1-2c0.6,1.7,1.3,2.8,2.4,3.5c0.9,0.5,2.1,0.6,3.2,0.4
			c1.2-0.4,2-1,2.5-1.8c0.5-0.9,0.5-1.8,0.1-3c-0.4-1.1-0.9-1.8-1.8-2.3c-0.7-0.5-2.3-0.7-4.1-0.8c-1.8-0.2-3.5-0.4-4.8-0.6
			c-1.4-0.3-2.4-0.5-3.5-1.1s-1.8-1.2-2.7-2c-0.6-0.8-1.3-1.8-1.6-3.2c-0.7-2.4-0.7-4.7,0.3-6.7s2.6-3.6,5.2-4.7l-1.4-4.3l3.4-1.1
			l1.4,4.1c2.9-0.5,5.6-0.3,7.7,0.8c2.1,1.3,3.7,3.3,4.7,6.2l-6.1,2c-0.6-1.7-1.5-2.8-2.5-3.5c-1-0.6-2.4-0.7-3.8-0.2
			c-1.2,0.4-2.1,1-2.6,1.9C419.6,514.3,419.6,515.4,420,516.5z"/>
	</g>
</g>
<path id="XMLID_27_" class="st5" d="M451.1,510.8c-16.5,10.8-25.4,2-41.7-6.7c-0.5,3.7-12.1,16.4-11.8,20.1
	c16.8,11.4,39.6,12.3,57.7,0.5c4.9-3.2,9-7.1,12.4-11.4c-0.9-4.6-2.6-9-4.9-12.9C459.5,504.3,455.7,507.9,451.1,510.8z"/>
<g id="XMLID_614_">
	<circle id="XMLID_618_" class="st3" cx="432.7" cy="474.3" r="41.5"/>
	<circle id="XMLID_617_" class="st4" cx="432.7" cy="474.3" r="34.5"/>
	<g id="XMLID_615_">
		<path id="XMLID_616_" class="st3" d="M426.3,469.5c0.4,1.2,1,2,1.8,2.5c0.9,0.5,2.1,0.6,3.8,0.8c1.7,0,3.2,0.2,4.5,0.4
			c1.4,0.2,2.6,0.5,3.6,1c1.1,0.5,1.9,1.1,2.7,2c0.7,0.8,1.5,2,1.8,3.4c0.7,2.4,0.7,4.6-0.4,6.7c-0.9,2-2.6,3.6-5.1,4.7l1.6,4.6
			l-3.4,1.1l-1.6-4.6c-2.6,0.6-4.8,0.1-6.9-1.2c-1.9-1.3-3.4-3.2-4.3-6l6.1-2c0.6,1.7,1.3,2.8,2.4,3.5c0.9,0.5,2.1,0.6,3.2,0.4
			c1.2-0.4,2-1,2.5-1.8c0.5-0.9,0.5-1.8,0.1-3c-0.4-1.1-0.9-1.8-1.8-2.3c-0.7-0.5-2.3-0.7-4.1-0.8c-1.8-0.2-3.5-0.4-4.8-0.6
			c-1.4-0.3-2.4-0.5-3.5-1.1s-1.8-1.2-2.7-2c-0.6-0.8-1.3-1.8-1.6-3.2c-0.7-2.4-0.7-4.7,0.3-6.7c0.9-2,2.6-3.6,5.2-4.7l-1.4-4.3
			l3.4-1.1l1.4,4.1c2.9-0.5,5.6-0.3,7.7,0.8c2.1,1.3,3.7,3.3,4.7,6.2l-6.1,2c-0.6-1.7-1.5-2.8-2.5-3.5c-1-0.6-2.4-0.7-3.8-0.2
			c-1.2,0.4-2.1,1-2.6,1.9C425.9,467.4,425.8,468.4,426.3,469.5z"/>
	</g>
</g>
<g id="XMLID_609_">
	<circle id="XMLID_613_" class="st3" cx="182.9" cy="519.8" r="41.5"/>
	<circle id="XMLID_612_" class="st4" cx="182.9" cy="519.8" r="34.5"/>
	<g id="XMLID_610_">
		<path id="XMLID_611_" class="st3" d="M183.9,511.6c-0.8,0.9-1.2,1.8-1.1,2.9c0,0.9,0.6,2.3,1.3,3.7c0.7,1.5,1.5,2.9,1.9,4.1
			c0.6,1.2,0.7,2.4,0.8,3.7c0.1,1.2,0,2.3-0.4,3.3s-1,2.3-1.9,3.3c-1.6,1.8-3.7,2.8-5.8,3.1c-2.3,0.1-4.5-0.5-6.6-2.1l-3.1,3.6
			l-2.7-2.3l3.3-3.7c-1.6-2-2.6-4.1-2.6-6.6c0-2.4,1-4.7,3-6.9l4.8,4.2c-1.2,1.3-1.7,2.7-1.7,3.8c0,1.2,0.4,2.1,1.5,2.9
			c0.9,0.8,1.8,1.2,2.7,1.1c0.9-0.1,1.8-0.6,2.6-1.6c0.6-0.9,1.1-1.6,1.1-2.7c0-0.9-0.6-2.3-1.4-4c-0.9-1.7-1.6-3.2-1.9-4.4
			c-0.6-1.2-0.7-2.4-0.7-3.5c-0.1-1.1,0-2.3,0.5-3.2c0.5-1.1,1-2.1,1.9-3c1.6-1.9,3.7-3,5.8-3.1c2.3-0.1,4.5,0.5,6.8,2.3l2.9-3.4
			l2.7,2.3l-2.8,3.3c2.1,2.3,3.1,4.6,3.2,7c0.1,2.6-0.9,4.8-2.9,7.1l-4.8-4.2c1.2-1.3,1.7-2.7,1.7-3.9s-0.6-2.4-1.7-3.5
			c-1-0.8-1.9-1.3-3-1.3C185.5,510.4,184.6,510.9,183.9,511.6z"/>
	</g>
</g>
<g id="XMLID_2_">
	<path id="XMLID_64_" class="st5" d="M413.1,520.3l-3.7,4l-47.5,60.4l22.1,4.2l25.9-45.4l7.4-3.4l8.3-23.7
		c-3.6-0.7-7.1-1.9-10.3-3.5L413.1,520.3z"/>
	<path id="XMLID_67_" class="st5" d="M464.3,450.3c0,0-0.4-1.8-1.4-4.2c-5.2-5.4-11.9-9.4-19.5-11.3c-0.2,0.3-0.2,0.4-0.2,0.4
		l-22.9,58.1l-5.7,18.8c3.2,1.6,6.7,2.8,10.3,3.5l1.1-3.1L464.3,450.3z"/>
</g>
<path id="XMLID_62_" class="st5" d="M318.5,593.9c1-2.8,1.8-5.7,2.2-8.7l-67.1-35.9c-3.2,2.6-6.1,5.7-8.5,9.1
	c-3.1,5-5.1,10.8-5.8,16.9l14-5.1L318.5,593.9z"/>
<path id="XMLID_65_" class="st5" d="M148.7,497.5c-3.2,4.9-5.4,10.5-6.4,16.5l74.3,31.1c2.1-2.9,3.9-6,5.3-9.4L148.7,497.5z"/>
<g id="XMLID_74_">
	<path id="XMLID_4_" class="st6" d="M372.1,585.6l24.3-45.6c2.8-1.8,5.7-4.5,8-8.9c8.3-15.6,15.2-28.5,15.2-28.5s6.8-12.7,15.2-28.5
		c3.7-7,3.3-12.7,1.8-16.9l24.1-45.3c8.8-3.6,16.3-10,21.1-19c10.7-20.2,3.1-45.4-17.1-56.1c-8.8-4.7-18.5-5.9-27.7-4.1l-35.7-19
		c9.5-3.3,17.9-10,23.1-19.8c10.7-20.2,3.1-45.4-17.1-56.1c-20.8-10.6-45.9-2.8-56.6,17.4c-5.1,9.6-6,20.3-3.3,30.1l-23-12.2
		c4.2-17.8-3.9-37.1-21-46c-15.4-8.2-33.5-5.7-46.2,4.9c-2.7-2.6-5.8-4.8-9.3-6.7c-20.2-10.7-45.4-3.1-56.1,17.1
		c-3.3,6.3-4.9,13-4.8,19.7c-9.2,3.4-17.1,10.1-22,19.4c-9.3,17.5-4.7,38.8,9.9,51.1l-63.5,119.6c-4.1,7.8-1.2,17.4,6.6,21.5
		l1.3,0.7c1.3,1.2,2.7,2.1,4.3,3l220.1,117C353.7,599.8,366.6,595.9,372.1,585.6z M390.5,340.5c-0.7,1.3-1.2,2.6-1.7,4.1l0,0
		C389.3,343.1,389.8,341.8,390.5,340.5l-82.1-43.4l0.1-0.1L390.5,340.5z"/>
	<path id="XMLID_54_" class="st6" d="M353.4,601.9c-4.2,0-8.4-1-12.3-3.1L121,481.7c-1.9-1-3.5-2.1-4.8-3.2l-0.8-0.4
		c-4.9-2.6-8.5-7-10.2-12.3c-1.6-5.3-1.1-11,1.5-15.9l61.7-116.1c-14.2-14.2-17.6-36.5-8-54.5c4.8-9.1,12.4-16.2,21.5-20.4
		c0.4-6.6,2.2-12.9,5.3-18.7c12.1-22.6,40.3-31.2,62.9-19.2c2.7,1.4,5,3,7.2,4.6c14.3-9.9,32.8-11.1,48.3-2.9
		c17.5,9.1,27.1,28.4,24.2,47.7l11,5.8c-0.3-8.1,1.5-16.1,5.4-23.4c12.1-22.8,39.9-31.3,63.3-19.5c11,5.9,19,15.6,22.7,27.5
		c3.6,11.9,2.4,24.5-3.4,35.4c-3.9,7.3-9.6,13.3-16.5,17.7l25.5,13.6c10.1-1.6,20.2,0.1,29.2,4.9c10.9,5.8,19,15.6,22.6,27.5
		s2.4,24.5-3.4,35.4c-4.9,9.2-12.4,16.2-21.9,20.5L442,457.7c1.5,6.1,0.6,12.4-2.8,18.7l-30.3,56.9c-2.3,4.2-5.1,7.6-8.6,10.1
		L376.5,588C371.8,596.8,362.7,601.9,353.4,601.9z M228.4,225.5c-13.1,0-25.7,7-32.3,19.3c-2.9,5.4-4.3,11.2-4.3,17.4v3.5l-3.3,1.2
		c-8.2,3-15,9-19.3,17c-8,15.1-4.4,33.9,8.7,44.9l3.1,2.6l-65.4,123.1c-1.4,2.6-1.7,5.5-0.8,8.3c0.8,2.8,2.7,5.1,5.3,6.4l1.9,1
		l0.5,0.5c0.8,0.8,1.8,1.4,3.2,2.2l220.1,117c7.9,4.2,17.7,1.2,21.9-6.7l24.9-46.8l1.1-0.7c2.5-1.5,4.6-3.9,6.2-7l30.3-56.9
		c2.5-4.6,2.9-8.8,1.5-12.9l-0.7-2.1l26-48.9l1.7-0.7c8.1-3.3,14.5-9.1,18.6-16.7c4.6-8.6,5.5-18.5,2.7-27.8s-9.1-17-17.7-21.6
		c-7.5-4-15.9-5.3-24.4-3.6l-1.7,0.3l-47.3-25.2l10.7-3.8c8.8-3.1,16-9.3,20.3-17.4c4.6-8.6,5.5-18.5,2.7-27.8
		c-2.8-9.3-9.1-17-17.7-21.6c-18.4-9.3-40.3-2.6-49.8,15.3c-4.3,8.1-5.4,17.5-2.9,26.5l3,11.2l-36.6-19.5l0.9-3.7
		c3.8-16.2-3.8-32.8-18.4-40.4c-13.2-7-29.1-5.3-40.7,4.3l-3.5,2.9l-3.2-3.2c-2.3-2.2-4.9-4.1-8.2-5.8
		C240,226.9,234.1,225.5,228.4,225.5z M393.6,346l-5.2-1.6l-0.2,0.5l-2.3-1.2l-1.8-0.5c0-0.1,0.1-0.2,0.1-0.3l-82.5-43.6l4.8-9
		l90.8,48.2l-2.4,4.4C394.4,343.8,394,344.8,393.6,346z"/>
</g>
<g id="XMLID_45_">
	<g id="XMLID_158_">
		<circle id="XMLID_162_" class="st3" cx="387.7" cy="274.6" r="41.5"/>
		<circle id="XMLID_161_" class="st4" cx="387.7" cy="274.6" r="34.5"/>
		<g id="XMLID_159_">
			<path id="XMLID_160_" class="st3" d="M391.2,281.8c0.2-1.3,0-2.2-0.5-3c-0.6-0.8-1.6-1.5-3-2.4c-1.5-0.8-2.7-1.6-3.9-2.4
				s-2.1-1.6-2.8-2.5c-0.7-0.9-1.2-1.9-1.5-3c-0.3-1-0.4-2.4,0-3.8c0.5-2.5,1.5-4.4,3.4-5.7c1.7-1.3,4-2,6.7-1.9l0.7-4.8l3.5,0.5
				l-0.7,4.8c2.6,0.7,4.3,2.1,5.6,4.2c1.2,2,1.6,4.4,1.1,7.3l-6.3-1c0.2-1.8,0.1-3-0.5-4.2c-0.6-0.8-1.6-1.5-2.7-1.8
				c-1.3-0.2-2.2,0-3,0.5c-0.8,0.6-1.3,1.4-1.4,2.7c-0.1,1.1-0.1,2,0.5,2.9c0.5,0.8,1.7,1.6,3.3,2.6s2.9,1.9,4.1,2.7
				c1.1,0.9,1.9,1.5,2.6,2.6c0.7,0.9,1,1.9,1.5,3c0.2,1,0.3,2.2,0,3.6c-0.5,2.5-1.5,4.5-3.3,5.8s-4,2-6.8,1.9l-0.7,4.5l-3.5-0.5
				l0.6-4.3c-2.8-0.8-5.2-2.2-6.5-4.2c-1.3-2.1-1.8-4.6-1.4-7.6l6.3,1c-0.2,1.8,0.1,3.1,0.6,4.3c0.6,1.2,1.9,1.7,3.3,1.9
				c1.3,0.2,2.4,0.1,3.2-0.5C390.6,283.9,391.1,283,391.2,281.8z"/>
		</g>
	</g>
	<g id="XMLID_153_">
		<circle id="XMLID_157_" class="st3" cx="284.2" cy="263.6" r="41.5"/>
		<circle id="XMLID_156_" class="st4" cx="284.2" cy="263.6" r="34.5"/>
		<g id="XMLID_154_">
			<path id="XMLID_155_" class="st3" d="M287.7,271c0.2-1.3,0-2.2-0.5-3c-0.6-0.8-1.6-1.5-3-2.4c-1.5-0.8-2.7-1.6-3.9-2.4
				c-1.1-0.8-2.1-1.6-2.8-2.5c-0.7-0.9-1.2-1.9-1.5-3c-0.3-1-0.4-2.4,0-3.8c0.5-2.5,1.5-4.4,3.4-5.7c1.7-1.3,4-2,6.7-1.9l0.7-4.8
				l3.5,0.5l-0.7,4.8c2.6,0.7,4.3,2.1,5.6,4.2c1.2,2,1.6,4.4,1.1,7.3l-6.3-1c0.2-1.8,0.1-3-0.5-4.2c-0.6-0.8-1.6-1.5-2.7-1.8
				c-1.3-0.2-2.2,0-3,0.5c-0.8,0.6-1.3,1.4-1.4,2.7c-0.1,1.1-0.1,2,0.5,2.9c0.5,0.8,1.7,1.6,3.3,2.6c1.5,1,2.9,1.9,4.1,2.7
				c1.1,0.9,1.9,1.5,2.6,2.6c0.7,0.9,1,1.9,1.5,3c0.2,1,0.3,2.2,0,3.6c-0.5,2.5-1.5,4.5-3.3,5.8c-1.7,1.3-4,2-6.8,1.9l-0.7,4.5
				l-3.5-0.5l0.6-4.3c-2.8-0.8-5.2-2.2-6.5-4.2c-1.3-2.1-1.8-4.6-1.4-7.6l6.3,1c-0.2,1.8,0.1,3.1,0.6,4.3c0.6,1.2,1.9,1.7,3.3,1.9
				c1.3,0.2,2.4,0.1,3.2-0.5C287.1,273.1,287.6,272.1,287.7,271z"/>
		</g>
	</g>
	<g id="XMLID_148_">
		<circle id="XMLID_152_" class="st3" cx="228.7" cy="261.9" r="41.5"/>
		<circle id="XMLID_151_" class="st4" cx="228.7" cy="261.9" r="34.5"/>
		<g id="XMLID_149_">
			<path id="XMLID_150_" class="st3" d="M232.3,269.1c0.2-1.3,0-2.2-0.5-3c-0.6-0.8-1.6-1.5-3-2.4c-1.5-0.8-2.7-1.6-3.9-2.4
				s-2.1-1.6-2.8-2.5s-1.2-1.9-1.5-3c-0.3-1-0.4-2.4,0-3.8c0.5-2.5,1.5-4.4,3.4-5.7c1.7-1.3,4-2,6.7-1.9l0.7-4.8l3.5,0.5l-0.7,4.8
				c2.6,0.7,4.3,2.1,5.6,4.2c1.3,2.1,1.6,4.4,1.1,7.3l-6.3-1c0.2-1.8,0.1-3-0.5-4.2c-0.6-0.8-1.6-1.5-2.7-1.8c-1.3-0.2-2.2,0-3,0.5
				c-0.8,0.6-1.3,1.4-1.4,2.7c-0.1,1.1-0.1,2,0.5,2.9c0.5,0.8,1.7,1.6,3.3,2.6c1.5,1,2.9,1.9,4.1,2.7c1.1,0.9,1.9,1.5,2.6,2.6
				c0.7,1,1,1.9,1.5,3c0.2,1,0.3,2.2,0,3.6c-0.5,2.5-1.5,4.5-3.3,5.8c-1.7,1.3-4,2-6.8,1.9l-0.7,4.5l-3.5-0.5l0.6-4.3
				c-2.8-0.8-5.2-2.2-6.5-4.2c-1.3-2.1-1.8-4.6-1.4-7.6l6.3,1c-0.2,1.8,0.1,3.1,0.6,4.3c0.7,1,1.9,1.7,3.3,1.9
				c1.3,0.2,2.4,0.1,3.2-0.5C231.7,271.2,232.2,270.2,232.3,269.1z"/>
		</g>
	</g>
	<g id="XMLID_143_">
		<circle id="XMLID_147_" class="st3" cx="201.9" cy="300.9" r="41.5"/>
		<circle id="XMLID_146_" class="st4" cx="201.9" cy="300.9" r="34.5"/>
		<g id="XMLID_144_">
			<path id="XMLID_145_" class="st3" d="M205.5,308.1c0.2-1.3,0-2.2-0.5-3c-0.6-0.8-1.6-1.5-3-2.4c-1.5-0.8-2.7-1.6-3.9-2.4
				s-2.1-1.6-2.8-2.5s-1.2-1.9-1.5-3c-0.3-1-0.4-2.4,0-3.8c0.5-2.5,1.5-4.4,3.4-5.7c1.7-1.3,4-2,6.7-1.9l0.7-4.8l3.5,0.5l-0.7,4.8
				c2.6,0.7,4.3,2.1,5.6,4.2c1.2,2,1.6,4.4,1.1,7.3l-6.3-1c0.2-1.8,0.1-3-0.5-4.2c-0.6-0.8-1.6-1.5-2.7-1.8c-1.3-0.2-2.2,0-3,0.5
				c-0.8,0.6-1.3,1.4-1.4,2.7c-0.1,1.1-0.1,2,0.5,2.9c0.5,0.8,1.7,1.6,3.3,2.6c1.5,1,2.9,1.9,4.1,2.7c1.1,0.9,1.9,1.5,2.6,2.6
				s1,1.9,1.5,3c0.2,1,0.3,2.2,0,3.6c-0.5,2.5-1.5,4.5-3.3,5.8c-1.7,1.3-4,2-6.8,1.9l-0.7,4.5l-3.5-0.5l0.6-4.3
				c-2.8-0.8-5.2-2.2-6.5-4.2c-1.3-2.1-1.8-4.6-1.4-7.6l6.3,1c-0.2,1.8,0.1,3.1,0.6,4.3c0.7,1,1.9,1.7,3.3,1.9
				c1.3,0.2,2.4,0.1,3.2-0.5C204.9,310.2,205.4,309.3,205.5,308.1z"/>
		</g>
	</g>
	<g id="XMLID_132_">
		<circle id="XMLID_142_" class="st3" cx="445.2" cy="373.4" r="41.5"/>
		<circle id="XMLID_141_" class="st4" cx="445.2" cy="373.4" r="34.5"/>
		<g id="XMLID_133_">
			<path id="XMLID_140_" class="st3" d="M440.7,380.3c1.1-0.4,1.9-1,2.3-2c0.4-0.8,0.5-2.3,0.5-3.8c0-1.7,0-3.3,0.2-4.5
				c0-1.4,0.5-2.5,0.9-3.6s1.1-2,1.8-2.8c0.8-0.8,1.9-1.6,3.2-2.1c2.2-0.9,4.6-0.8,6.6-0.1c2.1,0.9,3.8,2.5,5,4.9l4.4-1.8l1.3,3.3
				l-4.6,1.8c0.5,2.5,0.5,4.9-0.7,7c-1.1,2.1-3,3.7-5.8,4.8l-2.4-5.9c1.7-0.6,2.8-1.6,3.2-2.6c0.6-1.1,0.6-2.1,0-3.3
				c-0.4-1.1-1-1.9-1.9-2.2c-0.9-0.3-1.9-0.3-3.1,0.3c-1,0.5-1.7,1-2.2,1.9c-0.4,0.8-0.5,2.3-0.5,4.2c0,1.9,0,3.6-0.3,4.8
				c0,1.4-0.5,2.5-1,3.4c-0.4,1-1.1,2-1.9,2.6c-0.9,0.7-1.8,1.4-3,1.8c-2.3,1-4.6,1-6.6,0.1c-2.1-0.9-3.8-2.5-5-5.1l-4.2,1.7
				l-1.3-3.3l4-1.7c-0.8-3-0.7-5.5,0.3-7.7c1.1-2.3,2.9-3.9,5.8-5l2.4,5.9c-1.7,0.6-2.8,1.6-3.3,2.7s-0.6,2.4,0,3.9
				c0.6,1.2,1.2,2,2.1,2.5C438.7,380.5,439.7,380.6,440.7,380.3z"/>
		</g>
	</g>
</g>
<g id="XMLID_126_">
	<g id="XMLID_128_">
		<polygon id="XMLID_131_" class="st7" points="419.6,338.4 229.4,237.5 235.9,225.2 446.6,337 415,396.4 394.5,385.5 		"/>
		<path id="XMLID_130_" class="st8" d="M394.5,385.5l-15.4-8.2l4.3-8.2c-15.2-8.1-21.5-26.4-13.7-40.9l-147-78.2l6.8-12.7
			l190.1,100.9L394.5,385.5z"/>
		<path id="XMLID_129_" class="st7" d="M383.6,369.2l-4.3,8.2l-118.8-63.1c-6.5-21.6-32.9-19.7-54.7-31.6l17.2-32.3l147,78.1
			C362.2,342.9,368.4,361.1,383.6,369.2z"/>
	</g>
	
		<rect id="XMLID_127_" x="184.2" y="304.5" transform="matrix(-0.8833 -0.4689 0.4689 -0.8833 406.0858 806.1884)" class="st9" width="238.4" height="96"/>
</g>
<path id="XMLID_125_" class="st10" d="M346.8,594.5l-217-115.3c-7.8-4.1-10.7-13.8-6.6-21.5l95-179.1c4.1-7.8,13.8-10.7,21.5-6.6
	l217.1,115.3c7.8,4.1,10.7,13.8,6.6,21.5l-95,179.1C364.2,595.6,354.6,598.6,346.8,594.5z"/>
<path id="XMLID_124_" class="st11" d="M453.8,385.6L241.1,272.7c-6.7-3.6-15.2-0.7-19,6.4l-96.3,181.4c-1.3,2.4-1.9,5.2-1.8,7.8l0,0
	c-3.6,6.8,7.1,11.5,7.1,11.5l212.7,112.9c6.7,3.6,15.2,0.7,19-6.4L459.1,405C463,397.9,460.6,389.3,453.8,385.6z"/>
<path id="XMLID_384_" class="st12" d="M424.8,439.6l-16.6-8.5l0,0l-21-10.8c0,0-27-10.9-35.2,4.9c-8.1,15.8-14.8,28.7-14.8,28.7
	s-6.6,12.8-14.8,28.7c-8.1,15.8,16.5,31.5,16.5,31.5l31.4,16.1l0,0l6.2,3.1c0,0,14.9,4.7,22.9-11.1s14.8-28.7,14.8-28.7
	s6.6-12.8,14.8-28.7C437.3,449,424.8,439.6,424.8,439.6z"/>
<g id="XMLID_14_">
	<polygon id="XMLID_34_" class="st13" points="431,435.7 449.8,420.6 449.8,420.5 431,435.6 	"/>
	<polygon id="XMLID_33_" class="st7" points="449.8,420.5 449.8,420.5 449.8,420.6 431,435.7 430.9,457 468,427.4 431.3,381.6 
		431.2,397.2 	"/>
	<polygon id="XMLID_32_" class="st8" points="431,435.6 449.8,420.5 431.2,397.4 	"/>
	<polygon id="XMLID_24_" class="st8" points="449.8,420.5 449.8,420.5 431.2,397.2 431.2,397.4 	"/>
</g>
<g id="XMLID_7_">
	<polygon id="XMLID_12_" class="st13" points="237.8,525.2 241.7,549 241.8,549 237.9,525.2 	"/>
	<polygon id="XMLID_10_" class="st7" points="241.8,549.1 241.8,549 241.7,549 237.8,525.2 219.3,514.6 226.9,561.5 284.8,552.1 
		271.2,544.3 	"/>
	<polygon id="XMLID_9_" class="st8" points="237.9,525.2 241.8,549 271.1,544.2 	"/>
	<polygon id="XMLID_8_" class="st8" points="241.8,549 241.8,549.1 271.2,544.3 271.1,544.2 	"/>
</g>
<polygon id="XMLID_25_" class="st9" points="271.2,543.9 271.1,543.8 237.9,524.8 237.8,524.8 219.3,514.2 222.3,532.4 257.6,556.1 
	284.8,551.6 "/>
<path id="XMLID_11_" class="st9" d="M456.5,408.5l-5.2-8l-20.1,34.1l-1.5,13.8l9.3,6.3c0,0,8.5-4.9,3.4-17.8L456.5,408.5z"/>
<polygon id="XMLID_59_" class="st5" points="446.6,337 449.4,353.7 426.9,376.9 "/>
<path id="XMLID_117_" class="st10" d="M336.3,588.8l-217-115.1c-7.8-4.1-10.7-13.8-6.6-21.5l95-179c4.1-7.8,13.8-10.7,21.5-6.6
	l217,115.1c7.8,4.1,10.7,13.8,6.6,21.5l-95,179C353.7,590,343.9,592.9,336.3,588.8z"/>
<g id="XMLID_5_" class="st14">
	<g id="XMLID_36_">
		
			<rect id="XMLID_49_" x="304.4" y="563.6" transform="matrix(-0.8833 -0.4689 0.4689 -0.8833 321.212 1210.7821)" class="st11" width="13.8" height="3.6"/>
		
			<rect id="XMLID_48_" x="276.8" y="549.1" transform="matrix(-0.8833 -0.4689 0.4689 -0.8833 276.0039 1170.5216)" class="st11" width="13.8" height="3.6"/>
		
			<rect id="XMLID_47_" x="252.5" y="536.1" transform="matrix(-0.8833 -0.4689 0.4689 -0.8833 236.3601 1134.6841)" class="st11" width="13.8" height="3.6"/>
		
			<rect id="XMLID_46_" x="228" y="523.2" transform="matrix(-0.8833 -0.4689 0.4689 -0.8833 196.2594 1098.9285)" class="st11" width="13.8" height="3.6"/>
		
			<rect id="XMLID_44_" x="203.7" y="510.1" transform="matrix(-0.8833 -0.4689 0.4689 -0.8833 156.666 1062.8289)" class="st11" width="13.8" height="3.6"/>
		
			<rect id="XMLID_43_" x="179.3" y="497.3" transform="matrix(-0.8833 -0.4689 0.4689 -0.8833 116.6977 1027.2678)" class="st11" width="13.8" height="3.6"/>
		
			<rect id="XMLID_42_" x="155" y="484.4" transform="matrix(-0.8833 -0.4689 0.4689 -0.8833 76.9239 991.5748)" class="st11" width="13.8" height="3.6"/>
		
			<rect id="XMLID_41_" x="130.5" y="471.5" transform="matrix(-0.8833 -0.4689 0.4689 -0.8833 36.8233 955.8193)" class="st11" width="13.8" height="3.6"/>
		<path id="XMLID_40_" class="st11" d="M331.2,577.2l1-3.4c4.1,1,8.5,0.1,11.6-2.8l2.2,2.7C342,577.3,336.4,578.7,331.2,577.2z"/>
		
			<rect id="XMLID_39_" x="354" y="546.6" transform="matrix(0.8826 0.4701 -0.4701 0.8826 302.1233 -102.2402)" class="st11" width="3.5" height="14.4"/>
		
			<rect id="XMLID_38_" x="421.8" y="418.9" transform="matrix(0.8826 0.4701 -0.4701 0.8826 250.0268 -149.1133)" class="st11" width="3.5" height="14.4"/>
		<path id="XMLID_37_" class="st11" d="M432.3,406.2c1.8-3.7,1.8-8.2-0.4-11.9l2.9-1.9c2.8,4.7,3,10.5,0.6,15.4L432.3,406.2z"/>
	</g>
	
		<rect id="XMLID_35_" x="409.5" y="379.9" transform="matrix(-0.8833 -0.4689 0.4689 -0.8833 605.2504 914.1164)" class="st11" width="13.8" height="3.6"/>
	
		<rect id="XMLID_31_" x="385.1" y="367.1" transform="matrix(-0.8833 -0.4689 0.4689 -0.8833 565.2823 878.5555)" class="st11" width="13.8" height="3.6"/>
	
		<rect id="XMLID_29_" x="360.8" y="354.1" transform="matrix(-0.8833 -0.4689 0.4689 -0.8833 525.6383 842.7178)" class="st11" width="13.8" height="3.6"/>
	
		<rect id="XMLID_17_" x="336.4" y="341.3" transform="matrix(-0.8833 -0.4689 0.4689 -0.8833 485.67 807.1569)" class="st11" width="13.8" height="3.6"/>
	
		<rect id="XMLID_16_" x="312" y="328.1" transform="matrix(-0.8833 -0.4689 0.4689 -0.8833 445.9442 770.8626)" class="st11" width="13.8" height="3.6"/>
	
		<rect id="XMLID_15_" x="287.6" y="315.3" transform="matrix(-0.8833 -0.4689 0.4689 -0.8833 405.9761 735.3016)" class="st11" width="13.8" height="3.6"/>
	
		<rect id="XMLID_13_" x="263.3" y="302.4" transform="matrix(-0.8833 -0.4689 0.4689 -0.8833 366.2023 699.6086)" class="st11" width="13.8" height="3.6"/>
	
		<rect id="XMLID_6_" x="238.7" y="289.5" transform="matrix(-0.8833 -0.4689 0.4689 -0.8833 325.9574 663.7231)" class="st11" width="13.8" height="3.6"/>
</g>
<linearGradient id="XMLID_20_" gradientUnits="userSpaceOnUse" x1="110.9424" y1="414.38" x2="454.7576" y2="414.38" gradientTransform="matrix(1 0 0 -1 0 841.87)">
	<stop  offset="0" style="stop-color:#FFFFFF"/>
	<stop  offset="1" style="stop-color:#000000"/>
</linearGradient>
<path id="XMLID_28_" class="st15" d="M336.4,588.6l-217-115.1c-7.8-4.1-10.7-13.8-6.6-21.5l95-179c4.1-7.8,13.8-10.7,21.5-6.6
	l217,115.1c7.8,4.1,10.7,13.8,6.6,21.5l-95,179C353.7,589.8,344,592.7,336.4,588.6z"/>
<path id="XMLID_53_" class="st16" d="M206.3,274.3L116,444.4c-5.5,10.3-1.5,23.2,8.7,28.7l220,116.8c10.3,5.5,23.2,1.5,28.7-8.7
	l36.5-68.9c-41.7,10-152.5,24.1-191-98.1c-24.3-77.1,2.8-117.4,35.5-138.1l-19.5-10.4C224.6,260.2,211.8,264,206.3,274.3z"/>
<path id="XMLID_51_" class="st11" d="M432.4,443.8l-16.6-8.5l0,0l-21-10.8c0,0-27-10.9-35.2,4.9c-8.1,15.8-14.8,28.7-14.8,28.7
	s-6.6,12.8-14.8,28.7c-8.1,15.8,16.5,31.5,16.5,31.5l31.4,16.1l0,0l6.2,3.1c0,0,14.9,4.7,22.9-11.1s14.8-28.7,14.8-28.7
	s6.6-12.8,14.8-28.7C444.9,453.2,432.4,443.8,432.4,443.8z"/>
<circle id="XMLID_3_" class="st17" cx="377.7" cy="472.8" r="11.1"/>
<g id="XMLID_55_">
	<g id="XMLID_104_">
		
			<rect id="XMLID_116_" x="306.2" y="561.4" transform="matrix(-0.8833 -0.4689 0.4689 -0.8833 325.6308 1207.5121)" class="st17" width="13.8" height="3.6"/>
		
			<rect id="XMLID_115_" x="278.6" y="546.9" transform="matrix(-0.8833 -0.4689 0.4689 -0.8833 280.4227 1167.2513)" class="st17" width="13.8" height="3.6"/>
		
			<rect id="XMLID_114_" x="254.3" y="533.9" transform="matrix(-0.8833 -0.4689 0.4689 -0.8833 240.7789 1131.4138)" class="st17" width="13.8" height="3.6"/>
		
			<rect id="XMLID_113_" x="229.8" y="521" transform="matrix(-0.8833 -0.4689 0.4689 -0.8833 200.6782 1095.6582)" class="st17" width="13.8" height="3.6"/>
		
			<rect id="XMLID_112_" x="205.5" y="508" transform="matrix(-0.8833 -0.4689 0.4689 -0.8833 160.9551 1059.7029)" class="st17" width="13.8" height="3.6"/>
		
			<rect id="XMLID_111_" x="181.1" y="495.1" transform="matrix(-0.8833 -0.4689 0.4689 -0.8833 121.1165 1023.9976)" class="st17" width="13.8" height="3.6"/>
		
			<rect id="XMLID_110_" x="156.8" y="482.2" transform="matrix(-0.8833 -0.4689 0.4689 -0.8833 81.3427 988.3045)" class="st17" width="13.8" height="3.6"/>
		
			<rect id="XMLID_109_" x="132.3" y="469.3" transform="matrix(-0.8833 -0.4689 0.4689 -0.8833 41.2422 952.549)" class="st17" width="13.8" height="3.6"/>
		<path id="XMLID_108_" class="st17" d="M333,575.1l1-3.4c4.1,1,8.5,0.1,11.6-2.8l2.2,2.7C343.7,575.1,338.2,576.5,333,575.1z"/>
		
			<rect id="XMLID_107_" x="355.8" y="544.4" transform="matrix(0.8826 0.4701 -0.4701 0.8826 301.2975 -103.3156)" class="st17" width="3.5" height="14.4"/>
		
			<rect id="XMLID_106_" x="423.7" y="416.7" transform="matrix(0.8826 0.4701 -0.4701 0.8826 249.2335 -150.2246)" class="st17" width="3.5" height="14.4"/>
		<path id="XMLID_105_" class="st17" d="M434,404c1.8-3.7,1.8-8.2-0.4-11.9l2.9-1.9c2.8,4.7,3,10.5,0.6,15.4L434,404z"/>
	</g>
	
		<rect id="XMLID_103_" x="411.3" y="377.7" transform="matrix(-0.8833 -0.4689 0.4689 -0.8833 609.6693 910.8461)" class="st17" width="13.8" height="3.6"/>
	
		<rect id="XMLID_102_" x="386.9" y="364.9" transform="matrix(-0.8833 -0.4689 0.4689 -0.8833 569.7012 875.2851)" class="st17" width="13.8" height="3.6"/>
	
		<rect id="XMLID_101_" x="362.6" y="351.9" transform="matrix(-0.8833 -0.4689 0.4689 -0.8833 530.0569 839.4477)" class="st17" width="13.8" height="3.6"/>
	
		<rect id="XMLID_100_" x="338.2" y="339.1" transform="matrix(-0.8833 -0.4689 0.4689 -0.8833 490.0888 803.8868)" class="st17" width="13.8" height="3.6"/>
	
		<rect id="XMLID_99_" x="313.8" y="325.9" transform="matrix(-0.8833 -0.4689 0.4689 -0.8833 450.363 767.5923)" class="st17" width="13.8" height="3.6"/>
	
		<rect id="XMLID_98_" x="289.4" y="313.1" transform="matrix(-0.8833 -0.4689 0.4689 -0.8833 410.3949 732.0313)" class="st17" width="13.8" height="3.6"/>
	
		<rect id="XMLID_97_" x="265" y="300.2" transform="matrix(-0.8833 -0.4689 0.4689 -0.8833 370.4768 696.2086)" class="st17" width="13.8" height="3.6"/>
	
		<rect id="XMLID_96_" x="240.5" y="287.3" transform="matrix(-0.8833 -0.4689 0.4689 -0.8833 330.3763 660.4528)" class="st17" width="13.8" height="3.6"/>
</g>
<circle id="XMLID_18_" class="st17" cx="377.7" cy="472.8" r="11.1"/>
<path id="XMLID_60_" class="st16" d="M344.9,517c0,0-24.6-15.7-16.5-31.5c8.1-15.9,14.8-28.7,14.8-28.7s6.7-12.9,14.8-28.7
	c2.5-4.8,6.7-7.1,11.3-8c-7.8-0.7-16.5,0.5-20.6,8.4c-8.1,15.8-14.8,28.7-14.8,28.7s-6.6,12.8-14.8,28.7c-6.6,13,8.9,25.9,14.5,30.1
	C337.4,516.4,341.2,516.8,344.9,517L344.9,517z"/>
</svg>
