<?xml version="1.0" encoding="utf-8"?>
<!-- Generator: Adobe Illustrator 19.0.0, SVG Export Plug-In . SVG Version: 6.00 Build 0)  -->
<svg version="1.1" id="Layer_1" xmlns="http://www.w3.org/2000/svg" xmlns:xlink="http://www.w3.org/1999/xlink" x="0px" y="0px"
	 viewBox="-3 273.8 588 295.1" style="enable-background:new -3 273.8 588 295.1;" xml:space="preserve">
<style type="text/css">
	.st0{display:none;}
	.st1{display:inline;fill:#EB9329;}
	.st2{display:inline;}
	.st3{fill:#FFFFFF;stroke:#FFFFFF;stroke-width:10;stroke-miterlimit:10;}
	.st4{fill:#F2B22D;}
	.st5{fill:#EB9329;}
	.st6{fill:#EAEBE8;}
	.st7{fill:#63BF8B;}
	.st8{opacity:0.36;fill:#04444E;enable-background:new    ;}
	.st9{fill:#3F3F3D;}
	.st10{fill:#1D1C1A;}
	.st11{fill:#B2ACAC;}
	.st12{fill:#A6A8AB;}
	.st13{fill:#F2F2F2;}
	.st14{opacity:0.14;fill:#1D1C1A;enable-background:new    ;}
</style>
<g id="Layer_2" class="st0">
	<rect x="-496.4" y="496.9" class="st1" width="858" height="359"/>
</g>
<g id="lid" class="st0">
	<g class="st2">
		<path class="st3" d="M70.2,765.9v-34.1c1.1-1.9,1.9-4.4,1.9-7.7c0-11.7,0-21.3,0-21.3s0-9.5,0-21.3c0-5.2-2-8.4-4.2-10.4v-33.9
			c4-4.8,6.4-10.9,6.4-17.6c0-15.1-12.3-27.4-27.4-27.4c-6.6,0-12.6,2.3-17.4,6.2H2.8c4.5-4.9,7.3-11.4,7.3-18.7
			c0-15.1-12.3-27.4-27.4-27.4c-15.4,0.3-27.6,12.6-27.6,27.7c0,7.2,2.8,13.7,7.4,18.6h-17.2c-3.1-11.7-13.8-20.4-26.5-20.3
			c-11.5,0-21.3,7.1-25.4,17.2c-2.4-0.7-4.9-1-7.5-1c-15.1,0-27.4,12.3-27.4,27.4c0,4.7,1.2,9.1,3.3,13c-4.3,4.8-6.8,11.2-6.8,18.1
			c0,13.1,9.3,24.1,21.6,26.7l0.1,89.4c0,5.8,4.7,10.5,10.5,10.5h1c1.1,0.3,2.2,0.4,3.4,0.4l164.6-0.1
			C63.9,779.9,70.2,773.6,70.2,765.9z M4.8,617.3c0,1,0.1,1.9,0.3,2.9l0,0C4.9,619.2,4.8,618.3,4.8,617.3l-61.3,0.2v-0.1L4.8,617.3z
			"/>
		<g>
			<g id="XMLID_314_">
				<circle id="XMLID_318_" class="st4" cx="-16.7" cy="579.5" r="27.4"/>
				<circle id="XMLID_317_" class="st5" cx="-16.7" cy="579.5" r="22.8"/>
				<g id="XMLID_315_">
					<path id="XMLID_316_" class="st4" d="M-12.4,582.6c-0.3-0.8-0.7-1.3-1.2-1.6c-0.6-0.3-1.4-0.4-2.5-0.5c-1.1,0-2.1-0.1-3-0.2
						c-0.9-0.1-1.7-0.3-2.4-0.6c-0.7-0.3-1.3-0.7-1.8-1.3c-0.5-0.5-1-1.3-1.2-2.2c-0.5-1.6-0.5-3,0.2-4.4c0.6-1.3,1.7-2.4,3.3-3.2
						l-1.1-3l2.2-0.8l1.1,3c1.7-0.4,3.2-0.1,4.6,0.7c1.3,0.8,2.3,2.1,2.9,3.9l-4,1.4c-0.4-1.1-0.9-1.8-1.6-2.3
						c-0.6-0.3-1.4-0.4-2.1-0.2c-0.8,0.3-1.3,0.7-1.6,1.2c-0.3,0.6-0.3,1.2,0,2c0.3,0.7,0.6,1.2,1.2,1.5c0.5,0.3,1.5,0.4,2.7,0.5
						c1.2,0.1,2.3,0.2,3.2,0.3c0.9,0.2,1.6,0.3,2.3,0.7c0.7,0.3,1.2,0.8,1.8,1.3c0.4,0.5,0.9,1.2,1.1,2.1c0.5,1.6,0.5,3.1-0.1,4.4
						s-1.7,2.4-3.4,3.2l1,2.8l-2.2,0.8l-1-2.7c-1.9,0.4-3.7,0.3-5.1-0.4c-1.4-0.8-2.5-2.1-3.2-4l4-1.4c0.4,1.1,1,1.8,1.7,2.3
						c0.7,0.5,1.6,0.4,2.5,0.1c0.8-0.3,1.4-0.7,1.7-1.3C-12.1,584-12.1,583.3-12.4,582.6z"/>
				</g>
			</g>
			<g id="XMLID_309_">
				<circle id="XMLID_313_" class="st4" cx="-80.4" cy="605.2" r="27.4"/>
				<circle id="XMLID_312_" class="st5" cx="-80.4" cy="605.2" r="22.8"/>
				<g id="XMLID_310_">
					<path id="XMLID_311_" class="st4" d="M-76.1,608.4c-0.3-0.8-0.7-1.3-1.2-1.6c-0.6-0.3-1.4-0.4-2.5-0.5c-1.1,0-2.1-0.1-3-0.2
						c-0.9-0.1-1.7-0.3-2.4-0.6c-0.7-0.3-1.3-0.7-1.8-1.3c-0.5-0.5-1-1.3-1.2-2.2c-0.5-1.6-0.5-3,0.2-4.4c0.6-1.3,1.7-2.4,3.3-3.2
						l-1.1-3l2.2-0.8l1.1,3c1.7-0.4,3.2-0.1,4.6,0.7c1.3,0.8,2.3,2.1,2.9,3.9l-4,1.4c-0.4-1.1-0.9-1.8-1.6-2.3
						c-0.6-0.3-1.4-0.4-2.1-0.2c-0.8,0.3-1.3,0.7-1.6,1.2c-0.3,0.6-0.3,1.2,0,2c0.3,0.7,0.6,1.2,1.2,1.5c0.5,0.3,1.5,0.4,2.7,0.5
						c1.2,0.1,2.3,0.2,3.2,0.3c0.9,0.2,1.6,0.3,2.3,0.7c0.7,0.3,1.2,0.8,1.8,1.3c0.4,0.5,0.9,1.2,1.1,2.1c0.5,1.6,0.5,3.1-0.1,4.4
						s-1.7,2.4-3.4,3.2l1,2.8l-2.2,0.8l-1-2.7c-1.9,0.4-3.7,0.3-5.1-0.4c-1.4-0.8-2.5-2.1-3.2-4l4-1.4c0.4,1.1,1,1.8,1.7,2.3
						s1.6,0.4,2.5,0.1c0.8-0.3,1.4-0.7,1.7-1.3C-75.8,609.8-75.8,609.1-76.1,608.4z"/>
				</g>
			</g>
			<g id="XMLID_304_">
				<circle id="XMLID_308_" class="st4" cx="-113.3" cy="621.4" r="27.4"/>
				<circle id="XMLID_307_" class="st5" cx="-113.3" cy="621.4" r="22.8"/>
				<g id="XMLID_305_">
					<path id="XMLID_306_" class="st4" d="M-109,624.5c-0.3-0.8-0.7-1.3-1.2-1.6c-0.6-0.3-1.4-0.4-2.5-0.5c-1.1,0-2.1-0.1-3-0.2
						c-0.9-0.1-1.7-0.3-2.4-0.6c-0.7-0.3-1.3-0.7-1.8-1.3c-0.5-0.5-1-1.3-1.2-2.2c-0.5-1.6-0.5-3,0.2-4.4c0.6-1.3,1.7-2.4,3.3-3.2
						l-1.1-3l2.2-0.8l1.1,3c1.7-0.4,3.2-0.1,4.6,0.7c1.4,0.8,2.3,2.1,2.9,3.9l-4,1.4c-0.4-1.1-0.9-1.8-1.6-2.3
						c-0.6-0.3-1.4-0.4-2.1-0.2c-0.8,0.3-1.3,0.7-1.6,1.2c-0.3,0.6-0.3,1.2,0,2c0.3,0.7,0.6,1.2,1.2,1.5c0.5,0.3,1.5,0.4,2.7,0.5
						c1.2,0.1,2.3,0.2,3.2,0.3c0.9,0.2,1.6,0.3,2.3,0.7s1.2,0.8,1.8,1.3c0.4,0.5,0.9,1.2,1.1,2.1c0.5,1.6,0.5,3.1-0.1,4.4
						s-1.7,2.4-3.4,3.2l1,2.8l-2.2,0.8l-1-2.7c-1.9,0.4-3.7,0.3-5.1-0.4c-1.4-0.8-2.5-2.1-3.2-4l4-1.4c0.4,1.1,1,1.8,1.7,2.3
						c0.7,0.4,1.6,0.4,2.5,0.1c0.8-0.3,1.4-0.7,1.7-1.3C-108.7,625.9-108.7,625.2-109,624.5z"/>
				</g>
			</g>
			<g id="XMLID_299_">
				<circle id="XMLID_303_" class="st4" cx="-116.8" cy="652.5" r="27.4"/>
				<circle id="XMLID_302_" class="st5" cx="-116.8" cy="652.5" r="22.8"/>
				<g id="XMLID_300_">
					<path id="XMLID_301_" class="st4" d="M-112.5,655.6c-0.3-0.8-0.7-1.3-1.2-1.6c-0.6-0.3-1.4-0.4-2.5-0.5c-1.1,0-2.1-0.1-3-0.2
						c-0.9-0.1-1.7-0.3-2.4-0.6c-0.7-0.3-1.3-0.7-1.8-1.3c-0.5-0.5-1-1.3-1.2-2.2c-0.5-1.6-0.5-3,0.2-4.4c0.6-1.3,1.7-2.4,3.3-3.2
						l-1.1-3l2.2-0.8l1.1,3c1.7-0.4,3.2-0.1,4.6,0.7c1.3,0.8,2.3,2.1,2.9,3.9l-4,1.4c-0.4-1.1-0.9-1.8-1.6-2.3
						c-0.6-0.3-1.4-0.4-2.1-0.2c-0.8,0.3-1.3,0.7-1.6,1.2c-0.3,0.6-0.3,1.2,0,2c0.3,0.7,0.6,1.2,1.2,1.5c0.5,0.3,1.5,0.4,2.7,0.5
						c1.2,0.1,2.3,0.2,3.2,0.3c0.9,0.2,1.6,0.3,2.3,0.7s1.2,0.8,1.8,1.3c0.4,0.5,0.9,1.2,1.1,2.1c0.5,1.6,0.5,3.1-0.1,4.4
						s-1.7,2.4-3.4,3.2l1,2.8l-2.2,0.8l-1-2.7c-1.9,0.4-3.7,0.3-5.1-0.4c-1.4-0.8-2.5-2.1-3.2-4l4-1.4c0.4,1.1,1,1.8,1.7,2.3
						c0.7,0.4,1.6,0.4,2.5,0.1c0.8-0.3,1.4-0.7,1.7-1.3C-112.2,657-112.2,656.3-112.5,655.6z"/>
				</g>
			</g>
			<g id="XMLID_294_">
				<circle id="XMLID_298_" class="st4" cx="47.5" cy="619.2" r="27.4"/>
				<circle id="XMLID_297_" class="st5" cx="47.5" cy="619.2" r="22.8"/>
				<g id="XMLID_295_">
					<path id="XMLID_296_" class="st4" d="M47,624.6c0.5-0.6,0.8-1.2,0.7-1.9c0-0.6-0.4-1.5-0.9-2.4c-0.5-1-1-1.9-1.3-2.7
						c-0.4-0.8-0.5-1.6-0.6-2.4s0-1.5,0.2-2.2s0.6-1.5,1.2-2.2c1-1.2,2.4-1.9,3.8-2.1c1.5-0.1,3,0.3,4.4,1.3l2-2.4l1.8,1.5l-2.1,2.5
						c1.1,1.3,1.8,2.7,1.8,4.3s-0.6,3.1-1.9,4.6l-3.2-2.7c0.8-0.9,1.1-1.8,1.1-2.5c0-0.8-0.3-1.4-1-1.9c-0.6-0.5-1.2-0.8-1.8-0.7
						s-1.2,0.4-1.7,1.1c-0.4,0.6-0.7,1.1-0.7,1.8c0,0.6,0.4,1.5,1,2.6c0.6,1.1,1.1,2.1,1.3,2.9c0.4,0.8,0.5,1.6,0.5,2.3
						c0.1,0.7,0,1.5-0.3,2.1c-0.3,0.7-0.6,1.4-1.2,2c-1,1.3-2.4,2-3.8,2.1c-1.5,0.1-3-0.3-4.5-1.4l-1.9,2.3l-1.8-1.5l1.8-2.2
						c-1.4-1.5-2.1-3-2.2-4.6c-0.1-1.7,0.5-3.2,1.8-4.7l3.2,2.7c-0.8,0.9-1.1,1.8-1.1,2.6c0,0.8,0.4,1.6,1.2,2.3
						c0.7,0.5,1.3,0.8,2,0.8C45.9,625.4,46.5,625.1,47,624.6z"/>
				</g>
			</g>
		</g>
		<g id="XMLID_288_">
			<g id="XMLID_290_">
				<polygon id="XMLID_293_" class="st6" points="27.8,607.1 -114.4,607.3 -114.4,598.1 43.1,597.9 43.1,642.3 27.8,642.3 				"/>
				<path id="XMLID_292_" class="st7" d="M27.8,642.3H16.3v-6.1c-11.4,0-20.7-8.7-20.7-19.6l-110,0.1v-9.5L27.7,607L27.8,642.3z"/>
				<path id="XMLID_291_" class="st6" d="M16.4,636.2v6.1l-88.8,0.1c-10.5-10.6-25.3-1.3-41.7-1.4v-24.2l109.9-0.1
					C-4.3,627.5,5,636.2,16.4,636.2z"/>
			</g>
			
				<rect id="XMLID_289_" x="-114.2" y="619.6" transform="matrix(-1 1.347927e-003 -1.347927e-003 -1 -70.122 1302.6278)" class="st8" width="157.4" height="63.4"/>
		</g>
		<path id="XMLID_287_" class="st9" d="M58.2,778.9l-162.3,0.2c-5.8,0-10.5-4.7-10.5-10.5l-0.2-133.9c0-5.8,4.7-10.5,10.5-10.5
			L58,624c5.8,0,10.5,4.7,10.5,10.5l0.2,133.9C68.7,774.2,64,778.9,58.2,778.9z"/>
		<path id="XMLID_286_" class="st10" d="M55.7,624l-159,0.2c-5,0-9.1,4.3-9.1,9.6l0.2,135.6c0,1.8,0.5,3.6,1.4,5.1l0,0
			c0,5.1,7.7,4.5,7.7,4.5l159-0.2c5,0,9.1-4.3,9.1-9.6l-0.2-135.6C64.9,628.3,60.8,624,55.7,624z"/>
		<rect id="XMLID_285_" x="21" y="636.1" class="st6" width="2.2" height="4.5"/>
		
			<ellipse id="XMLID_284_" transform="matrix(1.348007e-003 1 -1 1.348007e-003 755.9457 686.3674)" class="st11" cx="34.3" cy="721.7" rx="5.4" ry="5.2"/>
		<rect id="XMLID_283_" x="38.5" y="723.4" class="st12" width="2.3" height="9.5"/>
		<rect id="XMLID_282_" x="38.5" y="704.3" class="st12" width="2.3" height="9.5"/>
		<rect id="XMLID_281_" x="37.4" y="724.2" class="st12" width="2.3" height="9.5"/>
		<rect id="XMLID_280_" x="37.4" y="705.1" class="st12" width="2.3" height="9.5"/>
		<rect id="XMLID_279_" x="37.3" y="686" class="st12" width="2.3" height="9.5"/>
		<rect id="XMLID_278_" x="37" y="714.7" class="st13" width="2.3" height="9.5"/>
		<rect id="XMLID_277_" x="37" y="695.5" class="st13" width="2.3" height="9.5"/>
		<rect id="XMLID_276_" x="37" y="676.5" class="st13" width="2.3" height="9.5"/>
		<path id="XMLID_275_" class="st9" d="M50.3,778.9l-162.2,0.3c-5.8,0-10.5-4.7-10.5-10.5l-0.2-133.8c0-5.8,4.7-10.5,10.5-10.5
			l162.2-0.3c5.8,0,10.5,4.7,10.5,10.5l0.2,133.8C60.8,774.2,56,778.9,50.3,778.9z"/>
		<g id="XMLID_198_">
			<g id="XMLID_212_">
				
					<rect id="XMLID_274_" x="24.4" y="769.9" transform="matrix(-1 1.347927e-003 -1.347927e-003 -1 58.9394 1542.1412)" class="st13" width="9.1" height="2.4"/>
				
					<rect id="XMLID_226_" x="3.8" y="770" transform="matrix(-1 1.347927e-003 -1.347927e-003 -1 17.7396 1542.3689)" class="st13" width="9.1" height="2.4"/>
				
					<rect id="XMLID_225_" x="-14.4" y="770" transform="matrix(-1 1.347927e-003 -1.347927e-003 -1 -18.6606 1542.3934)" class="st13" width="9.1" height="2.4"/>
				
					<rect id="XMLID_224_" x="-32.7" y="770.1" transform="matrix(-1 1.347927e-003 -1.347927e-003 -1 -55.2603 1542.618)" class="st13" width="9.1" height="2.4"/>
				
					<rect id="XMLID_223_" x="-50.9" y="770" transform="matrix(-1 1.347927e-003 -1.347927e-003 -1 -91.6605 1542.4426)" class="st13" width="9.1" height="2.4"/>
				
					<rect id="XMLID_222_" x="-69.1" y="770.1" transform="matrix(-1 1.347927e-003 -1.347927e-003 -1 -128.0603 1542.6671)" class="st13" width="9.1" height="2.4"/>
				
					<rect id="XMLID_221_" x="-87.3" y="770.1" transform="matrix(-1 1.347927e-003 -1.347927e-003 -1 -164.4605 1542.6917)" class="st13" width="9.1" height="2.4"/>
				
					<rect id="XMLID_220_" x="-105.6" y="770.2" transform="matrix(-1 1.347927e-003 -1.347927e-003 -1 -201.0603 1542.9164)" class="st13" width="9.1" height="2.4"/>
				<path id="XMLID_218_" class="st13" d="M44.1,771.9l-0.5-2.3c2.7-0.7,5-2.6,5.9-5.2l2.1,0.9C50.4,768.6,47.6,771.1,44.1,771.9z"
					/>
				<rect id="XMLID_217_" x="50" y="745.9" class="st13" width="2.3" height="9.5"/>
				<rect id="XMLID_216_" x="49.9" y="650.4" class="st13" width="2.3" height="9.5"/>
				<path id="XMLID_215_" class="st13" d="M49.9,640.8c-0.1-2.7-1.5-5.3-3.9-6.8l1.1-2c3.1,1.9,5,5.2,5.1,8.8H49.9z"/>
			</g>
			
				<rect id="XMLID_210_" x="28.6" y="630.2" transform="matrix(-1 1.347927e-003 -1.347927e-003 -1 67.1511 1262.7354)" class="st13" width="9.1" height="2.4"/>
			
				<rect id="XMLID_209_" x="10.4" y="630.3" transform="matrix(-1 1.347927e-003 -1.347927e-003 -1 30.7513 1262.9598)" class="st13" width="9.1" height="2.4"/>
			
				<rect id="XMLID_206_" x="-7.8" y="630.3" transform="matrix(-1 1.347927e-003 -1.347927e-003 -1 -5.6489 1262.9844)" class="st13" width="9.1" height="2.4"/>
			
				<rect id="XMLID_205_" x="-26" y="630.4" transform="matrix(-1 1.347927e-003 -1.347927e-003 -1 -42.0487 1263.2089)" class="st13" width="9.1" height="2.4"/>
			
				<rect id="XMLID_204_" x="-44.3" y="630.3" transform="matrix(-1 1.347927e-003 -1.347927e-003 -1 -78.6488 1263.0336)" class="st13" width="9.1" height="2.4"/>
			
				<rect id="XMLID_202_" x="-62.5" y="630.4" transform="matrix(-1 1.347927e-003 -1.347927e-003 -1 -115.0486 1263.2581)" class="st13" width="9.1" height="2.4"/>
			
				<rect id="XMLID_201_" x="-80.7" y="630.4" transform="matrix(-1 1.347927e-003 -1.347927e-003 -1 -151.4488 1263.2826)" class="st13" width="9.1" height="2.4"/>
			
				<rect id="XMLID_200_" x="-99" y="630.5" transform="matrix(-1 1.347927e-003 -1.347927e-003 -1 -188.0486 1263.5073)" class="st13" width="9.1" height="2.4"/>
		</g>
		<path id="XMLID_197_" class="st14" d="M-123.1,635.9l0.2,127.2c0,7.7,6.3,14,14,14l164.5-0.2c7.7,0,14-6.3,14-14l-0.1-51.5
			c-21.2,18.8-81.4,61.4-141.8,2.1c-38.1-37.4-34.8-69.3-22.2-91.5h-14.6C-116.8,622-123.1,628.2-123.1,635.9z"/>
		<g>
			<path id="XMLID_188_" class="st10" d="M61.7,666.6l-12.3,0.2l0,0L33.8,667c0,0-19.1,2-19,13.8c0.2,11.7,0.3,21.3,0.3,21.3
				s0.1,9.5,0.3,21.3c0.2,11.7,19.4,13.2,19.4,13.2l23.3-0.4l0,0l4.6-0.1c0,0,10.1-1.9,9.9-13.6s-0.3-21.3-0.3-21.3
				s-0.1-9.5-0.3-21.3C71.9,668.2,61.7,666.6,61.7,666.6z"/>
			
				<ellipse id="XMLID_76_" transform="matrix(1.545933e-002 0.9999 -0.9999 1.545933e-002 744.5081 646.2174)" class="st13" cx="44.1" cy="701.2" rx="8.6" ry="8.2"/>
		</g>
	</g>
</g>
<g id="lid_1_">
	<g>
		<path class="st3" d="M530.5,521.7v-34.1c1.1-1.9,1.9-4.4,1.9-7.7c0-11.7,0-21.3,0-21.3s0-9.5,0-21.3c0-5.2-2-8.4-4.2-10.4V393
			c4-4.8,6.4-10.9,6.4-17.6c0-15.1-12.3-27.4-27.4-27.4c-6.6,0-12.6,2.3-17.4,6.2h-26.7c4.5-4.9,7.3-11.4,7.3-18.7
			c0-15.1-12.3-27.4-27.4-27.4c-15.4,0.3-27.6,12.6-27.6,27.7c0,7.2,2.8,13.7,7.4,18.6h-17.2c-3.1-11.7-13.8-20.4-26.5-20.3
			c-11.5,0-21.3,7.1-25.4,17.2c-2.4-0.7-4.9-1-7.5-1c-15.1,0-27.4,12.3-27.4,27.4c0,4.7,1.2,9.1,3.3,13c-4.3,4.8-6.8,11.2-6.8,18.1
			c0,13.1,9.3,24.1,21.6,26.7l0.1,89.4c0,5.8,4.7,10.5,10.5,10.5h1c1.1,0.3,2.2,0.4,3.4,0.4l164.6-0.1
			C524.2,535.7,530.5,529.4,530.5,521.7z M465.1,373.1c0,1,0.1,1.9,0.3,2.9l0,0C465.2,375,465.1,374.1,465.1,373.1l-61.3,0.2v-0.1
			L465.1,373.1z"/>
		<g>
			<g id="XMLID_91_">
				<circle id="XMLID_95_" class="st4" cx="443.6" cy="335.3" r="27.4"/>
				<circle id="XMLID_94_" class="st5" cx="443.6" cy="335.3" r="22.8"/>
				<g id="XMLID_92_">
					<path id="XMLID_93_" class="st4" d="M447.9,338.4c-0.3-0.8-0.7-1.3-1.2-1.6c-0.6-0.3-1.4-0.4-2.5-0.5c-1.1,0-2.1-0.1-3-0.2
						s-1.7-0.3-2.4-0.6c-0.7-0.3-1.3-0.7-1.8-1.3c-0.5-0.5-1-1.3-1.2-2.2c-0.5-1.6-0.5-3,0.2-4.4c0.6-1.3,1.7-2.4,3.3-3.2l-1.1-3
						l2.2-0.8l1.1,3c1.7-0.4,3.2-0.1,4.6,0.7c1.3,0.8,2.3,2.1,2.9,3.9l-4,1.4c-0.4-1.1-0.9-1.8-1.6-2.3c-0.6-0.3-1.4-0.4-2.1-0.2
						c-0.8,0.3-1.3,0.7-1.6,1.2c-0.3,0.6-0.3,1.2,0,2c0.3,0.7,0.6,1.2,1.2,1.5c0.5,0.3,1.5,0.4,2.7,0.5s2.3,0.2,3.2,0.3
						c0.9,0.2,1.6,0.3,2.3,0.7c0.7,0.3,1.2,0.8,1.8,1.3c0.4,0.5,0.9,1.2,1.1,2.1c0.5,1.6,0.5,3.1-0.1,4.4c-0.6,1.3-1.7,2.4-3.4,3.2
						l1,2.8l-2.2,0.8l-1-2.7c-1.9,0.4-3.7,0.3-5.1-0.4c-1.4-0.8-2.5-2.1-3.2-4l4-1.4c0.4,1.1,1,1.8,1.7,2.3c0.7,0.5,1.6,0.4,2.5,0.1
						c0.8-0.3,1.4-0.7,1.7-1.3C448.2,339.8,448.2,339.1,447.9,338.4z"/>
				</g>
			</g>
			<g id="XMLID_86_">
				<circle id="XMLID_90_" class="st4" cx="379.9" cy="361" r="27.4"/>
				<circle id="XMLID_89_" class="st5" cx="379.9" cy="361" r="22.8"/>
				<g id="XMLID_87_">
					<path id="XMLID_88_" class="st4" d="M384.2,364.2c-0.3-0.8-0.7-1.3-1.2-1.6c-0.6-0.3-1.4-0.4-2.5-0.5c-1.1,0-2.1-0.1-3-0.2
						c-0.9-0.1-1.7-0.3-2.4-0.6c-0.7-0.3-1.3-0.7-1.8-1.3c-0.5-0.5-1-1.3-1.2-2.2c-0.5-1.6-0.5-3,0.2-4.4c0.6-1.3,1.7-2.4,3.3-3.2
						l-1.1-3l2.2-0.8l1.1,3c1.7-0.4,3.2-0.1,4.6,0.7c1.3,0.8,2.3,2.1,2.9,3.9l-4,1.4c-0.4-1.1-0.9-1.8-1.6-2.3
						c-0.6-0.3-1.4-0.4-2.1-0.2c-0.8,0.3-1.3,0.7-1.6,1.2c-0.3,0.6-0.3,1.2,0,2c0.3,0.7,0.6,1.2,1.2,1.5c0.5,0.3,1.5,0.4,2.7,0.5
						c1.2,0.1,2.3,0.2,3.2,0.3c0.9,0.2,1.6,0.3,2.3,0.7c0.7,0.3,1.2,0.8,1.8,1.3c0.4,0.5,0.9,1.2,1.1,2.1c0.5,1.6,0.5,3.1-0.1,4.4
						s-1.7,2.4-3.4,3.2l1,2.8l-2.2,0.8l-1-2.7c-1.9,0.4-3.7,0.3-5.1-0.4c-1.4-0.8-2.5-2.1-3.2-4l4-1.4c0.4,1.1,1,1.8,1.7,2.3
						c0.7,0.5,1.6,0.4,2.5,0.1c0.8-0.3,1.4-0.7,1.7-1.3C384.5,365.6,384.5,364.9,384.2,364.2z"/>
				</g>
			</g>
			<g id="XMLID_80_">
				<circle id="XMLID_85_" class="st4" cx="347" cy="377.2" r="27.4"/>
				<circle id="XMLID_84_" class="st5" cx="347" cy="377.2" r="22.8"/>
				<g id="XMLID_82_">
					<path id="XMLID_83_" class="st4" d="M351.3,380.3c-0.3-0.8-0.7-1.3-1.2-1.6c-0.6-0.3-1.4-0.4-2.5-0.5c-1.1,0-2.1-0.1-3-0.2
						s-1.7-0.3-2.4-0.6c-0.7-0.3-1.3-0.7-1.8-1.3c-0.5-0.5-1-1.3-1.2-2.2c-0.5-1.6-0.5-3,0.2-4.4c0.6-1.3,1.7-2.4,3.3-3.2l-1.1-3
						l2.2-0.8l1.1,3c1.7-0.4,3.2-0.1,4.6,0.7s2.3,2.1,2.9,3.9l-4,1.4c-0.4-1.1-0.9-1.8-1.6-2.3c-0.6-0.3-1.4-0.4-2.1-0.2
						c-0.8,0.3-1.3,0.7-1.6,1.2c-0.3,0.6-0.3,1.2,0,2c0.3,0.7,0.6,1.2,1.2,1.5c0.5,0.3,1.5,0.4,2.7,0.5c1.2,0.1,2.3,0.2,3.2,0.3
						c0.9,0.2,1.6,0.3,2.3,0.7s1.2,0.8,1.8,1.3c0.4,0.5,0.9,1.2,1.1,2.1c0.5,1.6,0.5,3.1-0.1,4.4c-0.6,1.3-1.7,2.4-3.4,3.2l1,2.8
						l-2.2,0.8l-1-2.7c-1.9,0.4-3.7,0.3-5.1-0.4c-1.4-0.8-2.5-2.1-3.2-4l4-1.4c0.4,1.1,1,1.8,1.7,2.3c0.7,0.4,1.6,0.4,2.5,0.1
						c0.8-0.3,1.4-0.7,1.7-1.3C351.6,381.7,351.6,381,351.3,380.3z"/>
				</g>
			</g>
			<g id="XMLID_71_">
				<circle id="XMLID_79_" class="st4" cx="343.5" cy="408.3" r="27.4"/>
				<circle id="XMLID_74_" class="st5" cx="343.5" cy="408.3" r="22.8"/>
				<g id="XMLID_72_">
					<path id="XMLID_73_" class="st4" d="M347.8,411.4c-0.3-0.8-0.7-1.3-1.2-1.6c-0.6-0.3-1.4-0.4-2.5-0.5c-1.1,0-2.1-0.1-3-0.2
						s-1.7-0.3-2.4-0.6c-0.7-0.3-1.3-0.7-1.8-1.3c-0.5-0.5-1-1.3-1.2-2.2c-0.5-1.6-0.5-3,0.2-4.4c0.6-1.3,1.7-2.4,3.3-3.2l-1.1-3
						l2.2-0.8l1.1,3c1.7-0.4,3.2-0.1,4.6,0.7c1.3,0.8,2.3,2.1,2.9,3.9l-4,1.4c-0.4-1.1-0.9-1.8-1.6-2.3c-0.6-0.3-1.4-0.4-2.1-0.2
						c-0.8,0.3-1.3,0.7-1.6,1.2c-0.3,0.6-0.3,1.2,0,2c0.3,0.7,0.6,1.2,1.2,1.5c0.5,0.3,1.5,0.4,2.7,0.5c1.2,0.1,2.3,0.2,3.2,0.3
						c0.9,0.2,1.6,0.3,2.3,0.7s1.2,0.8,1.8,1.3c0.4,0.5,0.9,1.2,1.1,2.1c0.5,1.6,0.5,3.1-0.1,4.4c-0.6,1.3-1.7,2.4-3.4,3.2l1,2.8
						l-2.2,0.8l-1-2.7c-1.9,0.4-3.7,0.3-5.1-0.4c-1.4-0.8-2.5-2.1-3.2-4l4-1.4c0.4,1.1,1,1.8,1.7,2.3c0.7,0.4,1.6,0.4,2.5,0.1
						c0.8-0.3,1.4-0.7,1.7-1.3C348.1,412.8,348.1,412.1,347.8,411.4z"/>
				</g>
			</g>
			<g id="XMLID_66_">
				<circle id="XMLID_70_" class="st4" cx="507.8" cy="375" r="27.4"/>
				<circle id="XMLID_69_" class="st5" cx="507.8" cy="375" r="22.8"/>
				<g id="XMLID_67_">
					<path id="XMLID_68_" class="st4" d="M507.3,380.4c0.5-0.6,0.8-1.2,0.7-1.9c0-0.6-0.4-1.5-0.9-2.4c-0.5-1-1-1.9-1.3-2.7
						c-0.4-0.8-0.5-1.6-0.6-2.4s0-1.5,0.2-2.2c0.2-0.7,0.6-1.5,1.2-2.2c1-1.2,2.4-1.9,3.8-2.1c1.5-0.1,3,0.3,4.4,1.3l2-2.4l1.8,1.5
						l-2.1,2.5c1.1,1.3,1.8,2.7,1.8,4.3c0,1.6-0.6,3.1-1.9,4.6l-3.2-2.7c0.8-0.9,1.1-1.8,1.1-2.5c0-0.8-0.3-1.4-1-1.9
						c-0.6-0.5-1.2-0.8-1.8-0.7c-0.6,0.1-1.2,0.4-1.7,1.1c-0.4,0.6-0.7,1.1-0.7,1.8c0,0.6,0.4,1.5,1,2.6s1.1,2.1,1.3,2.9
						c0.4,0.8,0.5,1.6,0.5,2.3c0.1,0.7,0,1.5-0.3,2.1c-0.3,0.7-0.6,1.4-1.2,2c-1,1.3-2.4,2-3.8,2.1c-1.5,0.1-3-0.3-4.5-1.4l-1.9,2.3
						l-1.8-1.5l1.8-2.2c-1.4-1.5-2.1-3-2.2-4.6c-0.1-1.7,0.5-3.2,1.8-4.7l3.2,2.7c-0.8,0.9-1.1,1.8-1.1,2.6s0.4,1.6,1.2,2.3
						c0.7,0.5,1.3,0.8,2,0.8C506.2,381.2,506.8,380.9,507.3,380.4z"/>
				</g>
			</g>
		</g>
		<g id="XMLID_60_">
			<g id="XMLID_62_">
				<polygon id="XMLID_65_" class="st6" points="488.1,362.9 345.9,363.1 345.9,353.9 503.4,353.7 503.4,398.1 488.1,398.1 				"/>
				<path id="XMLID_64_" class="st7" d="M488.1,398.1h-11.5V392c-11.4,0-20.7-8.7-20.7-19.6l-110,0.1V363l142.1-0.2L488.1,398.1z"/>
				<path id="XMLID_63_" class="st6" d="M476.7,392v6.1l-88.8,0.1c-10.5-10.6-25.3-1.3-41.7-1.4v-24.2l109.9-0.1
					C456,383.3,465.3,392,476.7,392z"/>
			</g>
			
				<rect id="XMLID_61_" x="346.1" y="375.4" transform="matrix(-1 1.347927e-003 -1.347927e-003 -1 850.0541 813.7076)" class="st8" width="157.4" height="63.4"/>
		</g>
		<path id="XMLID_59_" class="st9" d="M518.5,534.7l-162.3,0.2c-5.8,0-10.5-4.7-10.5-10.5l-0.2-133.9c0-5.8,4.7-10.5,10.5-10.5
			l162.3-0.2c5.8,0,10.5,4.7,10.5,10.5l0.2,133.9C529,530,524.3,534.7,518.5,534.7z"/>
		<path id="XMLID_57_" class="st10" d="M516,379.8L357,380c-5,0-9.1,4.3-9.1,9.6l0.2,135.6c0,1.8,0.5,3.6,1.4,5.1l0,0
			c0,5.1,7.7,4.5,7.7,4.5l159-0.2c5,0,9.1-4.3,9.1-9.6l-0.2-135.6C525.2,384.1,521.1,379.8,516,379.8z"/>
		<rect id="XMLID_55_" x="481.3" y="391.9" class="st6" width="2.2" height="4.5"/>
		
			<ellipse id="XMLID_53_" transform="matrix(1.348007e-003 1 -1 1.348007e-003 971.4282 -17.706)" class="st11" cx="494.6" cy="477.5" rx="5.4" ry="5.2"/>
		<rect id="XMLID_51_" x="498.8" y="479.2" class="st12" width="2.3" height="9.5"/>
		<rect id="XMLID_49_" x="498.8" y="460.1" class="st12" width="2.3" height="9.5"/>
		<rect id="XMLID_48_" x="497.7" y="480" class="st12" width="2.3" height="9.5"/>
		<rect id="XMLID_47_" x="497.7" y="460.9" class="st12" width="2.3" height="9.5"/>
		<rect id="XMLID_46_" x="497.6" y="441.8" class="st12" width="2.3" height="9.5"/>
		<rect id="XMLID_45_" x="497.3" y="470.5" class="st13" width="2.3" height="9.5"/>
		<rect id="XMLID_44_" x="497.3" y="451.3" class="st13" width="2.3" height="9.5"/>
		<rect id="XMLID_43_" x="497.3" y="432.3" class="st13" width="2.3" height="9.5"/>
		<path id="XMLID_33_" class="st9" d="M510.6,534.7L348.4,535c-5.8,0-10.5-4.7-10.5-10.5l-0.2-133.8c0-5.8,4.7-10.5,10.5-10.5
			l162.2-0.3c5.8,0,10.5,4.7,10.5,10.5l0.2,133.8C521.1,530,516.3,534.7,510.6,534.7z"/>
		<g id="XMLID_4_">
			<g id="XMLID_16_">
				
					<rect id="XMLID_31_" x="484.7" y="525.7" transform="matrix(-1 1.347927e-003 -1.347927e-003 -1 979.1155 1053.2209)" class="st13" width="9.1" height="2.4"/>
				
					<rect id="XMLID_30_" x="464.1" y="525.8" transform="matrix(-1 1.347927e-003 -1.347927e-003 -1 937.9158 1053.4486)" class="st13" width="9.1" height="2.4"/>
				
					<rect id="XMLID_28_" x="445.9" y="525.8" transform="matrix(-1 1.347927e-003 -1.347927e-003 -1 901.5156 1053.4731)" class="st13" width="9.1" height="2.4"/>
				
					<rect id="XMLID_26_" x="427.6" y="525.9" transform="matrix(-1 1.347927e-003 -1.347927e-003 -1 864.9158 1053.6978)" class="st13" width="9.1" height="2.4"/>
				
					<rect id="XMLID_24_" x="409.4" y="525.8" transform="matrix(-1 1.347927e-003 -1.347927e-003 -1 828.5156 1053.5223)" class="st13" width="9.1" height="2.4"/>
				
					<rect id="XMLID_23_" x="391.2" y="525.9" transform="matrix(-1 1.347927e-003 -1.347927e-003 -1 792.1158 1053.7468)" class="st13" width="9.1" height="2.4"/>
				
					<rect id="XMLID_22_" x="373" y="525.9" transform="matrix(-1 1.347927e-003 -1.347927e-003 -1 755.7156 1053.7714)" class="st13" width="9.1" height="2.4"/>
				
					<rect id="XMLID_21_" x="354.7" y="526" transform="matrix(-1 1.347927e-003 -1.347927e-003 -1 719.1158 1053.9961)" class="st13" width="9.1" height="2.4"/>
				<path id="XMLID_20_" class="st13" d="M504.4,527.7l-0.5-2.3c2.7-0.7,5-2.6,5.9-5.2l2.1,0.9C510.7,524.4,507.9,526.9,504.4,527.7
					z"/>
				<rect id="XMLID_19_" x="510.3" y="501.7" class="st13" width="2.3" height="9.5"/>
				<rect id="XMLID_18_" x="510.2" y="406.2" class="st13" width="2.3" height="9.5"/>
				<path id="XMLID_17_" class="st13" d="M510.2,396.6c-0.1-2.7-1.5-5.3-3.9-6.8l1.1-2c3.1,1.9,5,5.2,5.1,8.8H510.2z"/>
			</g>
			
				<rect id="XMLID_15_" x="488.9" y="386" transform="matrix(-1 1.347927e-003 -1.347927e-003 -1 987.3272 773.8151)" class="st13" width="9.1" height="2.4"/>
			
				<rect id="XMLID_14_" x="470.7" y="386.1" transform="matrix(-1 1.347927e-003 -1.347927e-003 -1 950.9274 774.0396)" class="st13" width="9.1" height="2.4"/>
			
				<rect id="XMLID_10_" x="452.5" y="386.1" transform="matrix(-1 1.347927e-003 -1.347927e-003 -1 914.5272 774.0641)" class="st13" width="9.1" height="2.4"/>
			
				<rect id="XMLID_9_" x="434.3" y="386.2" transform="matrix(-1 1.347927e-003 -1.347927e-003 -1 878.1274 774.2886)" class="st13" width="9.1" height="2.4"/>
			
				<rect id="XMLID_8_" x="416" y="386.1" transform="matrix(-1 1.347927e-003 -1.347927e-003 -1 841.5273 774.1133)" class="st13" width="9.1" height="2.4"/>
			
				<rect id="XMLID_7_" x="397.8" y="386.2" transform="matrix(-1 1.347927e-003 -1.347927e-003 -1 805.1275 774.3378)" class="st13" width="9.1" height="2.4"/>
			
				<rect id="XMLID_6_" x="379.6" y="386.2" transform="matrix(-1 1.347927e-003 -1.347927e-003 -1 768.7273 774.3624)" class="st13" width="9.1" height="2.4"/>
			
				<rect id="XMLID_5_" x="361.3" y="386.3" transform="matrix(-1 1.347927e-003 -1.347927e-003 -1 732.1276 774.587)" class="st13" width="9.1" height="2.4"/>
		</g>
		<path id="XMLID_3_" class="st14" d="M337.2,391.7l0.2,127.2c0,7.7,6.3,14,14,14l164.5-0.2c7.7,0,14-6.3,14-14l-0.1-51.5
			c-21.2,18.8-81.4,61.4-141.8,2.1c-38.1-37.4-34.8-69.3-22.2-91.5h-14.6C343.5,377.8,337.2,384,337.2,391.7z"/>
		<g>
			<path id="XMLID_2_" class="st10" d="M522,422.4l-12.3,0.2l0,0l-15.6,0.2c0,0-19.1,2-19,13.8c0.2,11.7,0.3,21.3,0.3,21.3
				s0.1,9.5,0.3,21.3c0.2,11.7,19.4,13.2,19.4,13.2l23.3-0.4l0,0l4.6-0.1c0,0,10.1-1.9,9.9-13.6s-0.3-21.3-0.3-21.3
				s-0.1-9.5-0.3-21.3C532.2,424,522,422.4,522,422.4z"/>
			
				<ellipse id="XMLID_1_" transform="matrix(1.545933e-002 0.9999 -0.9999 1.545933e-002 953.5248 -54.356)" class="st13" cx="504.4" cy="457" rx="8.6" ry="8.2"/>
		</g>
	</g>
</g>
</svg>
