<?xml version="1.0" encoding="utf-8"?>
<!-- Generator: Adobe Illustrator 19.0.0, SVG Export Plug-In . SVG Version: 6.00 Build 0)  -->
<svg version="1.1" id="Layer_1" xmlns="http://www.w3.org/2000/svg" xmlns:xlink="http://www.w3.org/1999/xlink" x="0px" y="0px"
	 viewBox="0 0 595.3 841.9" style="enable-background:new 0 0 595.3 841.9;" xml:space="preserve">
<style type="text/css">
	.st0{fill:#FFFFFF;}
	.st1{fill:#F3C286;}
	.st2{fill:#FFF3D3;}
	.st3{opacity:0.42;fill:#FFF3D3;}
	.st4{fill:#EAEBE8;}
	.st5{fill:#62C08C;}
	.st6{opacity:0.44;fill:#62C08C;}
	.st7{opacity:0.22;fill:#F3C286;}
	.st8{fill:#E7E6EB;}
	.st9{fill:#E32378;}
	.st10{fill:#40403E;}
</style>
<g id="XMLID_5_">
	<path id="XMLID_23_" class="st0" d="M1251.2,181.2c0.1-0.2,0.3-0.4,0.4-0.6l0-0.1c0,0,0,0,0-0.1l0.4-0.7l0-0.1
		c0.3-0.7,0.6-1.4,0.8-1.9l2.1-4.1l-2.6-4.6c-0.3-0.5-0.6-1-0.9-1.5l0.5,0.1l3.9-3.7c3.2-3.1,4.9-7,4.6-10.7
		c-0.2-2.6-1.4-5.1-3.3-6.8l-0.7-1l-0.7-0.5c-0.2-0.2-0.5-0.5-0.7-0.8c-7.7-8.3-27.3-30.9-28.8-32.8c-0.4-0.5-0.8-0.9-1.2-1.4
		c-0.2-0.2-0.4-0.4-0.6-0.6c-3.1-3.1-7.7-4.5-13.8-4.2c0,0,0,0,0,0c-4,1-15.7,1.4-28.6,1.5l-0.2,0c-2.6,0-5.3,0.1-8,0.1l-0.3-0.1
		c-9.6,0-19.1-0.1-25.7-0.3l0.4,0.4l-0.5,0c-1.6,0-3.1-0.1-4.5-0.1l-4.8-0.5h0l-1.5-0.2l3.8-2.7l0.5-0.6l-8.1-17.7l8.7-5.1l-28-52.7
		l-106.9,66.6l31.5,46.1l9-5.2l17.4,22.5l13.9-9.9c9.4,10.1,22.2,20.9,38.4,27.9l-12.8,86.7l168.6,24.9l14.8-100.2L1251.2,181.2z
		 M1087.9,127.6l-5.9-7.3l-13.3,9.4l-16.4-21.1l-8.1,4.7l-9.3-13.5l71-44.2l8.9,16.7l-7.7,4.5l8.9,19.4l-9.9,7l11.9,17.3l2.9,3.8
		l20.4,2.2l0.8,0.1c1.7,0,3.4,0.1,5.3,0.1l0.1,0l23.1,0l0,0l25,0l-0.4-0.4l0.2,0l0-0.2l13-0.6l0.6-0.1c1.2-0.2,2.1-0.3,2.7-0.3
		c2.9,3.4,9.6,11.1,16,18.4l-9.3,5.1c2.7,5.2,6,11.2,9,16.8l-15.9,4.7c-0.6-3.5-1.6-6.9-3.1-10c-3.9-8-11-14.7-20.5-19.2l0,0
		c-2.8-1.3-5.7-2.5-8.7-3.4l-0.2-0.1c-1.4-0.5-4-1.5-7.2-1c-7.5,1.1-16.6,3.4-20,11.1c-1.2,2.7-2.5,8.1,2,14.7l0.2,0.3
		c1.8,2.5,4.3,4.9,7.3,7.5l-5.8-2.5c-6.6-2.9-13.5-5.3-20.5-7.2C1113.4,154.5,1097.5,139.3,1087.9,127.6z M1187.4,164.8
		c-0.5-0.3-0.9-0.7-1.4-1c-2-1.4-4-2.9-5.9-4.3C1182.5,160.7,1185.2,162.4,1187.4,164.8z M1255.9,264l-129-19.1l8.9-60.6l72.5,10.7
		l6.2,0.9l0,0l50.3,7.4L1255.9,264z"/>
	<polygon id="XMLID_65_" class="st0" points="1142.4,101 1142,100.5 1142,100.6 	"/>
</g>
<g id="XMLID_2_">
	<path id="XMLID_22_" class="st1" d="M221.5,166.1c2,5.7,6.2,11.9,14.8,12.9c2.5,0.2,6.8-0.4,9-6.5c-4.2-7.4-11.5-20.3-16.5-30.2
		c13.9,24.3,24.3,10.4,22.5,9.1c-0.3-0.2-1.2-1.2-2.7-2.7c-7.4-8-27.3-30.9-29.3-33.4c-2.4-3-12.2-0.7-12.2-0.7
		c-7.8,0.2-20.6,0.6-33.6,0.7c-21.8,0.3-44.3,0.1-45.7-1.9c-2.7-3.9-15.6-21.3-15.6-21.3l-40.6,25.7c0,0,22,39.9,62.3,50.7
		c13.3,3.6,26.1,9.1,37.6,16.7c4,2.6,7.8,5.5,11.4,8.6c3.3,2.8,7,8.6,11,9.8c3.3,1,11.7,0.2,14.2-2.8c3.9-4.7-2.5-10.8-5.7-13.8
		c-20.1-19.3-61-37.1-27.7-42c0.8-0.1,2.2,0.5,3,0.8c2.5,0.7,5,1.7,7.4,2.8c6.6,3.1,12.6,7.9,15.9,14.6c1.5,3,2.3,6.3,2.5,9.6
		c0.1,1.9,0.2,3.8-0.1,5.7c-0.5,3.5,0.2,5.4,1.7,8.4c1.2,2.5,2.6,5,4.2,7.3c2.4,3.4,6.6,7.4,9,1.7
		C221.4,188.3,221.7,175,221.5,166.1z"/>
	<path id="XMLID_21_" class="st1" d="M190.3,132.4l29.2,22.9c0,0-0.1,21.6,16.8,23.7l3.3-3.3l-16.4-30.5l-19.6-19.9l-30.2-10"/>
	<path id="XMLID_20_" class="st1" d="M207,114.5c0,0,9.9-2.3,12.2,0.7c2,2.5,21.9,25.5,29.4,33.5c1.4,1.5,2.4,2.5,2.7,2.7
		c1.8,1.2-8.6,15.2-22.6-9.2s-41.8-20.1-41.8-20.1"/>
	<path id="XMLID_19_" class="st2" d="M206,202.2"/>
	<path id="XMLID_18_" class="st3" d="M245.3,172.5L245.3,172.5c-5.8-10.2-17.4-30.9-21.1-39.6c-3.6-8.6-23-12.7-33.1-14.4
		c5.8-0.4,11.8-0.5,17.6,0.5c5.7,0.9,10.7,2.2,13.9,7.4c3.6,5.9,7.8,11.3,12.5,16.4c4,4.4,9.5,10.9,15.6,12.4c1.3-1.2,1.8-2.7,1.3-3
		c-0.3-0.2-1.2-1.2-2.7-2.7c-7.4-8-27.4-30.9-29.4-33.5c-0.1-0.2-0.3-0.3-0.4-0.4c0,0,0,0,0,0c-2.2-2.7-10.5-1.4-10.5-1.4l-23,1
		l0,0.2c-0.8,0-1.5,0-1.5,0l-39.3,0.1l-17.2-1.9l-19.2-28l-36.1,24.8c0,0,37.3,48.8,56.3,45.5c15.8-2.7,33-24.2,57.2-15.7
		c0,0,14.1,5.7,20.8,15c2.4,3.3,3.1,8.1,3.8,11.9c0.7,4.2,1.1,8.5,0,12.7c-0.9,3.6-2.9,7.2-2.3,10.9c0.5,2.8,2.4,5.8,4.7,7.4
		c2.3,1.6,5.8,0.5,6.9-2.3c0,0,14.6-39.8-23.3-64.2c4.9,0.6,13,2.6,19.8,9.7c12.9,15.6,17.5,33.9,19.7,37.5
		C239.3,179,243.5,178.1,245.3,172.5z"/>
	<path id="XMLID_16_" class="st1" d="M230.3,164.3c0,0,8.1,24,15,8.2c0,0-2.7,10.4-14.3,5.1l-0.4-4.8"/>
	<path id="XMLID_13_" class="st1" d="M108.1,156.6"/>
	<g id="XMLID_14_">
		
			<rect id="XMLID_97_" x="122.4" y="182.2" transform="matrix(0.9893 0.1461 -0.1461 0.9893 34.6652 -26.4701)" class="st4" width="150.4" height="81.2"/>
		
			<rect id="XMLID_77_" x="129.8" y="187" transform="matrix(0.9893 0.1461 -0.1461 0.9893 34.6182 -26.5617)" class="st5" width="136.9" height="71"/>
		<path id="XMLID_60_" class="st4" d="M139,192.7l-6.1,41.5c5.3,0.8,9,5.6,8.4,10.9l104.2,15.4c0.9-5.2,5.9-8.8,11.2-8l0,0l6.1-41.5
			h0c-5.4-0.8-9.1-5.8-8.3-11.2l-104.2-15.4C149.4,189.8,144.4,193.5,139,192.7z"/>
		<circle id="XMLID_56_" class="st5" cx="198" cy="223.9" r="28"/>
		<g id="XMLID_40_">
			<g id="XMLID_51_">
				<path id="XMLID_52_" class="st4" d="M200.9,233c0.2-1.2,0-2.3-0.6-3.1c-0.6-0.8-1.7-1.7-3.2-2.6c-1.6-0.9-2.9-1.7-4-2.5
					c-1.1-0.8-2-1.6-2.8-2.6c-0.7-0.9-1.3-2-1.6-3.1c-0.3-1.1-0.4-2.5-0.1-4c0.4-2.6,1.5-4.5,3.4-5.9c1.9-1.4,4.2-2,7-1.9l0.7-4.9
					l3.6,0.5l-0.7,4.9c2.6,0.8,4.6,2.2,5.8,4.3c1.2,2.1,1.6,4.6,1.2,7.6l-6.6-1c0.3-1.8,0.1-3.2-0.5-4.2c-0.6-1-1.6-1.6-2.8-1.8
					c-1.2-0.2-2.3,0-3,0.6c-0.8,0.6-1.3,1.5-1.5,2.8c-0.2,1.2,0,2.1,0.6,2.9c0.6,0.8,1.7,1.7,3.4,2.7c1.7,1,3.1,1.9,4.2,2.7
					c1.1,0.8,2,1.7,2.6,2.6c0.7,0.9,1.2,1.9,1.4,3c0.3,1.1,0.3,2.3,0.1,3.7c-0.4,2.6-1.5,4.6-3.3,5.9c-1.8,1.4-4.2,2-7.1,1.9
					l-0.7,4.5l-3.6-0.5l0.7-4.5c-3.1-0.8-5.3-2.3-6.7-4.4c-1.4-2.1-1.9-4.7-1.5-7.9l6.6,1c-0.3,1.8,0,3.3,0.7,4.3
					c0.7,1.1,1.9,1.8,3.5,2c1.3,0.2,2.4,0,3.3-0.6C200.2,235.1,200.7,234.2,200.9,233z"/>
			</g>
		</g>
	</g>
	<path id="XMLID_12_" class="st6" d="M154.3,175.1c0,0,37.2,48.1,58.3,37.4c21.2-10.7-2.1-28.9-2.1-28.9L154.3,175.1z"/>
	<path id="XMLID_11_" class="st1" d="M119.4,154.6c1.2,3,3.1,6.5,5.7,10.6c2.7,1.1,5.5,2,8.4,2.8c13.3,3.6,26.1,9.1,37.6,16.7
		c4,2.6,7.8,5.5,11.4,8.6c3.3,2.8,7,8.6,11,9.8c3.3,1,11.7,0.2,14.2-2.8c3.9-4.7-2.5-10.8-5.7-13.8c-18.8-18-55.7-34.8-33.3-40.9
		c-2.8-1-6.8-2.3-11.3-3.6c-11,4.7-20.5,12.4-29.5,13.9C125.5,156.4,122.6,155.8,119.4,154.6z"/>
	<path id="XMLID_10_" class="st7" d="M149.5,164.8c-10.9,5.9-40.3-7.9-42.5-9.2c7.5,5,16.1,9.2,25.8,11.8
		c13.3,3.6,26.1,9.1,37.6,16.7c4,2.6,7.8,5.5,11.4,8.6c1.1,0.9,2.2,2.2,3.4,3.5l0,0C187.4,181.2,160.6,158.8,149.5,164.8z"/>
	<polygon id="XMLID_9_" class="st8" points="130.3,98.2 68.5,142.1 45.7,112.6 116.2,67.5 	"/>
	<circle id="XMLID_8_" class="st9" cx="68.3" cy="115.1" r="5.4"/>
	<polyline id="XMLID_7_" class="st10" points="43,125.2 130,74.7 111.5,40.1 22.6,95.4 	"/>
</g>
</svg>
