<?xml version="1.0" encoding="utf-8"?>
<!-- Generator: Adobe Illustrator 19.0.0, SVG Export Plug-In . SVG Version: 6.00 Build 0)  -->
<svg version="1.1" id="Layer_1" xmlns="http://www.w3.org/2000/svg" xmlns:xlink="http://www.w3.org/1999/xlink" x="0px" y="0px"
	 viewBox="0 0 595.3 841.9" style="enable-background:new 0 0 595.3 841.9;" xml:space="preserve">
<style type="text/css">
	.st0{fill:#3D4A4B;stroke:#FFFFFF;stroke-width:20;stroke-miterlimit:10;}
	.st1{fill:#263434;}
	.st2{fill:url(#XMLID_37_);}
	.st3{fill:#93BC16;}
	.st4{opacity:0.17;fill:#3D4A4B;enable-background:new    ;}
	.st5{opacity:0.5;fill:#FFFFFF;enable-background:new    ;}
	.st6{fill:#546361;}
	.st7{fill:#3D4A4B;}
	.st8{fill:#FFFFFF;stroke:#FFFFFF;stroke-width:10;stroke-miterlimit:10;}
	.st9{fill:#F2B22D;}
	.st10{fill:#EB9329;}
	.st11{fill:#EAEBE8;}
	.st12{fill:#63BF8B;}
	.st13{opacity:0.36;fill:#04444E;enable-background:new    ;}
	.st14{fill:#3F3F3D;}
	.st15{fill:#1D1C1A;}
	.st16{fill:#A6A8AB;}
	.st17{fill:#F2F2F2;}
	.st18{fill:#8A807F;}
	.st19{fill:#B2ACAC;}
	.st20{fill:#FFFFFF;}
	.st21{fill:#0297BF;}
	.st22{opacity:0.23;}
	.st23{fill:#E32178;}
	.st24{opacity:0.55;}
	.st25{fill:#FFC929;}
	.st26{opacity:0.32;fill:#93BC16;}
	.st27{fill:#E331BF;}
	.st28{opacity:0.35;fill:#F0592B;}
	.st29{fill:#F0592B;}
	.st30{opacity:0.12;fill:#F0592B;}
	.st31{fill:#D4FBFF;}
	.st32{fill:#D90002;}
	.st33{fill:#D91A02;}
	.st34{opacity:0.43;fill:#E32178;}
</style>
<path class="st0" d="M903.4-110.8c0-23.2-8.5-44.4-22.5-60.7c-9.9-13.5-23.9-22.9-39.5-27.3c-0.1,0.1-0.1,0.1-0.2,0.2
	c-9.7-3.4-20-5.2-30.9-5.2c-22.8,0-43.7,8.2-59.9,21.9l-19.5-22.5l-4.6,4l3.9,4.5c-45.1,41.1-49.4,111-9.1,157.2
	c21.6,24.9,51.6,38.1,82.2,38.9v40.3h-25.7c-4.1,0-7.5,3.4-7.5,7.5v2.5h82.8v-2.5c0-4.1-3.4-7.5-7.5-7.5h-27.6V-0.4
	c21.5-2.1,42.5-10.4,60.3-25.1l7.9,9.1l4.6-4l-18.2-21C891.3-58.4,903.4-83.2,903.4-110.8z M872-32.3
	C828.7,3.2,764.7-2.1,727.8-44.7c-36.9-42.6-33.1-106.6,8.3-144.5l9.7,11.2c-4.6,4.4-8.7,9.2-12.2,14.4c0,0,0,0,0,0
	c-5.2,7.5-9.3,15.8-12.1,24.7c0,0,0,0,0,0c0,0.1,0,0.1-0.1,0.2c-0.3,1-0.6,2-0.9,3c-0.1,0.5-0.3,1-0.4,1.6c-0.1,0.4-0.2,0.8-0.3,1.1
	c-2.7,11-3.4,22.6-1.9,34.1c-0.8-0.9-1.6-1.7-2.4-2.6c3.4,31.4,22.6,60.3,53.4,74.6c5.1,2.4,10.4,4.2,15.6,5.6
	c3.8,1.1,7.6,1.9,11.5,2.5c0,0,0.1,0,0.1,0c4.6,0.7,9.3,1.1,14.1,1.1c21.6,0,41.5-7.4,57.3-19.7L872-32.3z"/>
<rect id="XMLID_32_" x="163.9" y="6.8" transform="matrix(0.7558 -0.6549 0.6549 0.7558 -43.4715 140.7527)" class="st1" width="6.1" height="243.7"/>
<linearGradient id="XMLID_37_" gradientUnits="userSpaceOnUse" x1="75.8025" y1="128.3026" x2="261.9837" y2="128.3026">
	<stop  offset="0" style="stop-color:#5BCBF5"/>
	<stop  offset="1" style="stop-color:#0098C1"/>
</linearGradient>
<circle id="XMLID_29_" class="st2" cx="168.9" cy="128.3" r="93.1"/>
<g>
	<g>
		<path id="XMLID_110_" class="st3" d="M226.5,106.6c-10.4-21.2-22.8,5.1-24.5,6.5c-1.7,1.4-33.2,34.7-28-11s48.3-15.9,30.7-40
			c-9.8-13.3-8.1-19.2-4.7-21.7c20,5.6,37.5,19.5,46.8,39.8c1.8,4,3.3,7.9,4.3,12C247.7,99.7,235.4,124.7,226.5,106.6z"/>
		<path id="XMLID_109_" class="st3" d="M162.5,72.8c-18.2,7.7-35.8-10.1-33.8-28.5c0.3-0.2,0.6-0.3,0.9-0.4
			c11-5.1,22.5-7.8,33.9-8.5C171,47.8,178.4,66.1,162.5,72.8z"/>
		<path id="XMLID_108_" class="st3" d="M84.4,167.5c-10.2-22-11.1-45.9-4.3-67.3c13.3-1,28.8,1.6,29,19.5c0.3,31.1-15.7,40,4.9,39.4
			c20.6-0.6,53.8-12.3,46.2,8.3c-7.6,20.6,47.5,27,9.6,46.2c-5.4,2.8-10.4,4.9-15.2,6.8C124.9,215.7,98,196.9,84.4,167.5z"/>
		<path id="XMLID_107_" class="st3" d="M207.6,146.7c0,0,14,7.7,23.8,1.6c9.8-6,12.9,5.2,12.9,5.2c2.8,28.4-21,25.4-41.8,11.2
			S207.6,146.7,207.6,146.7z"/>
		<path id="XMLID_106_" class="st3" d="M222.2,182.1c0,0-3.8,12.7-10.9,2C204,173.4,222.2,182.1,222.2,182.1z"/>
		<path id="XMLID_105_" class="st3" d="M119.5,72.9c20.2,6.5,22.8,52.2,8.4,38s-7.1-22.5-26.8-29.5c-3.4-1.2-6.4-3.3-9-5.9
			c3.6-5.3,7.8-10.2,12.6-14.7C107.4,65.9,112,70.5,119.5,72.9z"/>
	</g>
</g>
<path id="XMLID_20_" class="st4" d="M237,66.8c1.7,16.3-0.8,33.2-8.1,49.1c-21.6,46.6-77,66.9-123.6,45.2
	c-12.3-5.8-22.8-13.8-31.2-23.5c3.4,31.4,22.6,60.3,53.4,74.6c46.6,21.6,102,1.4,123.6-45.2C267,132.7,260.2,93.7,237,66.8z"/>
<path id="XMLID_19_" class="st5" d="M191.4,55.5c0,0-50.8-20.8-84.4,25.3C106.9,80.7,152.1,47,191.4,55.5z"/>
<rect id="XMLID_17_" x="171.7" y="235.9" class="st6" width="14.5" height="43.8"/>
<path id="XMLID_5_" class="st7" d="M90.2,41.8l5.9,6.8C53.4,86.3,49,151.4,86.4,194.4c37.4,43.1,102.6,48.1,146,10.9l5.9,6.8
	c-47.1,40.3-118.1,35-158.7-11.9C38.9,153.5,43.8,82.7,90.2,41.8z"/>
<path id="XMLID_2_" class="st7" d="M128.6,289.5V287c0-4.1,3.4-7.5,7.5-7.5h67.8c4.1,0,7.5,3.4,7.5,7.5v2.5H128.6z"/>
<path class="st8" d="M1030.2,164.4v-34.1c1.1-1.9,1.9-4.4,1.9-7.7c0-11.7,0-21.3,0-21.3s0-9.5,0-21.3c0-5.2-2-8.4-4.2-10.4V35.7
	c4-4.8,6.4-10.9,6.4-17.6c0-15.1-12.3-27.4-27.4-27.4c-6.6,0-12.6,2.3-17.4,6.2h-26.7c4.5-4.9,7.3-11.4,7.3-18.7
	c0-15.1-12.3-27.4-27.4-27.4c-15.4,0.3-27.6,12.6-27.6,27.7c0,7.2,2.8,13.7,7.4,18.6h-17.2c-3.1-11.7-13.8-20.4-26.5-20.3
	c-11.5,0-21.3,7.1-25.4,17.2c-2.4-0.7-4.9-1-7.5-1c-15.1,0-27.4,12.3-27.4,27.4c0,4.7,1.2,9.1,3.3,13c-4.3,4.8-6.8,11.2-6.8,18.1
	c0,13.1,9.3,24.1,21.6,26.7l0.1,89.4c0,5.8,4.7,10.5,10.5,10.5h1c1.1,0.3,2.2,0.4,3.4,0.4l164.6-0.1
	C1023.9,178.4,1030.2,172.1,1030.2,164.4z M964.8,15.8c0,1,0.1,1.9,0.3,2.9l0,0C964.9,17.7,964.8,16.8,964.8,15.8L903.5,16v-0.1
	L964.8,15.8z"/>
<g id="XMLID_86_">
	<circle id="XMLID_90_" class="st9" cx="879.6" cy="3.7" r="27.4"/>
	<circle id="XMLID_89_" class="st10" cx="879.6" cy="3.7" r="22.8"/>
	<g id="XMLID_87_">
		<path id="XMLID_88_" class="st9" d="M883.9,6.9c-0.3-0.8-0.7-1.3-1.2-1.6c-0.6-0.3-1.4-0.4-2.5-0.5c-1.1,0-2.1-0.1-3-0.2
			c-0.9-0.1-1.7-0.3-2.4-0.6c-0.7-0.3-1.3-0.7-1.8-1.3c-0.5-0.5-1-1.3-1.2-2.2c-0.5-1.6-0.5-3,0.2-4.4c0.6-1.3,1.7-2.4,3.3-3.2
			l-1.1-3l2.2-0.8l1.1,3c1.7-0.4,3.2-0.1,4.6,0.7c1.3,0.8,2.3,2.1,2.9,3.9l-4,1.4c-0.4-1.1-0.9-1.8-1.6-2.3
			c-0.6-0.3-1.4-0.4-2.1-0.2c-0.8,0.3-1.3,0.7-1.6,1.2c-0.3,0.6-0.3,1.2,0,2c0.3,0.7,0.6,1.2,1.2,1.5c0.5,0.3,1.5,0.4,2.7,0.5
			s2.3,0.2,3.2,0.3c0.9,0.2,1.6,0.3,2.3,0.7c0.7,0.3,1.2,0.8,1.8,1.3c0.4,0.5,0.9,1.2,1.1,2.1c0.5,1.6,0.5,3.1-0.1,4.4
			c-0.6,1.3-1.7,2.4-3.4,3.2l1,2.8l-2.2,0.8l-1-2.7c-1.9,0.4-3.7,0.3-5.1-0.4c-1.4-0.8-2.5-2.1-3.2-4l4-1.4c0.4,1.1,1,1.8,1.7,2.3
			s1.6,0.4,2.5,0.1c0.8-0.3,1.4-0.7,1.7-1.3C884.2,8.3,884.2,7.6,883.9,6.9z"/>
	</g>
</g>
<g id="XMLID_80_">
	<circle id="XMLID_85_" class="st9" cx="846.7" cy="19.9" r="27.4"/>
	<circle id="XMLID_84_" class="st10" cx="846.7" cy="19.9" r="22.8"/>
	<g id="XMLID_82_">
		<path id="XMLID_83_" class="st9" d="M851,23c-0.3-0.8-0.7-1.3-1.2-1.6c-0.6-0.3-1.4-0.4-2.5-0.5c-1.1,0-2.1-0.1-3-0.2
			c-0.9-0.1-1.7-0.3-2.4-0.6c-0.7-0.3-1.3-0.7-1.8-1.3c-0.5-0.5-1-1.3-1.2-2.2c-0.5-1.6-0.5-3,0.2-4.4c0.6-1.3,1.7-2.4,3.3-3.2
			l-1.1-3l2.2-0.8l1.1,3c1.7-0.4,3.2-0.1,4.6,0.7c1.4,0.8,2.3,2.1,2.9,3.9l-4,1.4c-0.4-1.1-0.9-1.8-1.6-2.3
			c-0.6-0.3-1.4-0.4-2.1-0.2c-0.8,0.3-1.3,0.7-1.6,1.2c-0.3,0.6-0.3,1.2,0,2c0.3,0.7,0.6,1.2,1.2,1.5c0.5,0.3,1.5,0.4,2.7,0.5
			s2.3,0.2,3.2,0.3c0.9,0.2,1.6,0.3,2.3,0.7c0.7,0.4,1.2,0.8,1.8,1.3c0.4,0.5,0.9,1.2,1.1,2.1c0.5,1.6,0.5,3.1-0.1,4.4
			c-0.6,1.3-1.7,2.4-3.4,3.2l1,2.8l-2.2,0.8l-1-2.7c-1.9,0.4-3.7,0.3-5.1-0.4c-1.4-0.8-2.5-2.1-3.2-4l4-1.4c0.4,1.1,1,1.8,1.7,2.3
			c0.7,0.4,1.6,0.4,2.5,0.1c0.8-0.3,1.4-0.7,1.7-1.3C851.3,24.4,851.3,23.7,851,23z"/>
	</g>
</g>
<g id="XMLID_71_">
	<circle id="XMLID_79_" class="st9" cx="843.2" cy="51" r="27.4"/>
	<circle id="XMLID_74_" class="st10" cx="843.2" cy="51" r="22.8"/>
	<g id="XMLID_72_">
		<path id="XMLID_73_" class="st9" d="M847.5,54.1c-0.3-0.8-0.7-1.3-1.2-1.6c-0.6-0.3-1.4-0.4-2.5-0.5c-1.1,0-2.1-0.1-3-0.2
			c-0.9-0.1-1.7-0.3-2.4-0.6c-0.7-0.3-1.3-0.7-1.8-1.3c-0.5-0.5-1-1.3-1.2-2.2c-0.5-1.6-0.5-3,0.2-4.4c0.6-1.3,1.7-2.4,3.3-3.2
			l-1.1-3l2.2-0.8l1.1,3c1.7-0.4,3.2-0.1,4.6,0.7c1.3,0.8,2.3,2.1,2.9,3.9l-4,1.4c-0.4-1.1-0.9-1.8-1.6-2.3
			c-0.6-0.3-1.4-0.4-2.1-0.2c-0.8,0.3-1.3,0.7-1.6,1.2c-0.3,0.6-0.3,1.2,0,2c0.3,0.7,0.6,1.2,1.2,1.5c0.5,0.3,1.5,0.4,2.7,0.5
			s2.3,0.2,3.2,0.3c0.9,0.2,1.6,0.3,2.3,0.7c0.7,0.4,1.2,0.8,1.8,1.3c0.4,0.5,0.9,1.2,1.1,2.1c0.5,1.6,0.5,3.1-0.1,4.4
			c-0.6,1.3-1.7,2.4-3.4,3.2l1,2.8l-2.2,0.8l-1-2.7c-1.9,0.4-3.7,0.3-5.1-0.4c-1.4-0.8-2.5-2.1-3.2-4l4-1.4c0.4,1.1,1,1.8,1.7,2.3
			c0.7,0.4,1.6,0.4,2.5,0.1c0.8-0.3,1.4-0.7,1.7-1.3C847.8,55.5,847.8,54.8,847.5,54.1z"/>
	</g>
</g>
<g id="XMLID_66_">
	<circle id="XMLID_70_" class="st9" cx="1007.5" cy="17.7" r="27.4"/>
	<circle id="XMLID_69_" class="st10" cx="1007.5" cy="17.7" r="22.8"/>
	<g id="XMLID_67_">
		<path id="XMLID_68_" class="st9" d="M1007,23.1c0.5-0.6,0.8-1.2,0.7-1.9c0-0.6-0.4-1.5-0.9-2.4c-0.5-1-1-1.9-1.3-2.7
			c-0.4-0.8-0.5-1.6-0.6-2.4c-0.1-0.8,0-1.5,0.2-2.2s0.6-1.5,1.2-2.2c1-1.2,2.4-1.9,3.8-2.1c1.5-0.1,3,0.3,4.4,1.3l2-2.4l1.8,1.5
			l-2.1,2.5c1.1,1.3,1.8,2.7,1.8,4.3c0,1.6-0.6,3.1-1.9,4.6l-3.2-2.7c0.8-0.9,1.1-1.8,1.1-2.5c0-0.8-0.3-1.4-1-1.9
			c-0.6-0.5-1.2-0.8-1.8-0.7c-0.6,0.1-1.2,0.4-1.7,1.1c-0.4,0.6-0.7,1.1-0.7,1.8c0,0.6,0.4,1.5,1,2.6c0.6,1.1,1.1,2.1,1.3,2.9
			c0.4,0.8,0.5,1.6,0.5,2.3c0.1,0.7,0,1.5-0.3,2.1c-0.3,0.7-0.6,1.4-1.2,2c-1,1.3-2.4,2-3.8,2.1c-1.5,0.1-3-0.3-4.5-1.4l-1.9,2.3
			l-1.8-1.5l1.8-2.2c-1.4-1.5-2.1-3-2.2-4.6c-0.1-1.7,0.5-3.2,1.8-4.7l3.2,2.7c-0.8,0.9-1.1,1.8-1.1,2.6s0.4,1.6,1.2,2.3
			c0.7,0.5,1.3,0.8,2,0.8C1005.9,23.9,1006.5,23.6,1007,23.1z"/>
	</g>
</g>
<g>
	<polygon id="XMLID_48_" class="st11" points="980.5,5 838.3,5.2 838.3,-4 995.8,-4.2 995.8,40.2 980.5,40.2 	"/>
	<path id="XMLID_47_" class="st12" d="M980.5,40.2H969v-6.1c-11.4,0-20.7-8.7-20.7-19.6l-110,0.1V5.1l142.1-0.2L980.5,40.2z"/>
	<path id="XMLID_46_" class="st11" d="M969.1,34.1v6.1l-89,0.1c-10.5-10.6-25.3-1.3-41.8-1.4V14.7l110.1-0.1
		C948.4,25.4,957.7,34.1,969.1,34.1z"/>
	<polygon id="XMLID_44_" class="st13" points="995.9,28.2 838.5,28.2 838.4,17.5 995.8,17.4 	"/>
</g>
<path id="XMLID_59_" class="st14" d="M1018.2,177.4l-162.3,0.2c-5.8,0-10.5-4.7-10.5-10.5l-0.2-133.9c0-5.8,4.7-10.5,10.5-10.5
	l162.3-0.2c5.8,0,10.5,4.7,10.5,10.5l0.2,133.9C1028.7,172.7,1024,177.4,1018.2,177.4z"/>
<path id="XMLID_57_" class="st15" d="M1015.7,22.5l-159,0.2c-5,0-9.1,4.3-9.1,9.6l0.2,135.6c0,1.8,0.5,3.6,1.4,5.1l0,0
	c0,5.1,7.7,4.5,7.7,4.5l159-0.2c5,0,9.1-4.3,9.1-9.6l-0.2-135.6C1024.9,26.8,1020.8,22.5,1015.7,22.5z"/>
<rect id="XMLID_203_" x="980.7" y="34.5" class="st11" width="2.2" height="4.5"/>
<rect id="XMLID_195_" x="998.2" y="102.7" class="st16" width="2.3" height="9.5"/>
<rect id="XMLID_193_" x="997.1" y="103.5" class="st16" width="2.3" height="9.5"/>
<rect id="XMLID_192_" x="997" y="84.4" class="st16" width="2.3" height="9.5"/>
<rect id="XMLID_190_" x="996.7" y="93.9" class="st17" width="2.3" height="9.5"/>
<rect id="XMLID_189_" x="996.7" y="74.9" class="st17" width="2.3" height="9.5"/>
<path id="XMLID_186_" class="st14" d="M1010,177.3l-162.2,0.2c-5.8,0-10.5-4.7-10.5-10.5l-0.2-133.8c0-5.8,4.7-10.5,10.5-10.5
	l162.2-0.2c5.8,0,10.5,4.7,10.5,10.5l0.2,133.8C1020.5,172.6,1015.7,177.3,1010,177.3z"/>
<rect id="XMLID_183_" x="839.9" y="30" class="st15" width="175.5" height="141.5"/>
<rect id="XMLID_179_" x="852.2" y="84.1" class="st15" width="156.5" height="77.6"/>
<g id="XMLID_169_">
	<polygon id="XMLID_178_" class="st18" points="1003.2,117.9 957.9,160.5 966.3,160.5 1003.2,125.8 	"/>
	<polygon id="XMLID_177_" class="st18" points="1003.2,89.7 984.1,89.7 908.8,160.5 950.3,160.5 1003.2,110.8 	"/>
	<polygon id="XMLID_176_" class="st18" points="948.2,89.7 872.8,160.5 884.1,160.5 959.4,89.7 	"/>
	<polygon id="XMLID_175_" class="st18" points="970.1,160.5 1003.2,160.5 1003.2,129.4 	"/>
	<polygon id="XMLID_174_" class="st18" points="862.8,89.7 862.8,120.8 895.9,89.7 	"/>
	<polygon id="XMLID_173_" class="st19" points="895.9,89.7 862.8,120.8 862.8,160.5 872.8,160.5 948.2,89.7 	"/>
	<polygon id="XMLID_172_" class="st19" points="959.4,89.7 884.1,160.5 908.8,160.5 984.1,89.7 	"/>
	<polygon id="XMLID_171_" class="st19" points="1003.2,110.8 950.3,160.5 957.9,160.5 1003.2,117.9 	"/>
	<polygon id="XMLID_170_" class="st19" points="1003.2,125.8 966.3,160.5 970.1,160.5 1003.2,129.4 	"/>
</g>
<rect id="XMLID_168_" x="858.5" y="73.9" class="st15" width="144.8" height="21.6"/>
<g>
	<path class="st20" d="M1078.1,95.2c0,0-0.2-11-0.4-24.4c-0.1-13.4-18.5-15.1-18.5-15.1l-14.9,0.2l-11.8,0.2c0,0-1.8,0.4-3.9,2v74.7
		c2.5,2.4,5.2,2.9,5.2,2.9l4.4-0.1l22.2-0.3c0,0,18.2-2.3,18-15.7C1078.2,106,1078.1,95.2,1078.1,95.2z"/>
	<path id="XMLID_12_" class="st15" d="M1035.2,62l9.9-0.2l0,0l12.5-0.2c0,0,15.4,1.5,15.5,13.2s0.3,21.3,0.3,21.3s0.1,9.5,0.3,21.3
		c0.2,11.7-15.1,13.7-15.1,13.7l-18.6,0.3l0,0l-3.7,0.1c0,0-8.2-1.6-8.3-13.4s-0.3-21.3-0.3-21.3s-0.1-9.5-0.3-21.3
		C1027.1,63.9,1035.2,62,1035.2,62z"/>
</g>
<g>
	<path class="st21" d="M1004.4,57.6v-9.9c0-10.8-9.4-10.5-9.4-10.5h-12.8h-23.8h-59.9h-13.7H872c0,0-9.4-0.2-9.4,10.5v9.9H1004.4z"
		/>
	<g class="st22">
		<g>
			<g>
				<path class="st23" d="M1004.6,65.9V56c0-10.8-9.4-10.5-9.4-10.5h-12.8h-23.9h-60h-13.7h-12.8c0,0-9.4-0.2-9.4,10.5v9.9H1004.6z"
					/>
			</g>
			<g id="XMLID_45_">
				<rect x="862.5" y="60.9" class="st23" width="142" height="5.1"/>
			</g>
		</g>
	</g>
</g>
<path class="st23" d="M1004.4,71.8v-9.9c0-10.8-9.4-10.5-9.4-10.5h-12.8h-23.8h-59.9h-13.7H872c0,0-9.4-0.2-9.4,10.5v9.9H1004.4z"/>
<g class="st24">
	<g>
		<g>
			<path class="st23" d="M1004.6,79.5v-9.9c0-10.8-9.4-10.5-9.4-10.5h-12.8h-23.9h-60h-13.7h-12.8c0,0-9.4-0.2-9.4,10.5v9.9H1004.6z
				"/>
		</g>
		<g id="XMLID_42_">
			<rect x="862.5" y="74.5" class="st23" width="142" height="5.1"/>
		</g>
	</g>
</g>
<path class="st3" d="M1004.4,86.9V77c0-10.8-9.4-10.5-9.4-10.5h-12.8h-23.8h-59.9h-13.7H872c0,0-9.4-0.2-9.4,10.5v9.9H1004.4z"/>
<rect x="862.6" y="77" class="st13" width="141.8" height="9.9"/>
<path id="XMLID_337_" class="st20" d="M650.2,171.3l0.2-142.8c0-6.2,4.9-11.2,11-11.2l169.9,0.3c6.1,0,11,5,11,11.2l-0.2,142.8
	c0,6.2-4.9,11.2-11,11.2l-169.9-0.3C655.3,182.5,650.2,177.5,650.2,171.3z"/>
<polygon id="XMLID_9_" class="st11" points="696.9,40.2 681.6,40.2 681.6,-4.2 839.1,-4 839.1,5.2 696.9,5 "/>
<path id="XMLID_8_" class="st12" d="M697,4.9l142.1,0.2v9.5l-110-0.1c0,10.9-9.3,19.6-20.7,19.6v6.1h-11.5L697,4.9z"/>
<path id="XMLID_7_" class="st11" d="M728.9,14.6L839,14.7v24.2c-16.4,0.1-31.3-9.2-41.8,1.4l-89-0.1v-6.1
	C719.7,34.1,729,25.4,728.9,14.6z"/>
<polygon id="XMLID_6_" class="st13" points="681.6,17.4 839,17.5 838.9,28.2 681.5,28.2 "/>
<path id="XMLID_1_" class="st14" d="M655.5,166.9L655.7,33c0-5.8,4.7-10.5,10.5-10.5l162.3,0.2c5.8,0,10.5,4.7,10.5,10.5l-0.2,133.9
	c0,5.8-4.7,10.5-10.5,10.5L666,177.4C660.2,177.4,655.5,172.7,655.5,166.9z"/>
<path id="XMLID_4_" class="st15" d="M659.4,32.1l-0.2,135.6c0,5.3,4.1,9.6,9.1,9.6l159,0.2c0,0,7.7,0.6,7.7-4.5l0,0
	c0.9-1.5,1.4-3.3,1.4-5.1l0.2-135.6c0-5.3-4.1-9.6-9.1-9.6l-159-0.2C663.4,22.5,659.3,26.8,659.4,32.1z"/>
<path id="XMLID_3_" class="st14" d="M663.4,166.9l0.2-133.8c0-5.8,4.7-10.5,10.5-10.5l162.2,0.3c5.8,0,10.5,4.7,10.5,10.5
	l-0.2,133.8c0,5.8-4.7,10.5-10.5,10.5l-162.2-0.3C668.2,177.4,663.4,172.7,663.4,166.9z"/>
<rect id="XMLID_211_" x="668" y="26.6" class="st15" width="126.5" height="147"/>
<g>
	<g>
		<path id="XMLID_458_" class="st3" d="M673.3,37v12.8v23.8l0,0v59.9l0,0v13.7V160c0,0-0.2,9.4,10.5,9.4h12.6h40.3h11.5
			c0.3,0,0.7,0,1,0c10.7,0,10.5-9.4,10.5-9.4v-12.8v-13.7l0,0V73.6l0,0V49.8V37c0,0,0.2-9.4-10.5-9.4c-0.4,0-0.7,0-1,0h-11.5h-40.3
			h-12.6C673,27.6,673.3,37,673.3,37z"/>
		<g>
			<circle id="XMLID_456_" class="st25" cx="717" cy="110.8" r="22.1"/>
			<circle id="XMLID_10_" class="st20" cx="717" cy="88.7" r="22.1"/>
		</g>
	</g>
	<path class="st26" d="M683.8,169.4c-10.8,0-10.5-9.4-10.5-9.4v-12.8v-23.8V63.5V49.8V37c0,0-0.2-9.4,10.5-9.4h12.6h12.9
		c15.2,11.9,26.1,31.4,10,62.3c-16.8,32.1-19.3,59.8-13.9,79.5h-9H683.8z"/>
</g>
<g>
	<path id="XMLID_31_" class="st23" d="M688.1,37v12.8v23.8l0,0v59.9l0,0v13.7V160c0,0-0.2,9.4,10.5,9.4h12.6h40.3H763
		c0.3,0,0.7,0,1,0c10.7,0,10.5-9.4,10.5-9.4v-12.8v-13.7l0,0V73.6l0,0V49.8V37c0,0,0.2-9.4-10.5-9.4c-0.4,0-0.7,0-1,0h-11.5h-40.3
		h-12.6C687.8,27.6,688.1,37,688.1,37z"/>
	<rect x="743.8" y="27.7" class="st11" width="12.8" height="141.7"/>
	<g>
		<g>
			<rect x="695.1" y="149.9" class="st27" width="17.9" height="10.5"/>
			<rect x="695.1" y="135.6" class="st27" width="17.9" height="10.5"/>
		</g>
	</g>
	<path class="st28" d="M698.3,169.5c-10.8,0-10.5-9.4-10.5-9.4v-12.8v-23.8V63.6V49.9V37.1c0,0-0.2-9.4,10.5-9.4h12.6h12.9
		c15.2,11.9,26.1,31.4,10,62.3c-16.8,32.1-19.3,59.8-13.9,79.5h-9H698.3z"/>
</g>
<g>
	<path id="XMLID_467_" class="st29" d="M714.4,169.4H727h40.3h11.5c0.3,0,0.6,0,1,0c10.7,0,10.5-9.4,10.5-9.4v-12.8v-23.8l0,0V63.5
		l0,0V49.8V37c0,0,0.2-9.4-10.5-9.4c-0.3,0-0.7,0-1,0h-11.5H727h-12.6c-10.7,0-10.5,9.4-10.5,9.4v12.8v13.7l0,0v59.9l0,0v23.8V160
		C703.9,160,703.6,169.4,714.4,169.4z"/>
	<rect id="XMLID_466_" x="749.9" y="27.7" class="st9" width="17.4" height="141.7"/>
	<rect x="732.9" y="27.7" class="st9" width="12.1" height="141.8"/>
	<path class="st28" d="M714.4,169.4c-10.8,0-10.5-9.4-10.5-9.4v-12.8v-23.8V63.5V49.8V37c0,0-0.2-9.4,10.5-9.4H727H740
		c15.2,11.9,26.1,31.4,10,62.3c-16.8,32.1-19.3,59.8-13.9,79.5h-9H714.4z"/>
	<g>
		<circle id="XMLID_464_" class="st25" cx="722.2" cy="53.5" r="8.4"/>
		<circle id="XMLID_462_" class="st20" cx="722.2" cy="45.1" r="8.4"/>
	</g>
</g>
<g>
	<path id="XMLID_468_" class="st21" d="M719.9,37v12.8v23.8l0,0v59.9l0,0v13.7V160c0,0-0.2,9.4,10.5,9.4H743h40.3h11.5
		c0.3,0,0.7,0,1,0c10.7,0,10.5-9.4,10.5-9.4v-12.8v-13.7l0,0V73.6l0,0V49.8V37c0,0,0.2-9.4-10.5-9.4c-0.4,0-0.7,0-1,0h-11.5H743
		h-12.6C719.6,27.6,719.9,37,719.9,37z"/>
	<path class="st30" d="M730.5,169.4c-10.8,0-10.5-9.4-10.5-9.4v-12.8v-23.8V63.5V49.8V37c0,0-0.2-9.4,10.5-9.4h12.6H756
		c15.2,11.9,26.1,31.4,10,62.3c-16.8,32.1-19.3,59.8-13.9,79.5h-9H730.5z"/>
	<g>
		<g>
			<path class="st31" d="M791.7,161l2.3,0c0,0,4.3,0.2,4.3-3.2c0-0.6,0-1.2,0-1.8c0-0.6,0-1.2,0-1.8h-6.7V161z"/>
			<path class="st31" d="M791.7,152.4h6.7c0-0.9,0-1.5,0-1.5v-4.2c0,0,0-0.9,0-2.2h-6.7V152.4z"/>
			<path class="st31" d="M777.6,154.1c0,0.6,0,1.2,0,1.8c0,0.6,0,1.2,0,1.8c0,3.5,4.3,3.2,4.3,3.2l1.1,0v-6.9H777.6z"/>
			<polygon class="st31" points="785.1,154.1 785.1,161 786.3,161 786.3,161 788,161 789.6,161 789.6,154.1 			"/>
			<rect x="785.1" y="144.5" class="st31" width="4.5" height="7.9"/>
			<path class="st31" d="M783,144.5h-5.4c0,1.3,0,2.2,0,2.2v4.2c0,0,0,0.6,0,1.5h5.4V144.5z"/>
			<path class="st31" d="M783,136.5l-1.1,0c0,0-4.3-0.2-4.3,3.2c0,0.6,0,1.2,0,1.8c0,0.4,0,0.8,0,1.2h5.4V136.5z"/>
			<path class="st31" d="M798.4,142.8c0-0.4,0-0.8,0-1.2c0-0.6,0-1.2,0-1.8c0-3.5-4.3-3.2-4.3-3.2l-2.3,0v6.3H798.4z"/>
			<polygon class="st31" points="789.6,142.8 789.6,136.5 788,136.5 786.3,136.5 786.3,136.5 785.1,136.5 785.1,142.8 			"/>
		</g>
	</g>
	<g>
		<g>
			<rect x="730.3" y="59.6" class="st25" width="16" height="15.3"/>
			
				<rect x="730.6" y="42.7" transform="matrix(0.7071 -0.7071 0.7071 0.7071 180.399 536.9006)" class="st25" width="15.3" height="16"/>
		</g>
	</g>
</g>
<g>
	<path id="XMLID_470_" class="st32" d="M736,37v12.8v23.8l0,0v59.9l0,0v13.7V160c0,0-0.2,9.4,10.5,9.4h12.6h40.3h11.5
		c0.3,0,0.7,0,1,0c10.7,0,10.5-9.4,10.5-9.4v-12.8v-13.7l0,0V73.6l0,0V49.8V37c0,0,0.2-9.4-10.5-9.4c-0.4,0-0.7,0-1,0h-11.5h-40.3
		h-12.6C735.7,27.6,736,37,736,37z"/>
	<path class="st33" d="M822.4,63.5V49.8V37c0,0,0.1-4.2-3.1-7L736,104.1v19.2v23.8V160c0,0,0,2.1,1,4.3l85.4-69.1V63.5z"/>
	<path class="st34" d="M746.6,169.4c-10.8,0-10.5-9.4-10.5-9.4v-12.8v-23.8V63.5V49.8V37c0,0-0.2-9.4,10.5-9.4h12.6h12.9
		c15.2,11.9,26.1,31.4,10,62.3c-16.8,32.1-19.3,59.8-13.9,79.5h-9H746.6z"/>
	<path class="st11" d="M754.3,40.8c-5.9,0-10.6,4.8-10.6,10.6c0,0,0,0,0,0c0,0,0,0,0,0c0,5.9,4.8,10.6,10.6,10.6s10.6-4.7,10.6-10.6
		c0,0,0,0,0,0c0,0,0,0,0,0C764.9,45.6,760.1,40.8,754.3,40.8z M748.3,57.9c-0.4-0.4-0.8-0.8-1.1-1.3c0.4,0.2,0.7,0.4,1.1,0.6V57.9z
		 M748.3,55c-1.1-0.7-1.9-1.6-2.3-2.6h2.3V55z M748.3,50.4h-2.4c0.3-1.1,1.2-2.1,2.4-2.9V50.4z M748.3,45.6
		c-0.4,0.2-0.8,0.4-1.1,0.6c0.3-0.5,0.7-0.9,1.1-1.3V45.6z M753.3,60.2c-1.1-0.1-2.1-0.4-3-0.9V58c0.9,0.3,2,0.4,3,0.5V60.2z
		 M753.3,56.6c-1.1-0.1-2.1-0.3-3-0.6v-3.5h3V56.6z M753.3,50.4h-3v-3.8c0.9-0.3,1.9-0.5,3-0.6V50.4z M753.3,44.4
		c-1.1,0.1-2.1,0.2-3,0.5v-1.4c0.9-0.5,1.9-0.8,3-0.9V44.4z M759.6,44.3c0.7,0.5,1.4,1.2,1.9,1.9c-0.6-0.3-1.2-0.6-1.9-0.9V44.3z
		 M757.5,59.7c-0.7,0.3-1.4,0.4-2.1,0.5v-1.8c0.7-0.1,1.4-0.1,2.1-0.3V59.7z M757.5,56.4c-0.7,0.1-1.4,0.2-2.1,0.3v-4.2h2.1V56.4z
		 M757.5,50.4h-2.1v-4.5c0.7,0,1.4,0.1,2.1,0.3V50.4z M757.5,44.7c-0.7-0.1-1.4-0.2-2.1-0.3v-1.8c0.7,0.1,1.4,0.3,2.1,0.5V44.7z
		 M759.6,58.5v-1c0.7-0.3,1.3-0.6,1.9-0.9C760.9,57.4,760.3,58,759.6,58.5z M763,53c-0.6,1.1-1.8,2.1-3.4,2.7v-3.3h3.5
		C763,52.6,763,52.8,763,53z M762.9,49.4c0.1,0.3,0.1,0.7,0.2,1h-3.5v-3.6C761.1,47.4,762.2,48.3,762.9,49.4z"/>
</g>
<rect x="793.1" y="26.6" class="st14" width="49" height="149.2"/>
</svg>
