<?xml version="1.0" encoding="utf-8"?>
<!-- Generator: Adobe Illustrator 19.0.0, SVG Export Plug-In . SVG Version: 6.00 Build 0)  -->
<svg version="1.1" id="Layer_1" xmlns="http://www.w3.org/2000/svg" xmlns:xlink="http://www.w3.org/1999/xlink" x="0px" y="0px"
	 viewBox="0 0 105 102" style="enable-background:new 0 0 105 102;" xml:space="preserve">
<style type="text/css">
	.st0{fill:#FFFFFF;}
</style>
<g id="XMLID_201_">
	<g id="XMLID_288_">
		<path id="XMLID_314_" class="st0" d="M70.9,20.6l19.7,14.5c4.2,3.1,4.2,8.1,0,11.2L71,60.8c-4.2,3.1-11.1,3.1-15.3,0L36,46.4
			c-4.2-3.1-4.2-8.1,0-11.2l19.7-14.5C59.9,17.6,66.7,17.6,70.9,20.6z"/>
		<path id="XMLID_308_" class="st0" d="M71,43l19.7,14.5c4.2,3.1,4.2,8.1,0,11.2L71,83.2c-4.2,3.1-11.1,3.1-15.3,0L36,68.8
			c-4.2-3.1-4.2-8.1,0-11.2l19.7-14.5C59.9,40,66.8,40,71,43z"/>
		<polygon id="XMLID_289_" class="st0" points="32.9,65.3 93.9,65.2 93.8,40.7 32.8,40.8 		"/>
	</g>
	<path id="XMLID_278_" d="M69.9,24.9l17,12.5c3.6,2.7,3.6,7,0,9.7l-17,12.5c-3.6,2.7-9.5,2.7-13.2,0l-17-12.5c-3.6-2.7-3.6-7,0-9.7
		l17-12.5C60.3,22.3,66.3,22.3,69.9,24.9z"/>
	<path id="XMLID_274_" d="M69.9,44.3l17,12.5c3.6,2.7,3.6,7,0,9.7L70,78.9c-3.6,2.7-9.5,2.7-13.2,0l-17-12.5c-3.6-2.7-3.6-7,0-9.7
		l17-12.5C60.4,41.6,66.3,41.6,69.9,44.3z"/>
	<polygon id="XMLID_213_" points="37,61.9 89.7,61.9 89.6,42.3 37,42.3 	"/>
	<path id="XMLID_205_" d="M69.5,43.7l16.1,11.8c3.4,2.5,3.4,6.6,0,9.1l-16,11.8c-3.4,2.5-9,2.5-12.4,0L41.1,64.7
		c-3.4-2.5-3.4-6.6,0-9.1l16-11.8C60.5,41.2,66.1,41.2,69.5,43.7z"/>
	<path id="XMLID_202_" class="st0" d="M67.8,30.5L79.4,39c2.5,1.8,2.5,4.8,0,6.6l-11.6,8.5c-2.5,1.8-6.5,1.8-9,0l-11.6-8.5
		c-2.5-1.8-2.5-4.8,0-6.6l11.6-8.5C61.3,28.7,65.3,28.7,67.8,30.5z"/>
</g>
<g id="XMLID_46_">
	<g id="XMLID_365_">
		<g id="XMLID_90_">
			<path id="XMLID_93_" d="M-76.4,20.6l19.7,14.5c4.2,3.1,4.2,8.1,0,11.2l-19.7,14.5c-4.2,3.1-11.1,3.1-15.3,0l-19.7-14.5
				c-4.2-3.1-4.2-8.1,0-11.2l19.7-14.5C-87.5,17.6-80.6,17.6-76.4,20.6z"/>
			<path id="XMLID_92_" d="M-76.4,43l19.7,14.5c4.2,3.1,4.2,8.1,0,11.2l-19.7,14.5c-4.2,3.1-11.1,3.1-15.3,0l-19.7-14.5
				c-4.2-3.1-4.2-8.1,0-11.2l19.7-14.5C-87.5,40-80.6,40-76.4,43z"/>
			<polygon id="XMLID_91_" points="-114.5,65.3 -53.5,65.2 -53.5,40.7 -114.5,40.8 			"/>
		</g>
	</g>
	<path id="XMLID_332_" class="st0" d="M-77.5,24.9l17,12.5c3.6,2.7,3.6,7,0,9.7l-17,12.5c-3.6,2.7-9.5,2.7-13.2,0l-17-12.5
		c-3.6-2.7-3.6-7,0-9.7l17-12.5C-87,22.3-81.1,22.3-77.5,24.9z"/>
	<path id="XMLID_328_" class="st0" d="M-77.4,44.3l17,12.5c3.6,2.7,3.6,7,0,9.7l-17,12.5c-3.6,2.7-9.5,2.7-13.2,0l-17-12.5
		c-3.6-2.7-3.6-7,0-9.7l17-12.5C-87,41.6-81.1,41.6-77.4,44.3z"/>
	<polygon id="XMLID_280_" class="st0" points="-110.3,61.9 -57.7,61.9 -57.7,42.3 -110.3,42.3 	"/>
	<path id="XMLID_215_" class="st0" d="M-77.8,43.7l16.1,11.8c3.4,2.5,3.4,6.6,0,9.1l-16,11.8c-3.4,2.5-9,2.5-12.4,0l-16.1-11.8
		c-3.4-2.5-3.4-6.6,0-9.1l16-11.8C-86.8,41.2-81.2,41.2-77.8,43.7z"/>
	<path id="XMLID_214_" d="M-79.6,30.5L-68,39c2.5,1.8,2.5,4.8,0,6.6l-11.6,8.5c-2.5,1.8-6.5,1.8-9,0l-11.6-8.5
		c-2.5-1.8-2.5-4.8,0-6.6l11.6-8.5C-86.1,28.7-82,28.7-79.6,30.5z"/>
</g>
</svg>
