<?xml version="1.0" encoding="utf-8"?>
<!-- Generator: Adobe Illustrator 19.0.0, SVG Export Plug-In . SVG Version: 6.00 Build 0)  -->
<svg version="1.1" id="Layer_1" xmlns="http://www.w3.org/2000/svg" xmlns:xlink="http://www.w3.org/1999/xlink" x="0px" y="0px"
	 viewBox="0 0 595.3 841.9" style="enable-background:new 0 0 595.3 841.9;" xml:space="preserve">
<style type="text/css">
	.st0{fill:#546361;}
	.st1{fill:#FFCA2A;}
	.st2{fill:#F1B22B;}
	.st3{fill:#F15A2C;}
	.st4{fill:#D82226;}
</style>
<g id="XMLID_1_">
	<path id="XMLID_6_" class="st0" d="M208.6,206.1H52.1V49.7c0-4.7-3.8-8.5-8.5-8.5s-8.5,3.8-8.5,8.5v164.9c0,0.6,0.1,1.2,0.2,1.7
		c0.1,0.3,0.2,0.7,0.2,1c0.2,0.5,0.3,0.9,0.6,1.3c0.4,0.7,0.9,1.4,1.5,2c0.2,0.2,0.4,0.4,0.6,0.6c1.1,0.9,2.3,1.5,3.7,1.7
		c0.6,0.1,1.2,0.2,1.7,0.2h164.9c4.7,0,8.5-3.8,8.5-8.5C217.1,209.9,213.3,206.1,208.6,206.1z"/>
	<rect id="XMLID_5_" x="63.9" y="146.6" class="st1" width="26" height="49.3"/>
	<rect id="XMLID_4_" x="100.2" y="132.1" class="st2" width="26" height="63.7"/>
	<rect id="XMLID_3_" x="141" y="111.3" class="st3" width="26" height="84.5"/>
	<rect id="XMLID_2_" x="180" y="68.6" class="st4" width="26" height="127.3"/>
</g>
</svg>
