<?xml version="1.0" encoding="utf-8"?>
<!-- Generator: Adobe Illustrator 19.0.0, SVG Export Plug-In . SVG Version: 6.00 Build 0)  -->
<svg version="1.1" id="Layer_1" xmlns="http://www.w3.org/2000/svg" xmlns:xlink="http://www.w3.org/1999/xlink" x="0px" y="0px"
	 viewBox="-3 273.8 588 295.1" style="enable-background:new -3 273.8 588 295.1;" xml:space="preserve">
<style type="text/css">
	.st0{fill:#FFFFFF;}
	.st1{display:none;}
	.st2{display:inline;fill:#EB9329;}
	.st3{fill:#F2B22D;}
	.st4{fill:#EB9329;}
	.st5{fill:#FFFFFF;stroke:#FFFFFF;stroke-width:10;stroke-miterlimit:10;}
	.st6{fill:#EAEBE8;}
	.st7{fill:#63BF8B;}
	.st8{opacity:0.36;fill:#04444E;enable-background:new    ;}
	.st9{fill:#3F3F3D;}
	.st10{fill:#1D1C1A;}
	.st11{fill:#F2F2F2;}
	.st12{fill:#B2ACAC;}
	.st13{fill:#A6A8AB;}
	.st14{fill:#8A807F;}
	.st15{fill:#F0592B;}
	.st16{display:inline;}
	.st17{opacity:0.14;fill:#1D1C1A;enable-background:new    ;}
</style>
<path class="st0" d="M425.8,93c0,0-0.2-11-0.4-24.4C425.3,55.3,407,53.5,407,53.5l-14.9,0.2L380.3,54c0,0-1.8,0.4-3.9,2v74.7
	c2.5,2.4,5.2,2.9,5.2,2.9l4.4-0.1l22.2-0.3c0,0,18.2-2.3,18-15.7C425.9,103.9,425.8,93,425.8,93z"/>
<path id="XMLID_337_" class="st0" d="M-2.1,169.2l0.2-142.8c0-6.2,4.9-11.2,11-11.2L179,15.5c6.1,0,11,5,11,11.2l-0.2,142.8
	c0,6.2-4.9,11.2-11,11.2L8.9,180.4C2.9,180.4-2.1,175.3-2.1,169.2z"/>
<g id="Layer_2" class="st1">
	<rect x="-499.4" y="770.7" class="st2" width="858" height="359"/>
</g>
<g>
	<g>
		<circle class="st0" cx="144.7" cy="382.5" r="33"/>
		<g id="XMLID_134_">
			<circle id="XMLID_138_" class="st3" cx="144.7" cy="382.5" r="27.4"/>
			<circle id="XMLID_137_" class="st4" cx="144.7" cy="382.5" r="22.8"/>
			<g id="XMLID_135_">
				<path id="XMLID_136_" class="st3" d="M149,385.6c-0.3-0.8-0.7-1.3-1.2-1.6c-0.6-0.3-1.4-0.4-2.5-0.5c-1.1,0-2.1-0.1-3-0.1
					c-0.9-0.1-1.7-0.3-2.4-0.6c-0.7-0.3-1.3-0.7-1.9-1.3c-0.5-0.5-1-1.3-1.3-2.2c-0.5-1.6-0.6-3,0.1-4.4c0.6-1.3,1.7-2.4,3.3-3.2
					l-1.1-3l2.2-0.8l1.1,3c1.7-0.4,3.2-0.1,4.6,0.6c1.3,0.8,2.3,2.1,2.9,3.9l-4,1.5c-0.4-1.1-0.9-1.8-1.6-2.3
					c-0.6-0.3-1.4-0.4-2.1-0.1c-0.8,0.3-1.3,0.7-1.6,1.2c-0.3,0.6-0.2,1.2,0,2c0.3,0.7,0.6,1.2,1.2,1.5c0.5,0.3,1.5,0.4,2.7,0.5
					s2.3,0.1,3.2,0.2c0.9,0.2,1.6,0.3,2.3,0.7c0.7,0.3,1.2,0.8,1.8,1.3c0.4,0.5,0.9,1.2,1.2,2.1c0.5,1.6,0.6,3.1,0,4.4
					s-1.7,2.4-3.4,3.2l1,2.8l-2.2,0.8l-1-2.7c-1.9,0.5-3.7,0.3-5.1-0.4c-1.4-0.8-2.5-2.1-3.2-4l4-1.5c0.4,1.1,1,1.8,1.7,2.2
					c0.7,0.4,1.6,0.4,2.5,0c0.8-0.3,1.4-0.7,1.6-1.3C149.3,387,149.3,386.3,149,385.6z"/>
			</g>
		</g>
	</g>
	<g>
		<circle class="st0" cx="183.8" cy="339.6" r="33"/>
		<g id="XMLID_50_">
			<circle id="XMLID_325_" class="st3" cx="183.8" cy="339.6" r="27.4"/>
			<circle id="XMLID_319_" class="st4" cx="183.8" cy="339.6" r="22.8"/>
			<g id="XMLID_52_">
				<path id="XMLID_58_" class="st3" d="M188.1,342.7c-0.3-0.8-0.7-1.3-1.2-1.6c-0.6-0.3-1.4-0.4-2.5-0.5c-1.1,0-2.1-0.1-3-0.1
					c-0.9-0.1-1.7-0.3-2.4-0.6c-0.7-0.3-1.3-0.7-1.9-1.3c-0.5-0.5-1-1.3-1.3-2.2c-0.5-1.6-0.6-3,0.1-4.4c0.6-1.3,1.7-2.4,3.3-3.2
					l-1.1-3l2.2-0.8l1.1,3c1.7-0.4,3.2-0.1,4.6,0.6c1.3,0.8,2.3,2.1,2.9,3.9l-4,1.5c-0.4-1.1-0.9-1.8-1.6-2.3
					c-0.6-0.3-1.4-0.4-2.1-0.1c-0.8,0.3-1.3,0.7-1.6,1.2c-0.3,0.6-0.2,1.2,0,2c0.3,0.7,0.6,1.2,1.2,1.5c0.5,0.3,1.5,0.4,2.7,0.5
					s2.3,0.1,3.2,0.2c0.9,0.2,1.6,0.3,2.3,0.7s1.2,0.8,1.8,1.3c0.4,0.5,0.9,1.2,1.2,2.1c0.5,1.6,0.6,3.1,0,4.4s-1.7,2.4-3.4,3.2
					l1,2.8l-2.2,0.8l-1-2.7c-1.9,0.5-3.7,0.3-5.1-0.4c-1.4-0.8-2.5-2.1-3.2-4l4-1.5c0.4,1.1,1,1.8,1.7,2.2c0.7,0.4,1.6,0.4,2.5,0
					c0.8-0.3,1.4-0.7,1.6-1.3C188.4,344.1,188.4,343.4,188.1,342.7z"/>
			</g>
		</g>
	</g>
	<g>
		<circle class="st0" cx="210.3" cy="370" r="33"/>
		<g id="XMLID_326_">
			<circle id="XMLID_335_" class="st3" cx="210.3" cy="370" r="27.4"/>
			<circle id="XMLID_334_" class="st4" cx="210.3" cy="370" r="22.8"/>
			<g id="XMLID_327_">
				<path id="XMLID_333_" class="st3" d="M214.7,373c-0.3-0.8-0.7-1.3-1.2-1.6c-0.6-0.3-1.4-0.4-2.5-0.5c-1.1,0-2.1-0.1-3-0.1
					c-0.9-0.1-1.7-0.3-2.4-0.6c-0.7-0.3-1.3-0.7-1.9-1.3c-0.5-0.5-1-1.3-1.3-2.2c-0.5-1.6-0.6-3,0.1-4.4c0.6-1.3,1.7-2.4,3.3-3.2
					l-1.1-3l2.2-0.8l1.1,3c1.7-0.4,3.2-0.1,4.6,0.6c1.3,0.8,2.3,2.1,2.9,3.9l-4,1.5c-0.4-1.1-0.9-1.8-1.6-2.3
					c-0.6-0.3-1.4-0.4-2.1-0.1c-0.8,0.3-1.3,0.7-1.6,1.2c-0.3,0.6-0.2,1.2,0,2c0.3,0.7,0.6,1.2,1.2,1.5c0.5,0.3,1.5,0.4,2.7,0.5
					s2.3,0.1,3.2,0.2c0.9,0.2,1.6,0.3,2.3,0.7c0.7,0.3,1.2,0.8,1.8,1.3c0.4,0.5,0.9,1.2,1.2,2.1c0.5,1.6,0.6,3.1,0,4.4
					s-1.7,2.4-3.4,3.2l1,2.8l-2.2,0.8l-1-2.7c-1.9,0.5-3.7,0.3-5.1-0.4c-1.4-0.8-2.5-2.1-3.2-4l4-1.5c0.4,1.1,1,1.8,1.7,2.2
					c0.7,0.4,1.6,0.4,2.5,0c0.8-0.3,1.4-0.7,1.6-1.3C214.9,374.4,214.9,373.7,214.7,373z"/>
			</g>
		</g>
	</g>
</g>
<path class="st0" d="M193.8,382.4v-7.2h-32.1c-6.8,1.7-11.8,7.8-11.8,15l-0.1,40.7V526c0.9,7.6,7.5,13.6,15.4,13.6l170.1,0.2l0,0
	c4.1,0,8-1.6,10.9-4.5s4.6-6.8,4.6-10.9v-1.2c0.3-1.4,0.5-2.9,0.5-4.3l0.2-127.2c0-3.3-0.9-6.5-2.4-9.2L193.8,382.4L193.8,382.4z"/>
<path class="st5" d="M535.4,521.6v-34.1c1.1-1.9,1.9-4.4,1.9-7.7c0-11.7,0-21.3,0-21.3s0-9.5,0-21.3c0-5.2-2-8.4-4.2-10.4v-33.9
	c4-4.8,6.4-10.9,6.4-17.6c0-15.1-12.3-27.4-27.4-27.4c-6.6,0-12.6,2.3-17.4,6.2H468c4.5-4.9,7.3-11.4,7.3-18.7
	c0-15.1-12.3-27.4-27.4-27.4s-27.4,12.3-27.4,27.4c0,7.2,2.8,13.7,7.4,18.6h-17.2c-3.1-11.7-13.8-20.4-26.5-20.3
	c-11.5,0-21.3,7.1-25.4,17.2c-2.4-0.7-4.9-1-7.5-1c-15.1,0-27.4,12.3-27.4,27.4c0,4.7,1.2,9.1,3.3,13c-4.3,4.8-6.8,11.2-6.8,18.1
	c0,13.1,9.3,24.1,21.6,26.7l0.1,89.4c0,5.8,4.7,10.5,10.5,10.5h1c1.1,0.3,2.2,0.4,3.4,0.4l164.4,0.2
	C529.1,535.6,535.4,529.3,535.4,521.6z M470,373c0,1,0.1,1.9,0.3,2.9l0,0C470.1,374.9,470,374,470,373l-61.3,0.2v-0.1L470,373z"/>
<g>
	<g id="XMLID_269_">
		<circle id="XMLID_273_" class="st3" cx="448.5" cy="335.2" r="27.4"/>
		<circle id="XMLID_272_" class="st4" cx="448.5" cy="335.2" r="22.8"/>
		<g id="XMLID_270_">
			<path id="XMLID_271_" class="st3" d="M452.8,338.3c-0.3-0.8-0.7-1.3-1.2-1.6c-0.6-0.3-1.4-0.4-2.5-0.5c-1.1,0-2.1-0.1-3-0.2
				s-1.7-0.3-2.4-0.6c-0.7-0.3-1.3-0.7-1.8-1.3c-0.5-0.5-1-1.3-1.2-2.2c-0.5-1.6-0.5-3,0.2-4.4c0.6-1.3,1.7-2.4,3.3-3.2l-1.1-3
				l2.2-0.8l1.1,3c1.7-0.4,3.2-0.1,4.6,0.7c1.3,0.8,2.3,2.1,2.9,3.9l-4,1.4c-0.4-1.1-0.9-1.8-1.6-2.3c-0.6-0.3-1.4-0.4-2.1-0.2
				c-0.8,0.3-1.3,0.7-1.6,1.2c-0.3,0.6-0.3,1.2,0,2c0.3,0.7,0.6,1.2,1.2,1.5c0.5,0.3,1.5,0.4,2.7,0.5s2.3,0.2,3.2,0.3
				c0.9,0.2,1.6,0.3,2.3,0.7c0.7,0.3,1.2,0.8,1.8,1.3c0.4,0.5,0.9,1.2,1.1,2.1c0.5,1.6,0.5,3.1-0.1,4.4s-1.7,2.4-3.4,3.2l1,2.8
				l-2.2,0.8l-1-2.7c-1.9,0.4-3.7,0.3-5.1-0.4c-1.4-0.8-2.5-2.1-3.2-4l4-1.4c0.4,1.1,1,1.8,1.7,2.3c0.7,0.4,1.6,0.4,2.5,0.1
				c0.8-0.3,1.4-0.7,1.7-1.3C453.1,339.7,453.1,339,452.8,338.3z"/>
		</g>
	</g>
	<g id="XMLID_262_">
		<circle id="XMLID_268_" class="st3" cx="384.8" cy="360.9" r="27.4"/>
		<circle id="XMLID_267_" class="st4" cx="384.8" cy="360.9" r="22.8"/>
		<g id="XMLID_263_">
			<path id="XMLID_266_" class="st3" d="M389.1,364.1c-0.3-0.8-0.7-1.3-1.2-1.6c-0.6-0.3-1.4-0.4-2.5-0.5c-1.1,0-2.1-0.1-3-0.2
				s-1.7-0.3-2.4-0.6c-0.7-0.3-1.3-0.7-1.8-1.3c-0.5-0.5-1-1.3-1.2-2.2c-0.5-1.6-0.5-3,0.2-4.4c0.6-1.3,1.7-2.4,3.3-3.2l-1.1-3
				l2.2-0.8l1.1,3c1.7-0.4,3.2-0.1,4.6,0.7c1.3,0.8,2.3,2.1,2.9,3.9l-4,1.4c-0.4-1.1-0.9-1.8-1.6-2.3c-0.6-0.3-1.4-0.4-2.1-0.2
				c-0.8,0.3-1.3,0.7-1.6,1.2c-0.3,0.6-0.3,1.2,0,2c0.3,0.7,0.6,1.2,1.2,1.5c0.5,0.3,1.5,0.4,2.7,0.5s2.3,0.2,3.2,0.3
				c0.9,0.2,1.6,0.3,2.3,0.7s1.2,0.8,1.8,1.3c0.4,0.5,0.9,1.2,1.1,2.1c0.5,1.6,0.5,3.1-0.1,4.4s-1.7,2.4-3.4,3.2l1,2.8l-2.2,0.8
				l-1-2.7c-1.9,0.4-3.7,0.3-5.1-0.4c-1.4-0.8-2.5-2.1-3.2-4l4-1.4c0.4,1.1,1,1.8,1.7,2.3c0.7,0.4,1.6,0.4,2.5,0.1
				c0.8-0.3,1.4-0.7,1.7-1.3C389.4,365.5,389.4,364.8,389.1,364.1z"/>
		</g>
	</g>
	<g id="XMLID_257_">
		<circle id="XMLID_261_" class="st3" cx="351.9" cy="377.1" r="27.4"/>
		<circle id="XMLID_260_" class="st4" cx="351.9" cy="377.1" r="22.8"/>
		<g id="XMLID_258_">
			<path id="XMLID_259_" class="st3" d="M356.2,380.2c-0.3-0.8-0.7-1.3-1.2-1.6c-0.6-0.3-1.4-0.4-2.5-0.5c-1.1,0-2.1-0.1-3-0.2
				s-1.7-0.3-2.4-0.6c-0.7-0.3-1.3-0.7-1.8-1.3c-0.5-0.5-1-1.3-1.2-2.2c-0.5-1.6-0.5-3,0.2-4.4c0.6-1.3,1.7-2.4,3.3-3.2l-1.1-3
				l2.2-0.8l1.1,3c1.7-0.4,3.2-0.1,4.6,0.7c1.4,0.8,2.3,2.1,2.9,3.9l-4,1.4c-0.4-1.1-0.9-1.8-1.6-2.3c-0.6-0.3-1.4-0.4-2.1-0.2
				c-0.8,0.3-1.3,0.7-1.6,1.2c-0.3,0.6-0.3,1.2,0,2c0.3,0.7,0.6,1.2,1.2,1.5c0.5,0.3,1.5,0.4,2.7,0.5s2.3,0.2,3.2,0.3
				c0.9,0.2,1.6,0.3,2.3,0.7c0.7,0.4,1.2,0.8,1.8,1.3c0.4,0.5,0.9,1.2,1.1,2.1c0.5,1.6,0.5,3.1-0.1,4.4s-1.7,2.4-3.4,3.2l1,2.8
				l-2.2,0.8l-1-2.7c-1.9,0.4-3.7,0.3-5.1-0.4c-1.4-0.8-2.5-2.1-3.2-4l4-1.4c0.4,1.1,1,1.8,1.7,2.3c0.7,0.4,1.6,0.4,2.5,0.1
				c0.8-0.3,1.4-0.7,1.7-1.3C356.5,381.6,356.5,380.9,356.2,380.2z"/>
		</g>
	</g>
	<g id="XMLID_252_">
		<circle id="XMLID_256_" class="st3" cx="348.4" cy="408.2" r="27.4"/>
		<circle id="XMLID_255_" class="st4" cx="348.4" cy="408.2" r="22.8"/>
		<g id="XMLID_253_">
			<path id="XMLID_254_" class="st3" d="M352.7,411.3c-0.3-0.8-0.7-1.3-1.2-1.6c-0.6-0.3-1.4-0.4-2.5-0.5c-1.1,0-2.1-0.1-3-0.2
				s-1.7-0.3-2.4-0.6c-0.7-0.3-1.3-0.7-1.8-1.3c-0.5-0.5-1-1.3-1.2-2.2c-0.5-1.6-0.5-3,0.2-4.4c0.6-1.3,1.7-2.4,3.3-3.2l-1.1-3
				l2.2-0.8l1.1,3c1.7-0.4,3.2-0.1,4.6,0.7c1.3,0.8,2.3,2.1,2.9,3.9l-4,1.4c-0.4-1.1-0.9-1.8-1.6-2.3c-0.6-0.3-1.4-0.4-2.1-0.2
				c-0.8,0.3-1.3,0.7-1.6,1.2c-0.3,0.6-0.3,1.2,0,2c0.3,0.7,0.6,1.2,1.2,1.5c0.5,0.3,1.5,0.4,2.7,0.5s2.3,0.2,3.2,0.3
				c0.9,0.2,1.6,0.3,2.3,0.7c0.7,0.4,1.2,0.8,1.8,1.3c0.4,0.5,0.9,1.2,1.1,2.1c0.5,1.6,0.5,3.1-0.1,4.4s-1.7,2.4-3.4,3.2l1,2.8
				l-2.2,0.8l-1-2.7c-1.9,0.4-3.7,0.3-5.1-0.4c-1.4-0.8-2.5-2.1-3.2-4l4-1.4c0.4,1.1,1,1.8,1.7,2.3c0.7,0.4,1.6,0.4,2.5,0.1
				c0.8-0.3,1.4-0.7,1.7-1.3C353,412.7,353,412,352.7,411.3z"/>
		</g>
	</g>
	<g id="XMLID_247_">
		<circle id="XMLID_251_" class="st3" cx="512.7" cy="374.9" r="27.4"/>
		<circle id="XMLID_250_" class="st4" cx="512.7" cy="374.9" r="22.8"/>
		<g id="XMLID_248_">
			<path id="XMLID_249_" class="st3" d="M512.2,380.3c0.5-0.6,0.8-1.2,0.7-1.9c0-0.6-0.4-1.5-0.9-2.4c-0.5-1-1-1.9-1.3-2.7
				c-0.4-0.8-0.5-1.6-0.6-2.4s0-1.5,0.2-2.2s0.6-1.5,1.2-2.2c1-1.2,2.4-1.9,3.8-2.1c1.5-0.1,3,0.3,4.4,1.3l2-2.4l1.8,1.5l-2.1,2.5
				c1.1,1.3,1.8,2.7,1.8,4.3c0,1.6-0.6,3.1-1.9,4.6l-3.2-2.7c0.8-0.9,1.1-1.8,1.1-2.5c0-0.8-0.3-1.4-1-1.9c-0.6-0.5-1.2-0.8-1.8-0.7
				c-0.6,0.1-1.2,0.4-1.7,1.1c-0.4,0.6-0.7,1.1-0.7,1.8c0,0.6,0.4,1.5,1,2.6c0.6,1.1,1.1,2.1,1.3,2.9c0.4,0.8,0.5,1.6,0.5,2.3
				c0.1,0.7,0,1.5-0.3,2.1c-0.3,0.7-0.6,1.4-1.2,2c-1,1.3-2.4,2-3.8,2.1c-1.5,0.1-3-0.3-4.5-1.4l-1.9,2.3l-1.8-1.5l1.8-2.2
				c-1.4-1.5-2.1-3-2.2-4.6c-0.1-1.7,0.5-3.2,1.8-4.7l3.2,2.7c-0.8,0.9-1.1,1.8-1.1,2.6s0.4,1.6,1.2,2.3c0.7,0.5,1.3,0.8,2,0.8
				C511.1,381.1,511.7,380.8,512.2,380.3z"/>
		</g>
	</g>
</g>
<g id="XMLID_181_">
	<polygon id="XMLID_187_" class="st6" points="209.2,398 193.9,398 193.9,353.6 351.4,353.8 351.4,363 209.2,362.8 	"/>
	<path id="XMLID_185_" class="st7" d="M209.2,362.7l142.1,0.2v9.5l-110-0.1c0,10.9-9.3,19.6-20.7,19.6v6.1h-11.5L209.2,362.7z"/>
	<path id="XMLID_184_" class="st6" d="M241.4,372.4l109.9,0.1v24.2c-16.5,0.2-31.2-9.1-41.7,1.4l-88.8-0.1v-6.1
		C232,391.9,241.3,383.2,241.4,372.4z"/>
</g>
<rect id="XMLID_180_" x="193.3" y="375.3" transform="matrix(1 1.347927e-003 -1.347927e-003 1 0.5489 -0.3663)" class="st8" width="157.4" height="63.4"/>
<path id="XMLID_11_" class="st5" d="M536.2,422l9.9-0.2l0,0l12.5-0.2c0,0,15.4,1.5,15.5,13.2s0.3,21.3,0.3,21.3s0.1,9.5,0.3,21.3
	c0.2,11.7-15.1,13.7-15.1,13.7l-18.6,0.3l0,0l-3.7,0.1c0,0-8.2-1.6-8.3-13.4s-0.3-21.3-0.3-21.3s-0.1-9.5-0.3-21.3
	C528.1,423.9,536.2,422,536.2,422z"/>
<g id="XMLID_240_">
	<g id="XMLID_242_">
		<polygon id="XMLID_245_" class="st6" points="493,362.8 350.8,363 350.8,353.8 508.3,353.6 508.3,398 493,398 		"/>
		<path id="XMLID_244_" class="st7" d="M493,398h-11.5v-6.1c-11.4,0-20.7-8.7-20.7-19.6l-110,0.1v-9.5l142.1-0.2L493,398z"/>
		<path id="XMLID_243_" class="st6" d="M481.6,391.9v6.1l-88.8,0.1c-10.5-10.6-25.3-1.3-41.7-1.4v-24.2l109.9-0.1
			C460.9,383.2,470.2,391.9,481.6,391.9z"/>
	</g>
	
		<rect id="XMLID_241_" x="350.9" y="375.3" transform="matrix(-1 1.347927e-003 -1.347927e-003 -1 859.748 813.5013)" class="st8" width="157.4" height="63.4"/>
</g>
<path id="XMLID_239_" class="st9" d="M523.4,534.6l-162.3,0.2c-5.8,0-10.5-4.7-10.5-10.5l-0.2-133.9c0-5.8,4.7-10.5,10.5-10.5
	l162.3-0.2c5.8,0,10.5,4.7,10.5,10.5l0.2,133.9C533.9,529.9,529.2,534.6,523.4,534.6z"/>
<path id="XMLID_238_" class="st10" d="M520.9,379.7l-159,0.2c-5,0-9.1,4.3-9.1,9.6l0.2,135.6c0,1.8,0.5,3.6,1.4,5.1l0,0
	c0,5.1,7.7,4.5,7.7,4.5l159-0.2c5,0,9.1-4.3,9.1-9.6L530,389.3C530.1,384,526,379.7,520.9,379.7z"/>
<path id="XMLID_13_" class="st10" d="M537.2,422l9.9-0.2l0,0l12.5-0.2c0,0,15.4,1.5,15.5,13.2s0.3,21.3,0.3,21.3s0.1,9.5,0.3,21.3
	c0.2,11.7-15.1,13.7-15.1,13.7l-18.6,0.3l0,0l-3.7,0.1c0,0-8.2-1.6-8.3-13.4s-0.3-21.3-0.3-21.3s-0.1-9.5-0.3-21.3
	C529.1,423.9,537.2,422,537.2,422z"/>
<path id="XMLID_40_" class="st9" d="M154.8,524.1l0.2-133.9c0-5.8,4.7-10.5,10.5-10.5l162.3,0.2c5.8,0,10.5,4.7,10.5,10.5
	l-0.2,133.9c0,5.8-4.7,10.5-10.5,10.5l-162.3-0.2C159.5,534.6,154.8,529.9,154.8,524.1z"/>
<path id="XMLID_39_" class="st10" d="M158.6,389.3l-0.2,135.6c0,5.3,4.1,9.5,9.1,9.6l159,0.2c0,0,7.7,0.6,7.7-4.5l0,0
	c0.9-1.5,1.4-3.2,1.4-5.1l0.2-135.6c0-5.3-4.1-9.5-9.1-9.6l-159-0.2C162.7,379.7,158.6,384,158.6,389.3z"/>
<path id="XMLID_38_" class="st9" d="M162.8,524.1l0.2-133.8c0-5.8,5.1-10.5,11.4-10.5l176.2,0.2c6.3,0,11.4,4.7,11.4,10.5
	l-0.2,133.8c0,5.8-5.1,10.5-11.4,10.5l-176.2-0.2C167.9,534.6,162.7,529.9,162.8,524.1z"/>
<g>
	<rect id="XMLID_166_" x="246.1" y="385.3" class="st10" width="21.6" height="144.8"/>
	<rect id="XMLID_163_" x="242.6" y="387.4" class="st11" width="20.3" height="140.2"/>
	<rect id="XMLID_139_" x="214.4" y="385.3" class="st10" width="21.6" height="144.8"/>
	<rect id="XMLID_81_" x="210.9" y="387.4" class="st11" width="20.3" height="140.2"/>
	<rect id="XMLID_77_" x="184.4" y="385.3" class="st10" width="21.6" height="144.8"/>
	<rect id="XMLID_75_" x="180.9" y="387.4" class="st11" width="20.3" height="140.2"/>
</g>
<g>
	<rect id="XMLID_237_" x="486.2" y="391.8" class="st6" width="2.2" height="4.5"/>
	
		<ellipse id="XMLID_236_" transform="matrix(1.348007e-003 1 -1 1.348007e-003 976.2332 -22.7155)" class="st12" cx="499.5" cy="477.4" rx="5.4" ry="5.2"/>
	<rect id="XMLID_235_" x="503.7" y="479.1" class="st13" width="2.3" height="9.5"/>
	<rect id="XMLID_234_" x="503.7" y="460" class="st13" width="2.3" height="9.5"/>
	<rect id="XMLID_233_" x="502.6" y="479.9" class="st13" width="2.3" height="9.5"/>
	<rect id="XMLID_232_" x="502.6" y="460.8" class="st13" width="2.3" height="9.5"/>
	<rect id="XMLID_231_" x="502.5" y="441.7" class="st13" width="2.3" height="9.5"/>
	<rect id="XMLID_230_" x="502.2" y="470.4" class="st11" width="2.3" height="9.5"/>
	<rect id="XMLID_229_" x="502.2" y="451.2" class="st11" width="2.3" height="9.5"/>
	<rect id="XMLID_228_" x="502.2" y="432.2" class="st11" width="2.3" height="9.5"/>
	<path id="XMLID_227_" class="st9" d="M515.5,534.6l-162.2,0.2c-5.8,0-10.5-4.7-10.5-10.5l-0.2-133.8c0-5.8,4.7-10.5,10.5-10.5
		l162.2-0.2c5.8,0,10.5,4.7,10.5,10.5l0.2,133.8C526,529.9,521.2,534.6,515.5,534.6z"/>
	<rect id="XMLID_56_" x="342.6" y="386.3" class="st10" width="179.2" height="141.5"/>
	<rect id="XMLID_54_" x="350.5" y="395.4" class="st9" width="166.5" height="123.3"/>
	<rect id="XMLID_42_" x="357.7" y="441.4" class="st10" width="156.5" height="77.6"/>
	<g id="XMLID_12_">
		<polygon id="XMLID_41_" class="st14" points="506.7,474.2 461.4,516.8 469.8,516.8 506.7,482.1 		"/>
		<polygon id="XMLID_37_" class="st14" points="506.7,446 487.6,446 412.3,516.8 453.8,516.8 506.7,467.1 		"/>
		<polygon id="XMLID_36_" class="st14" points="451.7,446 376.3,516.8 387.6,516.8 462.9,446 		"/>
		<polygon id="XMLID_35_" class="st14" points="473.6,516.8 506.7,516.8 506.7,485.7 		"/>
		<polygon id="XMLID_34_" class="st14" points="366.3,446 366.3,477.1 399.4,446 		"/>
		<polygon id="XMLID_32_" class="st12" points="399.4,446 366.3,477.1 366.3,516.8 376.3,516.8 451.7,446 		"/>
		<polygon id="XMLID_29_" class="st12" points="462.9,446 387.6,516.8 412.3,516.8 487.6,446 		"/>
		<polygon id="XMLID_27_" class="st12" points="506.7,467.1 453.8,516.8 461.4,516.8 506.7,474.2 		"/>
		<polygon id="XMLID_25_" class="st12" points="506.7,482.1 469.8,516.8 473.6,516.8 506.7,485.7 		"/>
	</g>
	<rect id="XMLID_323_" x="363" y="432.2" class="st10" width="144.8" height="21.6"/>
	<rect id="XMLID_321_" x="365.4" y="428.7" class="st11" width="140.2" height="20.3"/>
	<rect id="XMLID_320_" x="363" y="402.2" class="st10" width="144.8" height="21.6"/>
	<rect id="XMLID_78_" x="365.4" y="398.7" class="st11" width="140.2" height="20.3"/>
</g>
<g id="XMLID_328_">
	<path id="XMLID_331_" class="st15" d="M57.5,395.5v12.8v23.8l0,0V492l0,0v13.7v12.8c0,0-0.2,9.4,10.5,9.4h12.6h40.3h11.5
		c0.3,0,0.7,0,1,0c10.7,0,10.5-9.4,10.5-9.4v-12.8V492l0,0v-59.9l0,0v-23.8v-12.8c0,0,0.2-9.4-10.5-9.4c-0.4,0-0.7,0-1,0h-11.5H80.6
		H68C57.2,386.1,57.5,395.5,57.5,395.5z"/>
	<rect id="XMLID_330_" x="103.5" y="386.1" class="st3" width="17.4" height="141.7"/>
	<circle id="XMLID_329_" class="st3" cx="75.8" cy="510.4" r="8.4"/>
</g>
<g id="lid" class="st1">
	<g class="st16">
		<path class="st5" d="M67.2,1039.7v-34.1c1.1-1.9,1.9-4.4,1.9-7.7c0-11.7,0-21.3,0-21.3s0-9.5,0-21.3c0-5.2-2-8.4-4.2-10.4V911
			c4-4.8,6.4-10.9,6.4-17.6c0-15.1-12.3-27.4-27.4-27.4c-6.6,0-12.6,2.3-17.4,6.2H-0.2c4.5-4.9,7.3-11.4,7.3-18.7
			c0-15.1-12.3-27.4-27.4-27.4c-15.4,0.3-27.6,12.6-27.6,27.7c0,7.2,2.8,13.7,7.4,18.6h-17.2c-3.1-11.7-13.8-20.4-26.5-20.3
			c-11.5,0-21.3,7.1-25.4,17.2c-2.4-0.7-4.9-1-7.5-1c-15.1,0-27.4,12.3-27.4,27.4c0,4.7,1.2,9.1,3.3,13c-4.3,4.8-6.8,11.2-6.8,18.1
			c0,13.1,9.3,24.1,21.6,26.7l0.1,89.4c0,5.8,4.7,10.5,10.5,10.5h1c1.1,0.3,2.2,0.4,3.4,0.4l164.6-0.1
			C60.9,1053.7,67.2,1047.4,67.2,1039.7z M1.8,891.1c0,1,0.1,1.9,0.3,2.9l0,0C1.9,893,1.8,892.1,1.8,891.1l-61.3,0.2v-0.1L1.8,891.1
			z"/>
		<g>
			<g id="XMLID_314_">
				<circle id="XMLID_318_" class="st3" cx="-19.7" cy="853.3" r="27.4"/>
				<circle id="XMLID_317_" class="st4" cx="-19.7" cy="853.3" r="22.8"/>
				<g id="XMLID_315_">
					<path id="XMLID_316_" class="st3" d="M-15.4,856.4c-0.3-0.8-0.7-1.3-1.2-1.6c-0.6-0.3-1.4-0.4-2.5-0.5c-1.1,0-2.1-0.1-3-0.2
						c-0.9-0.1-1.7-0.3-2.4-0.6c-0.7-0.3-1.3-0.7-1.8-1.3c-0.5-0.5-1-1.3-1.2-2.2c-0.5-1.6-0.5-3,0.2-4.4c0.6-1.3,1.7-2.4,3.3-3.2
						l-1.1-3l2.2-0.8l1.1,3c1.7-0.4,3.2-0.1,4.6,0.7c1.3,0.8,2.3,2.1,2.9,3.9l-4,1.4c-0.4-1.1-0.9-1.8-1.6-2.3
						c-0.6-0.3-1.4-0.4-2.1-0.2c-0.8,0.3-1.3,0.7-1.6,1.2c-0.3,0.6-0.3,1.2,0,2c0.3,0.7,0.6,1.2,1.2,1.5c0.5,0.3,1.5,0.4,2.7,0.5
						s2.3,0.2,3.2,0.3c0.9,0.2,1.6,0.3,2.3,0.7c0.7,0.3,1.2,0.8,1.8,1.3c0.4,0.5,0.9,1.2,1.1,2.1c0.5,1.6,0.5,3.1-0.1,4.4
						s-1.7,2.4-3.4,3.2l1,2.8l-2.2,0.8l-1-2.7c-1.9,0.4-3.7,0.3-5.1-0.4c-1.4-0.8-2.5-2.1-3.2-4l4-1.4c0.4,1.1,1,1.8,1.7,2.3
						c0.7,0.5,1.6,0.4,2.5,0.1c0.8-0.3,1.4-0.7,1.7-1.3C-15.1,857.8-15.1,857.1-15.4,856.4z"/>
				</g>
			</g>
			<g id="XMLID_309_">
				<circle id="XMLID_313_" class="st3" cx="-83.4" cy="879" r="27.4"/>
				<circle id="XMLID_312_" class="st4" cx="-83.4" cy="879" r="22.8"/>
				<g id="XMLID_310_">
					<path id="XMLID_311_" class="st3" d="M-79.1,882.2c-0.3-0.8-0.7-1.3-1.2-1.6c-0.6-0.3-1.4-0.4-2.5-0.5c-1.1,0-2.1-0.1-3-0.2
						c-0.9-0.1-1.7-0.3-2.4-0.6c-0.7-0.3-1.3-0.7-1.8-1.3c-0.5-0.5-1-1.3-1.2-2.2c-0.5-1.6-0.5-3,0.2-4.4c0.6-1.3,1.7-2.4,3.3-3.2
						l-1.1-3l2.2-0.8l1.1,3c1.7-0.4,3.2-0.1,4.6,0.7c1.3,0.8,2.3,2.1,2.9,3.9l-4,1.4c-0.4-1.1-0.9-1.8-1.6-2.3
						c-0.6-0.3-1.4-0.4-2.1-0.2c-0.8,0.3-1.3,0.7-1.6,1.2c-0.3,0.6-0.3,1.2,0,2c0.3,0.7,0.6,1.2,1.2,1.5c0.5,0.3,1.5,0.4,2.7,0.5
						s2.3,0.2,3.2,0.3c0.9,0.2,1.6,0.3,2.3,0.7c0.7,0.3,1.2,0.8,1.8,1.3c0.4,0.5,0.9,1.2,1.1,2.1c0.5,1.6,0.5,3.1-0.1,4.4
						s-1.7,2.4-3.4,3.2l1,2.8l-2.2,0.8l-1-2.7c-1.9,0.4-3.7,0.3-5.1-0.4c-1.4-0.8-2.5-2.1-3.2-4l4-1.4c0.4,1.1,1,1.8,1.7,2.3
						s1.6,0.4,2.5,0.1c0.8-0.3,1.4-0.7,1.7-1.3C-78.8,883.6-78.8,882.9-79.1,882.2z"/>
				</g>
			</g>
			<g id="XMLID_304_">
				<circle id="XMLID_308_" class="st3" cx="-116.3" cy="895.2" r="27.4"/>
				<circle id="XMLID_307_" class="st4" cx="-116.3" cy="895.2" r="22.8"/>
				<g id="XMLID_305_">
					<path id="XMLID_306_" class="st3" d="M-112,898.3c-0.3-0.8-0.7-1.3-1.2-1.6c-0.6-0.3-1.4-0.4-2.5-0.5c-1.1,0-2.1-0.1-3-0.2
						c-0.9-0.1-1.7-0.3-2.4-0.6c-0.7-0.3-1.3-0.7-1.8-1.3c-0.5-0.5-1-1.3-1.2-2.2c-0.5-1.6-0.5-3,0.2-4.4c0.6-1.3,1.7-2.4,3.3-3.2
						l-1.1-3l2.2-0.8l1.1,3c1.7-0.4,3.2-0.1,4.6,0.7s2.3,2.1,2.9,3.9l-4,1.4c-0.4-1.1-0.9-1.8-1.6-2.3c-0.6-0.3-1.4-0.4-2.1-0.2
						c-0.8,0.3-1.3,0.7-1.6,1.2c-0.3,0.6-0.3,1.2,0,2c0.3,0.7,0.6,1.2,1.2,1.5c0.5,0.3,1.5,0.4,2.7,0.5s2.3,0.2,3.2,0.3
						c0.9,0.2,1.6,0.3,2.3,0.7s1.2,0.8,1.8,1.3c0.4,0.5,0.9,1.2,1.1,2.1c0.5,1.6,0.5,3.1-0.1,4.4s-1.7,2.4-3.4,3.2l1,2.8l-2.2,0.8
						l-1-2.7c-1.9,0.4-3.7,0.3-5.1-0.4c-1.4-0.8-2.5-2.1-3.2-4l4-1.4c0.4,1.1,1,1.8,1.7,2.3c0.7,0.4,1.6,0.4,2.5,0.1
						c0.8-0.3,1.4-0.7,1.7-1.3C-111.7,899.7-111.7,899-112,898.3z"/>
				</g>
			</g>
			<g id="XMLID_299_">
				<circle id="XMLID_303_" class="st3" cx="-119.8" cy="926.3" r="27.4"/>
				<circle id="XMLID_302_" class="st4" cx="-119.8" cy="926.3" r="22.8"/>
				<g id="XMLID_300_">
					<path id="XMLID_301_" class="st3" d="M-115.5,929.4c-0.3-0.8-0.7-1.3-1.2-1.6c-0.6-0.3-1.4-0.4-2.5-0.5c-1.1,0-2.1-0.1-3-0.2
						c-0.9-0.1-1.7-0.3-2.4-0.6c-0.7-0.3-1.3-0.7-1.8-1.3c-0.5-0.5-1-1.3-1.2-2.2c-0.5-1.6-0.5-3,0.2-4.4c0.6-1.3,1.7-2.4,3.3-3.2
						l-1.1-3l2.2-0.8l1.1,3c1.7-0.4,3.2-0.1,4.6,0.7c1.3,0.8,2.3,2.1,2.9,3.9l-4,1.4c-0.4-1.1-0.9-1.8-1.6-2.3
						c-0.6-0.3-1.4-0.4-2.1-0.2c-0.8,0.3-1.3,0.7-1.6,1.2c-0.3,0.6-0.3,1.2,0,2c0.3,0.7,0.6,1.2,1.2,1.5c0.5,0.3,1.5,0.4,2.7,0.5
						s2.3,0.2,3.2,0.3c0.9,0.2,1.6,0.3,2.3,0.7s1.2,0.8,1.8,1.3c0.4,0.5,0.9,1.2,1.1,2.1c0.5,1.6,0.5,3.1-0.1,4.4s-1.7,2.4-3.4,3.2
						l1,2.8l-2.2,0.8l-1-2.7c-1.9,0.4-3.7,0.3-5.1-0.4c-1.4-0.8-2.5-2.1-3.2-4l4-1.4c0.4,1.1,1,1.8,1.7,2.3c0.7,0.4,1.6,0.4,2.5,0.1
						c0.8-0.3,1.4-0.7,1.7-1.3C-115.2,930.8-115.2,930.1-115.5,929.4z"/>
				</g>
			</g>
			<g id="XMLID_294_">
				<circle id="XMLID_298_" class="st3" cx="44.5" cy="893" r="27.4"/>
				<circle id="XMLID_297_" class="st4" cx="44.5" cy="893" r="22.8"/>
				<g id="XMLID_295_">
					<path id="XMLID_296_" class="st3" d="M44,898.4c0.5-0.6,0.8-1.2,0.7-1.9c0-0.6-0.4-1.5-0.9-2.4c-0.5-1-1-1.9-1.3-2.7
						c-0.4-0.8-0.5-1.6-0.6-2.4s0-1.5,0.2-2.2s0.6-1.5,1.2-2.2c1-1.2,2.4-1.9,3.8-2.1c1.5-0.1,3,0.3,4.4,1.3l2-2.4l1.8,1.5l-2.1,2.5
						c1.1,1.3,1.8,2.7,1.8,4.3s-0.6,3.1-1.9,4.6l-3.2-2.7c0.8-0.9,1.1-1.8,1.1-2.5c0-0.8-0.3-1.4-1-1.9c-0.6-0.5-1.2-0.8-1.8-0.7
						s-1.2,0.4-1.7,1.1c-0.4,0.6-0.7,1.1-0.7,1.8c0,0.6,0.4,1.5,1,2.6s1.1,2.1,1.3,2.9c0.4,0.8,0.5,1.6,0.5,2.3
						c0.1,0.7,0,1.5-0.3,2.1c-0.3,0.7-0.6,1.4-1.2,2c-1,1.3-2.4,2-3.8,2.1c-1.5,0.1-3-0.3-4.5-1.4l-1.9,2.3l-1.8-1.5l1.8-2.2
						c-1.4-1.5-2.1-3-2.2-4.6c-0.1-1.7,0.5-3.2,1.8-4.7l3.2,2.7c-0.8,0.9-1.1,1.8-1.1,2.6s0.4,1.6,1.2,2.3c0.7,0.5,1.3,0.8,2,0.8
						C42.9,899.2,43.5,898.9,44,898.4z"/>
				</g>
			</g>
		</g>
		<g id="XMLID_288_">
			<g id="XMLID_290_">
				<polygon id="XMLID_293_" class="st6" points="24.8,880.9 -117.4,881.1 -117.4,871.9 40.1,871.7 40.1,916.1 24.8,916.1 				"/>
				<path id="XMLID_292_" class="st7" d="M24.8,916.1H13.3V910c-11.4,0-20.7-8.7-20.7-19.6l-110,0.1V881l142.1-0.2L24.8,916.1z"/>
				<path id="XMLID_291_" class="st6" d="M13.4,910v6.1l-88.8,0.1c-10.5-10.6-25.3-1.3-41.7-1.4v-24.2l109.9-0.1
					C-7.3,901.3,2,910,13.4,910z"/>
			</g>
			
				<rect id="XMLID_289_" x="-117.2" y="893.4" transform="matrix(1 -1.347926e-003 1.347926e-003 1 -1.247 -5.105463e-002)" class="st8" width="157.4" height="63.4"/>
		</g>
		<path id="XMLID_287_" class="st9" d="M55.2,1052.7l-162.3,0.2c-5.8,0-10.5-4.7-10.5-10.5l-0.2-133.9c0-5.8,4.7-10.5,10.5-10.5
			L55,897.8c5.8,0,10.5,4.7,10.5,10.5l0.2,133.9C65.7,1048,61,1052.7,55.2,1052.7z"/>
		<path id="XMLID_286_" class="st10" d="M52.7,897.8l-159,0.2c-5,0-9.1,4.3-9.1,9.6l0.2,135.6c0,1.8,0.5,3.6,1.4,5.1l0,0
			c0,5.1,7.7,4.5,7.7,4.5l159-0.2c5,0,9.1-4.3,9.1-9.6l-0.2-135.6C61.9,902.1,57.8,897.8,52.7,897.8z"/>
		<rect id="XMLID_285_" x="18" y="909.9" class="st6" width="2.2" height="4.5"/>
		
			<ellipse id="XMLID_284_" transform="matrix(1 -1.348006e-003 1.348006e-003 1 -1.3418 4.308607e-002)" class="st12" cx="31.3" cy="995.4" rx="5.2" ry="5.4"/>
		<rect id="XMLID_283_" x="35.5" y="997.2" class="st13" width="2.3" height="9.5"/>
		<rect id="XMLID_282_" x="35.5" y="978.1" class="st13" width="2.3" height="9.5"/>
		<rect id="XMLID_281_" x="34.4" y="998" class="st13" width="2.3" height="9.5"/>
		<rect id="XMLID_280_" x="34.4" y="978.9" class="st13" width="2.3" height="9.5"/>
		<rect id="XMLID_279_" x="34.3" y="959.8" class="st13" width="2.3" height="9.5"/>
		<rect id="XMLID_278_" x="34" y="988.5" class="st11" width="2.3" height="9.5"/>
		<rect id="XMLID_277_" x="34" y="969.3" class="st11" width="2.3" height="9.5"/>
		<rect id="XMLID_276_" x="34" y="950.3" class="st11" width="2.3" height="9.5"/>
		<path id="XMLID_275_" class="st9" d="M47.3,1052.7l-162.2,0.3c-5.8,0-10.5-4.7-10.5-10.5l-0.2-133.8c0-5.8,4.7-10.5,10.5-10.5
			l162.2-0.3c5.8,0,10.5,4.7,10.5,10.5l0.2,133.8C57.8,1048,53,1052.7,47.3,1052.7z"/>
		<g id="XMLID_198_">
			<g id="XMLID_212_">
				
					<rect id="XMLID_274_" x="21.4" y="1043.7" transform="matrix(1 -1.347926e-003 1.347926e-003 1 -1.4084 3.592791e-002)" class="st11" width="9.1" height="2.4"/>
				
					<rect id="XMLID_226_" x="0.8" y="1043.8" transform="matrix(1 -1.347926e-003 1.347926e-003 1 -1.4085 8.160814e-003)" class="st11" width="9.1" height="2.4"/>
				
					<rect id="XMLID_225_" x="-17.4" y="1043.8" transform="matrix(1 -1.347926e-003 1.347926e-003 1 -1.4086 -1.637171e-002)" class="st11" width="9.1" height="2.4"/>
				
					<rect id="XMLID_224_" x="-35.7" y="1043.9" transform="matrix(1 -1.347926e-003 1.347926e-003 1 -1.4087 -4.103843e-002)" class="st11" width="9.1" height="2.4"/>
				
					<rect id="XMLID_223_" x="-53.9" y="1043.8" transform="matrix(1 -1.347926e-003 1.347926e-003 1 -1.4086 -6.557086e-002)" class="st11" width="9.1" height="2.4"/>
				
					<rect id="XMLID_222_" x="-72.1" y="1043.9" transform="matrix(1 -1.347926e-003 1.347926e-003 1 -1.4087 -9.010293e-002)" class="st11" width="9.1" height="2.4"/>
				
					<rect id="XMLID_221_" x="-90.3" y="1043.9" transform="matrix(1 -1.347926e-003 1.347926e-003 1 -1.4088 -0.1146)" class="st11" width="9.1" height="2.4"/>
				
					<rect id="XMLID_220_" x="-108.6" y="1044" transform="matrix(1 -1.347926e-003 1.347926e-003 1 -1.4089 -0.1393)" class="st11" width="9.1" height="2.4"/>
				<path id="XMLID_218_" class="st11" d="M41.1,1045.7l-0.5-2.3c2.7-0.7,5-2.6,5.9-5.2l2.1,0.9
					C47.4,1042.4,44.6,1044.9,41.1,1045.7z"/>
				<rect id="XMLID_217_" x="47" y="1019.7" class="st11" width="2.3" height="9.5"/>
				<rect id="XMLID_216_" x="46.9" y="924.2" class="st11" width="2.3" height="9.5"/>
				<path id="XMLID_215_" class="st11" d="M46.9,914.6c-0.1-2.7-1.5-5.3-3.9-6.8l1.1-2c3.1,1.9,5,5.2,5.1,8.8H46.9z"/>
			</g>
			
				<rect id="XMLID_210_" x="25.6" y="904" transform="matrix(1 -1.347926e-003 1.347926e-003 1 -1.2201 4.146229e-002)" class="st11" width="9.1" height="2.4"/>
			
				<rect id="XMLID_209_" x="7.4" y="904.1" transform="matrix(1 -1.347926e-003 1.347926e-003 1 -1.2202 1.693022e-002)" class="st11" width="9.1" height="2.4"/>
			
				<rect id="XMLID_206_" x="-10.8" y="904.1" transform="matrix(1 -1.347926e-003 1.347926e-003 1 -1.2202 -7.602298e-003)" class="st11" width="9.1" height="2.4"/>
			
				<rect id="XMLID_205_" x="-29" y="904.2" transform="matrix(1 -1.347926e-003 1.347926e-003 1 -1.2204 -3.213437e-002)" class="st11" width="9.1" height="2.4"/>
			
				<rect id="XMLID_204_" x="-47.3" y="904.1" transform="matrix(1 -1.347926e-003 1.347926e-003 1 -1.2203 -5.680146e-002)" class="st11" width="9.1" height="2.4"/>
			
				<rect id="XMLID_202_" x="-65.5" y="904.2" transform="matrix(1 -1.347926e-003 1.347926e-003 1 -1.2204 -8.133353e-002)" class="st11" width="9.1" height="2.4"/>
			
				<rect id="XMLID_201_" x="-83.7" y="904.2" transform="matrix(1 -1.347926e-003 1.347926e-003 1 -1.2204 -0.1059)" class="st11" width="9.1" height="2.4"/>
			
				<rect id="XMLID_200_" x="-102" y="904.3" transform="matrix(1 -1.347926e-003 1.347926e-003 1 -1.2206 -0.1305)" class="st11" width="9.1" height="2.4"/>
		</g>
		<path id="XMLID_197_" class="st17" d="M-126.1,909.7l0.2,127.2c0,7.7,6.3,14,14,14l164.5-0.2c7.7,0,14-6.3,14-14l-0.1-51.5
			c-21.2,18.8-81.4,61.4-141.8,2.1c-38.1-37.4-34.8-69.3-22.2-91.5h-14.6C-119.8,895.8-126.1,902-126.1,909.7z"/>
		<g>
			<path id="XMLID_188_" class="st10" d="M58.7,940.4l-12.3,0.2l0,0l-15.6,0.2c0,0-19.1,2-19,13.8c0.2,11.7,0.3,21.3,0.3,21.3
				s0.1,9.5,0.3,21.3c0.2,11.7,19.4,13.2,19.4,13.2l23.3-0.4l0,0l4.6-0.1c0,0,10.1-1.9,9.9-13.6S69.3,975,69.3,975
				s-0.1-9.5-0.3-21.3C68.9,942,58.7,940.4,58.7,940.4z"/>
			
				<ellipse id="XMLID_76_" transform="matrix(0.9999 -1.545903e-002 1.545903e-002 0.9999 -15.0668 0.7513)" class="st11" cx="41.1" cy="974.9" rx="8.2" ry="8.6"/>
		</g>
	</g>
</g>
<path class="st5" d="M377.9,162.2v-34.1c1.1-1.9,1.9-4.4,1.9-7.7c0-11.7,0-21.3,0-21.3s0-9.5,0-21.3c0-5.2-2-8.4-4.2-10.4V33.5
	c4-4.8,6.4-10.9,6.4-17.6c0-15.1-12.3-27.4-27.4-27.4c-6.6,0-12.6,2.3-17.4,6.2h-26.7c4.5-4.9,7.3-11.4,7.3-18.7
	c0-15.1-12.3-27.4-27.4-27.4c-15.4,0.3-27.6,12.6-27.6,27.7c0,7.2,2.8,13.7,7.4,18.6H253c-3.1-11.7-13.8-20.4-26.5-20.3
	c-11.5,0-21.3,7.1-25.4,17.2c-2.4-0.7-4.9-1-7.5-1c-15.1,0-27.4,12.3-27.4,27.4c0,4.7,1.2,9.1,3.3,13c-4.3,4.8-6.8,11.2-6.8,18.1
	c0,13.1,9.3,24.1,21.6,26.7l0.1,89.4c0,5.8,4.7,10.5,10.5,10.5h1c1.1,0.3,2.2,0.4,3.4,0.4l164.6-0.1
	C371.6,176.2,377.9,169.9,377.9,162.2z M312.5,13.6c0,1,0.1,1.9,0.3,2.9l0,0C312.6,15.5,312.5,14.6,312.5,13.6l-61.3,0.2v-0.1
	L312.5,13.6z"/>
<g>
	<g id="XMLID_91_">
		<circle id="XMLID_95_" class="st3" cx="291" cy="-24.2" r="27.4"/>
		<circle id="XMLID_94_" class="st4" cx="291" cy="-24.2" r="22.8"/>
		<g id="XMLID_92_">
			<path id="XMLID_93_" class="st3" d="M295.3-21.1c-0.3-0.8-0.7-1.3-1.2-1.6c-0.6-0.3-1.4-0.4-2.5-0.5c-1.1,0-2.1-0.1-3-0.2
				s-1.7-0.3-2.4-0.6c-0.7-0.3-1.3-0.7-1.8-1.3c-0.5-0.5-1-1.3-1.2-2.2c-0.5-1.6-0.5-3,0.2-4.4c0.6-1.3,1.7-2.4,3.3-3.2l-1.1-3
				l2.2-0.8l1.1,3c1.7-0.4,3.2-0.1,4.6,0.7c1.3,0.8,2.3,2.1,2.9,3.9l-4,1.4c-0.4-1.1-0.9-1.8-1.6-2.3c-0.6-0.3-1.4-0.4-2.1-0.2
				c-0.8,0.3-1.3,0.7-1.6,1.2c-0.3,0.6-0.3,1.2,0,2c0.3,0.7,0.6,1.2,1.2,1.5c0.5,0.3,1.5,0.4,2.7,0.5s2.3,0.2,3.2,0.3
				c0.9,0.2,1.6,0.3,2.3,0.7c0.7,0.3,1.2,0.8,1.8,1.3c0.4,0.5,0.9,1.2,1.1,2.1c0.5,1.6,0.5,3.1-0.1,4.4s-1.7,2.4-3.4,3.2l1,2.8
				l-2.2,0.8l-1-2.7c-1.9,0.4-3.7,0.3-5.1-0.4c-1.4-0.8-2.5-2.1-3.2-4l4-1.4c0.4,1.1,1,1.8,1.7,2.3s1.6,0.4,2.5,0.1
				c0.8-0.3,1.4-0.7,1.7-1.3C295.6-19.7,295.6-20.4,295.3-21.1z"/>
		</g>
	</g>
	<g id="XMLID_86_">
		<circle id="XMLID_90_" class="st3" cx="227.3" cy="1.5" r="27.4"/>
		<circle id="XMLID_89_" class="st4" cx="227.3" cy="1.5" r="22.8"/>
		<g id="XMLID_87_">
			<path id="XMLID_88_" class="st3" d="M231.6,4.7c-0.3-0.8-0.7-1.3-1.2-1.6c-0.6-0.3-1.4-0.4-2.5-0.5c-1.1,0-2.1-0.1-3-0.2
				s-1.7-0.3-2.4-0.6c-0.7-0.3-1.3-0.7-1.8-1.3c-0.5-0.5-1-1.3-1.2-2.2c-0.5-1.6-0.5-3,0.2-4.4c0.6-1.3,1.7-2.4,3.3-3.2l-1.1-3
				l2.2-0.8l1.1,3c1.7-0.4,3.2-0.1,4.6,0.7c1.3,0.8,2.3,2.1,2.9,3.9l-4,1.4c-0.4-1.1-0.9-1.8-1.6-2.3c-0.6-0.3-1.4-0.4-2.1-0.2
				c-0.8,0.3-1.3,0.7-1.6,1.2c-0.3,0.6-0.3,1.2,0,2c0.3,0.7,0.6,1.2,1.2,1.5c0.5,0.3,1.5,0.4,2.7,0.5s2.3,0.2,3.2,0.3
				c0.9,0.2,1.6,0.3,2.3,0.7c0.7,0.3,1.2,0.8,1.8,1.3c0.4,0.5,0.9,1.2,1.1,2.1c0.5,1.6,0.5,3.1-0.1,4.4s-1.7,2.4-3.4,3.2l1,2.8
				l-2.2,0.8l-1-2.7c-1.9,0.4-3.7,0.3-5.1-0.4c-1.4-0.8-2.5-2.1-3.2-4l4-1.4c0.4,1.1,1,1.8,1.7,2.3s1.6,0.4,2.5,0.1
				c0.8-0.3,1.4-0.7,1.7-1.3C231.9,6.1,231.9,5.4,231.6,4.7z"/>
		</g>
	</g>
	<g id="XMLID_80_">
		<circle id="XMLID_85_" class="st3" cx="194.4" cy="17.7" r="27.4"/>
		<circle id="XMLID_84_" class="st4" cx="194.4" cy="17.7" r="22.8"/>
		<g id="XMLID_82_">
			<path id="XMLID_83_" class="st3" d="M198.7,20.8c-0.3-0.8-0.7-1.3-1.2-1.6c-0.6-0.3-1.4-0.4-2.5-0.5c-1.1,0-2.1-0.1-3-0.2
				s-1.7-0.3-2.4-0.6c-0.7-0.3-1.3-0.7-1.8-1.3c-0.5-0.5-1-1.3-1.2-2.2c-0.5-1.6-0.5-3,0.2-4.4c0.6-1.3,1.7-2.4,3.3-3.2l-1.1-3
				l2.2-0.8l1.1,3c1.7-0.4,3.2-0.1,4.6,0.7s2.3,2.1,2.9,3.9l-4,1.4c-0.4-1.1-0.9-1.8-1.6-2.3c-0.6-0.3-1.4-0.4-2.1-0.2
				c-0.8,0.3-1.3,0.7-1.6,1.2c-0.3,0.6-0.3,1.2,0,2c0.3,0.7,0.6,1.2,1.2,1.5c0.5,0.3,1.5,0.4,2.7,0.5s2.3,0.2,3.2,0.3
				c0.9,0.2,1.6,0.3,2.3,0.7s1.2,0.8,1.8,1.3c0.4,0.5,0.9,1.2,1.1,2.1c0.5,1.6,0.5,3.1-0.1,4.4s-1.7,2.4-3.4,3.2l1,2.8l-2.2,0.8
				l-1-2.7c-1.9,0.4-3.7,0.3-5.1-0.4c-1.4-0.8-2.5-2.1-3.2-4l4-1.4c0.4,1.1,1,1.8,1.7,2.3c0.7,0.4,1.6,0.4,2.5,0.1
				c0.8-0.3,1.4-0.7,1.7-1.3C199,22.2,199,21.5,198.7,20.8z"/>
		</g>
	</g>
	<g id="XMLID_71_">
		<circle id="XMLID_79_" class="st3" cx="190.9" cy="48.8" r="27.4"/>
		<circle id="XMLID_74_" class="st4" cx="190.9" cy="48.8" r="22.8"/>
		<g id="XMLID_72_">
			<path id="XMLID_73_" class="st3" d="M195.2,51.9c-0.3-0.8-0.7-1.3-1.2-1.6c-0.6-0.3-1.4-0.4-2.5-0.5c-1.1,0-2.1-0.1-3-0.2
				s-1.7-0.3-2.4-0.6c-0.7-0.3-1.3-0.7-1.8-1.3c-0.5-0.5-1-1.3-1.2-2.2c-0.5-1.6-0.5-3,0.2-4.4c0.6-1.3,1.7-2.4,3.3-3.2l-1.1-3
				l2.2-0.8l1.1,3c1.7-0.4,3.2-0.1,4.6,0.7c1.3,0.8,2.3,2.1,2.9,3.9l-4,1.4c-0.4-1.1-0.9-1.8-1.6-2.3c-0.6-0.3-1.4-0.4-2.1-0.2
				c-0.8,0.3-1.3,0.7-1.6,1.2c-0.3,0.6-0.3,1.2,0,2c0.3,0.7,0.6,1.2,1.2,1.5c0.5,0.3,1.5,0.4,2.7,0.5s2.3,0.2,3.2,0.3
				c0.9,0.2,1.6,0.3,2.3,0.7s1.2,0.8,1.8,1.3c0.4,0.5,0.9,1.2,1.1,2.1c0.5,1.6,0.5,3.1-0.1,4.4s-1.7,2.4-3.4,3.2l1,2.8l-2.2,0.8
				l-1-2.7c-1.9,0.4-3.7,0.3-5.1-0.4c-1.4-0.8-2.5-2.1-3.2-4l4-1.4c0.4,1.1,1,1.8,1.7,2.3c0.7,0.4,1.6,0.4,2.5,0.1
				c0.8-0.3,1.4-0.7,1.7-1.3C195.5,53.3,195.5,52.6,195.2,51.9z"/>
		</g>
	</g>
	<g id="XMLID_66_">
		<circle id="XMLID_70_" class="st3" cx="355.2" cy="15.5" r="27.4"/>
		<circle id="XMLID_69_" class="st4" cx="355.2" cy="15.5" r="22.8"/>
		<g id="XMLID_67_">
			<path id="XMLID_68_" class="st3" d="M354.7,20.9c0.5-0.6,0.8-1.2,0.7-1.9c0-0.6-0.4-1.5-0.9-2.4c-0.5-1-1-1.9-1.3-2.7
				c-0.4-0.8-0.5-1.6-0.6-2.4s0-1.5,0.2-2.2s0.6-1.5,1.2-2.2c1-1.2,2.4-1.9,3.8-2.1c1.5-0.1,3,0.3,4.4,1.3l2-2.4l1.8,1.5l-2.1,2.5
				c1.1,1.3,1.8,2.7,1.8,4.3c0,1.6-0.6,3.1-1.9,4.6l-3.2-2.7c0.8-0.9,1.1-1.8,1.1-2.5c0-0.8-0.3-1.4-1-1.9c-0.6-0.5-1.2-0.8-1.8-0.7
				c-0.6,0.1-1.2,0.4-1.7,1.1c-0.4,0.6-0.7,1.1-0.7,1.8c0,0.6,0.4,1.5,1,2.6s1.1,2.1,1.3,2.9c0.4,0.8,0.5,1.6,0.5,2.3
				c0.1,0.7,0,1.5-0.3,2.1c-0.3,0.7-0.6,1.4-1.2,2c-1,1.3-2.4,2-3.8,2.1c-1.5,0.1-3-0.3-4.5-1.4l-1.9,2.3l-1.8-1.5l1.8-2.2
				c-1.4-1.5-2.1-3-2.2-4.6c-0.1-1.7,0.5-3.2,1.8-4.7l3.2,2.7c-0.8,0.9-1.1,1.8-1.1,2.6s0.4,1.6,1.2,2.3c0.7,0.5,1.3,0.8,2,0.8
				C353.6,21.7,354.2,21.4,354.7,20.9z"/>
		</g>
	</g>
</g>
<g>
	<path class="st5" d="M68.7-121.9V-156c1.1-1.9,1.9-4.4,1.9-7.7c0-11.7,0-21.3,0-21.3s0-9.5,0-21.3c0-5.2-2-8.4-4.2-10.4v-33.9
		c4-4.8,6.4-10.9,6.4-17.6c0-15.1-12.3-27.4-27.4-27.4c-6.6,0-12.6,2.3-17.4,6.2H1.3c4.5-4.9,7.3-11.4,7.3-18.7
		c0-15.1-12.3-27.4-27.4-27.4c-15.4,0.3-27.6,12.6-27.6,27.7c0,7.2,2.8,13.7,7.4,18.6h-17.2c-3.1-11.7-13.8-20.4-26.5-20.3
		c-11.5,0-21.3,7.1-25.4,17.2c-2.4-0.7-4.9-1-7.5-1c-15.1,0-27.4,12.3-27.4,27.4c0,4.7,1.2,9.1,3.3,13c-4.3,4.8-6.8,11.2-6.8,18.1
		c0,13.1,9.3,24.1,21.6,26.7l0.1,89.4c0,5.8,4.7,10.5,10.5,10.5h1c1.1,0.3,2.2,0.4,3.4,0.4l164.6-0.1
		C62.4-107.9,68.7-114.2,68.7-121.9z M3.3-270.5c0,1,0.1,1.9,0.3,2.9l0,0C3.4-268.6,3.3-269.5,3.3-270.5l-61.3,0.2v-0.1L3.3-270.5z"
		/>
	<g>
		<g id="XMLID_158_">
			<circle id="XMLID_162_" class="st3" cx="-18.2" cy="-308.3" r="27.4"/>
			<circle id="XMLID_161_" class="st4" cx="-18.2" cy="-308.3" r="22.8"/>
			<g id="XMLID_159_">
				<path id="XMLID_160_" class="st3" d="M-13.9-305.2c-0.3-0.8-0.7-1.3-1.2-1.6c-0.6-0.3-1.4-0.4-2.5-0.5c-1.1,0-2.1-0.1-3-0.2
					s-1.7-0.3-2.4-0.6c-0.7-0.3-1.3-0.7-1.8-1.3c-0.5-0.5-1-1.3-1.2-2.2c-0.5-1.6-0.5-3,0.2-4.4c0.6-1.3,1.7-2.4,3.3-3.2l-1.1-3
					l2.2-0.8l1.1,3c1.7-0.4,3.2-0.1,4.6,0.7c1.3,0.8,2.3,2.1,2.9,3.9l-4,1.4c-0.4-1.1-0.9-1.8-1.6-2.3c-0.6-0.3-1.4-0.4-2.1-0.2
					c-0.8,0.3-1.3,0.7-1.6,1.2c-0.3,0.6-0.3,1.2,0,2c0.3,0.7,0.6,1.2,1.2,1.5c0.5,0.3,1.5,0.4,2.7,0.5s2.3,0.2,3.2,0.3
					c0.9,0.2,1.6,0.3,2.3,0.7c0.7,0.3,1.2,0.8,1.8,1.3c0.4,0.5,0.9,1.2,1.1,2.1c0.5,1.6,0.5,3.1-0.1,4.4s-1.7,2.4-3.4,3.2l1,2.8
					l-2.2,0.8l-1-2.7c-1.9,0.4-3.7,0.3-5.1-0.4c-1.4-0.8-2.5-2.1-3.2-4l4-1.4c0.4,1.1,1,1.8,1.7,2.3s1.6,0.4,2.5,0.1
					c0.8-0.3,1.4-0.7,1.7-1.3C-13.6-303.8-13.6-304.5-13.9-305.2z"/>
			</g>
		</g>
		<g id="XMLID_153_">
			<circle id="XMLID_157_" class="st3" cx="-81.9" cy="-282.6" r="27.4"/>
			<circle id="XMLID_156_" class="st4" cx="-81.9" cy="-282.6" r="22.8"/>
			<g id="XMLID_154_">
				<path id="XMLID_155_" class="st3" d="M-77.6-279.4c-0.3-0.8-0.7-1.3-1.2-1.6c-0.6-0.3-1.4-0.4-2.5-0.5c-1.1,0-2.1-0.1-3-0.2
					s-1.7-0.3-2.4-0.6c-0.7-0.3-1.3-0.7-1.8-1.3c-0.5-0.5-1-1.3-1.2-2.2c-0.5-1.6-0.5-3,0.2-4.4c0.6-1.3,1.7-2.4,3.3-3.2l-1.1-3
					l2.2-0.8l1.1,3c1.7-0.4,3.2-0.1,4.6,0.7c1.3,0.8,2.3,2.1,2.9,3.9l-4,1.4c-0.4-1.1-0.9-1.8-1.6-2.3c-0.6-0.3-1.4-0.4-2.1-0.2
					c-0.8,0.3-1.3,0.7-1.6,1.2c-0.3,0.6-0.3,1.2,0,2c0.3,0.7,0.6,1.2,1.2,1.5c0.5,0.3,1.5,0.4,2.7,0.5s2.3,0.2,3.2,0.3
					c0.9,0.2,1.6,0.3,2.3,0.7c0.7,0.3,1.2,0.8,1.8,1.3c0.4,0.5,0.9,1.2,1.1,2.1c0.5,1.6,0.5,3.1-0.1,4.4s-1.7,2.4-3.4,3.2l1,2.8
					l-2.2,0.8l-1-2.7c-1.9,0.4-3.7,0.3-5.1-0.4c-1.4-0.8-2.5-2.1-3.2-4l4-1.4c0.4,1.1,1,1.8,1.7,2.3s1.6,0.4,2.5,0.1
					c0.8-0.3,1.4-0.7,1.7-1.3C-77.3-278-77.3-278.7-77.6-279.4z"/>
			</g>
		</g>
		<g id="XMLID_148_">
			<circle id="XMLID_152_" class="st3" cx="-114.8" cy="-266.4" r="27.4"/>
			<circle id="XMLID_151_" class="st4" cx="-114.8" cy="-266.4" r="22.8"/>
			<g id="XMLID_149_">
				<path id="XMLID_150_" class="st3" d="M-110.5-263.3c-0.3-0.8-0.7-1.3-1.2-1.6c-0.6-0.3-1.4-0.4-2.5-0.5c-1.1,0-2.1-0.1-3-0.2
					s-1.7-0.3-2.4-0.6c-0.7-0.3-1.3-0.7-1.8-1.3c-0.5-0.5-1-1.3-1.2-2.2c-0.5-1.6-0.5-3,0.2-4.4c0.6-1.3,1.7-2.4,3.3-3.2l-1.1-3
					l2.2-0.8l1.1,3c1.7-0.4,3.2-0.1,4.6,0.7s2.3,2.1,2.9,3.9l-4,1.4c-0.4-1.1-0.9-1.8-1.6-2.3c-0.6-0.3-1.4-0.4-2.1-0.2
					c-0.8,0.3-1.3,0.7-1.6,1.2c-0.3,0.6-0.3,1.2,0,2c0.3,0.7,0.6,1.2,1.2,1.5c0.5,0.3,1.5,0.4,2.7,0.5s2.3,0.2,3.2,0.3
					c0.9,0.2,1.6,0.3,2.3,0.7s1.2,0.8,1.8,1.3c0.4,0.5,0.9,1.2,1.1,2.1c0.5,1.6,0.5,3.1-0.1,4.4s-1.7,2.4-3.4,3.2l1,2.8l-2.2,0.8
					l-1-2.7c-1.9,0.4-3.7,0.3-5.1-0.4c-1.4-0.8-2.5-2.1-3.2-4l4-1.4c0.4,1.1,1,1.8,1.7,2.3c0.7,0.4,1.6,0.4,2.5,0.1
					c0.8-0.3,1.4-0.7,1.7-1.3C-110.2-261.9-110.2-262.6-110.5-263.3z"/>
			</g>
		</g>
		<g id="XMLID_143_">
			<circle id="XMLID_147_" class="st3" cx="-118.3" cy="-235.3" r="27.4"/>
			<circle id="XMLID_146_" class="st4" cx="-118.3" cy="-235.3" r="22.8"/>
			<g id="XMLID_144_">
				<path id="XMLID_145_" class="st3" d="M-114-232.2c-0.3-0.8-0.7-1.3-1.2-1.6c-0.6-0.3-1.4-0.4-2.5-0.5c-1.1,0-2.1-0.1-3-0.2
					s-1.7-0.3-2.4-0.6c-0.7-0.3-1.3-0.7-1.8-1.3c-0.5-0.5-1-1.3-1.2-2.2c-0.5-1.6-0.5-3,0.2-4.4c0.6-1.3,1.7-2.4,3.3-3.2l-1.1-3
					l2.2-0.8l1.1,3c1.7-0.4,3.2-0.1,4.6,0.7c1.3,0.8,2.3,2.1,2.9,3.9l-4,1.4c-0.4-1.1-0.9-1.8-1.6-2.3c-0.6-0.3-1.4-0.4-2.1-0.2
					c-0.8,0.3-1.3,0.7-1.6,1.2c-0.3,0.6-0.3,1.2,0,2c0.3,0.7,0.6,1.2,1.2,1.5c0.5,0.3,1.5,0.4,2.7,0.5s2.3,0.2,3.2,0.3
					c0.9,0.2,1.6,0.3,2.3,0.7s1.2,0.8,1.8,1.3c0.4,0.5,0.9,1.2,1.1,2.1c0.5,1.6,0.5,3.1-0.1,4.4s-1.7,2.4-3.4,3.2l1,2.8l-2.2,0.8
					l-1-2.7c-1.9,0.4-3.7,0.3-5.1-0.4c-1.4-0.8-2.5-2.1-3.2-4l4-1.4c0.4,1.1,1,1.8,1.7,2.3c0.7,0.4,1.6,0.4,2.5,0.1
					c0.8-0.3,1.4-0.7,1.7-1.3C-113.7-230.8-113.7-231.5-114-232.2z"/>
			</g>
		</g>
		<g id="XMLID_132_">
			<circle id="XMLID_142_" class="st3" cx="46" cy="-268.6" r="27.4"/>
			<circle id="XMLID_141_" class="st4" cx="46" cy="-268.6" r="22.8"/>
			<g id="XMLID_133_">
				<path id="XMLID_140_" class="st3" d="M45.5-263.2c0.5-0.6,0.8-1.2,0.7-1.9c0-0.6-0.4-1.5-0.9-2.4c-0.5-1-1-1.9-1.3-2.7
					c-0.4-0.8-0.5-1.6-0.6-2.4s0-1.5,0.2-2.2s0.6-1.5,1.2-2.2c1-1.2,2.4-1.9,3.8-2.1c1.5-0.1,3,0.3,4.4,1.3l2-2.4l1.8,1.5l-2.1,2.5
					c1.1,1.3,1.8,2.7,1.8,4.3c0,1.6-0.6,3.1-1.9,4.6l-3.2-2.7c0.8-0.9,1.1-1.8,1.1-2.5c0-0.8-0.3-1.4-1-1.9
					c-0.6-0.5-1.2-0.8-1.8-0.7c-0.6,0.1-1.2,0.4-1.7,1.1c-0.4,0.6-0.7,1.1-0.7,1.8c0,0.6,0.4,1.5,1,2.6s1.1,2.1,1.3,2.9
					c0.4,0.8,0.5,1.6,0.5,2.3c0.1,0.7,0,1.5-0.3,2.1c-0.3,0.7-0.6,1.4-1.2,2c-1,1.3-2.4,2-3.8,2.1c-1.5,0.1-3-0.3-4.5-1.4l-1.9,2.3
					l-1.8-1.5l1.8-2.2c-1.4-1.5-2.1-3-2.2-4.6c-0.1-1.7,0.5-3.2,1.8-4.7l3.2,2.7c-0.8,0.9-1.1,1.8-1.1,2.6s0.4,1.6,1.2,2.3
					c0.7,0.5,1.3,0.8,2,0.8C44.4-262.4,45-262.7,45.5-263.2z"/>
			</g>
		</g>
	</g>
	<g id="XMLID_126_">
		<g id="XMLID_128_">
			<polygon id="XMLID_131_" class="st6" points="19.6,-280.7 -122.6,-280.5 -122.6,-289.7 34.9,-289.9 34.9,-245.5 19.6,-245.5 			
				"/>
			<path id="XMLID_130_" class="st7" d="M19.6-245.5H8.1v-6.1c-11.4,0-20.7-8.7-20.7-19.6l-110,0.1v-9.5l142.1-0.2L19.6-245.5z"/>
			<path id="XMLID_129_" class="st6" d="M8.2-251.6v6.1l-88.8,0.1c-10.5-10.6-25.3-1.3-41.7-1.4V-271l109.9-0.1
				C-12.5-260.3-3.2-251.6,8.2-251.6z"/>
		</g>
		
			<rect id="XMLID_127_" x="-122.5" y="-268.1" transform="matrix(1 -1.347926e-003 1.347926e-003 1 0.3187 -5.921246e-002)" class="st8" width="157.4" height="63.4"/>
	</g>
	<path id="XMLID_125_" class="st9" d="M56.7-108.9l-162.3,0.2c-5.8,0-10.5-4.7-10.5-10.5l-0.2-133.9c0-5.8,4.7-10.5,10.5-10.5
		l162.3-0.2c5.8,0,10.5,4.7,10.5,10.5l0.2,133.9C67.2-113.6,62.5-108.9,56.7-108.9z"/>
	<path id="XMLID_124_" class="st10" d="M54.2-263.8l-159,0.2c-5,0-9.1,4.3-9.1,9.6l0.2,135.6c0,1.8,0.5,3.6,1.4,5.1l0,0
		c0,5.1,7.7,4.5,7.7,4.5l159-0.2c5,0,9.1-4.3,9.1-9.6l-0.2-135.6C63.4-259.5,59.3-263.8,54.2-263.8z"/>
	<g>
		<g id="XMLID_118_">
			<g id="XMLID_120_">
				<polygon id="XMLID_123_" class="st6" points="19.6,-280.7 -122.6,-280.5 -122.6,-289.7 34.9,-289.9 34.9,-245.5 19.6,-245.5 
									"/>
				<path id="XMLID_122_" class="st7" d="M19.6-245.5H8.1v-6.1c-11.4,0-20.7-8.7-20.7-19.6l-110,0.1v-9.5l142.1-0.2L19.6-245.5z"/>
				<path id="XMLID_121_" class="st6" d="M8.2-251.6v6.1l-88.8,0.1c-10.5-10.6-25.3-1.3-41.7-1.4V-271l109.9-0.1
					C-12.5-260.3-3.2-251.6,8.2-251.6z"/>
			</g>
			
				<rect id="XMLID_119_" x="-122.5" y="-268.1" transform="matrix(1 -1.347926e-003 1.347926e-003 1 0.3187 -5.921246e-002)" class="st8" width="157.4" height="63.4"/>
		</g>
		<g>
			<path id="XMLID_117_" class="st9" d="M48.8-108.9l-162.2,0.3c-5.8,0-10.5-4.7-10.5-10.5l-0.2-133.8c0-5.8,4.7-10.5,10.5-10.5
				l162.2-0.3c5.8,0,10.5,4.7,10.5,10.5l0.2,133.8C59.3-113.6,54.5-108.9,48.8-108.9z"/>
			<g id="XMLID_55_">
				<g id="XMLID_104_">
					
						<rect id="XMLID_116_" x="22.8" y="-117.8" transform="matrix(1 -1.347926e-003 1.347926e-003 1 0.1573 3.676616e-002)" class="st11" width="9.1" height="2.4"/>
					
						<rect id="XMLID_115_" x="2.2" y="-117.7" transform="matrix(1 -1.347926e-003 1.347926e-003 1 0.1571 8.999198e-003)" class="st11" width="9.1" height="2.4"/>
					
						<rect id="XMLID_114_" x="-16" y="-117.7" transform="matrix(1 -1.347926e-003 1.347926e-003 1 0.1571 -1.553323e-002)" class="st11" width="9.1" height="2.4"/>
					
						<rect id="XMLID_113_" x="-34.3" y="-117.6" transform="matrix(1 -1.347926e-003 1.347926e-003 1 0.1569 -4.020019e-002)" class="st11" width="9.1" height="2.4"/>
					
						<rect id="XMLID_112_" x="-52.5" y="-117.7" transform="matrix(1 -1.347926e-003 1.347926e-003 1 0.1571 -6.473252e-002)" class="st11" width="9.1" height="2.4"/>
					
						<rect id="XMLID_111_" x="-70.7" y="-117.6" transform="matrix(1 -1.347926e-003 1.347926e-003 1 0.1569 -8.926468e-002)" class="st11" width="9.1" height="2.4"/>
					
						<rect id="XMLID_110_" x="-88.9" y="-117.6" transform="matrix(1 -1.347926e-003 1.347926e-003 1 0.1569 -0.1138)" class="st11" width="9.1" height="2.4"/>
					
						<rect id="XMLID_109_" x="-107.2" y="-117.5" transform="matrix(1 -1.347926e-003 1.347926e-003 1 0.1567 -0.1385)" class="st11" width="9.1" height="2.4"/>
					<path id="XMLID_108_" class="st11" d="M42.6-115.9l-0.5-2.3c2.7-0.7,5-2.6,5.9-5.2l2.1,0.9C48.9-119.2,46.1-116.7,42.6-115.9z"
						/>
					<rect id="XMLID_107_" x="48.5" y="-141.9" class="st11" width="2.3" height="9.5"/>
					<rect id="XMLID_106_" x="48.4" y="-237.4" class="st11" width="2.3" height="9.5"/>
					<path id="XMLID_105_" class="st11" d="M48.4-247c-0.1-2.7-1.5-5.3-3.9-6.8l1.1-2c3.1,1.9,5,5.2,5.1,8.8H48.4z"/>
				</g>
				
					<rect id="XMLID_103_" x="27" y="-257.5" transform="matrix(1 -1.347926e-003 1.347926e-003 1 0.3456 4.230061e-002)" class="st11" width="9.1" height="2.4"/>
				
					<rect id="XMLID_102_" x="8.8" y="-257.4" transform="matrix(1 -1.347926e-003 1.347926e-003 1 0.3454 1.776854e-002)" class="st11" width="9.1" height="2.4"/>
				
					<rect id="XMLID_101_" x="-9.4" y="-257.4" transform="matrix(1 -1.347926e-003 1.347926e-003 1 0.3454 -6.763974e-003)" class="st11" width="9.1" height="2.4"/>
				
					<rect id="XMLID_100_" x="-27.6" y="-257.3" transform="matrix(1 -1.347926e-003 1.347926e-003 1 0.3453 -3.129609e-002)" class="st11" width="9.1" height="2.4"/>
				
					<rect id="XMLID_99_" x="-45.9" y="-257.4" transform="matrix(1 -1.347926e-003 1.347926e-003 1 0.3454 -5.596318e-002)" class="st11" width="9.1" height="2.4"/>
				
					<rect id="XMLID_98_" x="-64.1" y="-257.3" transform="matrix(1 -1.347926e-003 1.347926e-003 1 0.3452 -8.049521e-002)" class="st11" width="9.1" height="2.4"/>
				
					<rect id="XMLID_97_" x="-82.3" y="-257.3" transform="matrix(1 -1.347926e-003 1.347926e-003 1 0.3452 -0.105)" class="st11" width="9.1" height="2.4"/>
				
					<rect id="XMLID_96_" x="-100.6" y="-257.2" transform="matrix(1 -1.347926e-003 1.347926e-003 1 0.345 -0.1297)" class="st11" width="9.1" height="2.4"/>
			</g>
			<path id="XMLID_53_" class="st17" d="M-124.6-251.9l0.2,127.2c0,7.7,6.3,14,14,14l164.5-0.2c7.7,0,14-6.3,14-14L68-176.4
				c-21.2,18.8-81.4,61.4-141.8,2.1c-38.1-37.4-34.8-69.3-22.2-91.5h-14.6C-118.3-265.8-124.6-259.6-124.6-251.9z"/>
		</g>
	</g>
	<g>
		<path id="XMLID_51_" class="st10" d="M59.8-223.3l-12.3,0.2l0,0l-15.6,0.2c0,0-19.1,2-19,13.8c0.2,11.7,0.3,21.3,0.3,21.3
			s0.1,9.5,0.3,21.3c0.2,11.7,19.4,13.2,19.4,13.2l23.3-0.4l0,0l4.6-0.1c0,0,10.1-1.9,9.9-13.6s-0.3-21.3-0.3-21.3
			s-0.1-9.5-0.3-21.3C70-221.7,59.8-223.3,59.8-223.3z"/>
		
			<ellipse id="XMLID_49_" transform="matrix(0.9999 -1.545903e-002 1.545903e-002 0.9999 2.9209 0.6293)" class="st11" cx="42.2" cy="-188.6" rx="8.2" ry="8.6"/>
	</g>
</g>
<path class="st5" d="M423.6-117v-34.1c1.1-1.9,1.9-4.4,1.9-7.7c0-11.7,0-21.3,0-21.3s0-9.5,0-21.3c0-5.2-2-8.4-4.2-10.4v-33.9
	c4-4.8,6.4-10.9,6.4-17.6c0-15.1-12.3-27.4-27.4-27.4c-6.6,0-12.6,2.3-17.4,6.2h-26.7c4.5-4.9,7.3-11.4,7.3-18.7
	c0-15.1-12.3-27.4-27.4-27.4c-15.4,0.3-27.6,12.6-27.6,27.7c0,7.2,2.8,13.7,7.4,18.6h-17.2c-3.1-11.7-13.8-20.4-26.5-20.3
	c-11.5,0-21.3,7.1-25.4,17.2c-2.4-0.7-4.9-1-7.5-1c-15.1,0-27.4,12.3-27.4,27.4c0,4.7,1.2,9.1,3.3,13c-4.3,4.8-6.8,11.2-6.8,18.1
	c0,13.1,9.3,24.1,21.6,26.7l0.1,89.4c0,5.8,4.7,10.5,10.5,10.5h1c1.1,0.3,2.2,0.4,3.4,0.4l164.6-0.1
	C417.3-103,423.6-109.3,423.6-117z M358.2-265.6c0,1,0.1,1.9,0.3,2.9l0,0C358.3-263.7,358.2-264.6,358.2-265.6l-61.3,0.2v-0.1
	L358.2-265.6z"/>
<g>
	<g id="XMLID_362_">
		<circle id="XMLID_366_" class="st3" cx="336.7" cy="-303.4" r="27.4"/>
		<circle id="XMLID_365_" class="st4" cx="336.7" cy="-303.4" r="22.8"/>
		<g id="XMLID_363_">
			<path id="XMLID_364_" class="st3" d="M341-300.3c-0.3-0.8-0.7-1.3-1.2-1.6c-0.6-0.3-1.4-0.4-2.5-0.5c-1.1,0-2.1-0.1-3-0.2
				s-1.7-0.3-2.4-0.6c-0.7-0.3-1.3-0.7-1.8-1.3c-0.5-0.5-1-1.3-1.2-2.2c-0.5-1.6-0.5-3,0.2-4.4c0.6-1.3,1.7-2.4,3.3-3.2l-1.1-3
				l2.2-0.8l1.1,3c1.7-0.4,3.2-0.1,4.6,0.7c1.3,0.8,2.3,2.1,2.9,3.9l-4,1.4c-0.4-1.1-0.9-1.8-1.6-2.3c-0.6-0.3-1.4-0.4-2.1-0.2
				c-0.8,0.3-1.3,0.7-1.6,1.2c-0.3,0.6-0.3,1.2,0,2c0.3,0.7,0.6,1.2,1.2,1.5c0.5,0.3,1.5,0.4,2.7,0.5s2.3,0.2,3.2,0.3
				c0.9,0.2,1.6,0.3,2.3,0.7c0.7,0.3,1.2,0.8,1.8,1.3c0.4,0.5,0.9,1.2,1.1,2.1c0.5,1.6,0.5,3.1-0.1,4.4s-1.7,2.4-3.4,3.2l1,2.8
				l-2.2,0.8l-1-2.7c-1.9,0.4-3.7,0.3-5.1-0.4c-1.4-0.8-2.5-2.1-3.2-4l4-1.4c0.4,1.1,1,1.8,1.7,2.3s1.6,0.4,2.5,0.1
				c0.8-0.3,1.4-0.7,1.7-1.3C341.3-298.9,341.3-299.6,341-300.3z"/>
		</g>
	</g>
	<g id="XMLID_357_">
		<circle id="XMLID_361_" class="st3" cx="273" cy="-277.7" r="27.4"/>
		<circle id="XMLID_360_" class="st4" cx="273" cy="-277.7" r="22.8"/>
		<g id="XMLID_358_">
			<path id="XMLID_359_" class="st3" d="M277.3-274.5c-0.3-0.8-0.7-1.3-1.2-1.6c-0.6-0.3-1.4-0.4-2.5-0.5c-1.1,0-2.1-0.1-3-0.2
				s-1.7-0.3-2.4-0.6c-0.7-0.3-1.3-0.7-1.8-1.3c-0.5-0.5-1-1.3-1.2-2.2c-0.5-1.6-0.5-3,0.2-4.4c0.6-1.3,1.7-2.4,3.3-3.2l-1.1-3
				l2.2-0.8l1.1,3c1.7-0.4,3.2-0.1,4.6,0.7c1.3,0.8,2.3,2.1,2.9,3.9l-4,1.4c-0.4-1.1-0.9-1.8-1.6-2.3c-0.6-0.3-1.4-0.4-2.1-0.2
				c-0.8,0.3-1.3,0.7-1.6,1.2c-0.3,0.6-0.3,1.2,0,2c0.3,0.7,0.6,1.2,1.2,1.5c0.5,0.3,1.5,0.4,2.7,0.5s2.3,0.2,3.2,0.3
				c0.9,0.2,1.6,0.3,2.3,0.7c0.7,0.3,1.2,0.8,1.8,1.3c0.4,0.5,0.9,1.2,1.1,2.1c0.5,1.6,0.5,3.1-0.1,4.4s-1.7,2.4-3.4,3.2l1,2.8
				l-2.2,0.8l-1-2.7c-1.9,0.4-3.7,0.3-5.1-0.4c-1.4-0.8-2.5-2.1-3.2-4l4-1.4c0.4,1.1,1,1.8,1.7,2.3s1.6,0.4,2.5,0.1
				c0.8-0.3,1.4-0.7,1.7-1.3C277.6-273.1,277.6-273.8,277.3-274.5z"/>
		</g>
	</g>
	<g id="XMLID_352_">
		<circle id="XMLID_356_" class="st3" cx="240.1" cy="-261.5" r="27.4"/>
		<circle id="XMLID_355_" class="st4" cx="240.1" cy="-261.5" r="22.8"/>
		<g id="XMLID_353_">
			<path id="XMLID_354_" class="st3" d="M244.4-258.4c-0.3-0.8-0.7-1.3-1.2-1.6c-0.6-0.3-1.4-0.4-2.5-0.5c-1.1,0-2.1-0.1-3-0.2
				s-1.7-0.3-2.4-0.6c-0.7-0.3-1.3-0.7-1.8-1.3c-0.5-0.5-1-1.3-1.2-2.2c-0.5-1.6-0.5-3,0.2-4.4c0.6-1.3,1.7-2.4,3.3-3.2l-1.1-3
				l2.2-0.8l1.1,3c1.7-0.4,3.2-0.1,4.6,0.7s2.3,2.1,2.9,3.9l-4,1.4c-0.4-1.1-0.9-1.8-1.6-2.3c-0.6-0.3-1.4-0.4-2.1-0.2
				c-0.8,0.3-1.3,0.7-1.6,1.2c-0.3,0.6-0.3,1.2,0,2c0.3,0.7,0.6,1.2,1.2,1.5c0.5,0.3,1.5,0.4,2.7,0.5s2.3,0.2,3.2,0.3
				c0.9,0.2,1.6,0.3,2.3,0.7s1.2,0.8,1.8,1.3c0.4,0.5,0.9,1.2,1.1,2.1c0.5,1.6,0.5,3.1-0.1,4.4c-0.6,1.3-1.7,2.4-3.4,3.2l1,2.8
				l-2.2,0.8l-1-2.7c-1.9,0.4-3.7,0.3-5.1-0.4c-1.4-0.8-2.5-2.1-3.2-4l4-1.4c0.4,1.1,1,1.8,1.7,2.3c0.7,0.4,1.6,0.4,2.5,0.1
				c0.8-0.3,1.4-0.7,1.7-1.3C244.7-257,244.7-257.7,244.4-258.4z"/>
		</g>
	</g>
	<g id="XMLID_347_">
		<circle id="XMLID_351_" class="st3" cx="236.6" cy="-230.4" r="27.4"/>
		<circle id="XMLID_350_" class="st4" cx="236.6" cy="-230.4" r="22.8"/>
		<g id="XMLID_348_">
			<path id="XMLID_349_" class="st3" d="M240.9-227.3c-0.3-0.8-0.7-1.3-1.2-1.6c-0.6-0.3-1.4-0.4-2.5-0.5c-1.1,0-2.1-0.1-3-0.2
				s-1.7-0.3-2.4-0.6c-0.7-0.3-1.3-0.7-1.8-1.3c-0.5-0.5-1-1.3-1.2-2.2c-0.5-1.6-0.5-3,0.2-4.4c0.6-1.3,1.7-2.4,3.3-3.2l-1.1-3
				l2.2-0.8l1.1,3c1.7-0.4,3.2-0.1,4.6,0.7c1.3,0.8,2.3,2.1,2.9,3.9l-4,1.4c-0.4-1.1-0.9-1.8-1.6-2.3c-0.6-0.3-1.4-0.4-2.1-0.2
				c-0.8,0.3-1.3,0.7-1.6,1.2c-0.3,0.6-0.3,1.2,0,2c0.3,0.7,0.6,1.2,1.2,1.5c0.5,0.3,1.5,0.4,2.7,0.5s2.3,0.2,3.2,0.3
				c0.9,0.2,1.6,0.3,2.3,0.7s1.2,0.8,1.8,1.3c0.4,0.5,0.9,1.2,1.1,2.1c0.5,1.6,0.5,3.1-0.1,4.4s-1.7,2.4-3.4,3.2l1,2.8l-2.2,0.8
				l-1-2.7c-1.9,0.4-3.7,0.3-5.1-0.4c-1.4-0.8-2.5-2.1-3.2-4l4-1.4c0.4,1.1,1,1.8,1.7,2.3c0.7,0.4,1.6,0.4,2.5,0.1
				c0.8-0.3,1.4-0.7,1.7-1.3C241.2-225.9,241.2-226.6,240.9-227.3z"/>
		</g>
	</g>
	<g id="XMLID_342_">
		<circle id="XMLID_346_" class="st3" cx="400.9" cy="-263.7" r="27.4"/>
		<circle id="XMLID_345_" class="st4" cx="400.9" cy="-263.7" r="22.8"/>
		<g id="XMLID_343_">
			<path id="XMLID_344_" class="st3" d="M400.4-258.3c0.5-0.6,0.8-1.2,0.7-1.9c0-0.6-0.4-1.5-0.9-2.4c-0.5-1-1-1.9-1.3-2.7
				c-0.4-0.8-0.5-1.6-0.6-2.4s0-1.5,0.2-2.2s0.6-1.5,1.2-2.2c1-1.2,2.4-1.9,3.8-2.1c1.5-0.1,3,0.3,4.4,1.3l2-2.4l1.8,1.5l-2.1,2.5
				c1.1,1.3,1.8,2.7,1.8,4.3c0,1.6-0.6,3.1-1.9,4.6l-3.2-2.7c0.8-0.9,1.1-1.8,1.1-2.5c0-0.8-0.3-1.4-1-1.9c-0.6-0.5-1.2-0.8-1.8-0.7
				c-0.6,0.1-1.2,0.4-1.7,1.1c-0.4,0.6-0.7,1.1-0.7,1.8c0,0.6,0.4,1.5,1,2.6s1.1,2.1,1.3,2.9c0.4,0.8,0.5,1.6,0.5,2.3
				c0.1,0.7,0,1.5-0.3,2.1c-0.3,0.7-0.6,1.4-1.2,2c-1,1.3-2.4,2-3.8,2.1c-1.5,0.1-3-0.3-4.5-1.4l-1.9,2.3l-1.8-1.5l1.8-2.2
				c-1.4-1.5-2.1-3-2.2-4.6c-0.1-1.7,0.5-3.2,1.8-4.7l3.2,2.7c-0.8,0.9-1.1,1.8-1.1,2.6s0.4,1.6,1.2,2.3c0.7,0.5,1.3,0.8,2,0.8
				C399.3-257.5,399.9-257.8,400.4-258.3z"/>
		</g>
	</g>
</g>
<g id="XMLID_332_">
	<g id="XMLID_338_">
		<polygon id="XMLID_341_" class="st6" points="374.6,-275.8 232.4,-275.6 232.4,-284.8 389.9,-285 389.9,-240.6 374.6,-240.6 		"/>
		<path id="XMLID_340_" class="st7" d="M374.6-240.6h-11.5v-6.1c-11.4,0-20.7-8.7-20.7-19.6l-110,0.1v-9.5l142.1-0.2L374.6-240.6z"
			/>
		<path id="XMLID_339_" class="st6" d="M363.2-246.7v6.1l-88.8,0.1c-10.5-10.6-25.3-1.3-41.7-1.4v-24.2l109.9-0.1
			C342.5-255.4,351.8-246.7,363.2-246.7z"/>
	</g>
	
		<rect id="XMLID_336_" x="232.5" y="-263.2" transform="matrix(1 -1.347926e-003 1.347926e-003 1 0.3124 0.4192)" class="st8" width="157.4" height="63.4"/>
</g>
<g id="XMLID_213_">
	<g id="XMLID_219_">
		<polygon id="XMLID_265_" class="st6" points="374.6,-275.8 232.4,-275.6 232.4,-284.8 389.9,-285 389.9,-240.6 374.6,-240.6 		"/>
		<path id="XMLID_264_" class="st7" d="M374.6-240.6h-11.5v-6.1c-11.4,0-20.7-8.7-20.7-19.6l-110,0.1v-9.5l142.1-0.2L374.6-240.6z"
			/>
		<path id="XMLID_246_" class="st6" d="M363.2-246.7v6.1l-88.8,0.1c-10.5-10.6-25.3-1.3-41.7-1.4v-24.2l109.9-0.1
			C342.5-255.4,351.8-246.7,363.2-246.7z"/>
	</g>
	
		<rect id="XMLID_214_" x="232.5" y="-263.2" transform="matrix(1 -1.347926e-003 1.347926e-003 1 0.3124 0.4192)" class="st8" width="157.4" height="63.4"/>
</g>
<g>
	<path id="XMLID_324_" class="st9" d="M411.6-104l-162.3,0.2c-5.8,0-10.5-4.7-10.5-10.5l-0.2-133.9c0-5.8,4.7-10.5,10.5-10.5
		l162.3-0.2c5.8,0,10.5,4.7,10.5,10.5l0.2,133.9C422.1-108.7,417.4-104,411.6-104z"/>
	<path id="XMLID_322_" class="st10" d="M409.1-258.9l-159,0.2c-5,0-9.1,4.3-9.1,9.6l0.2,135.6c0,1.8,0.5,3.6,1.4,5.1l0,0
		c0,5.1,7.7,4.5,7.7,4.5l159-0.2c5,0,9.1-4.3,9.1-9.6l-0.2-135.6C418.3-254.6,414.2-258.9,409.1-258.9z"/>
	<path id="XMLID_45_" class="st9" d="M403.7-104l-162.2,0.3c-5.8,0-10.5-4.7-10.5-10.5L230.8-248c0-5.8,4.7-10.5,10.5-10.5
		l162.2-0.3c5.8,0,10.5,4.7,10.5,10.5l0.2,133.8C414.2-108.7,409.4-104,403.7-104z"/>
</g>
<g>
	<polygon id="XMLID_48_" class="st6" points="328.2,2.8 186,3 186,-6.2 343.5,-6.4 343.5,38 328.2,38 	"/>
	<path id="XMLID_47_" class="st7" d="M328.2,38h-11.5v-6.1c-11.4,0-20.7-8.7-20.7-19.6l-110,0.1V2.9l142.1-0.2L328.2,38z"/>
	<path id="XMLID_46_" class="st6" d="M316.8,31.9V38l-89,0.1c-10.5-10.6-25.3-1.3-41.8-1.4V12.5l110.1-0.1
		C296.1,23.2,305.4,31.9,316.8,31.9z"/>
	<polygon id="XMLID_44_" class="st8" points="343.6,26 186.2,26.1 186.1,15.3 343.5,15.3 	"/>
</g>
<g>
	<path id="XMLID_62_" class="st15" d="M-106.8,35.4v12.8V72l0,0v59.9l0,0v13.7v12.8c0,0-0.2,9.4,10.5,9.4h12.6h40.3h11.5
		c0.3,0,0.7,0,1,0c10.7,0,10.5-9.4,10.5-9.4v-12.8v-13.7l0,0V72l0,0V48.2V35.4c0,0,0.2-9.4-10.5-9.4c-0.4,0-0.7,0-1,0h-11.5h-40.3
		h-12.6C-107.1,26-106.8,35.4-106.8,35.4z"/>
	<rect id="XMLID_61_" x="-60.8" y="26" class="st3" width="17.4" height="141.7"/>
	<circle id="XMLID_60_" class="st3" cx="-88.5" cy="150.3" r="8.4"/>
</g>
<path id="XMLID_59_" class="st9" d="M365.9,175.2l-162.3,0.2c-5.8,0-10.5-4.7-10.5-10.5L192.9,31c0-5.8,4.7-10.5,10.5-10.5
	l162.3-0.2c5.8,0,10.5,4.7,10.5,10.5l0.2,133.9C376.4,170.5,371.7,175.2,365.9,175.2z"/>
<path id="XMLID_57_" class="st10" d="M363.4,20.3l-159,0.2c-5,0-9.1,4.3-9.1,9.6l0.2,135.6c0,1.8,0.5,3.6,1.4,5.1l0,0
	c0,5.1,7.7,4.5,7.7,4.5l159-0.2c5,0,9.1-4.3,9.1-9.6l-0.2-135.6C372.6,24.6,368.5,20.3,363.4,20.3z"/>
<rect id="XMLID_203_" x="328.4" y="32.3" class="st6" width="2.2" height="4.5"/>
<ellipse id="XMLID_199_" transform="matrix(1.348007e-003 1 -1 1.348007e-003 459.1795 -223.9644)" class="st12" cx="341.7" cy="117.9" rx="5.4" ry="5.2"/>
<rect id="XMLID_196_" x="345.9" y="119.6" class="st13" width="2.3" height="9.5"/>
<rect id="XMLID_195_" x="345.9" y="100.5" class="st13" width="2.3" height="9.5"/>
<rect id="XMLID_194_" x="344.8" y="120.4" class="st13" width="2.3" height="9.5"/>
<rect id="XMLID_193_" x="344.8" y="101.3" class="st13" width="2.3" height="9.5"/>
<rect id="XMLID_192_" x="344.7" y="82.2" class="st13" width="2.3" height="9.5"/>
<rect id="XMLID_191_" x="344.4" y="110.9" class="st11" width="2.3" height="9.5"/>
<rect id="XMLID_190_" x="344.4" y="91.7" class="st11" width="2.3" height="9.5"/>
<rect id="XMLID_189_" x="344.4" y="72.7" class="st11" width="2.3" height="9.5"/>
<path id="XMLID_186_" class="st9" d="M357.7,175.1l-162.2,0.2c-5.8,0-10.5-4.7-10.5-10.5L184.8,31c0-5.8,4.7-10.5,10.5-10.5
	l162.2-0.2c5.8,0,10.5,4.7,10.5,10.5l0.2,133.8C368.2,170.4,363.4,175.1,357.7,175.1z"/>
<rect id="XMLID_183_" x="187.6" y="27.8" class="st10" width="175.5" height="141.5"/>
<rect id="XMLID_182_" x="200.9" y="35.2" class="st9" width="155.5" height="123.3"/>
<rect id="XMLID_179_" x="199.9" y="81.9" class="st10" width="156.5" height="77.6"/>
<g id="XMLID_169_">
	<polygon id="XMLID_178_" class="st14" points="349.9,114.7 304.6,157.3 313,157.3 349.9,122.6 	"/>
	<polygon id="XMLID_177_" class="st14" points="349.9,86.5 330.8,86.5 255.5,157.3 297,157.3 349.9,107.6 	"/>
	<polygon id="XMLID_176_" class="st14" points="294.9,86.5 219.5,157.3 230.8,157.3 306.1,86.5 	"/>
	<polygon id="XMLID_175_" class="st14" points="316.8,157.3 349.9,157.3 349.9,126.2 	"/>
	<polygon id="XMLID_174_" class="st14" points="209.5,86.5 209.5,117.6 242.6,86.5 	"/>
	<polygon id="XMLID_173_" class="st12" points="242.6,86.5 209.5,117.6 209.5,157.3 219.5,157.3 294.9,86.5 	"/>
	<polygon id="XMLID_172_" class="st12" points="306.1,86.5 230.8,157.3 255.5,157.3 330.8,86.5 	"/>
	<polygon id="XMLID_171_" class="st12" points="349.9,107.6 297,157.3 304.6,157.3 349.9,114.7 	"/>
	<polygon id="XMLID_170_" class="st12" points="349.9,122.6 313,157.3 316.8,157.3 349.9,126.2 	"/>
</g>
<rect id="XMLID_168_" x="206.2" y="72.7" class="st10" width="144.8" height="21.6"/>
<rect id="XMLID_167_" x="208.6" y="69.2" class="st11" width="140.2" height="20.3"/>
<rect id="XMLID_165_" x="206.2" y="42.7" class="st10" width="144.8" height="21.6"/>
<rect id="XMLID_164_" x="208.6" y="39.2" class="st11" width="140.2" height="20.3"/>
<g>
	<polygon id="XMLID_9_" class="st6" points="44.5,38 29.2,38 29.2,-6.4 186.7,-6.2 186.7,3 44.5,2.8 	"/>
	<path id="XMLID_8_" class="st7" d="M44.6,2.7l142.1,0.2v9.5l-110-0.1c0,10.9-9.3,19.6-20.7,19.6V38H44.5L44.6,2.7z"/>
	<path id="XMLID_7_" class="st6" d="M76.6,12.4l110.1,0.1v24.2c-16.4,0.1-31.3-9.2-41.8,1.4l-89-0.1v-6.1
		C67.3,31.9,76.7,23.2,76.6,12.4z"/>
	<polygon id="XMLID_6_" class="st8" points="29.3,15.3 186.7,15.3 186.6,26.1 29.2,26 	"/>
</g>
<path id="XMLID_5_" class="st9" d="M3.1,164.7L3.3,30.8C3.3,25,8,20.3,13.8,20.3l162.3,0.2c5.8,0,10.5,4.7,10.5,10.5l-0.2,133.9
	c0,5.8-4.7,10.5-10.5,10.5l-162.3-0.2C7.8,175.2,3.1,170.5,3.1,164.7z"/>
<path id="XMLID_4_" class="st10" d="M7,29.9L6.8,165.5c0,5.3,4.1,9.6,9.1,9.6l159,0.2c0,0,7.7,0.6,7.7-4.5l0,0
	c0.9-1.5,1.4-3.3,1.4-5.1l0.2-135.6c0-5.3-4.1-9.6-9.1-9.6l-159-0.2C11,20.3,6.9,24.6,7,29.9z"/>
<path id="XMLID_3_" class="st9" d="M11,164.7l0.2-133.8c0-5.8,4.7-10.5,10.5-10.5l162.2,0.3c5.8,0,10.5,4.7,10.5,10.5L194.2,165
	c0,5.8-4.7,10.5-10.5,10.5l-162.2-0.3C15.8,175.2,11,170.5,11,164.7z"/>
<path id="XMLID_1_" class="st10" d="M382.9,59.8l9.9-0.2l0,0l12.5-0.2c0,0,15.4,1.5,15.5,13.2s0.3,21.3,0.3,21.3s0.1,9.5,0.3,21.3
	c0.2,11.7-15.1,13.7-15.1,13.7l-18.6,0.3l0,0l-3.7,0.1c0,0-8.2-1.6-8.3-13.4s-0.3-21.3-0.3-21.3s-0.1-9.5-0.3-21.3
	C374.8,61.7,382.9,59.8,382.9,59.8z"/>
<g>
	<rect id="XMLID_211_" x="94.3" y="25.2" class="st10" width="21.6" height="144.8"/>
	<rect id="XMLID_208_" x="90.8" y="27.3" class="st11" width="20.3" height="140.2"/>
	<rect id="XMLID_207_" x="62.6" y="25.2" class="st10" width="21.6" height="144.8"/>
	<rect id="XMLID_65_" x="59.1" y="27.3" class="st11" width="20.3" height="140.2"/>
	<rect id="XMLID_64_" x="32.6" y="25.2" class="st10" width="21.6" height="144.8"/>
	<rect id="XMLID_63_" x="29.1" y="27.3" class="st11" width="20.3" height="140.2"/>
</g>
</svg>
