<?xml version="1.0" encoding="utf-8"?>
<!-- Generator: Adobe Illustrator 19.0.0, SVG Export Plug-In . SVG Version: 6.00 Build 0)  -->
<svg version="1.1" id="Layer_1" xmlns="http://www.w3.org/2000/svg" xmlns:xlink="http://www.w3.org/1999/xlink" x="0px" y="0px"
	 viewBox="3158 -2940.1 6912 6720" style="enable-background:new 3158 -2940.1 6912 6720;" xml:space="preserve">
<style type="text/css">
	.st0{display:none;}
	.st1{display:inline;fill:#274F4C;}
	.st2{fill:none;}
	.st3{fill:#121212;stroke:#FFFFFF;stroke-width:50;stroke-miterlimit:10;}
	.st4{fill:#0297BF;}
	.st5{fill:#93BC16;}
	.st6{fill:#FFFFFF;}
	.st7{fill:#F2B22D;}
	.st8{fill:#EB9329;}
	.st9{fill:#EAEBE8;}
	.st10{fill:#63BF8B;}
	.st11{opacity:0.36;enable-background:new    ;}
	.st12{fill:#04444E;}
	.st13{fill:#3F3F3D;}
	.st14{fill:#1D1C1A;}
	.st15{fill:#B2ACAC;}
	.st16{fill:#A6A8AB;}
	.st17{fill:#F2F2F2;}
	.st18{fill:#8A807F;}
	.st19{fill:#E32178;}
	.st20{fill:#F0592B;}
	.st21{enable-background:new    ;}
	.st22{opacity:0.2;fill:#FFFFFF;enable-background:new    ;}
	.st23{fill-opacity:0.1;}
</style>
<g id="Layer_2" class="st0">
	<rect x="10823.1" y="-11953.1" class="st1" width="6400.7" height="5734.9"/>
</g>
<path class="st2" d="M4596.3-1775.5c1.3-1.8,2.6-3.5,4-5.2C4598.9-1779,4597.6-1777.3,4596.3-1775.5z"/>
<path class="st3" d="M8456.2,3146.5l1140-4005.8c12.3-96.9-1-232.7-146-302.9L4809-2483c-166.8-17.3-249.7,100.8-288.4,191.4
	l-34.1,119.7L3387,1691.7c-14.9,97.6-6.5,242.2,145.7,315.1l4638.5,1320.1C8332.4,3344.4,8415.6,3235.6,8456.2,3146.5z"/>
<path class="st4" d="M9151.7-965.8l-723.3-205.9l-207.5-59.1l-2224.3-633l-390.1-111l-638.4-181.7
	c-105.9-13.3-155.9,51.7-178.4,102.1l-19.1,67L4155.8,172.9c-7.4,54.9,1,136.8,98.7,181.1l637.6,181.4l390.1,111l2224.3,633
	l207.5,59.1l722.5,205.6c102.3,13.2,152.7-46.5,176.5-96l637.4-2239.8C9256.2-846.1,9244.9-923.1,9151.7-965.8z"/>
<g>
	<path class="st5" d="M4306.1,605.5l-56.7-16.1l-6.9,24.1l49.1,14l-5.4,18.9l-49.1-14l-11.5,40.5l-24.5-7l29.1-102.4l81.1,23.1
		L4306.1,605.5z"/>
	<path class="st5" d="M4313.7,616.2l19.5,5.6l-0.7,9.6l1.1,0.3c3.4-2.6,7.2-4.2,11.6-4.8s8.9-0.3,13.6,1.1c2.6,0.7,5,1.6,7,2.7
		l-6,21.1c-2.1-1.1-4.9-2.1-8.4-3.1c-3.6-1-7.4-1.5-11.4-1.3s-7.3,1.1-10.1,2.8l-13.8,48.6l-23.9-6.8L4313.7,616.2z"/>
	<path class="st5" d="M4370.8,710.9c-5.5-4.8-9.1-10.7-10.9-17.6c-1.8-6.9-1.5-14.5,0.9-22.8s6.1-15,11.1-19.8
		c5-4.9,11.1-7.9,18.2-9.1c7.1-1.2,15.1-0.6,23.9,2c8.9,2.5,16,6.2,21.5,10.9c5.4,4.8,9,10.5,10.7,17.3s1.3,14.4-1.1,22.8
		c-2.3,8.3-6.1,14.8-11.3,19.8c-5.2,4.9-11.3,8-18.5,9.3s-15,0.7-23.5-1.7C4383.2,719.4,4376.2,715.7,4370.8,710.9z M4421.3,687.8
		c2.1-7.2,2-13-0.2-17.2s-6.3-7.2-12.3-8.9s-11-1.3-15.1,1.1c-4.1,2.4-7.1,7.2-9.2,14.4c-4,14.1,0.1,22.8,12.4,26.3
		C4409.2,707,4417.3,701.8,4421.3,687.8z"/>
	<path class="st5" d="M4583.8,700.4c3.6,6.8,3.8,15.8,0.6,26.9l-12.6,44.1l-23.8-6.8l12.2-42.8c1.4-5,1.5-8.9,0.1-11.6
		c-1.4-2.7-4-4.6-7.7-5.7c-5.8-1.7-10.9-1.1-15.4,1.6c-0.3,2.2-0.8,4.5-1.6,7l-12.6,44.4l-23.5-6.7l12.2-42.8
		c1.4-5.1,1.5-8.9,0.3-11.6c-1.2-2.7-3.7-4.5-7.4-5.6c-3-0.8-5.9-1-8.7-0.6c-2.9,0.4-5.5,1.5-7.9,3.2l-14.3,50.1l-23.9-6.8
		l21.5-75.7l19.6,5.6l-0.6,7.8l1.1,0.3c3.7-1.9,7.8-3.1,12.3-3.4c4.4-0.3,9,0.2,13.8,1.5c4.7,1.3,8.7,3.3,11.9,6
		c3.2,2.7,5.5,6,6.9,10.1c4.8-2.4,9.6-3.7,14.5-4.1c4.9-0.3,9.6,0.2,14.2,1.5C4573.9,689,4580.2,693.6,4583.8,700.4z"/>
	<path class="st5" d="M4606.2,723.9c-2-3.2-2.4-6.9-1.2-11.2c1.2-4.2,3.5-7.2,6.9-8.9s7.5-1.9,12.4-0.5c4.8,1.4,8.2,3.7,10.2,6.9
		c2,3.3,2.4,7,1.2,11.2c-1.2,4.2-3.5,7.1-7,8.8s-7.6,1.9-12.3,0.5C4611.6,729.4,4608.2,727.1,4606.2,723.9z M4591.8,774.5
		c-2-3.2-2.4-6.9-1.2-11.2c1.2-4.2,3.5-7.2,6.9-8.9s7.5-1.9,12.4-0.5c4.8,1.4,8.2,3.7,10.2,6.9c2,3.3,2.4,7,1.2,11.2
		c-1.2,4.2-3.5,7.1-7,8.8s-7.6,1.9-12.3,0.5C4597.2,780,4593.8,777.7,4591.8,774.5z"/>
	<path class="st6" d="M4693.2,801.2c-5.6-5.7-9-13-10.4-21.8s-0.4-19.1,2.9-30.8s7.9-21,13.7-27.8c5.8-6.8,12.6-11.2,20.3-13.1
		c7.7-1.9,16.2-1.6,25.4,1.1c9.2,2.6,16.6,6.8,22.2,12.5s9.1,13,10.5,21.9s0.4,19.2-2.9,30.9s-7.9,21-13.8,27.8
		c-5.8,6.8-12.7,11.1-20.4,13.1c-7.8,1.9-16.3,1.6-25.4-1C4706.1,811.1,4698.7,807,4693.2,801.2z M4733.1,794.2
		c3.6-1.2,6.9-4,9.9-8.3s5.7-10.6,8-18.7c2.3-8.2,3.4-14.9,3.1-20.2s-1.6-9.4-4.1-12.3c-2.4-2.9-5.9-5-10.3-6.3
		c-4.5-1.3-8.5-1.3-12.2-0.1c-3.6,1.2-6.9,3.9-9.9,8.3c-3,4.3-5.7,10.6-8,18.7c-2.3,8.2-3.4,14.9-3.1,20.2s1.6,9.4,4.1,12.3
		c2.4,2.9,5.9,5,10.4,6.3C4725.5,795.3,4729.5,795.3,4733.1,794.2z"/>
	<path class="st6" d="M4834.9,804.8l19.2,47l-26.6-7.6l-11-27.7l-24.2,17.6l-26-7.4l40.9-29.6l-18.7-45.9l26.6,7.6l10.8,26.6
		l22.9-17l25.9,7.4L4834.9,804.8z"/>
	<path class="st6" d="M4941.5,828.1c2.5,5.1,2.9,10.9,1,17.6c-2.7,9.6-8.5,16-17.3,19.2s-20.9,2.6-36.2-1.7
		c-10.8-3.1-20.8-7.3-29.9-12.8l5-17.4c4.3,2.6,8.9,4.9,13.8,7.1c5,2.2,9.9,4,14.8,5.4c8.2,2.3,14.5,2.8,18.9,1.4
		c4.4-1.4,7.3-4.4,8.6-9.1c1.3-4.5,0.5-8.3-2.2-11.5s-8-5.9-15.9-8.1l-18.9-5.4l4.9-17.4l14.1,4c7.8,2.2,13.8,2.8,17.9,1.6
		c4.1-1.1,6.8-3.8,8-8.1c1.2-4.1,0.4-7.6-2.3-10.7c-2.7-3.1-7.3-5.6-14-7.5c-4.4-1.2-9-2.2-13.9-2.8s-9.5-0.8-13.9-0.6l5-17.4
		c4.2-0.1,9,0.2,14.4,1s10.6,1.8,15.5,3.2c13.6,3.9,23.2,9.2,28.7,16s7,14.7,4.4,23.7c-1.6,5.5-4.5,9.8-8.7,12.8
		c-4.2,3.1-9.3,4.7-15.3,4.8C4934.5,818.9,4939,823,4941.5,828.1z"/>
	<path class="st6" d="M5008,784.6l16.5,4.7L4995.3,892l-24.6-7l21.1-74l-35.5,12.7l6.5-22.9L5008,784.6z"/>
	<path class="st6" d="M5090,839.3c5.1,3.7,8.3,8.4,9.7,14.1c1.4,5.7,0.8,12.7-1.6,21.2l-12.3,43.1l-19.9-5.7l0.4-7.6l-1.2-0.3
		c-3.5,2-7.4,3.2-11.8,3.5s-8.9-0.2-13.6-1.5c-6-1.7-10.8-4.1-14.5-7.2c-3.7-3.1-6.1-6.6-7.3-10.5c-1.2-3.9-1.1-8.1,0.1-12.4
		c2-7.1,6.4-11.9,13.2-14.2c6.7-2.3,16.2-2.2,28.5,0.5l15.5,3.1c0.9-3.6,1-6.6,0.3-9.1c-0.8-2.4-2.4-4.5-5-6.1
		c-2.6-1.7-6.3-3.2-11.2-4.6c-3.5-1-7.4-1.8-11.7-2.4c-4.4-0.6-8.5-0.9-12.5-0.8l4.8-17c4.4,0,9.2,0.3,14.2,1.1s9.8,1.8,14.2,3.1
		C5077.7,832.4,5084.9,835.6,5090,839.3z M5059.8,893.6c2.8-0.1,5.5-0.6,8-1.7l3.9-13.6l-13.3-2.7c-4.9-0.9-8.6-1-11.1-0.1
		s-4.1,2.7-4.9,5.3c-0.7,2.6-0.4,5,1.2,7c1.5,2,4.2,3.6,8.1,4.7C5054.3,893.4,5057,893.7,5059.8,893.6z"/>
	<path class="st6" d="M5190.5,841.2c5.7,5.5,9.3,12.4,10.9,20.7s0.8,17.9-2.3,28.7c-3.4,12.1-8.4,21.7-14.8,28.9
		s-14.3,11.8-23.5,13.9c-9.3,2.1-19.8,1.4-31.5-1.9c-4.8-1.4-9.2-2.9-13-4.6c-3.8-1.7-7.3-3.7-10.5-6l5.1-17.8c3,2.2,6.4,4.2,10.2,6
		c3.8,1.8,7.7,3.2,11.5,4.3c10.5,3,19.1,2.7,25.8-0.9c6.7-3.6,11.6-10.2,14.7-19.7c-3.7,0.8-7.9,1.1-12.4,0.8c-4.6-0.3-9-1-13.3-2.2
		c-11.3-3.2-19.5-8.4-24.5-15.4s-5.9-15.8-3-26.2c1.8-6.5,5-11.6,9.4-15.5s10-6.3,16.6-7.2s14.1-0.2,22.4,2.1
		C5177.4,831.7,5184.8,835.8,5190.5,841.2z M5143.7,868.2c2.6,3.4,7,6,13.2,7.8c3.3,0.9,6.7,1.5,10.3,1.6c3.6,0.2,7-0.1,10.3-0.8
		c2.1-9.1,2-16.1-0.5-21s-6.9-8.2-13.4-10.1c-5.4-1.5-10.1-1.5-13.8,0.1c-3.8,1.6-6.3,4.8-7.7,9.6
		C5140.5,860.5,5141.1,864.8,5143.7,868.2z"/>
	<path class="st6" d="M5276.7,923.5c2.5,5.1,2.9,10.9,1,17.6c-2.7,9.6-8.5,16-17.3,19.2s-20.9,2.6-36.2-1.7
		c-10.8-3.1-20.8-7.3-29.9-12.8l5-17.4c4.3,2.6,8.9,4.9,13.8,7.1c5,2.2,9.9,4,14.8,5.4c8.2,2.3,14.5,2.8,18.9,1.4
		c4.4-1.4,7.3-4.4,8.6-9.1c1.3-4.5,0.5-8.3-2.2-11.5s-8-5.9-15.9-8.1l-18.8-5.3l4.9-17.4l14.1,4c7.8,2.2,13.8,2.8,17.9,1.6
		c4.1-1.1,6.8-3.8,8-8.1c1.2-4.1,0.4-7.6-2.3-10.7c-2.7-3.1-7.3-5.6-14-7.5c-4.4-1.2-9-2.2-13.9-2.8s-9.5-0.8-13.9-0.6l5-17.4
		c4.2-0.1,9,0.2,14.4,1s10.6,1.8,15.5,3.2c13.6,3.9,23.2,9.2,28.7,16s7,14.7,4.4,23.7c-1.6,5.5-4.5,9.8-8.7,12.8
		c-4.2,3.1-9.3,4.7-15.3,4.8C5269.7,914.3,5274.2,918.4,5276.7,923.5z"/>
	<path class="st6" d="M5352.2,931.1c6.4,4.6,10.5,9.5,12.5,14.8c1.9,5.3,2,11.3,0.1,17.8c-3,10.4-8.9,17.3-18,20.7
		c-9,3.4-21.1,3-36.2-1.3c-10.6-3-20.5-7.4-29.8-13.1l5-17.4c4.3,2.6,8.9,5,13.9,7.2c4.9,2.2,9.8,4,14.7,5.4
		c8.1,2.3,14.4,2.8,18.8,1.5s7.3-4.3,8.7-9c0.9-3.1,0.7-6-0.6-8.5c-1.3-2.5-4.1-5-8.5-7.5s-10.8-5.2-19.3-8.2l-16.6-5.6l19.9-55
		l63.9,18.2l-5,17.6l-42.3-12l-7.9,21.8C5336.9,922.3,5345.8,926.6,5352.2,931.1z"/>
	<path class="st6" d="M5388.8,893.3l75.1,21.4l-3.6,12.6l-62.6,79.3l-25-7.1l59.7-73l-49-14L5388.8,893.3z"/>
	<path class="st6" d="M5463.4,1020.4c-5.6-5.7-9-13-10.4-21.8s-0.4-19.1,2.9-30.8s7.9-21,13.7-27.8c5.8-6.8,12.6-11.2,20.3-13.1
		c7.7-1.9,16.2-1.6,25.4,1.1c9.2,2.6,16.6,6.8,22.2,12.5s9.1,13,10.5,21.9s0.4,19.2-2.9,30.9s-7.9,21-13.8,27.8
		c-5.8,6.8-12.7,11.1-20.4,13.1c-7.8,1.9-16.3,1.6-25.4-1C5476.3,1030.3,5469,1026.1,5463.4,1020.4z M5503.3,1013.4
		c3.6-1.2,6.9-4,9.9-8.3s5.7-10.6,8-18.7c2.3-8.2,3.4-14.9,3.1-20.2s-1.6-9.4-4.1-12.3c-2.4-2.9-5.9-5-10.3-6.3
		c-4.5-1.3-8.5-1.3-12.2-0.1c-3.6,1.2-6.9,3.9-9.9,8.3c-3,4.3-5.7,10.6-8,18.7c-2.3,8.2-3.4,14.9-3.1,20.2s1.6,9.4,4.1,12.3
		c2.4,2.9,5.9,5,10.4,6.3C5495.7,1014.5,5499.7,1014.5,5503.3,1013.4z"/>
	<path class="st6" d="M5543.9,1045.4c-2-3.2-2.4-6.9-1.2-11.2c1.2-4.2,3.5-7.2,6.9-8.9c3.4-1.7,7.5-1.9,12.4-0.5
		c4.8,1.4,8.2,3.7,10.2,6.9c2,3.3,2.4,7,1.2,11.2c-1.2,4.2-3.5,7.1-7,8.8c-3.5,1.7-7.6,1.9-12.3,0.5
		C5549.3,1050.9,5545.9,1048.6,5543.9,1045.4z"/>
	<path class="st6" d="M5587,1057.7c-2-3.2-2.4-6.9-1.2-11.2c1.2-4.2,3.5-7.2,6.9-8.9c3.4-1.7,7.5-1.9,12.4-0.5
		c4.8,1.4,8.2,3.7,10.2,6.9c2,3.3,2.4,7,1.2,11.2c-1.2,4.2-3.5,7.1-7,8.8c-3.5,1.7-7.6,1.9-12.3,0.5
		C5592.4,1063.2,5589,1060.9,5587,1057.7z"/>
	<path class="st6" d="M5630.1,1070c-2-3.2-2.4-6.9-1.2-11.2c1.2-4.2,3.5-7.2,6.9-8.9c3.4-1.7,7.5-1.9,12.4-0.5
		c4.8,1.4,8.2,3.7,10.2,6.9c2,3.3,2.4,7,1.2,11.2c-1.2,4.2-3.5,7.1-7,8.8c-3.5,1.7-7.6,1.9-12.3,0.5
		C5635.5,1075.5,5632.1,1073.2,5630.1,1070z"/>
	<path class="st6" d="M5742.1,1042.1c6.4,4.6,10.5,9.5,12.5,14.8c1.9,5.3,2,11.3,0.1,17.8c-3,10.4-8.9,17.3-18,20.7
		c-9,3.4-21.1,3-36.2-1.3c-10.6-3-20.5-7.4-29.8-13.1l5-17.4c4.3,2.6,8.9,5,13.9,7.2c4.9,2.2,9.8,4,14.7,5.4
		c8.1,2.3,14.4,2.8,18.8,1.5s7.3-4.3,8.7-9c0.9-3.1,0.7-6-0.6-8.5c-1.3-2.5-4.1-5-8.5-7.5s-10.8-5.2-19.3-8.2l-16.6-5.6l19.9-55
		l63.9,18.2l-5,17.6l-42.3-12l-7.9,21.8C5726.7,1033.3,5735.7,1037.5,5742.1,1042.1z"/>
	<path class="st6" d="M5854.7,1088c2.3,5,2.5,10.7,0.6,17.2s-5.2,11.6-9.9,15c-4.7,3.5-11.4,5.2-20.1,5.3
		c-8.7,0.1-19.7-1.8-33.1-5.6c-4.6-1.3-9.8-3-15.5-5c-5.7-2.1-11-4.1-15.7-6.1l28.1-98.6c5.8,0.3,12,1,18.7,2.1s13.1,2.5,19.2,4.3
		c16.3,4.6,27.5,10.4,33.5,17.4c6.1,7,7.7,15.2,5,24.8c-1.5,5.4-4.3,9.6-8.4,12.7s-8.9,4.6-14.5,4.5
		C5848.4,1079.1,5852.4,1083.1,5854.7,1088z M5809,1031.4l-6.9,24.4l17.6,5c6.7,1.9,11.9,2.3,15.5,1c3.6-1.2,6.1-4,7.3-8.4
		c0.9-3,0.9-5.7,0-8c-0.8-2.3-2.7-4.3-5.5-6.1c-2.8-1.8-6.9-3.4-12.1-4.9C5819.7,1032.8,5814.3,1031.8,5809,1031.4z M5819.5,1107.9
		c4.1,0,7.2-0.8,9.3-2.4c2.1-1.6,3.6-4,4.5-7.3s1-6.1,0.2-8.5s-2.5-4.5-5.2-6.3s-6.5-3.4-11.4-4.8l-19.8-5.6l-7.8,27.3
		c3.9,1.7,8.6,3.3,14.1,4.8C5810.1,1106.9,5815.4,1107.9,5819.5,1107.9z"/>
	<path class="st6" d="M5949.8,1105.3c5,7,5.9,15.8,3,26.2c-1.8,6.5-5,11.6-9.4,15.5s-10,6.3-16.6,7.2c-6.6,0.9-14.1,0.2-22.3-2.1
		c-9.1-2.6-16.5-6.6-22.2-12.1s-9.3-12.4-10.9-20.7c-1.6-8.3-0.8-17.9,2.3-28.7c3.4-12.1,8.4-21.7,14.8-28.9
		c6.4-7.2,14.3-11.8,23.5-13.9c9.3-2.1,19.8-1.4,31.5,1.9c4.8,1.4,9.2,2.9,13,4.6s7.3,3.7,10.5,6l-5.1,17.8c-3-2.2-6.4-4.2-10.2-6
		c-3.8-1.8-7.7-3.2-11.5-4.3c-10.5-3-19.1-2.7-25.8,0.9c-6.7,3.6-11.6,10.2-14.7,19.7c3.7-0.8,7.9-1.1,12.4-0.8
		c4.6,0.3,9,1,13.3,2.2C5936.7,1093.1,5944.9,1098.3,5949.8,1105.3z M5922.9,1135.4c3.8-1.6,6.3-4.8,7.7-9.6c1.4-5,0.9-9.3-1.7-12.7
		c-2.6-3.4-7-6-13.2-7.8c-3.3-0.9-6.7-1.5-10.3-1.6c-3.6-0.2-7,0.1-10.3,0.8c-2.1,9.1-2,16.1,0.5,21s6.9,8.2,13.4,10.1
		C5914.6,1137,5919.2,1137,5922.9,1135.4z"/>
	<path class="st6" d="M6035.6,1139.5c2.5,5.1,2.9,10.9,1,17.6c-2.7,9.6-8.5,16-17.3,19.2s-20.9,2.6-36.2-1.7
		c-10.8-3.1-20.8-7.3-29.9-12.8l5-17.4c4.3,2.6,8.9,4.9,13.8,7.1c5,2.2,9.9,4,14.8,5.4c8.2,2.3,14.5,2.8,18.9,1.4s7.3-4.4,8.6-9.1
		c1.3-4.5,0.5-8.3-2.2-11.5s-8-5.9-15.9-8.1l-18.9-5.4l4.9-17.4l14.1,4c7.8,2.2,13.8,2.8,17.9,1.6c4.1-1.1,6.8-3.8,8-8.1
		c1.2-4.1,0.4-7.6-2.3-10.7c-2.7-3.1-7.3-5.6-14-7.5c-4.4-1.2-9-2.2-13.9-2.8c-4.9-0.6-9.5-0.8-13.9-0.6l5-17.4
		c4.2-0.1,9,0.2,14.4,1s10.6,1.8,15.5,3.2c13.6,3.9,23.2,9.2,28.7,16s7,14.7,4.4,23.7c-1.6,5.5-4.5,9.8-8.7,12.8
		c-4.2,3.1-9.3,4.7-15.3,4.8C6028.5,1130.2,6033,1134.4,6035.6,1139.5z"/>
</g>
<g>
	<path class="st5" d="M3941.6,1584.4l29.6,8.4l-29.1,102.4l-23-6.5l20.5-72l-44.1,49.3l-20.6-5.9l-12.1-63.1l-19.9,70l-22.9-6.5
		l29.1-102.4l29.5,8.4l13.5,73.5L3941.6,1584.4z"/>
	<path class="st5" d="M4044.6,1690.6l-53.1-15.1c-0.8,3.9-0.7,7.2,0.5,10c1.1,2.7,3.4,5.2,6.9,7.3c3.5,2.1,8.5,4.1,15,6
		s13.9,3.1,22.1,3.8l-4.8,16.9c-8.9-0.7-17.5-2.2-25.8-4.6c-16-4.6-26.9-11.1-32.7-19.6s-6.8-19.5-3-32.8
		c2.3-8.2,5.9-14.7,10.6-19.8c4.7-5,10.5-8.2,17.3-9.7c6.8-1.4,14.4-0.9,22.8,1.4c8,2.3,14.4,5.8,19,10.5c4.7,4.7,7.6,10.5,8.7,17.3
		s0.5,14.4-1.9,22.8L4044.6,1690.6z M4003.1,1649.9c-3.4,2.2-6.1,6.3-8,12.5l31.1,8.8c1.6-6.2,1.5-11.1-0.2-14.8
		c-1.7-3.7-5.1-6.2-10.1-7.6C4010.7,1647.3,4006.5,1647.7,4003.1,1649.9z"/>
	<path class="st5" d="M4061.5,1729.8c-4.8-2-9-4.2-12.8-6.5l4.6-16.3c4,2.4,8.4,4.7,13.1,6.7s9.5,3.7,14.4,5.1
		c5.7,1.6,9.9,2.2,12.6,1.6c2.7-0.5,4.5-2,5.2-4.5c0.5-1.8,0.4-3.3-0.5-4.6c-0.8-1.3-2.6-2.5-5.5-3.8l-14.3-6.3
		c-8-3.6-13.3-7.7-15.9-12.3c-2.6-4.7-3-10.1-1.3-16.3c2.2-7.7,7.3-12.8,15.2-15.2c7.9-2.5,18.7-1.7,32.4,2.1
		c4.2,1.2,8.4,2.7,12.5,4.4c4.1,1.7,7.6,3.5,10.6,5.3l-4.6,16.3c-3.1-1.9-6.7-3.7-10.7-5.4c-4-1.7-8.1-3.2-12.1-4.3
		c-6.9-2-11.8-2.6-14.8-2.1c-3,0.6-4.8,2-5.5,4.4c-0.5,1.6-0.3,3.1,0.5,4.4s2.6,2.6,5.3,3.9l14.3,6.3c7.7,3.4,13,7.3,15.9,11.8
		s3.4,10.1,1.5,16.9c-1.4,5.1-4.1,9-8.1,11.9s-9.1,4.5-15.3,4.8c-6.3,0.3-13.5-0.7-21.7-3
		C4071.2,1733.5,4066.2,1731.8,4061.5,1729.8z"/>
	<path class="st5" d="M4140.5,1752.2c-4.8-2-9-4.2-12.8-6.5l4.6-16.3c4,2.4,8.4,4.7,13.1,6.7s9.5,3.7,14.4,5.1
		c5.7,1.6,9.9,2.2,12.6,1.6c2.7-0.5,4.5-2,5.2-4.5c0.5-1.8,0.4-3.3-0.5-4.6c-0.8-1.3-2.6-2.5-5.5-3.8l-14.3-6.3
		c-8-3.6-13.3-7.7-15.9-12.3c-2.6-4.7-3-10.1-1.3-16.3c2.2-7.7,7.3-12.8,15.2-15.2c7.9-2.5,18.7-1.7,32.4,2.1
		c4.2,1.2,8.4,2.7,12.5,4.4c4.1,1.7,7.6,3.5,10.6,5.3l-4.6,16.3c-3.1-1.9-6.7-3.7-10.7-5.4c-4-1.7-8.1-3.2-12.1-4.3
		c-6.9-2-11.8-2.6-14.8-2.1c-3,0.6-4.8,2-5.5,4.4c-0.5,1.6-0.3,3.1,0.5,4.4s2.6,2.6,5.3,3.9l14.3,6.3c7.7,3.4,13,7.3,15.9,11.8
		s3.4,10.1,1.5,16.9c-1.4,5.1-4.1,9-8.1,11.9s-9.1,4.5-15.3,4.8c-6.3,0.3-13.5-0.7-21.7-3C4150.2,1756,4145.2,1754.3,4140.5,1752.2z
		"/>
	<path class="st5" d="M4281.9,1712.3c5.1,3.7,8.3,8.4,9.7,14.1c1.4,5.7,0.8,12.7-1.6,21.2l-12.3,43.1l-19.9-5.7l0.4-7.6l-1.2-0.3
		c-3.5,2-7.4,3.2-11.8,3.5s-8.9-0.2-13.6-1.5c-6-1.7-10.8-4.1-14.5-7.2s-6.1-6.6-7.3-10.5c-1.2-3.9-1.1-8.1,0.1-12.4
		c2-7.1,6.4-11.9,13.2-14.2c6.7-2.3,16.2-2.2,28.5,0.5l15.5,3.1c0.9-3.6,1-6.6,0.3-9.1c-0.8-2.4-2.4-4.5-5-6.1
		c-2.6-1.7-6.3-3.2-11.2-4.6c-3.5-1-7.4-1.8-11.7-2.4c-4.4-0.6-8.5-0.9-12.5-0.8l4.8-17c4.4,0,9.2,0.3,14.2,1.1
		c5,0.8,9.8,1.8,14.2,3.1C4269.6,1705.3,4276.8,1708.5,4281.9,1712.3z M4251.7,1766.6c2.8-0.1,5.5-0.6,8-1.7l3.9-13.6l-13.3-2.7
		c-4.9-1-8.6-1-11.1-0.1s-4.1,2.7-4.9,5.3c-0.7,2.6-0.4,5,1.2,7c1.5,2,4.2,3.6,8.1,4.7C4246.2,1766.3,4249,1766.7,4251.7,1766.6z"/>
	<path class="st5" d="M4289.9,1824.7l5.2-18.3c4.7,2.8,9.4,5.3,14.1,7.4s9.1,3.7,13.1,4.8c5.9,1.7,10.8,2.4,14.7,2.1s7-1.5,9.4-3.6
		s4.1-5.3,5.3-9.5l1.2-4.4l-1.1-0.3c-7.5,3.9-16.1,4.5-25.8,1.7c-6.3-1.8-11.6-4.8-15.9-9s-7.2-9.5-8.7-15.8
		c-1.4-6.3-1.1-13.3,1.2-21.1c2.4-8.6,6.3-15.4,11.7-20.4c5.3-5,12.1-8.1,20.1-9.3c8.1-1.1,17.3-0.2,27.8,2.8
		c5.8,1.6,11.6,3.7,17.5,6.2s11,5.2,15.4,7.9l-18.2,63.9c-2.7,9.4-6.5,16.5-11.5,21.5s-11.3,7.9-19,8.8s-16.8-0.2-27.5-3.2
		C4308.2,1833.8,4298.5,1829.7,4289.9,1824.7z M4349,1789.1c3.1-0.1,5.9-0.7,8.6-1.8l9.5-33.4c-3.3-1.9-7.3-3.6-11.9-4.9
		c-7.3-2.1-13.4-1.9-18.1,0.5c-4.8,2.4-8.1,7.1-10.1,14.1c-1.9,6.7-1.7,12,0.7,16c2.4,4,6.5,6.8,12.2,8.4
		C4343,1788.8,4346,1789.2,4349,1789.1z"/>
	<path class="st5" d="M4475.8,1813.3l-53.1-15.1c-0.8,3.9-0.7,7.2,0.5,10c1.1,2.7,3.4,5.2,6.9,7.3c3.5,2.1,8.5,4.1,15,6
		s13.9,3.1,22.1,3.8l-4.8,16.9c-8.9-0.7-17.5-2.2-25.8-4.6c-16-4.6-26.9-11.1-32.7-19.6s-6.8-19.5-3-32.8
		c2.3-8.2,5.9-14.7,10.6-19.8c4.7-5,10.5-8.2,17.3-9.7c6.8-1.4,14.4-0.9,22.8,1.4c8,2.3,14.4,5.8,19,10.5c4.7,4.7,7.6,10.5,8.7,17.3
		s0.5,14.4-1.9,22.8L4475.8,1813.3z M4434.4,1772.6c-3.4,2.2-6.1,6.3-8,12.5l31.1,8.8c1.6-6.2,1.5-11.1-0.2-14.8
		c-1.7-3.7-5.1-6.2-10.1-7.6C4442,1770.1,4437.7,1770.4,4434.4,1772.6z"/>
	<path class="st5" d="M4497.3,1795.8c-2-3.2-2.4-6.9-1.2-11.2c1.2-4.2,3.5-7.2,6.9-8.9c3.4-1.7,7.5-1.9,12.4-0.5
		c4.8,1.4,8.2,3.7,10.2,6.9c2,3.3,2.4,7,1.2,11.2c-1.2,4.2-3.5,7.1-7,8.8c-3.5,1.7-7.6,1.9-12.3,0.5
		C4502.7,1801.3,4499.3,1799,4497.3,1795.8z M4482.9,1846.4c-2-3.2-2.4-6.9-1.2-11.2c1.2-4.2,3.5-7.2,6.9-8.9
		c3.4-1.7,7.5-1.9,12.4-0.5c4.8,1.4,8.2,3.7,10.2,6.9c2,3.3,2.4,7,1.2,11.2c-1.2,4.2-3.5,7.1-7,8.8c-3.5,1.7-7.6,1.9-12.3,0.5
		C4488.3,1851.9,4484.9,1849.6,4482.9,1846.4z"/>
</g>
<g>
	<path class="st6" d="M4887.8,1416.8c-16.7-17.2-27.1-39-31.3-65.5c-4.2-26.5-1.3-57.4,8.7-92.5s23.7-62.9,41.2-83.4
		c17.5-20.4,37.8-33.5,61-39.3c23.2-5.7,48.6-4.7,76.3,3.2c27.7,7.9,49.9,20.4,66.6,37.5s27.2,39,31.4,65.6
		c4.2,26.6,1.2,57.5-8.8,92.6s-23.8,62.9-41.3,83.3s-38,33.4-61.3,39.2c-23.3,5.8-48.8,4.7-76.3-3.1
		C4926.6,1446.5,4904.5,1434,4887.8,1416.8z M5007.5,1395.6c10.8-3.6,20.7-11.9,29.7-24.9s17-31.7,23.9-56
		c7-24.5,10.1-44.7,9.3-60.5c-0.8-15.9-4.9-28.2-12.2-36.9c-7.3-8.7-17.6-15-30.9-18.8c-13.4-3.8-25.6-3.9-36.5-0.4
		c-10.9,3.6-20.8,11.8-29.8,24.8s-17,31.7-23.9,56c-7,24.5-10.1,44.7-9.3,60.5c0.8,15.9,4.8,28.2,12.2,36.9
		c7.3,8.7,17.7,15,31.3,18.9C4984.6,1399.1,4996.7,1399.2,5007.5,1395.6z"/>
	<path class="st6" d="M5129.2,1491.8c-6.1-9.7-7.3-20.8-3.7-33.6c3.6-12.7,10.5-21.6,20.7-26.7s22.6-5.6,37.1-1.4
		c14.4,4.1,24.6,11,30.6,20.8s7.3,21,3.7,33.6c-3.5,12.5-10.5,21.2-20.9,26.4c-10.4,5.1-22.7,5.7-36.9,1.6
		C5145.5,1508.3,5135.2,1501.5,5129.2,1491.8z"/>
	<path class="st6" d="M5404.4,1245.1l49.6,14.1l-87.7,308.2l-73.7-21l63.2-222.1l-106.4,38.1l19.5-68.7L5404.4,1245.1z"/>
	<path class="st6" d="M5721.6,1541.5l-16.1,56.4l-43.6-12.4l-17.4,61l-66.4-18.9l17.4-61l-169.1-48.1l11.1-39l177.9-173.3l71,20.2
		l-162.3,158.9l87.6,24.9l31.3-84l59.6,17l-24.5,85.9L5721.6,1541.5z"/>
	<path class="st6" d="M5947,1586.9c7.6,15.3,8.6,32.8,2.9,52.8c-8.2,28.8-25.5,48-51.8,57.6c-26.4,9.6-62.6,7.9-108.7-5.2
		c-32.5-9.3-62.4-22-89.6-38.3l14.9-52.3c12.8,7.7,26.6,14.8,41.5,21.4s29.6,12,44.3,16.2c24.5,7,43.4,8.4,56.6,4.3
		c13.3-4.1,21.9-13.2,25.9-27.3c3.8-13.4,1.6-24.9-6.6-34.4s-24.1-17.6-47.6-24.3l-56.7-16.1l14.8-52.1l42.3,12
		c23.4,6.7,41.3,8.3,53.7,4.8c12.4-3.4,20.4-11.5,24.1-24.2c3.5-12.2,1.2-22.9-6.8-32.2c-8-9.3-22-16.8-42.1-22.5
		c-13.1-3.7-27-6.5-41.7-8.4s-28.6-2.5-41.7-1.9l14.9-52.3c12.5-0.3,26.9,0.6,43.3,2.9c16.3,2.3,31.8,5.5,46.5,9.6
		c40.8,11.6,69.5,27.7,86,48.1c16.5,20.5,21,44.2,13.3,71.2c-4.7,16.5-13.4,29.3-26.1,38.5s-28,14-45.9,14.4
		C5925.9,1559.1,5939.3,1571.7,5947,1586.9z"/>
	<path class="st6" d="M6030.3,1742c-16.7-17.2-27.1-39-31.3-65.5c-4.2-26.5-1.3-57.4,8.7-92.5s23.7-62.9,41.2-83.4
		c17.5-20.4,37.8-33.5,61-39.3c23.2-5.7,48.6-4.7,76.3,3.2c27.7,7.9,49.9,20.4,66.6,37.5s27.2,39,31.4,65.6
		c4.2,26.6,1.2,57.5-8.8,92.6s-23.8,62.9-41.3,83.3s-38,33.4-61.3,39.2c-23.3,5.8-48.8,4.7-76.3-3.1
		C6069,1771.6,6046.9,1759.1,6030.3,1742z M6149.9,1720.7c10.8-3.6,20.7-11.9,29.7-24.9s17-31.7,23.9-56c7-24.5,10.1-44.7,9.3-60.5
		c-0.8-15.9-4.9-28.2-12.2-36.9c-7.3-8.7-17.6-15-30.9-18.8c-13.4-3.8-25.6-3.9-36.5-0.4c-10.9,3.6-20.8,11.8-29.8,24.8
		s-17,31.7-23.9,56c-7,24.5-10.1,44.7-9.3,60.5c0.8,15.9,4.8,28.2,12.2,36.9c7.3,8.7,17.7,15,31.3,18.9
		C6127.1,1724.2,6139.1,1724.3,6149.9,1720.7z"/>
	<path class="st6" d="M6494.1,1828.9l173.5,49.4l-15.7,55l-246.1-70l87.4-307.1l244.1,69.5l-15.7,55l-171.4-48.8l-19.3,67.7
		l149.6,42.6l-15.7,55l-149.6-42.6L6494.1,1828.9z"/>
	<path class="st6" d="M6782.3,1970.4l71-249.5l-109-31l16.4-57.7l291.4,82.9l-16.4,57.7l-109-31l-71,249.5L6782.3,1970.4z"/>
	<path class="st6" d="M7001.5,2032.7l87.4-307.1l73.5,20.9l-33.8,118.7l147.1,41.9l33.8-118.7l73.5,20.9l-87.4,307.1l-73.5-20.9
		l35.8-125.8l-147.1-41.9l-35.8,125.8L7001.5,2032.7z"/>
</g>
<g>
	<path class="st6" d="M4706.2,1849.8l28-98.5c5.5,0.3,11.8,1.1,18.9,2.3c7.1,1.3,13.8,2.8,20,4.6c21,6,35.6,14.8,43.8,26.4
		c8.2,11.6,9.8,26.2,4.8,43.8c-3.5,12.2-8.8,21.4-16,27.6s-16.4,9.7-27.6,10.4c-11.2,0.7-24.5-1.1-40.1-5.5
		C4726.6,1857.7,4716,1853.9,4706.2,1849.8z M4772,1845.9c6.2-0.7,11.3-3.1,15.3-7.2c4.1-4.1,7.2-9.9,9.3-17.6
		c3.2-11.2,2.5-20.3-2.2-27.4c-4.6-7-13.3-12.4-26-16c-4.6-1.3-9.5-2.2-14.7-2.8l-18.2,63.8c3.4,1.4,8.1,3,14,4.7
		C4758.5,1845.8,4765.9,1846.7,4772,1845.9z"/>
	<path class="st6" d="M4896.7,1825.5c5.1,3.7,8.3,8.4,9.7,14.1c1.4,5.7,0.8,12.7-1.6,21.2l-12.3,43.1l-19.9-5.7l0.4-7.6l-1.2-0.3
		c-3.5,2-7.4,3.2-11.8,3.5s-8.9-0.2-13.6-1.5c-6-1.7-10.8-4.1-14.5-7.2s-6.1-6.6-7.3-10.5c-1.2-3.9-1.1-8.1,0.1-12.4
		c2-7.1,6.4-11.9,13.2-14.2c6.7-2.3,16.2-2.2,28.5,0.5l15.5,3.1c0.9-3.6,1-6.6,0.3-9.1c-0.8-2.4-2.4-4.5-5-6.1
		c-2.6-1.7-6.3-3.2-11.2-4.6c-3.5-1-7.4-1.8-11.7-2.4c-4.4-0.6-8.5-0.9-12.5-0.8l4.8-17c4.4,0,9.2,0.3,14.2,1.1
		c5,0.8,9.8,1.8,14.2,3.1C4884.4,1818.5,4891.6,1821.7,4896.7,1825.5z M4866.5,1879.8c2.8-0.1,5.5-0.6,8-1.7l3.9-13.6l-13.3-2.7
		c-4.9-0.9-8.6-1-11.1-0.1s-4.1,2.7-4.9,5.3c-0.7,2.6-0.4,5,1.2,7c1.5,2,4.2,3.6,8.1,4.7C4861,1879.5,4863.7,1879.9,4866.5,1879.8z"
		/>
	<path class="st6" d="M4932.7,1833.5l19.5,5.6l-0.7,9.6l1.1,0.3c3.4-2.6,7.2-4.2,11.6-4.8c4.4-0.6,8.9-0.3,13.6,1.1
		c2.6,0.7,5,1.6,7,2.7l-6,21.1c-2.1-1.1-4.9-2.1-8.4-3.1c-3.6-1-7.4-1.5-11.4-1.3s-7.3,1.1-10.1,2.8l-13.8,48.6l-23.9-6.8
		L4932.7,1833.5z"/>
	<path class="st6" d="M4975.1,1927.4l31.8-111.8l23.9,6.8l-31.8,111.8L4975.1,1927.4z"/>
	<path class="st6" d="M5043.7,1840.8c1.1-3.8,3.1-6.3,6.1-7.6c3-1.3,6.9-1.2,11.8,0.1c4.9,1.4,8.3,3.4,10.1,6.1
		c1.9,2.7,2.2,5.9,1.2,9.7c-2.2,7.7-8.2,10.2-17.9,7.4C5045.3,1853.8,5041.5,1848.5,5043.7,1840.8z M5018.4,1939.7l21.5-75.7
		l23.9,6.8l-21.5,75.7L5018.4,1939.7z"/>
	<path class="st6" d="M5083.2,1876.4l19.6,5.6l-0.6,7.8l1.1,0.3c4-1.8,8.5-2.8,13.3-3.1c4.8-0.2,9.7,0.3,14.6,1.7
		c9.4,2.7,16,7.5,19.9,14.4s4.2,16,1,27.2l-12.5,43.9l-23.9-6.8l12.2-42.8c1.5-5.1,1.4-9.1-0.2-11.8c-1.6-2.8-4.5-4.8-8.9-6
		c-3.2-0.9-6.5-1.2-9.8-0.9c-3.4,0.3-6.4,1.2-9.2,2.8l-14.3,50.2l-23.9-6.8L5083.2,1876.4z"/>
	<path class="st6" d="M5151.9,2008.2l5.2-18.3c4.7,2.8,9.4,5.3,14.1,7.4s9.1,3.7,13.1,4.8c5.9,1.7,10.8,2.4,14.7,2.1
		c3.9-0.3,7-1.5,9.4-3.6s4.1-5.3,5.3-9.5l1.2-4.4l-1.1-0.3c-7.5,3.9-16.1,4.5-25.8,1.7c-6.3-1.8-11.6-4.8-15.9-9s-7.2-9.5-8.7-15.8
		s-1.1-13.3,1.2-21.1c2.4-8.6,6.3-15.4,11.7-20.4c5.3-5,12.1-8.1,20.1-9.3c8.1-1.1,17.3-0.2,27.8,2.8c5.8,1.6,11.6,3.7,17.5,6.2
		s11,5.2,15.4,7.9l-18.2,63.9c-2.7,9.4-6.5,16.5-11.5,21.5s-11.3,7.9-19,8.8s-16.8-0.2-27.5-3.2
		C5170.2,2017.3,5160.4,2013.3,5151.9,2008.2z M5211,1972.6c3.1-0.1,5.9-0.7,8.6-1.8l9.5-33.4c-3.3-1.9-7.3-3.6-11.9-4.9
		c-7.3-2.1-13.4-1.9-18.1,0.5c-4.8,2.4-8.1,7.1-10.1,14.1c-1.9,6.7-1.7,12,0.7,16c2.4,4,6.5,6.8,12.2,8.4
		C5204.9,1972.3,5208,1972.7,5211,1972.6z"/>
	<path class="st6" d="M5258.7,2005.7c-2.1-3-2.6-6.5-1.4-10.5c1.1-4,3.4-6.7,6.7-8.2c3.3-1.5,7.4-1.6,12.3-0.2
		c4.8,1.4,8.2,3.6,10.3,6.7c2.1,3.1,2.5,6.6,1.4,10.5s-3.4,6.6-6.8,8.1s-7.5,1.6-12.2,0.3C5264.2,2011,5260.7,2008.8,5258.7,2005.7z
		 M5271.4,1976.7l4.3-35.9l10.2-35.7l25.2,7.2l-10.2,35.7l-15,32.8L5271.4,1976.7z"/>
	<path class="st6" d="M5342.6,2032l29.1-102.4l24.5,7l-29.1,102.4L5342.6,2032z"/>
	<path class="st6" d="M5441.6,1942.9c1.8,3.7,1.8,8.6,0.1,14.5c-1.6,5.6-4.2,11-7.9,16c-3.7,5-7.9,9.3-12.7,12.8l-13.5-3.8
		c3.4-3.8,6.2-7.3,8.5-10.6c2.3-3.3,4-6.6,5.3-10c-3.9-1.6-6.7-3.9-8.3-7c-1.6-3.1-1.8-6.5-0.8-10.3c1.2-4.2,3.5-7.2,6.8-8.9
		c3.4-1.7,7.4-1.9,12.1-0.6C5436.4,1936.6,5439.8,1939.2,5441.6,1942.9z"/>
	<path class="st6" d="M5514.4,1999.1l23.4,6.7l-53.2,66.7l-29-8.2l-10.1-84.7l25.3,7.2l6.1,61.3L5514.4,1999.1z"/>
	<path class="st6" d="M5606.5,2073.3l-53.1-15.1c-0.8,3.9-0.7,7.2,0.5,10c1.1,2.7,3.4,5.2,6.9,7.3s8.5,4.1,15,6s13.9,3.1,22.1,3.8
		l-4.8,16.9c-8.9-0.7-17.5-2.2-25.8-4.6c-16-4.6-26.9-11.1-32.7-19.6c-5.8-8.5-6.8-19.5-3-32.8c2.3-8.2,5.9-14.7,10.6-19.8
		c4.7-5,10.5-8.2,17.3-9.7c6.8-1.4,14.4-0.9,22.8,1.4c8,2.3,14.4,5.8,19,10.5c4.7,4.7,7.6,10.5,8.7,17.3s0.5,14.4-1.9,22.8
		L5606.5,2073.3z M5565,2032.6c-3.4,2.2-6.1,6.3-8,12.5l31.1,8.8c1.6-6.2,1.5-11.1-0.2-14.8s-5.1-6.2-10.1-7.6
		C5572.6,2030.1,5568.4,2030.4,5565,2032.6z"/>
	<path class="st6" d="M5663,2123.8c-4.8-2-9-4.2-12.8-6.5l4.6-16.3c4,2.4,8.4,4.7,13.1,6.7s9.5,3.7,14.4,5.1
		c5.7,1.6,9.9,2.2,12.6,1.6c2.7-0.5,4.5-2,5.2-4.5c0.5-1.8,0.4-3.3-0.5-4.6c-0.8-1.3-2.6-2.5-5.5-3.8l-14.3-6.3
		c-8-3.6-13.3-7.7-15.9-12.3c-2.6-4.7-3-10.1-1.3-16.3c2.2-7.7,7.3-12.8,15.2-15.2c7.9-2.5,18.7-1.7,32.4,2.1
		c4.2,1.2,8.4,2.7,12.5,4.4s7.6,3.5,10.6,5.3l-4.6,16.3c-3.1-1.9-6.7-3.7-10.7-5.4s-8.1-3.2-12.1-4.3c-6.9-2-11.8-2.6-14.8-2.1
		c-3,0.6-4.8,2-5.5,4.4c-0.5,1.6-0.3,3.1,0.5,4.4c0.8,1.3,2.6,2.6,5.3,3.9l14.3,6.3c7.7,3.4,13,7.3,15.9,11.8s3.4,10.1,1.5,16.9
		c-1.4,5.1-4.1,9-8.1,11.9s-9.1,4.5-15.3,4.8c-6.3,0.3-13.5-0.7-21.7-3C5672.7,2127.5,5667.7,2125.8,5663,2123.8z"/>
	<path class="st6" d="M5747.7,2143.9c-5.5-4.8-9.1-10.7-10.9-17.6c-1.8-6.9-1.5-14.5,0.9-22.8s6.1-15,11.1-19.8
		c5-4.9,11.1-7.9,18.2-9.1c7.1-1.2,15.1-0.6,23.9,2c8.9,2.5,16,6.2,21.5,10.9c5.4,4.8,9,10.5,10.7,17.3s1.3,14.4-1.1,22.8
		c-2.3,8.3-6.1,14.8-11.3,19.8c-5.2,4.9-11.3,8-18.5,9.3s-15,0.7-23.5-1.7C5760.1,2152.4,5753.2,2148.8,5747.7,2143.9z
		 M5798.2,2120.8c2.1-7.2,2-13-0.2-17.2s-6.3-7.2-12.3-8.9s-11-1.3-15.1,1.1c-4.1,2.4-7.1,7.2-9.2,14.4c-4,14.1,0.1,22.8,12.4,26.3
		C5786.1,2140,5794.2,2134.8,5798.2,2120.8z"/>
	<path class="st6" d="M5826,2169.6l31.8-111.8l23.9,6.8l-31.8,111.8L5826,2169.6z"/>
	<path class="st6" d="M5883.7,2183c-4.6-4.2-7.7-9.5-9.2-16.1c-1.5-6.5-1.1-14,1.3-22.4c2.5-8.6,6.3-15.5,11.6-20.6
		c5.3-5.1,11.7-8.3,19.3-9.6c7.6-1.3,16-0.6,25.4,2.1c4.2,1.2,8.7,2.8,13.3,4.8l10.1-35.6l23.9,6.8l-31.8,111.8l-20-5.7l1-8.2
		l-1.2-0.3c-3.8,2-7.9,3.3-12.5,3.7c-4.5,0.5-9.3,0-14.1-1.4C5894.1,2190.3,5888.3,2187.2,5883.7,2183z M5922,2176.1
		c3.1-0.2,5.9-1,8.5-2.5l9.7-34.1c-3.5-1.8-7.3-3.4-11.6-4.6c-7.7-2.2-13.8-2-18.5,0.4c-4.7,2.5-8,7.3-10.1,14.4
		c-3.8,13.4,0.4,21.8,12.8,25.3C5915.8,2175.9,5918.9,2176.3,5922,2176.1z"/>
	<path class="st6" d="M6065.2,2217.5l-5.2,18.3c-2.6-0.1-5.3-0.4-8.1-0.9c-2.9-0.5-5.6-1.1-8.2-1.8c-10.2-2.9-17.3-7.5-21.2-13.9
		c-3.9-6.3-4.4-14.4-1.7-24.1l8.3-29.2l-13.7-3.9l5.4-18.8l13.7,3.9l11.9-25.5l19.6,5.6l-7.6,26.7l22.5,6.4l-5.4,18.8l-22.5-6.4
		l-7,24.7c-1,3.6-1.4,6.7-1,9.1c0.4,2.4,1.5,4.4,3.2,5.9c1.8,1.5,4.3,2.7,7.6,3.6C6058.3,2216.7,6061.4,2217.2,6065.2,2217.5z"/>
	<path class="st6" d="M6105.3,2128.2l23.9,6.8l-12.3,43.4l1.1,0.3c3.9-1.9,8.1-3,12.6-3.2c4.5-0.3,9.1,0.3,13.6,1.6
		c8.9,2.5,15.2,7.2,19,14.1c3.8,6.9,4.1,15.8,0.9,27l-12.6,44.1l-23.9-6.8l12.2-42.8c1.4-5.1,1.4-9-0.2-11.8s-4.5-4.8-8.9-6
		c-3.2-0.9-6.5-1.2-9.9-0.9c-3.3,0.3-6.4,1.2-9.1,2.8l-14.3,50.2l-23.9-6.8L6105.3,2128.2z"/>
	<path class="st6" d="M6251.9,2257l-53.1-15.1c-0.8,3.9-0.7,7.2,0.5,10c1.1,2.7,3.4,5.2,6.9,7.3s8.5,4.1,15,6s13.9,3.1,22.1,3.8
		l-4.8,16.9c-8.9-0.7-17.5-2.2-25.8-4.6c-16-4.6-26.9-11.1-32.7-19.6c-5.8-8.5-6.8-19.5-3-32.8c2.3-8.2,5.9-14.7,10.6-19.8
		c4.7-5,10.5-8.2,17.3-9.7c6.8-1.4,14.4-0.9,22.8,1.4c8,2.3,14.4,5.8,19,10.5c4.7,4.7,7.6,10.5,8.7,17.3s0.5,14.4-1.9,22.8
		L6251.9,2257z M6210.5,2216.3c-3.4,2.2-6.1,6.3-8,12.5l31.1,8.8c1.6-6.2,1.5-11.1-0.2-14.8s-5.1-6.2-10.1-7.6
		C6218.1,2213.8,6213.8,2214.1,6210.5,2216.3z"/>
	<path class="st6" d="M6329.1,2191.9l23.9,6.8l-12.3,43.4l1.1,0.3c3.9-1.9,8.1-3,12.6-3.2c4.5-0.3,9.1,0.3,13.6,1.6
		c8.9,2.5,15.2,7.2,19,14.1c3.8,6.9,4.1,15.8,0.9,27l-12.6,44.1l-23.9-6.8l12.2-42.8c1.4-5.1,1.4-9-0.2-11.8s-4.5-4.8-8.9-6
		c-3.2-0.9-6.5-1.2-9.9-0.9c-3.3,0.3-6.4,1.2-9.1,2.8l-14.3,50.2l-23.9-6.8L6329.1,2191.9z"/>
	<path class="st6" d="M6410.8,2332.6c-5.5-4.8-9.1-10.7-10.9-17.6c-1.8-6.9-1.5-14.5,0.9-22.8s6.1-15,11.1-19.8
		c5-4.9,11.1-7.9,18.2-9.1c7.1-1.2,15.1-0.6,23.9,2c8.9,2.5,16,6.2,21.5,10.9c5.4,4.8,9,10.5,10.7,17.3s1.3,14.4-1.1,22.8
		c-2.3,8.3-6.1,14.8-11.3,19.8c-5.2,4.9-11.3,8-18.5,9.3s-15,0.7-23.5-1.7C6423.3,2341.1,6416.3,2337.5,6410.8,2332.6z
		 M6461.3,2309.5c2.1-7.2,2-13-0.2-17.2s-6.3-7.2-12.3-8.9s-11-1.3-15.1,1.1c-4.1,2.4-7.1,7.2-9.2,14.4c-4,14.1,0.1,22.8,12.4,26.3
		C6449.2,2328.8,6457.3,2323.5,6461.3,2309.5z"/>
	<path class="st6" d="M6499.3,2353.9c-4-6.9-4.4-15.9-1.2-27.2l12.6-44.1l23.9,6.8l-12.2,42.9c-1.4,5-1.4,8.9,0.1,11.7
		s4.4,4.8,8.5,5.9c3.1,0.9,6.3,1.2,9.6,0.8c3.3-0.3,6.4-1.3,9.1-2.8l14.3-50.2l23.9,6.8l-21.5,75.7l-19.6-5.6l0.6-7.7l-1-0.3
		c-4.1,1.8-8.5,2.9-13.1,3.2s-9.2-0.2-13.7-1.5C6510.1,2365.6,6503.3,2360.8,6499.3,2353.9z"/>
	<path class="st6" d="M6597,2389.6c-4.8-2-9-4.2-12.8-6.5l4.6-16.3c4,2.4,8.4,4.7,13.1,6.7s9.5,3.7,14.4,5.1
		c5.7,1.6,9.9,2.2,12.6,1.6c2.7-0.5,4.5-2,5.2-4.5c0.5-1.8,0.4-3.3-0.5-4.6c-0.8-1.3-2.6-2.5-5.5-3.8l-14.3-6.3
		c-8-3.6-13.3-7.7-15.9-12.3c-2.6-4.7-3-10.1-1.3-16.3c2.2-7.7,7.3-12.8,15.2-15.2c7.9-2.5,18.7-1.7,32.4,2.1
		c4.2,1.2,8.4,2.7,12.5,4.4s7.6,3.5,10.6,5.3l-4.6,16.3c-3.1-1.9-6.7-3.7-10.7-5.4s-8.1-3.2-12.1-4.3c-6.9-2-11.8-2.6-14.8-2.1
		c-3,0.6-4.8,2-5.5,4.4c-0.5,1.6-0.3,3.1,0.5,4.4c0.8,1.3,2.6,2.6,5.3,3.9l14.3,6.3c7.7,3.4,13,7.3,15.9,11.8s3.4,10.1,1.5,16.9
		c-1.4,5.1-4.1,9-8.1,11.9s-9.1,4.5-15.3,4.8c-6.3,0.3-13.5-0.7-21.7-3C6606.8,2393.3,6601.8,2391.6,6597,2389.6z"/>
	<path class="st6" d="M6746.6,2397.8l-53.1-15.1c-0.8,3.9-0.7,7.2,0.5,10c1.1,2.7,3.4,5.2,6.9,7.3s8.5,4.1,15,6s13.9,3.1,22.1,3.8
		l-4.8,16.9c-8.9-0.7-17.5-2.2-25.8-4.6c-16-4.6-26.9-11.1-32.7-19.6c-5.8-8.5-6.8-19.5-3-32.8c2.3-8.2,5.9-14.7,10.6-19.8
		c4.7-5,10.5-8.2,17.3-9.7c6.8-1.4,14.4-0.9,22.8,1.4c8,2.3,14.4,5.8,19,10.5c4.7,4.7,7.6,10.5,8.7,17.3s0.5,14.4-1.9,22.8
		L6746.6,2397.8z M6705.1,2357.1c-3.4,2.2-6.1,6.3-8,12.5l31.1,8.8c1.6-6.2,1.5-11.1-0.2-14.8s-5.1-6.2-10.1-7.6
		C6712.8,2354.6,6708.5,2354.9,6705.1,2357.1z"/>
	<path class="st6" d="M6865.6,2385.8c5.1,3.7,8.3,8.4,9.7,14.1c1.4,5.7,0.8,12.7-1.6,21.2l-12.3,43.1l-19.9-5.7l0.4-7.6l-1.2-0.3
		c-3.5,2-7.4,3.2-11.8,3.5s-8.9-0.2-13.6-1.5c-6-1.7-10.8-4.1-14.5-7.2c-3.7-3.1-6.1-6.6-7.3-10.5c-1.2-3.9-1.1-8.1,0.1-12.4
		c2-7.1,6.4-11.9,13.2-14.2c6.7-2.3,16.2-2.2,28.5,0.5l15.5,3.1c0.9-3.6,1-6.6,0.3-9.1c-0.8-2.4-2.4-4.5-5-6.1
		c-2.6-1.7-6.3-3.2-11.2-4.6c-3.5-1-7.4-1.8-11.7-2.4c-4.4-0.6-8.5-0.9-12.5-0.8l4.8-17c4.4,0,9.2,0.3,14.2,1.1s9.8,1.8,14.2,3.1
		C6853.3,2378.8,6860.5,2382.1,6865.6,2385.8z M6835.4,2440.1c2.8-0.1,5.5-0.6,8-1.7l3.9-13.6l-13.3-2.7c-4.9-1-8.6-1-11.1-0.1
		s-4.1,2.7-4.8,5.3c-0.7,2.6-0.4,5,1.2,7c1.5,2,4.2,3.6,8.1,4.7C6829.9,2439.9,6832.6,2440.2,6835.4,2440.1z"/>
	<path class="st6" d="M6901.6,2393.9l19.6,5.6l-0.6,7.8l1.1,0.3c4-1.8,8.5-2.8,13.3-3.1c4.8-0.2,9.7,0.3,14.6,1.7
		c9.4,2.7,16,7.5,19.9,14.4s4.2,16,1,27.2l-12.5,43.9l-23.9-6.8l12.2-42.8c1.5-5.1,1.4-9.1-0.2-11.8c-1.6-2.8-4.5-4.8-8.9-6
		c-3.2-0.9-6.5-1.2-9.8-0.9c-3.4,0.3-6.4,1.2-9.2,2.8l-14.3,50.2l-23.9-6.8L6901.6,2393.9z"/>
	<path class="st6" d="M6991,2498.2c-4.6-4.2-7.7-9.5-9.2-16.1c-1.5-6.5-1.1-14,1.3-22.4c2.5-8.6,6.3-15.5,11.6-20.6
		c5.3-5.1,11.7-8.3,19.3-9.6c7.6-1.3,16-0.6,25.4,2.1c4.2,1.2,8.7,2.8,13.3,4.8l10.1-35.6l23.9,6.8l-31.8,111.8l-20-5.7l1-8.2
		l-1.2-0.3c-3.8,2-7.9,3.3-12.5,3.7c-4.5,0.5-9.3,0-14.1-1.4C7001.4,2505.4,6995.7,2502.4,6991,2498.2z M7029.3,2491.2
		c3.1-0.2,5.9-1,8.5-2.5l9.7-34.1c-3.5-1.8-7.3-3.4-11.6-4.6c-7.7-2.2-13.8-2-18.5,0.4c-4.7,2.5-8,7.3-10.1,14.4
		c-3.8,13.4,0.4,21.8,12.8,25.3C7023.1,2491,7026.2,2491.4,7029.3,2491.2z"/>
	<path class="st6" d="M7135.5,2460.4l20,5.7l-0.9,8.3l1.1,0.3c3.7-2,7.8-3.3,12.4-3.7c4.5-0.4,9.3,0.1,14.2,1.5
		c6.8,1.9,12.5,5,17.1,9.1c4.6,4.2,7.7,9.5,9.2,15.9c1.5,6.5,1.1,14-1.3,22.5c-2.5,8.7-6.3,15.6-11.6,20.7
		c-5.3,5.1-11.7,8.3-19.3,9.6c-7.6,1.3-16,0.6-25.4-2.1c-3.5-1-7.9-2.6-13.3-4.8l-8.5,29.9l-23.9-6.8L7135.5,2460.4z M7173,2529.4
		c4.7-2.5,8-7.3,10.1-14.4c3.8-13.4-0.4-21.8-12.7-25.3c-3.1-0.9-6.2-1.2-9.2-1.1c-3.1,0.2-5.9,1-8.5,2.4l-9.7,34.1
		c3.7,1.9,7.6,3.5,11.6,4.7C7162.2,2532,7168.3,2531.8,7173,2529.4z"/>
	<path class="st6" d="M7221.1,2559.3c-4-6.9-4.4-15.9-1.2-27.2l12.6-44.1l23.9,6.8l-12.2,42.9c-1.4,5-1.4,8.9,0.1,11.7
		s4.4,4.8,8.5,5.9c3.1,0.9,6.3,1.2,9.6,0.8c3.3-0.3,6.4-1.3,9.1-2.8l14.3-50.2l23.9,6.8l-21.5,75.7l-19.6-5.6l0.6-7.7l-1-0.3
		c-4.1,1.8-8.5,2.9-13.1,3.2s-9.1-0.2-13.7-1.5C7231.9,2571,7225.1,2566.2,7221.1,2559.3z"/>
	<path class="st6" d="M7367.6,2588.2l-5.2,18.3c-2.6-0.1-5.3-0.4-8.1-0.9c-2.9-0.5-5.6-1.1-8.2-1.8c-10.2-2.9-17.3-7.5-21.2-13.9
		c-3.9-6.3-4.4-14.4-1.7-24.1l8.3-29.2l-13.7-3.9l5.4-18.8l13.7,3.9l11.9-25.5l19.6,5.6l-7.6,26.7l22.5,6.4l-5.4,18.8l-22.5-6.4
		l-7,24.7c-1,3.6-1.4,6.7-1,9.1c0.4,2.4,1.5,4.4,3.2,5.9c1.8,1.5,4.3,2.7,7.6,3.6C7360.6,2587.3,7363.7,2587.8,7367.6,2588.2z"/>
	<path class="st6" d="M7440.1,2522.8c1.1-3.8,3.1-6.3,6.1-7.6s6.9-1.2,11.8,0.1c4.9,1.4,8.3,3.4,10.1,6.1c1.9,2.7,2.2,5.9,1.2,9.7
		c-2.2,7.7-8.2,10.2-17.9,7.4C7441.6,2535.7,7437.9,2530.5,7440.1,2522.8z M7414.8,2621.7l21.5-75.7l23.9,6.8l-21.5,75.7
		L7414.8,2621.7z"/>
	<path class="st6" d="M7516.6,2630.6l-5.2,18.3c-2.6-0.1-5.3-0.4-8.1-0.9c-2.9-0.5-5.6-1.1-8.2-1.8c-10.2-2.9-17.3-7.5-21.2-13.9
		c-3.9-6.3-4.4-14.4-1.7-24.1l8.3-29.2l-13.7-3.9l5.4-18.8l13.7,3.9l11.9-25.5l19.6,5.6l-7.6,26.7l22.5,6.4l-5.4,18.8l-22.5-6.4
		l-7,24.7c-1,3.6-1.4,6.7-1,9.1c0.4,2.4,1.5,4.4,3.2,5.9c1.8,1.5,4.3,2.7,7.6,3.6C7509.7,2629.7,7512.8,2630.2,7516.6,2630.6z"/>
	<path class="st6" d="M7637.5,2605.5c5.1,3.7,8.3,8.4,9.7,14.1c1.4,5.7,0.8,12.7-1.6,21.2l-12.3,43.1l-19.9-5.7l0.4-7.6l-1.2-0.3
		c-3.5,2-7.4,3.2-11.8,3.5s-8.9-0.2-13.6-1.5c-6-1.7-10.8-4.1-14.5-7.2c-3.7-3.1-6.1-6.6-7.3-10.5c-1.2-3.9-1.1-8.1,0.1-12.4
		c2-7.1,6.4-11.9,13.2-14.2c6.7-2.3,16.2-2.2,28.5,0.5l15.5,3.1c0.9-3.6,1-6.6,0.3-9.1c-0.8-2.4-2.4-4.5-5-6.1
		c-2.6-1.7-6.3-3.2-11.2-4.6c-3.5-1-7.4-1.8-11.7-2.4c-4.4-0.6-8.5-0.9-12.5-0.8l4.8-17c4.4,0,9.2,0.3,14.2,1.1s9.8,1.8,14.2,3.1
		C7625.2,2598.5,7632.4,2601.7,7637.5,2605.5z M7607.3,2659.8c2.8-0.1,5.5-0.6,8-1.7l3.9-13.6l-13.3-2.7c-4.9-1-8.6-1-11.1-0.1
		s-4.1,2.7-4.8,5.3c-0.7,2.6-0.4,5,1.2,7c1.5,2,4.2,3.6,8.1,4.7C7601.8,2659.5,7604.5,2659.9,7607.3,2659.8z"/>
	<path class="st6" d="M7651.9,2689.2l31.8-111.8l23.9,6.8l-31.8,111.8L7651.9,2689.2z"/>
	<path class="st6" d="M7695.2,2701.5l31.8-111.8l23.9,6.8l-31.8,111.8L7695.2,2701.5z"/>
	<path class="st6" d="M7803.5,2626.2c1.1-3.8,3.1-6.3,6.1-7.6s6.9-1.2,11.8,0.1c4.9,1.4,8.3,3.4,10.1,6.1c1.9,2.7,2.2,5.9,1.2,9.7
		c-2.2,7.7-8.2,10.2-17.9,7.4C7805,2639.2,7801.3,2633.9,7803.5,2626.2z M7778.1,2725.1l21.5-75.7l23.9,6.8l-21.5,75.7
		L7778.1,2725.1z"/>
	<path class="st6" d="M7843,2661.8l19.6,5.6l-0.6,7.8l1.1,0.3c4-1.8,8.5-2.8,13.3-3.1c4.8-0.2,9.7,0.3,14.6,1.7
		c9.4,2.7,16,7.5,19.9,14.4s4.2,16,1,27.2l-12.5,43.9l-23.9-6.8l12.2-42.8c1.5-5.1,1.4-9.1-0.1-11.8c-1.6-2.8-4.5-4.8-8.9-6
		c-3.2-0.9-6.5-1.2-9.8-0.9c-3.4,0.3-6.4,1.2-9.2,2.8l-14.3,50.2l-23.9-6.8L7843,2661.8z"/>
	<path class="st6" d="M7976.7,2761.5l-5.2,18.3c-2.6-0.1-5.3-0.4-8.1-0.9c-2.9-0.5-5.6-1.1-8.2-1.8c-10.2-2.9-17.3-7.5-21.2-13.9
		c-3.9-6.3-4.4-14.4-1.7-24.1l8.3-29.2l-13.7-3.9l5.4-18.8l13.7,3.9l11.9-25.5l19.6,5.6l-7.6,26.7l22.5,6.4l-5.4,18.8l-22.5-6.4
		l-7,24.7c-1,3.6-1.4,6.7-1,9.1c0.4,2.4,1.5,4.4,3.2,5.9c1.8,1.5,4.3,2.7,7.6,3.6C7969.7,2760.7,7972.8,2761.2,7976.7,2761.5z"/>
	<path class="st6" d="M8000.1,2784.9c-5.5-4.8-9.1-10.7-10.9-17.6c-1.8-6.9-1.5-14.5,0.9-22.8s6.1-15,11.1-19.8
		c5-4.9,11.1-7.9,18.2-9.1c7.1-1.2,15.1-0.6,23.9,2c8.9,2.5,16,6.2,21.5,10.9c5.4,4.8,9,10.5,10.7,17.3c1.7,6.8,1.3,14.4-1.1,22.8
		c-2.3,8.3-6.1,14.8-11.3,19.8c-5.2,4.9-11.3,8-18.5,9.3s-15,0.7-23.5-1.7C8012.5,2793.4,8005.6,2789.8,8000.1,2784.9z
		 M8050.6,2761.8c2.1-7.2,2-13-0.2-17.2s-6.3-7.2-12.3-8.9s-11-1.3-15.1,1.1c-4.1,2.4-7.1,7.2-9.2,14.4c-4,14.1,0.1,22.8,12.4,26.3
		C8038.5,2781.1,8046.6,2775.8,8050.6,2761.8z"/>
	<path class="st6" d="M4667.7,2010.1c-5.8-8.9-7-19.7-3.4-32.4c3.6-12.7,10.4-21.3,20.3-25.7c9.9-4.4,22.6-4.5,37.9-0.1
		c7.7,2.2,14.3,4.8,19.8,8l-5.2,18.3c-3.2-1.6-6.2-3-8.9-4.1c-2.7-1.1-5.6-2.1-8.6-2.9c-8.6-2.4-15.4-2.6-20.4-0.3
		c-5,2.2-8.5,6.8-10.5,13.8c-3.9,13.7,1.9,22.7,17.4,27.1c3,0.8,6,1.5,9.1,1.9s6.9,0.8,11.5,1l-5.2,18.3c-7.2,0.2-14.9-0.8-23.2-3.2
		C4683.8,2025.5,4673.5,2019,4667.7,2010.1z"/>
	<path class="st6" d="M4756.6,1962.9l19.5,5.6l-0.7,9.6l1.1,0.3c3.4-2.6,7.2-4.2,11.6-4.8c4.4-0.6,8.9-0.3,13.6,1.1
		c2.6,0.7,5,1.6,7,2.7l-6,21.1c-2.1-1.1-4.9-2.1-8.4-3.1c-3.6-1-7.4-1.5-11.4-1.3s-7.3,1.1-10.1,2.8l-13.8,48.6l-23.9-6.8
		L4756.6,1962.9z"/>
	<path class="st6" d="M4882.2,1998.6l23.4,6.7l-74.6,93.5l-23.5-6.7l21.5-26.8l-5.7-1.6l-10.1-84.7l25.3,7.2l5.8,61.8L4882.2,1998.6
		z"/>
	<path class="st6" d="M4915.4,2008.1l20,5.7l-0.9,8.3l1.1,0.3c3.7-2,7.8-3.3,12.4-3.7c4.5-0.4,9.3,0.1,14.2,1.5
		c6.8,1.9,12.5,5,17.1,9.1c4.6,4.2,7.7,9.5,9.2,15.9c1.5,6.5,1.1,14-1.3,22.5c-2.5,8.7-6.3,15.6-11.6,20.7
		c-5.3,5.1-11.7,8.3-19.3,9.6c-7.6,1.3-16,0.6-25.4-2.1c-3.5-1-7.9-2.6-13.3-4.8l-8.5,29.9l-23.9-6.8L4915.4,2008.1z M4952.9,2077
		c4.7-2.5,8-7.3,10.1-14.4c3.8-13.4-0.4-21.8-12.7-25.3c-3.1-0.9-6.2-1.2-9.2-1.1c-3.1,0.2-5.9,1-8.5,2.4l-9.7,34.1
		c3.7,1.9,7.6,3.5,11.6,4.7C4942.1,2079.6,4948.3,2079.5,4952.9,2077z"/>
	<path class="st6" d="M5047.4,2107.4l-5.2,18.3c-2.6-0.1-5.3-0.4-8.1-0.9c-2.9-0.5-5.6-1.1-8.2-1.8c-10.2-2.9-17.3-7.5-21.2-13.9
		c-3.9-6.3-4.4-14.4-1.7-24.1l8.3-29.2l-13.7-3.9l5.4-18.8l13.7,3.9l11.9-25.5l19.6,5.6l-7.6,26.7l22.5,6.4l-5.4,18.8l-22.5-6.4
		l-7,24.7c-1,3.6-1.4,6.7-1,9.1c0.4,2.4,1.5,4.4,3.2,5.9c1.8,1.5,4.3,2.7,7.6,3.6C5040.5,2106.5,5043.6,2107,5047.4,2107.4z"/>
	<path class="st6" d="M5070.9,2130.8c-5.5-4.8-9.1-10.7-10.9-17.6c-1.8-6.9-1.5-14.5,0.9-22.8s6.1-15,11.1-19.8
		c5-4.9,11.1-7.9,18.2-9.1c7.1-1.2,15.1-0.6,23.9,2c8.9,2.5,16,6.2,21.5,10.9c5.4,4.8,9,10.5,10.7,17.3s1.3,14.4-1.1,22.8
		c-2.3,8.3-6.1,14.8-11.3,19.8c-5.2,4.9-11.3,8-18.5,9.3s-15,0.7-23.5-1.7C5083.3,2139.3,5076.3,2135.6,5070.9,2130.8z
		 M5121.4,2107.7c2.1-7.2,2-13-0.2-17.2s-6.3-7.2-12.3-8.9s-11-1.3-15.1,1.1c-4.1,2.4-7.1,7.2-9.2,14.4c-4,14.1,0.1,22.8,12.4,26.3
		C5109.3,2126.9,5117.4,2121.7,5121.4,2107.7z"/>
	<path class="st6" d="M5149,2153.7c-2-3.2-2.4-6.9-1.2-11.2c1.2-4.2,3.5-7.2,6.9-8.9s7.5-1.9,12.4-0.5c4.8,1.4,8.2,3.7,10.2,6.9
		c2,3.3,2.4,7,1.2,11.2c-1.2,4.2-3.5,7.1-7,8.8s-7.6,1.9-12.3,0.5C5154.4,2159.2,5151,2156.9,5149,2153.7z"/>
	<path class="st6" d="M5231.5,2179.8l29.1-102.4l24.5,7l-29.1,102.4L5231.5,2179.8z"/>
	<path class="st6" d="M5375.2,2220.7l-14.5-35.7l-12.4-3.5l-8.3,29.2l-23.9-6.8l31.8-111.8l23.9,6.8l-18,63.2l12.2,3.5l28.5-21.2
		l25.8,7.3l-37.4,28.5l18.4,47.9L5375.2,2220.7z"/>
	<path class="st6" d="M5430.7,2154.7l19.6,5.6l-0.6,7.8l1.1,0.3c4-1.8,8.5-2.8,13.3-3.1c4.8-0.2,9.7,0.3,14.6,1.7
		c9.4,2.7,16,7.5,19.9,14.4s4.2,16,1,27.2l-12.5,43.9l-23.9-6.8l12.2-42.8c1.5-5.1,1.4-9.1-0.2-11.8c-1.6-2.8-4.5-4.8-8.9-6
		c-3.2-0.9-6.5-1.2-9.8-0.9c-3.4,0.3-6.4,1.2-9.2,2.8l-14.3,50.2l-23.9-6.8L5430.7,2154.7z"/>
	<path class="st6" d="M5522.7,2259.4c-5.5-4.8-9.1-10.7-10.9-17.6c-1.8-6.9-1.5-14.5,0.9-22.8s6.1-15,11.1-19.8
		c5-4.9,11.1-7.9,18.2-9.1c7.1-1.2,15.1-0.6,23.9,2c8.9,2.5,16,6.2,21.5,10.9c5.4,4.8,9,10.5,10.7,17.3s1.3,14.4-1.1,22.8
		c-2.3,8.3-6.1,14.8-11.3,19.8c-5.2,4.9-11.3,8-18.5,9.3s-15,0.7-23.5-1.7C5535.1,2267.8,5528.1,2264.2,5522.7,2259.4z
		 M5573.2,2236.3c2.1-7.2,2-13-0.2-17.2s-6.3-7.2-12.3-8.9s-11-1.3-15.1,1.1c-4.1,2.4-7.1,7.2-9.2,14.4c-4,14.1,0.1,22.8,12.4,26.3
		C5561.1,2255.5,5569.2,2250.2,5573.2,2236.3z"/>
	<path class="st6" d="M5726.3,2238.9l22.1,6.3l-44.2,69.2l-26.9-7.7l-0.8-59.3l-32.2,49.9l-26.9-7.7l-1.2-82.2l23.1,6.6l-0.3,56.1
		l30.3-47.5l26.9,7.7l0.5,55.6L5726.3,2238.9z"/>
	<path class="st6" d="M5861.8,2277.4l23.4,6.7l-74.6,93.5l-23.5-6.7l21.5-26.8l-5.7-1.6l-10.1-84.7l25.3,7.2l5.8,61.8L5861.8,2277.4
		z"/>
	<path class="st6" d="M5889,2363.6c-5.5-4.8-9.1-10.7-10.9-17.6c-1.8-6.9-1.5-14.5,0.9-22.8s6.1-15,11.1-19.8
		c5-4.9,11.1-7.9,18.2-9.1c7.1-1.2,15.1-0.6,23.9,2c8.9,2.5,16,6.2,21.5,10.9c5.4,4.8,9,10.5,10.7,17.3s1.3,14.4-1.1,22.8
		c-2.3,8.3-6.1,14.8-11.3,19.8c-5.2,4.9-11.3,8-18.5,9.3s-15,0.7-23.5-1.7C5901.4,2372.1,5894.4,2368.4,5889,2363.6z M5939.5,2340.5
		c2.1-7.2,2-13-0.2-17.2s-6.3-7.2-12.3-8.9s-11-1.3-15.1,1.1c-4.1,2.4-7.1,7.2-9.2,14.4c-4,14.1,0.1,22.8,12.4,26.3
		C5927.4,2359.7,5935.5,2354.5,5939.5,2340.5z"/>
	<path class="st6" d="M5977.4,2384.8c-4-6.9-4.4-15.9-1.2-27.2l12.6-44.1l23.9,6.8l-12.2,43c-1.4,5-1.4,8.9,0.1,11.7
		s4.4,4.8,8.5,5.9c3.1,0.9,6.3,1.2,9.6,0.8c3.3-0.3,6.4-1.3,9.1-2.8l14.3-50.2l23.9,6.8l-21.5,75.7l-19.6-5.6l0.6-7.7l-1-0.3
		c-4.1,1.8-8.5,2.9-13.1,3.2s-9.2-0.2-13.7-1.5C5988.3,2396.6,5981.4,2391.7,5977.4,2384.8z"/>
	<path class="st6" d="M6114.8,2431.8c-4.8-2-9-4.2-12.8-6.5l4.6-16.3c4,2.4,8.4,4.7,13.1,6.7s9.5,3.7,14.4,5.1
		c5.7,1.6,9.9,2.2,12.6,1.6c2.7-0.5,4.5-2,5.2-4.5c0.5-1.8,0.4-3.3-0.5-4.6c-0.8-1.3-2.6-2.5-5.5-3.8l-14.3-6.3
		c-8-3.6-13.3-7.7-15.9-12.3c-2.6-4.7-3-10.1-1.3-16.3c2.2-7.7,7.3-12.8,15.2-15.2c7.9-2.5,18.7-1.7,32.4,2.1
		c4.2,1.2,8.4,2.7,12.5,4.4s7.6,3.5,10.6,5.3l-4.6,16.3c-3.1-1.9-6.7-3.7-10.7-5.4s-8.1-3.2-12.1-4.3c-6.9-2-11.8-2.6-14.8-2.1
		c-3,0.6-4.8,2-5.5,4.4c-0.5,1.6-0.3,3.1,0.5,4.4c0.8,1.3,2.6,2.6,5.3,3.9l14.3,6.3c7.7,3.4,13,7.3,15.9,11.8s3.4,10.1,1.5,16.9
		c-1.4,5.1-4.1,9-8.1,11.9s-9.1,4.5-15.3,4.8c-6.3,0.3-13.5-0.7-21.7-3C6124.5,2435.6,6119.5,2433.8,6114.8,2431.8z"/>
	<path class="st6" d="M6256.2,2391.8c5.1,3.7,8.3,8.4,9.7,14.1c1.4,5.7,0.8,12.7-1.6,21.2l-12.3,43.1l-19.9-5.7l0.4-7.6l-1.2-0.3
		c-3.5,2-7.4,3.2-11.8,3.5s-8.9-0.2-13.6-1.5c-6-1.7-10.8-4.1-14.5-7.2c-3.7-3.1-6.1-6.6-7.3-10.5c-1.2-3.9-1.1-8.1,0.1-12.4
		c2-7.1,6.4-11.9,13.2-14.2c6.7-2.3,16.2-2.2,28.5,0.5l15.5,3.1c0.9-3.6,1-6.6,0.3-9.1c-0.8-2.4-2.4-4.5-5-6.1
		c-2.6-1.7-6.3-3.2-11.2-4.6c-3.5-1-7.4-1.8-11.7-2.4c-4.4-0.6-8.5-0.9-12.5-0.8l4.8-17c4.4,0,9.2,0.3,14.2,1.1s9.8,1.8,14.2,3.1
		C6243.9,2384.9,6251.1,2388.1,6256.2,2391.8z M6226,2446.2c2.8-0.1,5.5-0.6,8-1.7l3.9-13.6l-13.3-2.7c-4.9-1-8.6-1-11.1-0.1
		s-4.1,2.7-4.8,5.3c-0.7,2.6-0.4,5,1.2,7c1.5,2,4.2,3.6,8.1,4.7C6220.5,2445.9,6223.3,2446.3,6226,2446.2z"/>
	<path class="st6" d="M6296,2376.7c1.1-3.8,3.1-6.3,6.1-7.6s6.9-1.2,11.8,0.1c4.9,1.4,8.3,3.4,10.1,6.1c1.9,2.7,2.2,5.9,1.2,9.7
		c-2.2,7.7-8.2,10.2-17.9,7.4C6297.5,2389.6,6293.8,2384.4,6296,2376.7z M6270.7,2475.6l21.5-75.7l23.9,6.8l-21.5,75.7
		L6270.7,2475.6z"/>
	<path class="st6" d="M6328.3,2489.1c-4.6-4.2-7.7-9.5-9.2-16.1c-1.5-6.5-1.1-14,1.3-22.4c2.5-8.6,6.3-15.5,11.6-20.6
		c5.3-5.1,11.7-8.3,19.3-9.6c7.6-1.3,16-0.6,25.4,2.1c4.2,1.2,8.7,2.8,13.3,4.8l10.1-35.6l23.9,6.8l-31.8,111.8l-20-5.7l1-8.2
		l-1.2-0.3c-3.8,2-7.9,3.3-12.5,3.7c-4.5,0.5-9.3,0-14.1-1.4C6338.7,2496.3,6332.9,2493.2,6328.3,2489.1z M6366.6,2482.1
		c3.1-0.2,5.9-1,8.5-2.5l9.7-34.1c-3.5-1.8-7.3-3.4-11.6-4.6c-7.7-2.2-13.8-2-18.5,0.4c-4.7,2.5-8,7.3-10.1,14.4
		c-3.8,13.4,0.4,21.8,12.8,25.3C6360.4,2481.9,6363.5,2482.3,6366.6,2482.1z"/>
	<path class="st6" d="M6472.8,2451.3l19.6,5.6l-0.6,7.8l1.1,0.3c4-1.8,8.5-2.8,13.3-3.1c4.8-0.2,9.7,0.3,14.6,1.7
		c9.4,2.7,16,7.5,19.9,14.4s4.2,16,1,27.2l-12.5,43.9l-23.9-6.8l12.2-42.8c1.5-5.1,1.4-9.1-0.1-11.8c-1.6-2.8-4.5-4.8-8.9-6
		c-3.2-0.9-6.5-1.2-9.8-0.9c-3.4,0.3-6.4,1.2-9.2,2.8l-14.3,50.2l-23.9-6.8L6472.8,2451.3z"/>
	<path class="st6" d="M6564.8,2555.9c-5.5-4.8-9.1-10.7-10.9-17.6c-1.8-6.9-1.5-14.5,0.9-22.8s6.1-15,11.1-19.8
		c5-4.9,11.1-7.9,18.2-9.1c7.1-1.2,15.1-0.6,23.9,2c8.9,2.5,16,6.2,21.5,10.9c5.4,4.8,9,10.5,10.7,17.3s1.3,14.4-1.1,22.8
		c-2.3,8.3-6.1,14.8-11.3,19.8c-5.2,4.9-11.3,8-18.5,9.3s-15,0.7-23.5-1.7C6577.3,2564.4,6570.3,2560.8,6564.8,2555.9z
		 M6615.3,2532.8c2.1-7.2,2-13-0.2-17.2s-6.3-7.2-12.3-8.9s-11-1.3-15.1,1.1c-4.1,2.4-7.1,7.2-9.2,14.4c-4,14.1,0.1,22.8,12.4,26.3
		C6603.2,2552.1,6611.3,2546.8,6615.3,2532.8z"/>
	<path class="st6" d="M6699.7,2577.6l-5.2,18.3c-2.6-0.1-5.3-0.4-8.1-0.9c-2.9-0.5-5.6-1.1-8.2-1.8c-10.2-2.9-17.3-7.5-21.2-13.9
		c-3.9-6.3-4.4-14.4-1.7-24.1l8.3-29.2l-13.7-3.9l5.4-18.8l13.7,3.9l11.9-25.5l19.6,5.6l-7.6,26.7l22.5,6.4l-5.4,18.8l-22.5-6.4
		l-7,24.7c-1,3.6-1.4,6.7-1,9.1c0.4,2.4,1.5,4.4,3.2,5.9c1.8,1.5,4.3,2.7,7.6,3.6C6692.8,2576.7,6695.9,2577.2,6699.7,2577.6z"/>
	<path class="st6" d="M6805.5,2607.7l-5.2,18.3c-2.6-0.1-5.3-0.4-8.1-0.9c-2.9-0.5-5.6-1.1-8.2-1.8c-10.2-2.9-17.3-7.5-21.2-13.9
		c-3.9-6.3-4.4-14.4-1.7-24.1l8.3-29.2l-13.7-3.9l5.4-18.8l13.7,3.9l11.9-25.5l19.6,5.6l-7.6,26.7l22.5,6.4l-5.4,18.8l-22.5-6.4
		l-7,24.7c-1,3.6-1.4,6.7-1,9.1c0.4,2.4,1.5,4.4,3.2,5.9c1.8,1.5,4.3,2.7,7.6,3.6C6798.6,2606.8,6801.7,2607.3,6805.5,2607.7z"/>
	<path class="st6" d="M6828.9,2631.1c-5.5-4.8-9.1-10.7-10.9-17.6c-1.8-6.9-1.5-14.5,0.9-22.8s6.1-15,11.1-19.8
		c5-4.9,11.1-7.9,18.2-9.1c7.1-1.2,15.1-0.6,23.9,2c8.9,2.5,16,6.2,21.5,10.9c5.4,4.8,9,10.5,10.7,17.3s1.3,14.4-1.1,22.8
		c-2.3,8.3-6.1,14.8-11.3,19.8c-5.2,4.9-11.3,8-18.5,9.3s-15,0.7-23.5-1.7C6841.4,2639.6,6834.4,2636,6828.9,2631.1z M6879.4,2608
		c2.1-7.2,2-13-0.2-17.2s-6.3-7.2-12.3-8.9s-11-1.3-15.1,1.1c-4.1,2.4-7.1,7.2-9.2,14.4c-4,14.1,0.1,22.8,12.4,26.3
		C6867.3,2627.2,6875.5,2622,6879.4,2608z"/>
	<path class="st6" d="M7021.3,2609.6c5.1,3.7,8.3,8.4,9.7,14.1c1.4,5.7,0.8,12.7-1.6,21.2l-12.3,43.1l-19.9-5.7l0.4-7.6l-1.2-0.3
		c-3.5,2-7.4,3.2-11.8,3.5s-8.9-0.2-13.6-1.5c-6-1.7-10.8-4.1-14.5-7.2c-3.7-3.1-6.1-6.6-7.3-10.5c-1.2-3.9-1.1-8.1,0.1-12.4
		c2-7.1,6.4-11.9,13.2-14.2c6.7-2.3,16.2-2.2,28.5,0.5l15.5,3.1c0.9-3.6,1-6.6,0.3-9.1c-0.8-2.4-2.4-4.5-5-6.1
		c-2.6-1.7-6.3-3.2-11.2-4.6c-3.5-1-7.4-1.8-11.7-2.4c-4.4-0.6-8.5-0.9-12.5-0.8l4.8-17c4.4,0,9.2,0.3,14.2,1.1s9.8,1.8,14.2,3.1
		C7009,2602.6,7016.2,2605.8,7021.3,2609.6z M6991.1,2663.9c2.8-0.1,5.5-0.6,8-1.7l3.9-13.6l-13.3-2.7c-4.9-1-8.6-1-11.1-0.1
		s-4.1,2.7-4.8,5.3c-0.7,2.6-0.4,5,1.2,7c1.5,2,4.2,3.6,8.1,4.7C6985.6,2663.6,6988.3,2664,6991.1,2663.9z"/>
	<path class="st6" d="M7096.6,2612.3c-3.5,1.6-5.9,5-7.4,10.1l-1.1,4l22.5,6.4l-5.4,18.8l-22.5-6.4l-16.2,56.9l-23.9-6.8l16.2-56.9
		l-13.7-3.9l5.4-18.8l13.7,3.9l0.9-3.2c2-7.1,5.2-12.8,9.7-17.1c4.4-4.3,9.8-7,16.2-8.2c6.4-1.1,13.5-0.6,21.4,1.6
		c3.8,1.1,7.9,2.6,12.3,4.5l-5.2,18.3c-2.9-1.3-5.8-2.3-8.5-3.1C7104.8,2610.7,7100.1,2610.7,7096.6,2612.3z"/>
	<path class="st6" d="M7150.1,2705.8l-5.2,18.3c-2.6-0.1-5.3-0.4-8.1-0.9c-2.9-0.5-5.6-1.1-8.2-1.8c-10.2-2.9-17.3-7.5-21.2-13.9
		c-3.9-6.3-4.4-14.4-1.7-24.1l8.3-29.2l-13.7-3.9l5.4-18.8l13.7,3.9l11.9-25.5l19.6,5.6l-7.6,26.7l22.5,6.4l-5.4,18.8l-22.5-6.4
		l-7,24.7c-1,3.6-1.4,6.7-1,9.1c0.4,2.4,1.5,4.4,3.2,5.9c1.8,1.5,4.3,2.7,7.6,3.6C7143.1,2704.9,7146.2,2705.4,7150.1,2705.8z"/>
	<path class="st6" d="M7238.4,2717.2l-53.1-15.1c-0.8,3.9-0.7,7.2,0.5,10c1.1,2.7,3.4,5.2,6.9,7.3s8.5,4.1,15,6s13.9,3.1,22.1,3.8
		l-4.8,16.9c-8.9-0.7-17.5-2.2-25.8-4.6c-16-4.6-26.9-11.1-32.7-19.6c-5.8-8.5-6.8-19.5-3-32.8c2.3-8.2,5.9-14.7,10.6-19.8
		c4.7-5,10.5-8.2,17.3-9.7c6.8-1.4,14.4-0.9,22.8,1.4c8,2.3,14.4,5.8,19,10.5c4.7,4.7,7.6,10.5,8.7,17.3s0.5,14.4-1.9,22.8
		L7238.4,2717.2z M7196.9,2676.5c-3.4,2.2-6.1,6.3-8,12.5l31.1,8.8c1.6-6.2,1.5-11.1-0.2-14.8s-5.1-6.2-10.1-7.6
		C7204.6,2674,7200.3,2674.4,7196.9,2676.5z"/>
	<path class="st6" d="M7265.7,2676.9l19.5,5.6l-0.7,9.6l1.1,0.3c3.4-2.6,7.2-4.2,11.6-4.8s8.9-0.3,13.6,1.1c2.6,0.7,5,1.6,7,2.7
		l-6,21.1c-2.1-1.1-4.9-2.1-8.4-3.1c-3.6-1-7.4-1.5-11.4-1.3s-7.3,1.1-10.1,2.8l-13.8,48.6l-23.9-6.8L7265.7,2676.9z"/>
	<path class="st6" d="M7473,2736l22.1,6.3l-44.2,69.2l-26.9-7.7l-0.8-59.3l-32.2,49.9l-26.9-7.7l-1.2-82.2l23.1,6.6l-0.3,56.1
		l30.3-47.5l26.9,7.7l0.5,55.6L7473,2736z"/>
	<path class="st6" d="M7519.8,2710.2l23.9,6.8l-12.3,43.4l1.1,0.3c3.9-1.9,8.1-3,12.6-3.2c4.5-0.3,9.1,0.3,13.6,1.6
		c8.9,2.5,15.2,7.2,19,14.1c3.8,6.9,4.1,15.8,0.9,27l-12.6,44.1l-23.9-6.8l12.2-42.8c1.4-5.1,1.4-9-0.2-11.8s-4.5-4.8-8.9-6
		c-3.2-0.9-6.5-1.2-9.9-0.9c-3.3,0.3-6.4,1.2-9.1,2.8l-14.3,50.2l-23.9-6.8L7519.8,2710.2z"/>
	<path class="st6" d="M7658.3,2790.8c5.1,3.7,8.3,8.4,9.7,14.1c1.4,5.7,0.8,12.7-1.6,21.2l-12.3,43.1l-19.9-5.7l0.4-7.6l-1.2-0.3
		c-3.5,2-7.4,3.2-11.8,3.5s-8.9-0.2-13.6-1.5c-6-1.7-10.8-4.1-14.5-7.2c-3.7-3.1-6.1-6.6-7.3-10.5c-1.2-3.9-1.1-8.1,0.1-12.4
		c2-7.1,6.4-11.9,13.2-14.2c6.7-2.3,16.2-2.2,28.5,0.5l15.5,3.1c0.9-3.6,1-6.6,0.3-9.1c-0.8-2.4-2.4-4.5-5-6.1
		c-2.6-1.7-6.3-3.2-11.2-4.6c-3.5-1-7.4-1.8-11.7-2.4c-4.4-0.6-8.5-0.9-12.5-0.8l4.8-17c4.4,0,9.2,0.3,14.2,1.1s9.8,1.8,14.2,3.1
		C7645.9,2783.9,7653.2,2787.1,7658.3,2790.8z M7628.1,2845.2c2.8-0.1,5.5-0.6,8-1.7l3.9-13.6l-13.3-2.7c-4.9-1-8.6-1-11.1-0.1
		s-4.1,2.7-4.8,5.3c-0.7,2.6-0.4,5,1.2,7c1.5,2,4.2,3.6,8.1,4.7C7622.6,2844.9,7625.3,2845.3,7628.1,2845.2z"/>
	<path class="st6" d="M7731.2,2871.1l-5.2,18.3c-2.6-0.1-5.3-0.4-8.1-0.9c-2.9-0.5-5.6-1.1-8.2-1.8c-10.2-2.9-17.3-7.5-21.2-13.9
		c-3.9-6.3-4.4-14.4-1.7-24.1l8.3-29.2l-13.7-3.9l5.4-18.8l13.7,3.9l11.9-25.5l19.6,5.6l-7.6,26.7l22.5,6.4l-5.4,18.8l-22.5-6.4
		l-7,24.7c-1,3.6-1.4,6.7-1,9.1c0.4,2.4,1.5,4.4,3.2,5.9c1.8,1.5,4.3,2.7,7.6,3.6C7724.3,2870.3,7727.4,2870.8,7731.2,2871.1z"/>
	<path class="st6" d="M7810.3,2792.9l23.9,6.8l-12.3,43.4l1.1,0.3c3.9-1.9,8.1-3,12.6-3.2c4.5-0.3,9.1,0.3,13.6,1.6
		c8.9,2.5,15.2,7.2,19,14.1c3.8,6.9,4.1,15.8,0.9,27l-12.6,44.1l-23.9-6.8l12.2-42.8c1.4-5.1,1.4-9-0.2-11.8s-4.5-4.8-8.9-6
		c-3.2-0.9-6.5-1.2-9.9-0.9c-3.3,0.3-6.4,1.2-9.1,2.8l-14.3,50.2l-23.9-6.8L7810.3,2792.9z"/>
	<path class="st6" d="M7948.7,2873.5c5.1,3.7,8.3,8.4,9.7,14.1c1.4,5.7,0.8,12.7-1.6,21.2l-12.3,43.1l-19.9-5.7l0.4-7.6l-1.2-0.3
		c-3.5,2-7.4,3.2-11.8,3.5s-8.9-0.2-13.6-1.5c-6-1.7-10.8-4.1-14.5-7.2c-3.7-3.1-6.1-6.6-7.3-10.5c-1.2-3.9-1.1-8.1,0.1-12.4
		c2-7.1,6.4-11.9,13.2-14.2c6.7-2.3,16.2-2.2,28.5,0.5l15.5,3.1c0.9-3.6,1-6.6,0.3-9.1c-0.8-2.4-2.4-4.5-5-6.1
		c-2.6-1.7-6.3-3.2-11.2-4.6c-3.5-1-7.4-1.8-11.7-2.4c-4.4-0.6-8.5-0.9-12.5-0.8l4.8-17c4.4,0,9.2,0.3,14.2,1.1s9.8,1.8,14.2,3.1
		C7936.4,2866.6,7943.6,2869.8,7948.7,2873.5z M7918.5,2927.8c2.8-0.1,5.5-0.6,8-1.7l3.9-13.6l-13.3-2.7c-4.9-1-8.6-1-11.1-0.1
		s-4.1,2.7-4.9,5.3c-0.7,2.6-0.4,5,1.2,7c1.5,2,4.2,3.6,8.1,4.7C7913,2927.6,7915.7,2927.9,7918.5,2927.8z"/>
	<path class="st6" d="M7984.7,2881.6l20,5.7l-0.9,8.3l1.1,0.3c3.7-2,7.8-3.3,12.4-3.7c4.5-0.4,9.3,0.1,14.2,1.5
		c6.8,1.9,12.5,5,17.1,9.1c4.6,4.2,7.7,9.5,9.2,15.9c1.5,6.5,1.1,14-1.3,22.5c-2.5,8.7-6.3,15.6-11.6,20.7
		c-5.3,5.1-11.7,8.3-19.3,9.6c-7.6,1.3-16,0.6-25.4-2.1c-3.5-1-7.9-2.6-13.3-4.8l-8.5,29.9l-23.9-6.8L7984.7,2881.6z M8022.2,2950.5
		c4.7-2.5,8-7.3,10.1-14.4c3.8-13.4-0.4-21.8-12.7-25.3c-3.1-0.9-6.2-1.2-9.2-1.1c-3.1,0.2-5.9,1-8.5,2.4l-9.7,34.1
		c3.7,1.9,7.6,3.5,11.6,4.7C8011.4,2953.1,8017.5,2953,8022.2,2950.5z"/>
	<path class="st5" d="M8059.9,2982.1c-2-3.2-2.4-6.9-1.2-11.2c1.2-4.2,3.5-7.2,6.9-8.9s7.5-1.9,12.4-0.5c4.8,1.4,8.2,3.7,10.2,6.9
		c2,3.3,2.4,7,1.2,11.2s-3.5,7.1-7,8.8s-7.6,1.9-12.3,0.5C8065.3,2987.6,8061.9,2985.3,8059.9,2982.1z"/>
	<path class="st5" d="M8103,2994.4c-2-3.2-2.4-6.9-1.2-11.2c1.2-4.2,3.5-7.2,6.9-8.9s7.5-1.9,12.4-0.5c4.8,1.4,8.2,3.7,10.2,6.9
		c2,3.3,2.4,7,1.2,11.2s-3.5,7.1-7,8.8s-7.6,1.9-12.3,0.5C8108.4,2999.9,8105,2997.6,8103,2994.4z"/>
	<path class="st5" d="M8146.1,3006.6c-2-3.2-2.4-6.9-1.2-11.2c1.2-4.2,3.5-7.2,6.9-8.9s7.5-1.9,12.4-0.5c4.8,1.4,8.2,3.7,10.2,6.9
		c2,3.3,2.4,7,1.2,11.2s-3.5,7.1-7,8.8s-7.6,1.9-12.3,0.5C8151.5,3012.1,8148.1,3009.8,8146.1,3006.6z"/>
</g>
<g>
	<g>
		<path class="st6" d="M7915.5,720.5l76.1-267.5c12.8-12.4,24.7-30.4,32-56.1c26.1-91.7,47.5-166.9,47.5-166.9s21.2-74.5,47.5-166.9
			c11.6-40.9,3-70.4-9.8-90.9l75.7-266.1c42-28.7,74.5-71.2,89.4-123.6c33.7-118.4-35.2-242.2-153.6-275.9
			c-51.8-14.7-104.1-10-150.3,9.7l-209.4-59.6c46.2-28.3,82.8-73.1,99.1-130.4c33.7-118.4-35.2-242.2-153.6-275.9
			c-121.4-32-244.5,37.3-278.2,155.5c-16.1,56.4-8.5,113.8,16.5,162.3l-134.9-38.4c1.7-98.4-62.7-190.5-162.5-218.2
			c-90.1-25.6-182.8,8.2-237.6,78.2c-17.2-10.9-36.1-18.8-56.5-24.6c-118.4-33.7-242.2,35.2-275.9,153.6
			c-10.5,36.9-10.8,74-3.2,109.3c-44.4,28-78.4,72.6-93.8,126.7c-29.2,102.6,19.1,209.7,109.7,257.6l-198.8,701.1
			c-13,45.5,13.5,92.9,59,105.9l7.9,2.2c7.9,4.8,16.3,8.1,25.8,10.8L7774.4,799C7834.8,816,7898.3,780.9,7915.5,720.5z
			 M7734.2-590.6c-2.2,7.9-3.5,15.1-4.2,23.4l0,0C7730.6-575.4,7732-582.8,7734.2-590.6l-481-135.1l0.2-0.7L7734.2-590.6z"/>
		<path class="st6" d="M6473.8,466.9c-11.6-3.3-21.1-7-30-12l-3.7-1.1c-64.3-18.3-101.9-85.5-83.5-150L6548.1-371
			c-90.1-61.8-132.9-176.6-102.5-283.6c15.3-53.6,46.5-99.9,89.1-133c-4.4-34.6-1.9-69.1,7.7-103c39.1-137.4,182.6-217.3,320-178.2
			c13.9,4,26.7,8.6,38.7,14c66.3-67.2,163.5-93.8,255.4-67.6c0.7,0.2,1.4,0.4,1.9,0.5c102.8,29.3,176.1,119.4,185.4,224.9l44.1,12.6
			c-7.6-39.3-6.1-80,5-119c39.4-138.4,180.6-217.6,321.6-180.3c138.7,39,218.6,182.7,179.4,320.1c-11.2,39.5-31.4,75.1-58.4,104.8
			l132.6,37.7c52.2-19.5,108.1-21.7,161.9-6.4c137.4,39.1,217.3,182.6,178.2,320c-15.6,54.8-47.7,101.4-92.8,135.7l-68.3,240.1
			c14.5,31.2,16.5,67.2,5.8,104.8l-95.1,334.1c-7.2,25.3-18.9,47.1-34.5,64.7l-73.7,258.9c-22.6,79.4-105.6,125.8-185.2,103.1
			L6473.8,466.9z M6843.2-1000.3c-99.6-28.3-203.5,29.7-231.7,129.1c-8.5,29.9-9.3,60.9-2.6,91.9l5.4,24.4l-21.1,13.3
			c-37.9,23.8-65.7,61.6-78.5,106.4c-24.1,84.5,14.6,175.3,92.1,216.2l25.5,13.5l-206.5,729c-7.5,26.5,7.9,54.2,34.4,61.7l12.5,3.6
			l4.1,2.4c4.5,2.8,9.7,4.8,17.1,6.9l1290.6,366.5c41.6,11.8,85.1-12.4,96.9-54l78.7-276.5l6.9-6.6c10.1-9.9,17.7-23.3,22.5-40.3
			l95.1-334.1c7-24.6,5-45-5.6-62.3l-8.2-13.4l83.4-293.2l10.6-7.3c37.1-25.3,63.1-61.3,75.3-104.1
			c28.3-99.6-29.7-203.5-129.1-231.7c-42-12-85.8-9.1-126.3,8.2l-12.2,4.8l-299.7-85.3l69.3-42.5c40.8-25,70.4-63.8,83.4-109.5
			c28.3-99.6-29.7-203.5-129.1-231.7c-102.3-26.9-205.4,30.4-234.1,131.1c-13,45.5-7.9,93.9,13.9,136.2l37.9,73.3l-241-68.6
			l0.5-27.5c1.5-85.6-54.4-160.8-136.2-183.6c-73.8-21-152.2,4.9-199.9,65.8l-19.8,25.5l-27.2-17.3
			C6876.7-988.5,6861.3-995.2,6843.2-1000.3z M7209-701l19.8-69.4L7778.4-615l-9.7,34.1c-1.5,5.3-2.4,10.3-2.9,16.5l-38-3l-3.2,11.1
			L7209-701z"/>
	</g>
	<g id="XMLID_140_">
		<g id="XMLID_144_">
			<circle class="st7" cx="7650" cy="-934.9" r="223.3"/>
		</g>
		<g id="XMLID_143_">
			<circle class="st8" cx="7650" cy="-934.9" r="185.9"/>
		</g>
		<g id="XMLID_141_">
			<g id="XMLID_142_">
				<path class="st7" d="M7676.7-900.9c-0.5-6.9-2.7-11.8-6-15.2c-4-3.6-10-6.4-18.4-9.5c-8.6-2.4-16.3-5.4-23-8.3
					c-6.7-2.9-12.6-6.1-17.5-10s-8.6-8.5-11.3-14.2c-2.8-5.1-5-12.5-4.6-19.9c-0.4-13.7,2.7-24.6,11.5-34.1
					c7.6-8.9,18.6-15,32.9-17.7l-1.9-25.9l19-1.4l1.9,25.9c14.2,0.5,25.3,6.4,34.4,15.8c8.4,9.2,13.4,21.6,14,37.1l-34.4,2
					c-0.8-9.5-2.9-16.1-7.4-21.7c-4-3.6-10-6.4-16-6.3c-6.9,0.5-11.8,2.7-15.2,6c-3.6,4-5,8.9-4.5,15.8c0.7,6.2,1.9,10.8,6.1,14.5
					c3.3,3.4,10.9,6.6,20,10s17.6,6.8,24.4,9.5c6.5,3.6,11.9,5.9,16.5,10.7c4.9,3.9,7.7,9,11.3,14.2c2.1,4.9,4.3,11.5,3.9,18.9
					c0.4,13.7-3,25.5-10.5,34.4s-18.6,15-33.8,17.5l1.6,24.3l-19,1.4l-1.9-23.4c-15.8-1-29.7-5.9-39-14.6
					c-9.1-9.4-14.8-22-16.2-38.5l34.4-2c0.8,9.5,3.9,16.4,8.1,21.9c4.4,5.5,11.6,6.8,19.3,6.2c6.9-0.5,12.5-2.5,16.1-6.4
					C7675.9-889.3,7677.5-894.9,7676.7-900.9z"/>
			</g>
		</g>
	</g>
	<g id="XMLID_135_">
		<g id="XMLID_139_">
			<circle class="st7" cx="7093.3" cy="-875.5" r="223.3"/>
		</g>
		<g id="XMLID_138_">
			<circle class="st8" cx="7093.3" cy="-875.5" r="185.9"/>
		</g>
		<g id="XMLID_136_">
			<g id="XMLID_137_">
				<path class="st7" d="M7119.8-840.8c-0.5-6.9-2.7-11.8-6-15.2c-4-3.6-10-6.4-18.4-9.5c-8.6-2.4-16.3-5.4-23-8.3
					c-6.8-2.7-12.6-6.1-17.5-10s-8.6-8.5-11.3-14.2c-2.8-5.1-5-12.5-4.6-19.9c-0.4-13.7,2.7-24.6,11.5-34.1
					c7.6-8.9,18.6-15,32.9-17.7l-1.9-25.9l19-1.4l1.9,25.9c14.2,0.5,25.3,6.4,34.4,15.8c8.4,9.2,13.4,21.6,14,37.1l-34.4,2
					c-0.8-9.5-2.9-16.1-7.4-21.7c-4-3.6-10-6.4-16-6.3c-6.9,0.5-11.8,2.7-15.2,6c-3.6,4-5,8.9-4.5,15.8c0.7,6.2,1.9,10.8,6.1,14.5
					c3.3,3.4,10.9,6.6,20,10s17.6,6.8,24.4,9.5c6.5,3.6,11.9,5.9,16.5,10.7c4.9,3.9,7.7,9,11.3,14.2c2.1,4.9,4.3,11.5,3.9,18.9
					c0.4,13.7-3,25.5-10.5,34.4c-7.6,8.9-18.6,15-33.8,17.5l1.6,24.3l-19,1.4l-1.9-23.4c-15.8-1-29.7-5.9-39-14.6
					c-9.1-9.4-14.8-22-16.2-38.5l34.4-2c0.8,9.5,3.9,16.4,8.1,21.9c4.4,5.5,11.6,6.8,19.3,6.2c6.9-0.5,12.5-2.5,16.1-6.4
					C7119-829.2,7120.6-834.8,7119.8-840.8z"/>
			</g>
		</g>
	</g>
	<g id="XMLID_130_">
		<g id="XMLID_134_">
			<circle class="st7" cx="6799.2" cy="-821.9" r="223.3"/>
		</g>
		<g id="XMLID_133_">
			<circle class="st8" cx="6799.2" cy="-821.9" r="185.9"/>
		</g>
		<g id="XMLID_131_">
			<g id="XMLID_132_">
				<path class="st7" d="M6825.9-787.9c-0.5-6.9-2.7-11.8-6-15.2c-4-3.6-10-6.4-18.4-9.5c-8.6-2.4-16.3-5.4-23-8.3
					c-6.7-2.9-12.6-6.1-17.5-10s-8.6-8.5-11.3-14.2c-2.8-5.1-5-12.5-4.6-19.9c-0.4-13.7,2.7-24.6,11.5-34.1
					c7.6-8.9,18.6-15,32.9-17.7l-1.9-25.9l19-1.4l1.9,25.9c14.2,0.5,25.3,6.4,34.4,15.8c9.1,9.4,13.4,21.6,14,37.1l-34.4,2
					c-0.8-9.5-2.9-16.1-7.4-21.7c-4-3.6-10-6.4-16-6.3c-6.9,0.5-11.8,2.7-15.2,6c-3.6,4-5,8.9-4.5,15.8c0.7,6.2,1.9,10.8,6.1,14.5
					c3.3,3.4,10.9,6.6,20,10c9.3,3.4,17.6,6.8,24.4,9.5c6.5,3.6,11.9,5.9,16.5,10.7s7.7,9,11.3,14.2c2.1,4.9,4.3,11.5,3.9,18.9
					c0.4,13.7-3,25.5-10.5,34.4c-7.6,8.9-18.6,15-33.8,17.5l1.6,24.3l-19,1.4l-1.9-23.4c-15.8-1-29.7-5.9-39-14.6
					c-9.1-9.4-14.8-22-16.2-38.5l34.4-2c0.8,9.5,3.9,16.4,8.1,21.9c4.6,4.8,11.6,6.8,19.3,6.2c6.9-0.5,12.5-2.5,16.1-6.4
					C6825.1-776.3,6826.7-781.9,6825.9-787.9z"/>
			</g>
		</g>
	</g>
	<g id="XMLID_125_">
		<g id="XMLID_129_">
			<circle class="st7" cx="6702.4" cy="-585.9" r="223.3"/>
		</g>
		<g id="XMLID_128_">
			<circle class="st8" cx="6702.4" cy="-585.9" r="185.9"/>
		</g>
		<g id="XMLID_126_">
			<g id="XMLID_127_">
				<path class="st7" d="M6729.1-551.9c-0.5-6.9-2.7-11.8-6-15.2c-4-3.6-10-6.4-18.4-9.5c-8.6-2.4-16.3-5.4-23-8.3
					c-6.8-2.7-12.6-6.1-17.5-10s-8.6-8.5-11.3-14.2c-2.8-5.1-5-12.5-4.6-19.9c-0.4-13.7,2.7-24.6,11.5-34.1
					c7.6-8.9,18.6-15,32.9-17.7l-1.9-25.9l19-1.4l1.9,25.9c14.2,0.5,25.3,6.4,34.4,15.8c8.4,9.2,13.4,21.6,14,37.1l-34.4,2
					c-0.8-9.5-2.9-16.1-7.4-21.7c-4-3.6-10-6.4-16-6.3c-6.9,0.5-11.8,2.7-15.2,6c-3.6,4-5,8.9-4.5,15.8c0.7,6.2,1.9,10.8,6.1,14.5
					c3.3,3.4,10.9,6.6,20,10s17.6,6.8,24.4,9.5c6.5,3.6,11.9,5.9,16.5,10.7s7.7,9,11.3,14.2c2.1,4.9,4.3,11.5,3.9,18.9
					c0.4,13.7-3,25.5-10.5,34.4c-7.6,8.9-18.6,15-33.8,17.5l1.6,24.3l-19,1.4l-1.9-23.4c-15.8-1-29.7-5.9-39-14.6
					c-9.1-9.4-14.8-22-16.2-38.5l34.4-2c0.8,9.5,3.9,16.4,8.1,21.9c4.6,4.8,11.6,6.8,19.3,6.2c6.9-0.5,12.5-2.5,16.1-6.4
					C6728.4-540.4,6729.9-545.9,6729.1-551.9z"/>
			</g>
		</g>
	</g>
	<g id="XMLID_94_">
		<g id="XMLID_124_">
			<circle class="st7" cx="8064.7" cy="-480.3" r="223.3"/>
		</g>
		<g id="XMLID_123_">
			<circle class="st8" cx="8064.7" cy="-480.3" r="185.9"/>
		</g>
		<g id="XMLID_95_">
			<g id="XMLID_122_">
				<path class="st7" d="M8048.8-439.1c5.3-3.5,9-7.7,9.8-13.3c1.3-4.6,0.1-12.8-1.6-20.8c-1.7-9-3.7-17.1-4.2-24
					c-1.5-7.2-0.4-13.7,0.7-20.1c1.1-6.5,3.4-11.8,6.5-16.7c3.2-5.1,8-10.5,14.4-14.5c10.6-7.3,23-9.5,34.4-8
					c12,2.7,22.8,9,31.7,20.1l21.1-14.3l10.8,15.9l-22,14.8c5.7,12.7,8.1,25.2,4.6,37.7c-3.6,12.5-11.6,23.1-25.1,31.8l-19.1-28.3
					c8.3-5.2,12.6-11.7,14.1-17.1c1.8-6.3,0.8-11.6-3.7-17.1c-3.5-5.3-7.7-9-12.6-9.6c-4.8-0.6-10.4,0.5-15.7,4.8
					c-4.6,3.7-8,7-9.6,12.6c-1.3,4.6-0.1,12.8,2.1,22.7c2.2,9.9,3.9,18.9,3.7,25.7c1.5,7.2,0.4,13.7-1.2,19.2
					c-0.9,5.8-3.4,11.8-7,15.8c-3.9,4.9-7.7,9.6-14,13.1c-10.8,8-23.3,10.4-34.4,8c-12-2.7-22.8-9-32.2-21l-20,13.9l-10.8-15.9
					l19.1-13.1c-7.5-14.9-9.8-28.1-6.9-40.9c3.1-13.4,11.1-24,24.7-32.9l19.1,28.3c-8.3,5.2-12.6,11.7-14.4,18s-0.3,13.5,4.4,20.8
					c4.4,5.5,8.4,9.2,14,10.8C8038.4-435.3,8043.7-436.3,8048.8-439.1z"/>
			</g>
		</g>
	</g>
	<g>
		<g id="XMLID_93_">
			<polygon class="st9" points="7881.6,-640.1 6766.1,-956 6786.6,-1028 8021.9,-678.2 7922.9,-330.2 7803.1,-364.3 			"/>
		</g>
		<g id="XMLID_92_">
			<path class="st10" d="M7803.1-364.3l-90.1-25.6l13.6-47.8c-89.4-25.4-142.9-114.4-118.5-199.9l-863-244.6l21.2-74.5l1114.6,315.5
				L7803.1-364.3z"/>
		</g>
		<g id="XMLID_91_">
			<path class="st9" d="M7727.3-437.5l-13.6,47.8l-697.6-197.8c-58.8-106.6-195.8-66.8-324.5-104.1l54-189.7l863.4,245
				C7583.9-551.9,7637.7-463,7727.3-437.5z"/>
		</g>
		<g id="XMLID_90_" class="st11">
			<polygon class="st12" points="7950,-423.8 6715.7,-774.6 6739.3,-859.2 7973.3,-508.3 			"/>
		</g>
	</g>
	<g id="XMLID_89_">
		<path class="st13" d="M7792.2,795.6l-1273-360.5c-45.5-13-71.9-60.4-59-105.9l297.2-1050.3c13-45.5,60.4-71.9,105.9-59l1273,360.5
			c45.5,13,71.9,60.4,59,105.9L7898.1,736.7C7885.1,782.2,7837.7,808.6,7792.2,795.6z"/>
	</g>
	<g id="XMLID_88_">
		<path class="st14" d="M8118.3-424.4l-1247-353.1c-39.2-11.2-80.9,13.4-92.7,54.9L6477.8,341c-4,14.2-4.1,29.4-0.5,43l0,0
			c-11.4,39.9,50.3,52.5,50.3,52.5l1247,353.1c39.2,11.2,80.9-13.4,92.7-54.9l300.9-1063.5C8181-370.2,8158.3-413,8118.3-424.4z"/>
	</g>
	<g id="XMLID_87_">
		
			<rect x="7811.8" y="-406" transform="matrix(-0.9618 -0.2737 0.2737 -0.9618 15449.002 1380.0765)" class="st9" width="17.9" height="36.7"/>
	</g>
	<g id="XMLID_86_">
		
			<ellipse transform="matrix(-0.2724 0.9622 -0.9622 -0.2724 10117.4092 -7066.0171)" class="st15" cx="7730.4" cy="292.4" rx="43.9" ry="42.5"/>
	</g>
	<g id="XMLID_85_">
		
			<rect x="7748.7" y="316.8" transform="matrix(-0.9618 -0.2737 0.2737 -0.9618 15122.6709 2820.9131)" class="st16" width="18.8" height="77.5"/>
	</g>
	<g id="XMLID_84_">
		
			<rect x="7791.4" y="167.1" transform="matrix(-0.9618 -0.2737 0.2737 -0.9618 15247.4053 2538.9624)" class="st16" width="18.8" height="77.5"/>
	</g>
	<g id="XMLID_83_">
		
			<rect x="7738.4" y="320.7" transform="matrix(-0.9618 -0.2737 0.2737 -0.9618 15101.3652 2825.7668)" class="st16" width="18.8" height="77.5"/>
	</g>
	<g id="XMLID_82_">
		
			<rect x="7780.9" y="170.9" transform="matrix(-0.9618 -0.2737 0.2737 -0.9618 15225.7871 2543.5225)" class="st16" width="18.8" height="77.5"/>
	</g>
	<g id="XMLID_80_">
		
			<rect x="7822.9" y="21" transform="matrix(-0.9618 -0.2737 0.2737 -0.9618 15349.1592 2260.9568)" class="st16" width="18.8" height="77.5"/>
	</g>
	<g id="XMLID_79_">
		
			<rect x="7756.3" y="245.2" transform="matrix(-0.9618 -0.2737 0.2737 -0.9618 15157.1914 2682.5605)" class="st17" width="18.8" height="77.5"/>
	</g>
	<g id="XMLID_74_">
		
			<rect x="7799.1" y="94.8" transform="matrix(-0.9618 -0.2737 0.2737 -0.9618 15282.2842 2399.1868)" class="st17" width="18.8" height="77.5"/>
	</g>
	<g id="XMLID_73_">
		
			<rect x="7841.5" y="-54.2" transform="matrix(-0.9618 -0.2737 0.2737 -0.9618 15406.25 2118.4717)" class="st17" width="18.8" height="77.5"/>
	</g>
	<g id="XMLID_72_">
		<path class="st13" d="M7728.5,777L6456.2,416.7c-45.5-13-71.9-60.4-59-105.9l297.1-1049.3c13-45.5,60.4-71.9,105.9-59
			l1272.3,360.3c45.5,13,71.9,60.4,59,105.9L7834.6,718.1C7821.2,763.5,7773.1,789.7,7728.5,777z"/>
	</g>
	<g id="XMLID_71_">
		
			<rect x="6537.7" y="-583.5" transform="matrix(-0.9618 -0.2737 0.2737 -0.9618 14230.7656 1971.6908)" class="st14" width="1430.4" height="1153.3"/>
	</g>
	<g id="XMLID_70_">
		
			<rect x="6588.2" y="-143.1" transform="matrix(-0.9618 -0.2737 0.2737 -0.9618 14128.8076 2317.6716)" class="st14" width="1275.7" height="632.7"/>
	</g>
	<g id="XMLID_44_">
		<g id="XMLID_69_">
			<polygon class="st18" points="7807.6,296.1 7357.4,529.1 7423.3,547.8 7790,358.1 			"/>
		</g>
		<g id="XMLID_68_">
			<polygon class="st18" points="7870.5,75.1 7720.8,32.4 6972.4,419.5 7297.9,512.2 7823.5,240.4 			"/>
		</g>
		<g id="XMLID_67_">
			<polygon class="st18" points="7439.4,-47.6 6690.1,339.2 6778.8,364.4 7527.2,-22.7 			"/>
		</g>
		<g id="XMLID_66_">
			<polygon class="st18" points="7453,556.3 7712.6,630.2 7782,386.2 			"/>
		</g>
		<g id="XMLID_59_">
			<polygon class="st18" points="6769.9,-238.2 6700.5,5.6 7029.2,-164.4 			"/>
		</g>
		<g id="XMLID_57_">
			<polygon class="st15" points="7029.2,-164.4 6700.5,5.6 6611.9,316.9 6690.1,339.2 7439.4,-47.6 			"/>
		</g>
		<g id="XMLID_48_">
			<polygon class="st15" points="7527.2,-22.7 6778.8,364.4 6972.4,419.5 7720.8,32.4 			"/>
		</g>
		<g id="XMLID_47_">
			<polygon class="st15" points="7823.5,240.4 7297.9,512.2 7357.4,529.1 7807.6,296.1 			"/>
		</g>
		<g id="XMLID_46_">
			<polygon class="st15" points="7790,358.1 7423.3,547.8 7453,556.3 7782,386.2 			"/>
		</g>
	</g>
	<g id="XMLID_34_">
		
			<rect x="6724.6" y="-213.5" transform="matrix(-0.9618 -0.2737 0.2737 -0.9618 14384.6592 1755.9042)" class="st14" width="1180.4" height="176"/>
	</g>
	<g>
		<g>
			<path class="st6" d="M8445.3,284.8c0,0,22.7-86.7,51.6-191.9c28.9-105.2-111.2-159.6-111.2-159.6l-117.3-31.4l-92.9-24.4
				c0,0-15.3-0.8-34.8,6.9l-166.6,585.3c14.7,24.3,34.3,33.9,34.3,33.9l34.9,8.9l174.7,46.7c0,0,148.1,22.8,176.1-82.6
				C8422,370.3,8445.3,284.8,8445.3,284.8z"/>
		</g>
		<g id="XMLID_33_">
			<path class="st14" d="M8183-71.2l78,20.4l0,0l98.4,26.3c0,0,117.4,46.2,92,138.1s-45.2,167.6-45.2,167.6s-20.5,74.7-45.2,167.6
				c-24.5,92.2-149,73.8-149,73.8l-146.5-39.2l0,0l-29.2-7.6c0,0-60.7-30.8-35.1-123.7c25.6-92.6,45.2-167.6,45.2-167.6
				s20.5-74.7,45.2-167.6C8115.1-74.4,8183-71.2,8183-71.2z"/>
		</g>
	</g>
	<g>
		<path class="st4" d="M7951.3-174.3l22.1-77.5c24.1-84.7-50.1-103.4-50.1-103.4l-100.5-28.6l-186.7-53.1l-469.4-133.6l-107.5-30.6
			l-100.3-28.5c0,0-73.1-22.6-97.1,61.5l-22.1,77.5L7951.3-174.3z"/>
	</g>
	<path class="st19" d="M7919.6-62.8l22.1-77.5c24.1-84.8-50.2-103.4-50.2-103.4L7791-272.3l-186.7-53.1L7134.9-459l-107.5-30.6
		l-100.3-28.5c0,0-73.1-22.6-97.1,61.5l-22.1,77.5L7919.6-62.8z"/>
	<g>
		<path class="st5" d="M7885.9,55.4l22.1-77.5c24.1-84.7-50.1-103.4-50.1-103.4l-100.5-28.6l-186.7-53.1l-469.4-133.6l-107.5-30.6
			L6893.5-400c0,0-73.1-22.6-97.1,61.5l-22.1,77.5L7885.9,55.4z"/>
	</g>
	<g id="XMLID_31_">
		<path class="st6" d="M4920.8-72.7l320.2-1119c13.8-48.5,63.5-76.8,111.1-63.2l1331.2,381.6c47.6,13.5,75,63.7,61.2,112.3
			L6424.3,358c-13.8,48.5-63.5,76.8-111.1,63.2L4982,39.5C4935.1,26.2,4907-24.2,4920.8-72.7z"/>
	</g>
	<g id="XMLID_21_">
		<polygon class="st9" points="5578.9,-997.2 5459.1,-1031.3 5558.2,-1379.3 6792.4,-1026.3 6771.9,-954.4 5657.4,-1273 		"/>
	</g>
	<g id="XMLID_20_">
		<path class="st10" d="M5658.6-1273.7L6772.3-955l-21.2,74.5l-862.3-246.2c-24.3,85.4-116.6,132.9-206,107.5l-13.6,47.8l-90.1-25.6
			L5658.6-1273.7z"/>
	</g>
	<g id="XMLID_15_">
		<path class="st9" d="M5887.2-1126.3l863,246.4l-54,189.7c-129-36-224.6-142-330.7-82.3l-697.2-199.2l13.6-47.8
			C5771.6-994.1,5864-1041.3,5887.2-1126.3z"/>
	</g>
	<g id="XMLID_14_" class="st11">
		<polygon class="st12" points="5510.1,-1209.3 6743.9,-857.9 6719.2,-773.6 5485.4,-1125.2 		"/>
	</g>
	<g id="XMLID_13_">
		<path class="st13" d="M4971.6-95.9L5272-1145.3c13-45.5,60.4-71.9,105.9-59l1272,363.8c45.5,13,71.9,60.4,59,105.9L6408.5,314.7
			c-13,45.5-60.4,71.9-105.9,59L5030.6,9.9C4985-3,4958.6-50.4,4971.6-95.9z"/>
	</g>
	<g id="XMLID_12_">
		<path class="st14" d="M5303-1144L4998.8-81.4c-11.8,41.6,10.6,84.3,49.9,95.5l1246,356.4c0,0,59,21.8,70.4-18.1l0,0
			c10.3-9.9,18.2-22.7,22.3-36.8L6691.6-747c11.8-41.6-10.6-84.3-49.9-95.5l-1246-356.4C5355.7-1210.3,5314.1-1185.8,5303-1144z"/>
	</g>
	<g id="XMLID_11_">
		<path class="st13" d="M5033.6-78.3l300.1-1048.4c13-45.5,60.4-71.9,105.9-59l1271.1,364.3c45.5,13,71.9,60.4,59,105.9
			L6469.3,332.8c-13,45.5-60.4,71.9-105.9,59L5092.3,27.5C5047.7,14.8,5020.6-32.8,5033.6-78.3z"/>
	</g>
	<g id="XMLID_10_">
		
			<rect x="5199.3" y="-1049.3" transform="matrix(-0.9618 -0.2737 0.2737 -0.9618 11334.8086 681.5056)" class="st14" width="1031.4" height="1198.7"/>
	</g>
	<g>
		<g id="XMLID_9_">
			<path class="st5" d="M5377.3-1068.4l-28.5,100.3l-53.1,186.7l0,0L5162-311.7l0,0l-30.5,107.2L5103-104.2c0,0-22.6,73.1,61.5,97.1
				l98.9,28.1l316,89.9l90.1,25.6c2.3,0.7,5.6,1.6,7.9,2.2c83.8,23.9,103.4-50.1,103.4-50.1l28.4-100.3l30.6-107.5l0,0l133.6-469.4
				l0,0l53.1-186.7l28.5-100.3c0,0,22.6-73.1-61.5-97.1c-3.3-0.9-5.6-1.6-7.9-2.2l-90.1-25.6l-316.2-90l-98.9-28.1
				C5396-1142.9,5377.3-1068.4,5377.3-1068.4z"/>
		</g>
		<g id="XMLID_8_">
			<path class="st19" d="M5580-1010.7l-28.5,100.3l-53.1,186.7l0,0L5364.7-254l0,0l-30.5,107.3l-28.6,100.2c0,0-22.6,73.1,61.5,97.1
				l98.9,28.1l315.7,89.9l90.1,25.6c2.3,0.7,5.6,1.6,7.9,2.2c83.8,23.9,103.4-50.1,103.4-50.1L6011.6,46l30.6-107.5l0,0l133.6-469.4
				l0,0l53.1-186.7l28.5-100.3c0,0,22.6-73.1-61.5-97.1c-3.3-0.9-5.6-1.6-7.9-2.2l-90.1-25.6l-316-89.9l-98.9-28.1
				C5598.7-1085.2,5580-1010.7,5580-1010.7z"/>
		</g>
		<g id="XMLID_5_">
			<path class="st20" d="M5538.8,99.6l98.9,28.1l316,89.9l90.1,25.6c2.3,0.7,4.6,1.3,7.9,2.2c83.8,23.9,103.4-50.1,103.4-50.1
				l28.6-100.5l53.1-186.5l0,0l133.7-469.7l0,0l30.6-107.5l28.5-100.3c0,0,22.6-73.1-61.5-97.1c-2.3-0.7-5.6-1.6-7.9-2.2l-90.1-25.6
				l-316-89.9l-98.9-28.1c-83.8-23.9-103.4,50.1-103.4,50.1l-28.5,100.3l-30.6,107.5l0,0L5559-284.5l0,0l-53.1,186.7L5477.4,2.3
				C5477.7,2.4,5454.1,75.5,5538.8,99.6z"/>
		</g>
		<g id="XMLID_4_">
			<path class="st4" d="M5900.2-919.6l-28.5,100.3l-53.2,186.6l0,0L5684.8-163l0,0l-30.5,107.5l-28.5,100.3c0,0-22.6,73.1,61.5,97.1
				l98.9,28.1l316,89.9l90.1,25.6c2.3,0.7,5.6,1.6,7.9,2.2c83.8,23.9,103.4-50.1,103.4-50.1l28.6-100.5l30.6-107.5l0,0l133.6-469.4
				l0,0l53.1-186.7l28.5-100.3c0,0,22.6-73.1-61.5-97.1c-3.3-0.9-5.6-1.6-7.9-2.2l-90.1-25.6l-316.2-90l-98.9-28.1
				C5918.6-994.2,5900.2-919.6,5900.2-919.6z"/>
		</g>
	</g>
	<g>
		
			<rect x="6189.9" y="-856.9" transform="matrix(-0.9618 -0.2737 0.2737 -0.9618 12603.1514 1260.6469)" class="st13" width="399.2" height="1216.1"/>
	</g>
</g>
<path class="st2" d="M5339.2-2629.7c1.3-1.8,2.6-3.5,4-5.2C5341.8-2633.2,5340.5-2631.5,5339.2-2629.7z"/>
<g class="st21">
	<path class="st5" d="M6399.8,1279.9l27.3-98.8l-43.1-11.9l6.3-22.8l115.4,31.9l-6.3,22.8l-43.1-11.9l-27.3,98.8L6399.8,1279.9z"/>
	<path class="st5" d="M6491.4,1301.2c-6.5-5.7-10.9-12.6-13.1-20.8c-2.2-8.1-1.9-17.2,0.8-27c2.7-9.9,7.1-17.8,12.9-23.6
		c5.9-5.8,13.1-9.5,21.5-11c8.5-1.5,17.9-0.8,28.4,2.1c10.5,2.9,19,7.2,25.5,12.8c6.5,5.6,10.8,12.4,12.8,20.4c2,8,1.7,17-1.1,27
		c-2.7,9.8-7.1,17.6-13.2,23.5c-6.1,5.9-13.4,9.6-21.9,11.2c-8.5,1.6-17.8,1-27.9-1.8C6506.2,1311.1,6497.9,1306.9,6491.4,1301.2z
		 M6551,1273.4c2.4-8.6,2.3-15.4-0.4-20.4c-2.6-5-7.5-8.4-14.6-10.4c-7.1-2-13.1-1.5-17.9,1.4c-4.8,2.9-8.4,8.6-10.7,17.1
		c-4.6,16.7,0.4,27.1,14.9,31.1C6536.9,1296.3,6546.4,1290,6551,1273.4z"/>
	<path class="st5" d="M6586.9,1328.4c-2.4-3.8-2.9-8.2-1.6-13.3s4.1-8.6,8.1-10.6c4-2,8.9-2.3,14.7-0.7c5.7,1.6,9.8,4.3,12.2,8.1
		c2.4,3.9,2.9,8.3,1.6,13.3c-1.4,4.9-4.1,8.4-8.2,10.5c-4.1,2.1-8.9,2.3-14.6,0.7C6593.3,1334.9,6589.3,1332.2,6586.9,1328.4z
		 M6603.5,1268.3c-2.4-3.8-2.9-8.2-1.6-13.3c1.4-5,4.1-8.6,8.1-10.6c4-2,8.9-2.3,14.7-0.7c5.7,1.6,9.8,4.3,12.2,8.1
		c2.4,3.9,2.9,8.3,1.6,13.3c-1.4,4.9-4.1,8.4-8.2,10.5c-4.1,2.1-8.9,2.3-14.6,0.7C6610,1274.8,6605.9,1272.1,6603.5,1268.3z"/>
</g>
<g class="st21">
	<path class="st6" d="M6721.3,1363.1c-6.6-6.7-10.8-15.3-12.5-25.8s-0.7-22.7,3.2-36.6c3.8-13.9,9.2-24.9,16-33.1s14.8-13.4,24-15.7
		s19.2-2,30.1,1c11,3,19.8,7.9,26.4,14.6c6.7,6.7,10.9,15.3,12.6,25.8c1.7,10.5,0.7,22.7-3.2,36.6c-3.8,13.9-9.2,24.9-16.1,33
		c-6.9,8.1-14.9,13.3-24.1,15.7c-9.2,2.4-19.3,2-30.2-1C6736.7,1374.7,6727.9,1369.8,6721.3,1363.1z M6768.5,1354.4
		c4.3-1.4,8.2-4.7,11.7-9.9c3.5-5.2,6.6-12.6,9.3-22.2c2.7-9.7,3.8-17.7,3.5-23.9c-0.4-6.3-2-11.1-4.9-14.5c-2.9-3.4-7-5.9-12.3-7.3
		c-5.3-1.5-10.1-1.5-14.4,0c-4.3,1.4-8.2,4.7-11.7,9.9c-3.5,5.2-6.6,12.6-9.3,22.2c-2.7,9.7-3.8,17.7-3.5,23.9s2,11.1,4.9,14.5
		c2.9,3.4,7.1,5.9,12.4,7.4C6759.5,1355.8,6764.3,1355.8,6768.5,1354.4z"/>
	<path class="st6" d="M6889.3,1366.1l23.2,55.6l-31.6-8.8l-13.3-32.7l-28.5,21.1l-30.9-8.5l48.2-35.4l-22.6-54.3l31.6,8.8l13.1,31.5
		l27-20.4l30.8,8.5L6889.3,1366.1z"/>
	<path class="st6" d="M7015.9,1392.8c3.1,6,3.5,13,1.3,20.8c-3.2,11.4-9.9,19-20.3,22.9c-10.4,3.9-24.7,3.3-43-1.8
		c-12.9-3.6-24.7-8.5-35.5-14.9l5.7-20.7c5.1,3,10.6,5.8,16.4,8.4c5.9,2.6,11.7,4.7,17.6,6.3c9.7,2.7,17.2,3.2,22.4,1.6
		c5.2-1.6,8.6-5.3,10.2-10.9c1.5-5.3,0.6-9.8-2.7-13.6s-9.6-6.9-18.9-9.5l-22.4-6.2l5.7-20.6l16.8,4.6c9.3,2.6,16.3,3.1,21.2,1.8
		c4.9-1.4,8-4.6,9.4-9.6c1.3-4.8,0.4-9.1-2.8-12.7c-3.2-3.7-8.7-6.6-16.7-8.8c-5.2-1.4-10.7-2.5-16.5-3.2
		c-5.8-0.7-11.3-0.9-16.5-0.6l5.7-20.7c4.9-0.2,10.6,0.2,17.1,1c6.5,0.8,12.6,2.1,18.4,3.7c16.2,4.5,27.5,10.7,34.1,18.8
		c6.6,8,8.4,17.4,5.5,28.1c-1.8,6.5-5.2,11.6-10.2,15.3c-5,3.7-11,5.6-18.1,5.8C7007.5,1381.9,7012.8,1386.8,7015.9,1392.8z"/>
	<path class="st6" d="M7094.3,1340.6l19.6,5.4l-33.8,122l-29.2-8.1l24.3-87.9l-41.9,15.4l7.5-27.2L7094.3,1340.6z"/>
	<path class="st6" d="M7192,1404.8c6.1,4.4,9.9,9.9,11.6,16.7c1.7,6.7,1.1,15.1-1.7,25.2l-14.2,51.2l-23.6-6.5l0.5-9l-1.4-0.4
		c-4.1,2.4-8.7,3.8-14,4.2c-5.2,0.4-10.6-0.1-16.1-1.7c-7.1-2-12.9-4.8-17.2-8.4c-4.4-3.6-7.3-7.7-8.7-12.4c-1.4-4.6-1.4-9.5,0-14.7
		c2.3-8.5,7.5-14.1,15.5-17c8-2.8,19.2-2.7,33.8,0.3l18.4,3.6c1.1-4.3,1.1-7.9,0.2-10.7c-0.9-2.8-2.9-5.3-6-7.2
		c-3.1-2-7.5-3.8-13.3-5.4c-4.1-1.1-8.8-2.1-13.9-2.7c-5.2-0.7-10.1-1-14.9-0.9l5.6-20.2c5.3-0.1,10.9,0.3,16.9,1.2
		c6,0.9,11.6,2.1,16.9,3.5C7177.4,1396.6,7186,1400.4,7192,1404.8z M7156.7,1469.4c3.3-0.1,6.5-0.8,9.5-2l4.5-16.2l-15.8-3
		c-5.8-1.1-10.2-1.1-13.1,0c-2.9,1.1-4.8,3.2-5.7,6.4c-0.9,3.1-0.4,5.9,1.4,8.3c1.8,2.4,5,4.2,9.6,5.5
		C7150.2,1469.2,7153.4,1469.6,7156.7,1469.4z"/>
	<path class="st6" d="M7311.1,1406.2c6.8,6.4,11.1,14.6,13.1,24.4c1.9,9.9,1.1,21.2-2.4,34c-4,14.4-9.7,25.8-17.3,34.4
		c-7.6,8.6-16.8,14.2-27.8,16.7c-11,2.5-23.4,1.8-37.4-2c-5.8-1.6-10.9-3.4-15.4-5.3c-4.5-2-8.7-4.3-12.5-7.1l5.8-21.1
		c3.5,2.6,7.6,4.9,12.1,7c4.6,2.1,9.1,3.8,13.7,5c12.4,3.4,22.6,3,30.6-1.3c7.9-4.3,13.7-12.1,17.3-23.5c-4.4,1-9.3,1.3-14.7,1.1
		c-5.4-0.3-10.7-1.1-15.8-2.5c-13.5-3.7-23.2-9.7-29.1-18c-5.9-8.3-7.2-18.6-3.7-31.1c2.1-7.7,5.8-13.8,11-18.5
		c5.2-4.7,11.8-7.6,19.7-8.7c7.9-1.2,16.7-0.4,26.5,2.3C7295.5,1395,7304.4,1399.7,7311.1,1406.2z M7255.9,1438.5
		c3.1,4,8.3,7.1,15.7,9.1c3.9,1.1,7.9,1.7,12.2,1.9c4.2,0.2,8.3-0.2,12.2-1.1c2.5-10.8,2.2-19.1-0.7-24.8c-3-5.7-8.3-9.7-16-11.8
		c-6.5-1.8-11.9-1.7-16.4,0.2c-4.5,2-7.5,5.8-9.1,11.5C7252.1,1429.5,7252.8,1434.5,7255.9,1438.5z"/>
	<path class="st6" d="M7405.5,1484.2c7.6,5.3,12.6,11.2,14.9,17.5c2.3,6.3,2.4,13.3,0.3,21.1c-3.4,12.3-10.4,20.6-21.1,24.7
		c-10.7,4.1-25,3.7-43-1.3c-12.6-3.5-24.4-8.6-35.4-15.3l5.7-20.7c5.1,3,10.6,5.8,16.5,8.4c5.9,2.6,11.7,4.7,17.5,6.3
		c9.6,2.7,17.1,3.2,22.3,1.6c5.3-1.6,8.6-5.2,10.2-10.7c1-3.7,0.8-7.1-0.8-10c-1.5-3-4.9-5.9-10.2-8.9c-5.2-3-12.9-6.1-23-9.5
		l-19.8-6.5l23.1-65.4l75.9,21l-5.8,21l-50.3-13.9l-9.2,25.9C7387.3,1473.9,7397.9,1478.8,7405.5,1484.2z"/>
	<path class="st6" d="M7516.8,1564.3l-6.3,22.8l-90.2-25l4.1-15l51-31.4c7.5-4.6,13-8.6,16.4-12.1c3.4-3.5,5.7-7.1,6.7-10.9
		c1.5-5.6,0.8-10.2-2.3-13.9c-3.1-3.7-9-6.7-17.8-9.2c-5.5-1.5-11.3-2.6-17.2-3.2c-5.9-0.6-11.3-0.7-16.1-0.3l6.3-22.8
		c4.6-0.3,10.2,0,16.8,0.9c6.6,0.8,12.8,2,18.5,3.6c17.5,4.8,29.5,11.3,36.2,19.4s8.3,18.2,5,30.2c-1.8,6.7-5.1,12.7-9.9,17.9
		c-4.7,5.3-11.8,10.7-21.3,16.3l-31.1,18.5L7516.8,1564.3z"/>
	<path class="st6" d="M7545.2,1465.7l89.2,24.7l-4.1,15l-73.5,94.5l-29.7-8.2l70.1-87l-58.3-16.1L7545.2,1465.7z"/>
	<path class="st6" d="M7715.4,1574.7c5.9,8.3,7.2,18.6,3.7,31.1c-2.1,7.7-5.8,13.8-11,18.5c-5.2,4.7-11.8,7.6-19.7,8.7
		c-7.9,1.2-16.7,0.4-26.5-2.3c-10.8-3-19.7-7.7-26.4-14.2c-6.8-6.4-11.1-14.6-13.1-24.4c-1.9-9.9-1.1-21.2,2.4-34
		c4-14.4,9.7-25.8,17.3-34.4c7.6-8.6,16.8-14.2,27.8-16.7s23.4-1.8,37.4,2c5.8,1.6,10.9,3.4,15.4,5.3c4.5,2,8.7,4.3,12.5,7.1
		l-5.8,21.1c-3.5-2.6-7.6-4.9-12.1-7c-4.6-2.1-9.1-3.8-13.7-5c-12.4-3.4-22.6-3-30.6,1.3c-7.9,4.3-13.7,12.1-17.3,23.5
		c4.4-1,9.3-1.3,14.7-1.1c5.4,0.3,10.7,1.1,15.8,2.5C7699.7,1560.4,7709.4,1566.4,7715.4,1574.7z M7683.8,1610.6
		c4.5-2,7.5-5.8,9.1-11.5c1.7-6,0.9-11-2.2-15c-3.1-4-8.3-7.1-15.7-9.1c-3.9-1.1-7.9-1.7-12.2-1.9c-4.2-0.2-8.3,0.2-12.2,1.1
		c-2.5,10.8-2.2,19.1,0.7,24.8c3,5.7,8.3,9.7,16,11.8C7673.8,1612.6,7679.3,1612.5,7683.8,1610.6z"/>
	<path class="st6" d="M7729,1644.3c-2.4-3.8-2.9-8.2-1.6-13.3c1.4-5,4.1-8.6,8.1-10.6c4-2,8.9-2.3,14.7-0.7
		c5.7,1.6,9.8,4.3,12.2,8.1c2.4,3.9,2.9,8.3,1.6,13.3c-1.4,4.9-4.1,8.4-8.2,10.5c-4.1,2.1-8.9,2.3-14.6,0.7
		C7735.5,1650.8,7731.4,1648.1,7729,1644.3z"/>
	<path class="st6" d="M7780.2,1658.5c-2.4-3.8-2.9-8.2-1.6-13.3c1.4-5,4.1-8.6,8.1-10.6c4-2,8.9-2.3,14.7-0.7
		c5.7,1.6,9.8,4.3,12.2,8.1c2.4,3.9,2.9,8.3,1.6,13.3c-1.4,4.9-4.1,8.4-8.2,10.5c-4.1,2.1-8.9,2.3-14.6,0.7
		C7786.7,1665,7782.6,1662.3,7780.2,1658.5z"/>
	<path class="st6" d="M7921.6,1676.3l-6.3,22.8l-90.2-25l4.1-15l51-31.4c7.5-4.6,13-8.6,16.4-12.1c3.4-3.5,5.7-7.1,6.7-10.9
		c1.5-5.6,0.8-10.2-2.3-13.9c-3.1-3.7-9-6.7-17.8-9.2c-5.5-1.5-11.3-2.6-17.2-3.2c-5.9-0.6-11.3-0.7-16.1-0.3l6.3-22.8
		c4.6-0.3,10.2,0,16.8,0.9c6.6,0.8,12.8,2,18.5,3.6c17.5,4.8,29.5,11.3,36.2,19.4c6.7,8.1,8.3,18.2,5,30.2
		c-1.8,6.7-5.1,12.7-9.9,17.9c-4.7,5.3-11.8,10.7-21.3,16.3l-31.1,18.5L7921.6,1676.3z"/>
	<path class="st6" d="M8044.4,1677.3c2.7,5.9,3,12.7,0.9,20.4c-2.2,7.8-6,13.7-11.6,17.9c-5.6,4.2-13.5,6.3-23.8,6.5
		s-23.4-1.9-39.3-6.3c-5.5-1.5-11.6-3.5-18.4-5.8c-6.8-2.4-13-4.7-18.7-7.1l32.4-117.2c6.8,0.3,14.2,1.1,22.2,2.3
		c8,1.3,15.6,2.9,22.8,4.9c19.3,5.3,32.6,12.1,39.9,20.3c7.3,8.2,9.3,18,6.2,29.3c-1.8,6.4-5.1,11.5-9.9,15.1
		c-4.8,3.7-10.5,5.5-17.2,5.5C8036.9,1666.8,8041.7,1671.5,8044.4,1677.3z M8002.9,1701.2c4.8,0,8.5-1,11-2.9
		c2.5-1.9,4.3-4.8,5.3-8.7c1.1-3.9,1.1-7.3,0.2-10.1c-0.9-2.9-3-5.3-6.2-7.5c-3.2-2.1-7.7-4-13.5-5.6l-23.5-6.5l-9,32.5
		c4.7,1.9,10.2,3.8,16.8,5.6C7991.7,1700.1,7998,1701.2,8002.9,1701.2z M7989.7,1610.6l-8,28.9l20.9,5.8c8,2.2,14.1,2.6,18.4,1.1
		c4.3-1.5,7.1-4.9,8.6-10.1c1-3.6,1-6.8,0-9.5c-1-2.7-3.2-5.1-6.6-7.2c-3.4-2.1-8.2-4-14.3-5.7
		C8002.4,1612.2,7996.1,1611.1,7989.7,1610.6z"/>
	<path class="st6" d="M8143,1704.6c3.1,6,3.5,13,1.3,20.8c-3.2,11.4-9.9,19-20.3,22.9c-10.4,3.9-24.7,3.3-43-1.8
		c-12.9-3.6-24.7-8.5-35.5-14.9l5.7-20.7c5.1,3,10.5,5.8,16.4,8.4c5.9,2.6,11.7,4.7,17.6,6.3c9.7,2.7,17.2,3.2,22.4,1.6
		c5.2-1.6,8.6-5.3,10.2-10.9c1.5-5.3,0.6-9.8-2.7-13.6s-9.6-6.9-18.9-9.5l-22.4-6.2l5.7-20.6l16.8,4.6c9.3,2.6,16.3,3.1,21.2,1.8
		c4.9-1.4,8-4.6,9.4-9.6c1.3-4.8,0.4-9.1-2.8-12.7s-8.7-6.6-16.7-8.8c-5.2-1.4-10.7-2.5-16.5-3.2c-5.8-0.7-11.3-0.9-16.5-0.6
		l5.7-20.7c4.9-0.2,10.6,0.2,17.1,1c6.5,0.8,12.6,2.1,18.4,3.7c16.2,4.5,27.5,10.7,34.1,18.8c6.6,8,8.4,17.4,5.5,28.1
		c-1.8,6.5-5.2,11.6-10.2,15.3c-5,3.7-11,5.6-18.1,5.8C8134.6,1693.7,8140,1698.6,8143,1704.6z"/>
	<path class="st6" d="M8171.5,1639l89.2,24.7l-4.1,15l-73.5,94.5l-29.7-8.2l70.1-87l-58.3-16.1L8171.5,1639z"/>
</g>
<path class="st22" d="M4824.2-2453.8c-166.8-17.3-249.7,100.8-288.4,191.4l-34.1,119.7L3778.3,399.5l5639.5-1546.1L4824.2-2453.8z"
	/>
<path class="st23" d="M3521.2,1971.4l4638.5,1320.1c161.2,17.5,244.4-91.3,285-180.4l927.2-3258.2
	C7923.3,1771.2,4752,1753.5,3378.6,1645.3l-3.1,11C3360.6,1753.9,3369,1898.5,3521.2,1971.4z"/>
</svg>
